%TF.GenerationSoftware,KiCad,Pcbnew,10.0.6*%
%TF.CreationDate,2026-09-03T11:19:25+02:00*%
%TF.ProjectId,openrz67,6f70656e-727a-4363-972e-6b696361645f,rev?*%
%TF.SameCoordinates,Original*%
%TF.FileFunction,Legend,Top*%
%TF.FilePolarity,Positive*%
%FSLAX46Y46*%
G04 Gerber Fmt 4.6, Leading zero omitted, Abs format (unit mm)*
G04 Created by KiCad (PCBNEW 10.0.6) date 2026-09-03 11:19:25*
%MOMM*%
%LPD*%
G01*
G04 APERTURE LIST*
G04 Aperture macros list*
%AMRoundRect*
0 Rectangle with rounded corners*
0 $1 Rounding radius*
0 $2 $3 $4 $5 $6 $7 $8 $9 X,Y pos of 4 corners*
0 Add a 4 corners polygon primitive as box body*
4,1,4,$2,$3,$4,$5,$6,$7,$8,$9,$2,$3,0*
0 Add four circle primitives for the rounded corners*
1,1,$1+$1,$2,$3*
1,1,$1+$1,$4,$5*
1,1,$1+$1,$6,$7*
1,1,$1+$1,$8,$9*
0 Add four rect primitives between the rounded corners*
20,1,$1+$1,$2,$3,$4,$5,0*
20,1,$1+$1,$4,$5,$6,$7,0*
20,1,$1+$1,$6,$7,$8,$9,0*
20,1,$1+$1,$8,$9,$2,$3,0*%
G04 Aperture macros list end*
%ADD10C,0.100000*%
%ADD11C,0.190500*%
%ADD12C,0.152500*%
%ADD13C,0.254000*%
%ADD14C,0.300000*%
%ADD15C,0.150000*%
%ADD16C,0.200000*%
%ADD17C,0.152000*%
%ADD18C,0.000000*%
%ADD19RoundRect,0.051000X0.525000X0.850000X-0.525000X0.850000X-0.525000X-0.850000X0.525000X-0.850000X0*%
%ADD20RoundRect,0.051000X-0.395000X-0.270000X0.395000X-0.270000X0.395000X0.270000X-0.395000X0.270000X0*%
%ADD21RoundRect,0.051000X0.282750X0.270000X-0.282750X0.270000X-0.282750X-0.270000X0.282750X-0.270000X0*%
%ADD22RoundRect,0.051000X-0.270000X0.395000X-0.270000X-0.395000X0.270000X-0.395000X0.270000X0.395000X0*%
%ADD23RoundRect,0.051000X0.400000X0.450000X-0.400000X0.450000X-0.400000X-0.450000X0.400000X-0.450000X0*%
%ADD24RoundRect,0.051000X-0.850000X0.575000X-0.850000X-0.575000X0.850000X-0.575000X0.850000X0.575000X0*%
%ADD25RoundRect,0.051000X-0.450000X0.400000X-0.450000X-0.400000X0.450000X-0.400000X0.450000X0.400000X0*%
%ADD26RoundRect,0.051000X-0.270000X0.282750X-0.270000X-0.282750X0.270000X-0.282750X0.270000X0.282750X0*%
%ADD27RoundRect,0.051000X-0.400000X-0.450000X0.400000X-0.450000X0.400000X0.450000X-0.400000X0.450000X0*%
%ADD28RoundRect,0.051000X-0.400000X-0.400000X0.400000X-0.400000X0.400000X0.400000X-0.400000X0.400000X0*%
%ADD29RoundRect,0.051000X0.270000X-0.282750X0.270000X0.282750X-0.270000X0.282750X-0.270000X-0.282750X0*%
%ADD30RoundRect,0.051000X0.245000X0.578500X-0.245000X0.578500X-0.245000X-0.578500X0.245000X-0.578500X0*%
%ADD31RoundRect,0.051000X0.245000X0.587500X-0.245000X0.587500X-0.245000X-0.587500X0.245000X-0.587500X0*%
%ADD32RoundRect,0.051000X-0.282750X-0.270000X0.282750X-0.270000X0.282750X0.270000X-0.282750X0.270000X0*%
%ADD33RoundRect,0.051000X0.450000X-0.400000X0.450000X0.400000X-0.450000X0.400000X-0.450000X-0.400000X0*%
%ADD34RoundRect,0.051000X0.525000X-0.500000X0.525000X0.500000X-0.525000X0.500000X-0.525000X-0.500000X0*%
%ADD35RoundRect,0.051000X1.100000X-0.525000X1.100000X0.525000X-1.100000X0.525000X-1.100000X-0.525000X0*%
%ADD36RoundRect,0.051000X-0.403250X-0.432000X0.403250X-0.432000X0.403250X0.432000X-0.403250X0.432000X0*%
%ADD37RoundRect,0.051000X-0.550000X-0.400000X0.550000X-0.400000X0.550000X0.400000X-0.550000X0.400000X0*%
%ADD38RoundRect,0.051000X-1.700000X1.000000X-1.700000X-1.000000X1.700000X-1.000000X1.700000X1.000000X0*%
%ADD39C,1.702000*%
%ADD40RoundRect,0.051000X0.522500X0.266000X-0.522500X0.266000X-0.522500X-0.266000X0.522500X-0.266000X0*%
%ADD41C,3.102000*%
%ADD42RoundRect,0.051000X0.850000X-0.575000X0.850000X0.575000X-0.850000X0.575000X-0.850000X-0.575000X0*%
%ADD43RoundRect,0.051000X-0.800000X-0.800000X0.800000X-0.800000X0.800000X0.800000X-0.800000X0.800000X0*%
%ADD44RoundRect,0.051000X-0.850000X0.400000X-0.850000X-0.400000X0.850000X-0.400000X0.850000X0.400000X0*%
%ADD45RoundRect,0.051000X0.395000X0.270000X-0.395000X0.270000X-0.395000X-0.270000X0.395000X-0.270000X0*%
%ADD46O,0.382000X1.002000*%
%ADD47O,1.002000X0.382000*%
%ADD48RoundRect,0.051000X-1.850000X-1.850000X1.850000X-1.850000X1.850000X1.850000X-1.850000X1.850000X0*%
%ADD49RoundRect,0.051000X-0.180000X0.300000X-0.180000X-0.300000X0.180000X-0.300000X0.180000X0.300000X0*%
%ADD50RoundRect,0.051000X0.270000X-0.395000X0.270000X0.395000X-0.270000X0.395000X-0.270000X-0.395000X0*%
%ADD51RoundRect,0.051000X-0.550000X0.275000X-0.550000X-0.275000X0.550000X-0.275000X0.550000X0.275000X0*%
%ADD52RoundRect,0.051000X-0.550000X0.150000X-0.550000X-0.150000X0.550000X-0.150000X0.550000X0.150000X0*%
%ADD53O,2.102000X1.202000*%
%ADD54O,1.902000X1.302000*%
%ADD55RoundRect,0.051000X-0.650000X-0.300000X0.650000X-0.300000X0.650000X0.300000X-0.650000X0.300000X0*%
%ADD56RoundRect,0.051000X-1.200000X-1.650000X1.200000X-1.650000X1.200000X1.650000X-1.200000X1.650000X0*%
%ADD57RoundRect,0.051000X0.850000X-0.400000X0.850000X0.400000X-0.850000X0.400000X-0.850000X-0.400000X0*%
%ADD58RoundRect,0.051000X-0.432000X0.403250X-0.432000X-0.403250X0.432000X-0.403250X0.432000X0.403250X0*%
%ADD59RoundRect,0.051000X0.180000X-0.300000X0.180000X0.300000X-0.180000X0.300000X-0.180000X-0.300000X0*%
G04 APERTURE END LIST*
D10*
X143651503Y-95971704D02*
X143722931Y-95995514D01*
X143722931Y-95995514D02*
X143746741Y-96019323D01*
X143746741Y-96019323D02*
X143770550Y-96066942D01*
X143770550Y-96066942D02*
X143770550Y-96138371D01*
X143770550Y-96138371D02*
X143746741Y-96185990D01*
X143746741Y-96185990D02*
X143722931Y-96209800D01*
X143722931Y-96209800D02*
X143675312Y-96233609D01*
X143675312Y-96233609D02*
X143484836Y-96233609D01*
X143484836Y-96233609D02*
X143484836Y-95733609D01*
X143484836Y-95733609D02*
X143651503Y-95733609D01*
X143651503Y-95733609D02*
X143699122Y-95757419D01*
X143699122Y-95757419D02*
X143722931Y-95781228D01*
X143722931Y-95781228D02*
X143746741Y-95828847D01*
X143746741Y-95828847D02*
X143746741Y-95876466D01*
X143746741Y-95876466D02*
X143722931Y-95924085D01*
X143722931Y-95924085D02*
X143699122Y-95947895D01*
X143699122Y-95947895D02*
X143651503Y-95971704D01*
X143651503Y-95971704D02*
X143484836Y-95971704D01*
X144080074Y-95733609D02*
X144175312Y-95733609D01*
X144175312Y-95733609D02*
X144222931Y-95757419D01*
X144222931Y-95757419D02*
X144270550Y-95805038D01*
X144270550Y-95805038D02*
X144294360Y-95900276D01*
X144294360Y-95900276D02*
X144294360Y-96066942D01*
X144294360Y-96066942D02*
X144270550Y-96162180D01*
X144270550Y-96162180D02*
X144222931Y-96209800D01*
X144222931Y-96209800D02*
X144175312Y-96233609D01*
X144175312Y-96233609D02*
X144080074Y-96233609D01*
X144080074Y-96233609D02*
X144032455Y-96209800D01*
X144032455Y-96209800D02*
X143984836Y-96162180D01*
X143984836Y-96162180D02*
X143961027Y-96066942D01*
X143961027Y-96066942D02*
X143961027Y-95900276D01*
X143961027Y-95900276D02*
X143984836Y-95805038D01*
X143984836Y-95805038D02*
X144032455Y-95757419D01*
X144032455Y-95757419D02*
X144080074Y-95733609D01*
X144603884Y-95733609D02*
X144699122Y-95733609D01*
X144699122Y-95733609D02*
X144746741Y-95757419D01*
X144746741Y-95757419D02*
X144794360Y-95805038D01*
X144794360Y-95805038D02*
X144818170Y-95900276D01*
X144818170Y-95900276D02*
X144818170Y-96066942D01*
X144818170Y-96066942D02*
X144794360Y-96162180D01*
X144794360Y-96162180D02*
X144746741Y-96209800D01*
X144746741Y-96209800D02*
X144699122Y-96233609D01*
X144699122Y-96233609D02*
X144603884Y-96233609D01*
X144603884Y-96233609D02*
X144556265Y-96209800D01*
X144556265Y-96209800D02*
X144508646Y-96162180D01*
X144508646Y-96162180D02*
X144484837Y-96066942D01*
X144484837Y-96066942D02*
X144484837Y-95900276D01*
X144484837Y-95900276D02*
X144508646Y-95805038D01*
X144508646Y-95805038D02*
X144556265Y-95757419D01*
X144556265Y-95757419D02*
X144603884Y-95733609D01*
X144961028Y-95733609D02*
X145246742Y-95733609D01*
X145103885Y-96233609D02*
X145103885Y-95733609D01*
X145794360Y-95971704D02*
X145961027Y-95971704D01*
X146032455Y-96233609D02*
X145794360Y-96233609D01*
X145794360Y-96233609D02*
X145794360Y-95733609D01*
X145794360Y-95733609D02*
X146032455Y-95733609D01*
X146246741Y-96233609D02*
X146246741Y-95733609D01*
X146246741Y-95733609D02*
X146532455Y-96233609D01*
X146532455Y-96233609D02*
X146532455Y-95733609D01*
D11*
X123660756Y-98445131D02*
X124241328Y-98445131D01*
%TO.C,X2*%
D12*
X142531000Y-109398000D02*
X146588000Y-109398000D01*
X142531000Y-111555000D02*
X142531000Y-109398000D01*
X146588000Y-109398000D02*
X146588000Y-111555000D01*
X146588000Y-111555000D02*
X142531000Y-111555000D01*
%TO.C,K2*%
D13*
X153458000Y-90606500D02*
X153458000Y-91114500D01*
X153458000Y-92692500D02*
X153458000Y-94280500D01*
X153458000Y-95892500D02*
X153458000Y-96480500D01*
X153458000Y-98092500D02*
X153458000Y-98680500D01*
X153458000Y-100292500D02*
X153458000Y-100766500D01*
X153458000Y-100766500D02*
X159935000Y-100766500D01*
X153585000Y-90606500D02*
X153458000Y-90606500D01*
X158665000Y-95178500D02*
X159296500Y-95178500D01*
X159808000Y-96194500D02*
X158665000Y-96194500D01*
X159935000Y-90606500D02*
X153585000Y-90606500D01*
X159935000Y-91080500D02*
X159935000Y-90606500D01*
X159935000Y-94280500D02*
X159935000Y-92692500D01*
X159935000Y-96480500D02*
X159935000Y-95892500D01*
X159935000Y-98680500D02*
X159935000Y-98092500D01*
X159935000Y-100766500D02*
X159935000Y-100292500D01*
X158157000Y-95686500D02*
G75*
G02*
X158665000Y-95178500I508000J0D01*
G01*
X158665000Y-96194500D02*
G75*
G02*
X158157000Y-95686500I1J508001D01*
G01*
D14*
X153100000Y-90725500D02*
G75*
G02*
X152800000Y-90725500I-150000J0D01*
G01*
X152800000Y-90725500D02*
G75*
G02*
X153100000Y-90725500I150000J0D01*
G01*
X154624000Y-91114500D02*
G75*
G02*
X154324000Y-91114500I-150000J0D01*
G01*
X154324000Y-91114500D02*
G75*
G02*
X154624000Y-91114500I150000J0D01*
G01*
%TO.C,D4*%
D15*
X143478000Y-91674500D02*
X143478000Y-90624500D01*
X143480500Y-92054500D02*
X143480500Y-93204500D01*
X143778000Y-90324500D02*
X143478000Y-90624500D01*
X143878000Y-90324500D02*
X143778000Y-90324500D01*
X143900500Y-92024500D02*
X144230500Y-91694500D01*
X143900500Y-92034500D02*
X143900500Y-92024500D01*
X144230500Y-92034500D02*
X144230500Y-91694500D01*
X144570500Y-92034500D02*
X144230500Y-91694500D01*
X144578000Y-90324500D02*
X143878000Y-90324500D01*
X144578000Y-90324500D02*
X144678500Y-90324500D01*
X144580500Y-92034500D02*
X143900500Y-92034500D01*
X144580500Y-92034500D02*
X144570500Y-92034500D01*
X144678500Y-90324500D02*
X144978500Y-90624500D01*
X144978500Y-91674500D02*
X144978500Y-90624500D01*
X144980500Y-92054500D02*
X144980500Y-93204500D01*
X144980500Y-93204500D02*
X143500500Y-93204500D01*
%TO.C,LDO1*%
D12*
X147535000Y-103949000D02*
X147535000Y-105651000D01*
X148584500Y-105651000D02*
X149537500Y-105651000D01*
X150587000Y-103949000D02*
X150587000Y-105651000D01*
D14*
X150862000Y-103657000D02*
G75*
G02*
X150562000Y-103657000I-150000J0D01*
G01*
X150562000Y-103657000D02*
G75*
G02*
X150862000Y-103657000I150000J0D01*
G01*
%TO.C,A1*%
D13*
X126688000Y-109334500D02*
X126938000Y-109334500D01*
X126688000Y-109984500D02*
X126688000Y-109334500D01*
X126938000Y-108334500D02*
X126944500Y-108334500D01*
X126938000Y-109334500D02*
X126938000Y-108334500D01*
X126938000Y-109984500D02*
X126688000Y-109984500D01*
X126938000Y-110934500D02*
X126938000Y-109984500D01*
X126944500Y-110934500D02*
X126938000Y-110934500D01*
X129607000Y-110904500D02*
X129672500Y-110904500D01*
X129672500Y-108364500D02*
X129607000Y-108364500D01*
X129672500Y-108903500D02*
X129672500Y-108364500D01*
X129672500Y-110904500D02*
X129672500Y-110365500D01*
%TO.C,X1*%
D12*
X130951500Y-105946500D02*
X130951500Y-107404500D01*
X130951500Y-107404500D02*
X132208500Y-107404500D01*
X131144500Y-104519000D02*
X134403500Y-104519000D01*
X131144500Y-107176000D02*
X131144500Y-104519000D01*
X131238500Y-107176000D02*
X131144500Y-107176000D01*
X134403500Y-104519000D02*
X134403500Y-107176000D01*
X134403500Y-107176000D02*
X131238500Y-107176000D01*
%TO.C,L3*%
D13*
X127151000Y-101565500D02*
X127151000Y-94165500D01*
X128620000Y-94165000D02*
X127151000Y-94165000D01*
X128620000Y-101565000D02*
X127151000Y-101565000D01*
X133091000Y-95071000D02*
X133091000Y-94309000D01*
X133853000Y-95071000D02*
X133091000Y-95071000D01*
X133951000Y-94165000D02*
X132482000Y-94165000D01*
X133951000Y-94165000D02*
X133951000Y-101565000D01*
X133951000Y-101565000D02*
X132482000Y-101565000D01*
X131694000Y-97865500D02*
G75*
G02*
X129408000Y-97865500I-1143000J0D01*
G01*
X129408000Y-97865500D02*
G75*
G02*
X131694000Y-97865500I1143000J0D01*
G01*
%TO.C,BAT1*%
X120475000Y-91810500D02*
X124975000Y-91810500D01*
X120475000Y-97810500D02*
X120475000Y-91810500D01*
X121116000Y-92270500D02*
X123021000Y-92270500D01*
X121116000Y-97223500D02*
X121116000Y-92270500D01*
X123021000Y-92270500D02*
X123021000Y-91889500D01*
X123021000Y-97223500D02*
X121116000Y-97223500D01*
X123021000Y-97731500D02*
X123021000Y-97223500D01*
X123656000Y-91810500D02*
X123656000Y-92318500D01*
X123656000Y-92318500D02*
X124418000Y-92318500D01*
X123656000Y-97223500D02*
X124418000Y-97223500D01*
X123656000Y-97731500D02*
X123656000Y-97223500D01*
X124418000Y-92318500D02*
X124418000Y-94477500D01*
X124418000Y-94477500D02*
X124926000Y-94477500D01*
X124418000Y-95064500D02*
X124926000Y-95064500D01*
X124418000Y-97223500D02*
X124418000Y-95064500D01*
X124975000Y-91810500D02*
X124975000Y-97810500D01*
X124975000Y-97810500D02*
X120475000Y-97810500D01*
%TO.C,S3*%
X145713500Y-90340000D02*
X151713500Y-90340000D01*
X145713500Y-91659000D02*
X146221500Y-91659000D01*
X145713500Y-94840000D02*
X145713500Y-90340000D01*
X146173500Y-92294000D02*
X145792500Y-92294000D01*
X146173500Y-94199000D02*
X146173500Y-92294000D01*
X146221500Y-90897000D02*
X148380500Y-90897000D01*
X146221500Y-91659000D02*
X146221500Y-90897000D01*
X148380500Y-90897000D02*
X148380500Y-90389000D01*
X148967500Y-90897000D02*
X148967500Y-90389000D01*
X151126500Y-90897000D02*
X148967500Y-90897000D01*
X151126500Y-91659000D02*
X151126500Y-90897000D01*
X151126500Y-92294000D02*
X151126500Y-94199000D01*
X151126500Y-94199000D02*
X146173500Y-94199000D01*
X151634500Y-91659000D02*
X151126500Y-91659000D01*
X151634500Y-92294000D02*
X151126500Y-92294000D01*
X151713500Y-90340000D02*
X151713500Y-94840000D01*
X151713500Y-94840000D02*
X145713500Y-94840000D01*
%TO.C,Q1*%
D12*
X149507000Y-108593500D02*
X151309000Y-108593500D01*
X149507000Y-110575000D02*
X149507000Y-109664000D01*
X149507000Y-111645500D02*
X151309000Y-111645500D01*
X151309000Y-108593500D02*
X151309000Y-109625000D01*
X151309000Y-111645500D02*
X151309000Y-110614000D01*
%TO.C,K1*%
D13*
X153486500Y-101161500D02*
X153486500Y-101635500D01*
X153486500Y-103247500D02*
X153486500Y-103835500D01*
X153486500Y-105447500D02*
X153486500Y-106035500D01*
X153486500Y-107647500D02*
X153486500Y-109235500D01*
X153486500Y-110847500D02*
X153486500Y-111321500D01*
X153486500Y-111321500D02*
X159836500Y-111321500D01*
X153613500Y-105733500D02*
X154756500Y-105733500D01*
X154756500Y-106749500D02*
X154125000Y-106749500D01*
X159836500Y-111321500D02*
X159963500Y-111321500D01*
X159963500Y-101161500D02*
X153486500Y-101161500D01*
X159963500Y-101635500D02*
X159963500Y-101161500D01*
X159963500Y-103835500D02*
X159963500Y-103247500D01*
X159963500Y-106035500D02*
X159963500Y-105447500D01*
X159963500Y-109235500D02*
X159963500Y-107647500D01*
X159963500Y-111321500D02*
X159963500Y-110813500D01*
X154756500Y-105733500D02*
G75*
G02*
X155264500Y-106241500I-1J-508001D01*
G01*
X155264500Y-106241500D02*
G75*
G02*
X154756500Y-106749500I-508000J0D01*
G01*
D14*
X159097500Y-110813500D02*
G75*
G02*
X158797500Y-110813500I-150000J0D01*
G01*
X158797500Y-110813500D02*
G75*
G02*
X159097500Y-110813500I150000J0D01*
G01*
X160621500Y-111202500D02*
G75*
G02*
X160321500Y-111202500I-150000J0D01*
G01*
X160321500Y-111202500D02*
G75*
G02*
X160621500Y-111202500I150000J0D01*
G01*
%TO.C,S2*%
D13*
X144261500Y-97114500D02*
X144261500Y-100114500D01*
X144261500Y-97114500D02*
X144424500Y-97114500D01*
X144261500Y-100114500D02*
X144261500Y-97114500D01*
X144430500Y-100114500D02*
X144261500Y-100114500D01*
X146592500Y-97114500D02*
X146761500Y-97114500D01*
X146761500Y-97114500D02*
X146761500Y-100114500D01*
X146761500Y-97114500D02*
X146761500Y-100114500D01*
X146761500Y-100114500D02*
X146592500Y-100114500D01*
X146311500Y-98614500D02*
G75*
G02*
X144711500Y-98614500I-800000J0D01*
G01*
X144711500Y-98614500D02*
G75*
G02*
X146311500Y-98614500I800000J0D01*
G01*
%TO.C,U1*%
D16*
X138557000Y-101719500D02*
X138962000Y-101719500D01*
X138557000Y-102124500D02*
X138557000Y-101719500D01*
X138557000Y-107119500D02*
X138557000Y-106714500D01*
X138962000Y-107119500D02*
X138557000Y-107119500D01*
X143552000Y-107119500D02*
X143957000Y-107119500D01*
X143957000Y-101719500D02*
X143552000Y-101719500D01*
X143957000Y-102124500D02*
X143957000Y-101719500D01*
X143957000Y-107119500D02*
X143957000Y-106714500D01*
D14*
X138731500Y-107470000D02*
G75*
G02*
X138729000Y-107470000I-1250J-149999D01*
G01*
%TO.C,D2*%
D17*
X161789500Y-91677000D02*
X161789500Y-91915000D01*
D12*
X161789500Y-91915000D02*
X161789500Y-93267000D01*
D17*
X161902500Y-91677000D02*
X161789500Y-91677000D01*
X162741500Y-91676500D02*
X162621000Y-91676500D01*
X162741500Y-91915000D02*
X162741500Y-91676500D01*
D12*
X162741500Y-91915000D02*
X162741500Y-93267000D01*
D18*
G36*
X161933500Y-92031500D02*
G01*
X161713500Y-92031500D01*
X161713500Y-91726500D01*
X161933500Y-91726500D01*
X161933500Y-92031500D01*
G37*
G36*
X162818000Y-91991000D02*
G01*
X162598000Y-91991000D01*
X162598000Y-91686000D01*
X162818000Y-91686000D01*
X162818000Y-91991000D01*
G37*
%TO.C,U3*%
D13*
X135652000Y-92459500D02*
X135652000Y-92573500D01*
X135652000Y-93635500D02*
X135652000Y-93843500D01*
X135652000Y-94905500D02*
X135652000Y-95113500D01*
X135652000Y-96175500D02*
X135652000Y-96383500D01*
X135652000Y-97445500D02*
X135652000Y-97559500D01*
X136902000Y-92459500D02*
X135652000Y-92459500D01*
X138502000Y-92459500D02*
X139752000Y-92459500D01*
X139752000Y-92459500D02*
X139752000Y-92573500D01*
X139752000Y-93635500D02*
X139752000Y-93843500D01*
X139752000Y-94905500D02*
X139752000Y-95113500D01*
X139752000Y-96175500D02*
X139752000Y-96383500D01*
X139752000Y-97445500D02*
X139752000Y-97559500D01*
X139752000Y-97559500D02*
X135652000Y-97559500D01*
X138502000Y-92509500D02*
G75*
G02*
X136902000Y-92509500I-800000J375500D01*
G01*
X135372000Y-91979500D02*
G75*
G02*
X135032000Y-91979500I-170000J0D01*
G01*
X135032000Y-91979500D02*
G75*
G02*
X135372000Y-91979500I170000J0D01*
G01*
%TO.C,Q2*%
D12*
X149426500Y-97973500D02*
X151228500Y-97973500D01*
X149426500Y-99955000D02*
X149426500Y-99044000D01*
X149426500Y-101025500D02*
X151228500Y-101025500D01*
X151228500Y-97973500D02*
X151228500Y-99005000D01*
X151228500Y-101025500D02*
X151228500Y-99994000D01*
%TO.C,S1*%
D13*
X141461000Y-97119500D02*
X141630000Y-97119500D01*
X141461000Y-100119500D02*
X141461000Y-97119500D01*
X141461000Y-100119500D02*
X141461000Y-97119500D01*
X141630000Y-100119500D02*
X141461000Y-100119500D01*
X143792000Y-97119500D02*
X143961000Y-97119500D01*
X143961000Y-97119500D02*
X143961000Y-100119500D01*
X143961000Y-100119500D02*
X143798000Y-100119500D01*
X143961000Y-100119500D02*
X143961000Y-97119500D01*
X143511000Y-98619500D02*
G75*
G02*
X141911000Y-98619500I-800000J0D01*
G01*
X141911000Y-98619500D02*
G75*
G02*
X143511000Y-98619500I800000J0D01*
G01*
%TO.C,D1*%
D12*
X161739000Y-110031000D02*
X161739000Y-108679000D01*
D17*
X161739000Y-110031000D02*
X161739000Y-110269500D01*
X161739000Y-110269500D02*
X161859500Y-110269500D01*
X162578000Y-110269000D02*
X162691000Y-110269000D01*
D12*
X162691000Y-110031000D02*
X162691000Y-108679000D01*
D17*
X162691000Y-110269000D02*
X162691000Y-110031000D01*
D18*
G36*
X161882500Y-110260000D02*
G01*
X161662500Y-110260000D01*
X161662500Y-109955000D01*
X161882500Y-109955000D01*
X161882500Y-110260000D01*
G37*
G36*
X162767000Y-110219500D02*
G01*
X162547000Y-110219500D01*
X162547000Y-109914500D01*
X162767000Y-109914500D01*
X162767000Y-110219500D01*
G37*
%TO.C,D3*%
D15*
X141768500Y-91674500D02*
X141768500Y-90624500D01*
X141771000Y-92054500D02*
X141771000Y-93204500D01*
X142068500Y-90324500D02*
X141768500Y-90624500D01*
X142168500Y-90324500D02*
X142068500Y-90324500D01*
X142191000Y-92024500D02*
X142521000Y-91694500D01*
X142191000Y-92034500D02*
X142191000Y-92024500D01*
X142521000Y-92034500D02*
X142521000Y-91694500D01*
X142861000Y-92034500D02*
X142521000Y-91694500D01*
X142868500Y-90324500D02*
X142168500Y-90324500D01*
X142868500Y-90324500D02*
X142969000Y-90324500D01*
X142871000Y-92034500D02*
X142191000Y-92034500D01*
X142871000Y-92034500D02*
X142861000Y-92034500D01*
X142969000Y-90324500D02*
X143269000Y-90624500D01*
X143269000Y-91674500D02*
X143269000Y-90624500D01*
X143271000Y-92054500D02*
X143271000Y-93204500D01*
X143271000Y-93204500D02*
X141791000Y-93204500D01*
%TD*%
%LPC*%
D19*
%TO.C,X2*%
X145834500Y-110476500D03*
X143284500Y-110476500D03*
%TD*%
D20*
%TO.C,C4*%
X139240000Y-109910000D03*
X140330000Y-109910000D03*
%TD*%
D21*
%TO.C,R5*%
X128389500Y-103795500D03*
X127523500Y-103795500D03*
%TD*%
D22*
%TO.C,C7*%
X145663500Y-106018500D03*
X145663500Y-107108500D03*
%TD*%
D23*
%TO.C,C29*%
X146559500Y-104395000D03*
X145159500Y-104395000D03*
%TD*%
D24*
%TO.C,K2*%
X153142500Y-91886500D03*
X153142500Y-95086500D03*
X153142500Y-97286500D03*
X153142500Y-99486500D03*
X160377500Y-99486500D03*
X160377500Y-97286500D03*
X160377500Y-95086500D03*
X160377500Y-91886500D03*
%TD*%
D25*
%TO.C,C22*%
X126073000Y-92741000D03*
X126073000Y-94141000D03*
%TD*%
D26*
%TO.C,R17*%
X142140000Y-94518000D03*
X142140000Y-95384000D03*
%TD*%
D27*
%TO.C,C26*%
X148510000Y-107526000D03*
X149910000Y-107526000D03*
%TD*%
D28*
%TO.C,D4*%
X144220500Y-91014500D03*
X144227500Y-92613500D03*
%TD*%
D22*
%TO.C,C2*%
X134744500Y-109712500D03*
X134744500Y-110802500D03*
%TD*%
D29*
%TO.C,R14*%
X137459000Y-91744000D03*
X137459000Y-90878000D03*
%TD*%
D25*
%TO.C,C14*%
X147742500Y-95940500D03*
X147742500Y-97340500D03*
%TD*%
D30*
%TO.C,LDO1*%
X150011000Y-103646500D03*
X149061000Y-103646500D03*
X148111000Y-103646500D03*
D31*
X148111000Y-105953500D03*
X150011000Y-105953500D03*
%TD*%
D29*
%TO.C,R7*%
X147742000Y-99776000D03*
X147742000Y-98910000D03*
%TD*%
D32*
%TO.C,R20*%
X139611000Y-99175500D03*
X140477000Y-99175500D03*
%TD*%
D33*
%TO.C,C28*%
X149565500Y-96999000D03*
X149565500Y-95599000D03*
%TD*%
%TO.C,C21*%
X126072000Y-97287500D03*
X126072000Y-95887500D03*
%TD*%
D34*
%TO.C,A1*%
X129800500Y-109634500D03*
D35*
X128275500Y-111109500D03*
X128275500Y-108159500D03*
%TD*%
D26*
%TO.C,R8*%
X146939500Y-106006500D03*
X146939500Y-106872500D03*
%TD*%
D36*
%TO.C,R16*%
X139068500Y-91029500D03*
X140575500Y-91029500D03*
%TD*%
D37*
%TO.C,X1*%
X131967500Y-106422500D03*
X133567500Y-106422500D03*
X133567500Y-105272500D03*
X131967500Y-105272500D03*
%TD*%
D38*
%TO.C,L3*%
X130551000Y-95065000D03*
X130551000Y-100665000D03*
%TD*%
D39*
%TO.C,BAT1*%
X123275000Y-93810500D03*
X123275000Y-95810500D03*
%TD*%
%TO.C,S3*%
X147713500Y-92040000D03*
X149713500Y-92040000D03*
%TD*%
D20*
%TO.C,L1*%
X132330500Y-109709500D03*
X133420500Y-109709500D03*
%TD*%
D40*
%TO.C,Q1*%
X149260500Y-111069500D03*
X149260500Y-109169500D03*
X151555500Y-110119500D03*
%TD*%
D41*
%TO.C,H2*%
X166000000Y-92000000D03*
%TD*%
D25*
%TO.C,C24*%
X136891000Y-99206000D03*
X136891000Y-100606000D03*
%TD*%
D22*
%TO.C,C1*%
X131003000Y-109712500D03*
X131003000Y-110802500D03*
%TD*%
D42*
%TO.C,K1*%
X160279000Y-110041500D03*
X160279000Y-106841500D03*
X160279000Y-104641500D03*
X160279000Y-102441500D03*
X153044000Y-102441500D03*
X153044000Y-104641500D03*
X153044000Y-106841500D03*
X153044000Y-110041500D03*
%TD*%
D21*
%TO.C,R6*%
X140500500Y-100373500D03*
X139634500Y-100373500D03*
%TD*%
D32*
%TO.C,R13*%
X135123000Y-90874500D03*
X135989000Y-90874500D03*
%TD*%
D43*
%TO.C,U4*%
X164300500Y-104750000D03*
D39*
X164300500Y-102250000D03*
X164300500Y-99750000D03*
X164300500Y-97250000D03*
%TD*%
D20*
%TO.C,L2*%
X135487000Y-105402500D03*
X136577000Y-105402500D03*
%TD*%
D44*
%TO.C,S2*%
X145511500Y-96914500D03*
X145511500Y-100314500D03*
%TD*%
D45*
%TO.C,C5*%
X136496000Y-106611500D03*
X135406000Y-106611500D03*
%TD*%
D46*
%TO.C,U1*%
X139507000Y-106969500D03*
X140007000Y-106969500D03*
X140507000Y-106969500D03*
X141007000Y-106969500D03*
X141507000Y-106969500D03*
X142007000Y-106969500D03*
X142507000Y-106969500D03*
X143007000Y-106969500D03*
D47*
X143807000Y-106169500D03*
X143807000Y-105669500D03*
X143807000Y-105169500D03*
X143807000Y-104669500D03*
X143807000Y-104169500D03*
X143807000Y-103669500D03*
X143807000Y-103169500D03*
X143807000Y-102669500D03*
D46*
X143007000Y-101869500D03*
X142507000Y-101869500D03*
X142007000Y-101869500D03*
X141507000Y-101869500D03*
X141007000Y-101869500D03*
X140507000Y-101869500D03*
X140007000Y-101869500D03*
X139507000Y-101869500D03*
D47*
X138707000Y-102669500D03*
X138707000Y-103169500D03*
X138707000Y-103669500D03*
X138707000Y-104169500D03*
X138707000Y-104669500D03*
X138707000Y-105169500D03*
X138707000Y-105669500D03*
X138707000Y-106169500D03*
D48*
X141257000Y-104419500D03*
%TD*%
D49*
%TO.C,D2*%
X162265500Y-91941000D03*
X162265500Y-93241000D03*
%TD*%
D45*
%TO.C,C9*%
X132858500Y-103807000D03*
X131768500Y-103807000D03*
%TD*%
D21*
%TO.C,R4*%
X128389500Y-104967500D03*
X127523500Y-104967500D03*
%TD*%
D20*
%TO.C,C6*%
X145760000Y-102867000D03*
X146850000Y-102867000D03*
%TD*%
D50*
%TO.C,C31*%
X147420000Y-111042500D03*
X147420000Y-109952500D03*
%TD*%
D51*
%TO.C,USB1*%
X125982000Y-100059000D03*
X125982000Y-100859000D03*
D52*
X125982000Y-101509000D03*
X125982000Y-102009000D03*
X125982000Y-102509000D03*
X125982000Y-103009000D03*
X125982000Y-103509000D03*
X125982000Y-104009000D03*
X125982000Y-104509000D03*
X125982000Y-105009000D03*
D51*
X125982000Y-105659000D03*
X125982000Y-106459000D03*
D53*
X125432000Y-98934000D03*
D54*
X121232000Y-98934000D03*
D53*
X125432000Y-107584000D03*
D54*
X121232000Y-107584000D03*
%TD*%
D55*
%TO.C,U3*%
X135002000Y-93104500D03*
X135002000Y-94374500D03*
X135002000Y-95644500D03*
X135002000Y-96914500D03*
X140402000Y-96914500D03*
X140402000Y-95644500D03*
X140402000Y-94374500D03*
X140402000Y-93104500D03*
D56*
X137702000Y-95009500D03*
%TD*%
D40*
%TO.C,Q2*%
X149180000Y-100449500D03*
X149180000Y-98549500D03*
X151475000Y-99499500D03*
%TD*%
D50*
%TO.C,C30*%
X141764500Y-111061500D03*
X141764500Y-109971500D03*
%TD*%
D27*
%TO.C,C25*%
X148510000Y-102039500D03*
X149910000Y-102039500D03*
%TD*%
D25*
%TO.C,C20*%
X129779000Y-91586000D03*
X129779000Y-92986000D03*
%TD*%
%TO.C,C27*%
X164064500Y-109265000D03*
X164064500Y-110665000D03*
%TD*%
D57*
%TO.C,S1*%
X142711000Y-100319500D03*
X142711000Y-96919500D03*
%TD*%
D27*
%TO.C,C15*%
X135200500Y-108034000D03*
X136600500Y-108034000D03*
%TD*%
D32*
%TO.C,R9*%
X127523500Y-102553000D03*
X128389500Y-102553000D03*
%TD*%
D29*
%TO.C,R18*%
X143375000Y-95379000D03*
X143375000Y-94513000D03*
%TD*%
D32*
%TO.C,R10*%
X127523500Y-106141500D03*
X128389500Y-106141500D03*
%TD*%
D41*
%TO.C,H1*%
X122000000Y-110000000D03*
%TD*%
D58*
%TO.C,R12*%
X131436500Y-91479000D03*
X131436500Y-92986000D03*
%TD*%
D26*
%TO.C,R11*%
X132818500Y-91386000D03*
X132818500Y-92252000D03*
%TD*%
D59*
%TO.C,D1*%
X162215000Y-110005000D03*
X162215000Y-108705000D03*
%TD*%
D28*
%TO.C,D3*%
X142514500Y-91014500D03*
X142514500Y-92613500D03*
%TD*%
D25*
%TO.C,C23*%
X135113000Y-99206000D03*
X135113000Y-100606000D03*
%TD*%
D20*
%TO.C,C3*%
X139219000Y-111114500D03*
X140309000Y-111114500D03*
%TD*%
D45*
%TO.C,C8*%
X133536000Y-107987000D03*
X132446000Y-107987000D03*
%TD*%
%LPD*%
M02*
