%TF.GenerationSoftware,KiCad,Pcbnew,10.0.6*%
%TF.CreationDate,2026-09-03T10:57:33+02:00*%
%TF.ProjectId,openrz67,6f70656e-727a-4363-972e-6b696361645f,rev?*%
%TF.SameCoordinates,Original*%
%TF.FileFunction,Legend,Top*%
%TF.FilePolarity,Positive*%
%FSLAX46Y46*%
G04 Gerber Fmt 4.6, Leading zero omitted, Abs format (unit mm)*
G04 Created by KiCad (PCBNEW 10.0.6) date 2026-09-03 10:57:33*
%MOMM*%
%LPD*%
G01*
G04 APERTURE LIST*
G04 Aperture macros list*
%AMRoundRect*
0 Rectangle with rounded corners*
0 $1 Rounding radius*
0 $2 $3 $4 $5 $6 $7 $8 $9 X,Y pos of 4 corners*
0 Add a 4 corners polygon primitive as box body*
4,1,4,$2,$3,$4,$5,$6,$7,$8,$9,$2,$3,0*
0 Add four circle primitives for the rounded corners*
1,1,$1+$1,$2,$3*
1,1,$1+$1,$4,$5*
1,1,$1+$1,$6,$7*
1,1,$1+$1,$8,$9*
0 Add four rect primitives between the rounded corners*
20,1,$1+$1,$2,$3,$4,$5,0*
20,1,$1+$1,$4,$5,$6,$7,0*
20,1,$1+$1,$6,$7,$8,$9,0*
20,1,$1+$1,$8,$9,$2,$3,0*%
G04 Aperture macros list end*
%ADD10C,0.100000*%
%ADD11C,0.190500*%
%ADD12C,0.158750*%
%ADD13C,0.152500*%
%ADD14C,0.254000*%
%ADD15C,0.300000*%
%ADD16C,0.150000*%
%ADD17C,0.200000*%
%ADD18C,0.152000*%
%ADD19C,0.000000*%
%ADD20RoundRect,0.051000X0.525000X0.850000X-0.525000X0.850000X-0.525000X-0.850000X0.525000X-0.850000X0*%
%ADD21RoundRect,0.051000X-0.395000X-0.270000X0.395000X-0.270000X0.395000X0.270000X-0.395000X0.270000X0*%
%ADD22RoundRect,0.051000X0.282750X0.270000X-0.282750X0.270000X-0.282750X-0.270000X0.282750X-0.270000X0*%
%ADD23RoundRect,0.051000X-0.270000X0.395000X-0.270000X-0.395000X0.270000X-0.395000X0.270000X0.395000X0*%
%ADD24RoundRect,0.051000X0.400000X0.450000X-0.400000X0.450000X-0.400000X-0.450000X0.400000X-0.450000X0*%
%ADD25RoundRect,0.051000X-0.850000X0.575000X-0.850000X-0.575000X0.850000X-0.575000X0.850000X0.575000X0*%
%ADD26RoundRect,0.051000X-0.450000X0.400000X-0.450000X-0.400000X0.450000X-0.400000X0.450000X0.400000X0*%
%ADD27RoundRect,0.051000X-0.270000X0.282750X-0.270000X-0.282750X0.270000X-0.282750X0.270000X0.282750X0*%
%ADD28RoundRect,0.051000X-0.400000X-0.450000X0.400000X-0.450000X0.400000X0.450000X-0.400000X0.450000X0*%
%ADD29RoundRect,0.051000X-0.400000X-0.400000X0.400000X-0.400000X0.400000X0.400000X-0.400000X0.400000X0*%
%ADD30RoundRect,0.051000X0.270000X-0.282750X0.270000X0.282750X-0.270000X0.282750X-0.270000X-0.282750X0*%
%ADD31RoundRect,0.051000X0.245000X0.578500X-0.245000X0.578500X-0.245000X-0.578500X0.245000X-0.578500X0*%
%ADD32RoundRect,0.051000X0.245000X0.587500X-0.245000X0.587500X-0.245000X-0.587500X0.245000X-0.587500X0*%
%ADD33RoundRect,0.051000X-0.282750X-0.270000X0.282750X-0.270000X0.282750X0.270000X-0.282750X0.270000X0*%
%ADD34RoundRect,0.051000X0.450000X-0.400000X0.450000X0.400000X-0.450000X0.400000X-0.450000X-0.400000X0*%
%ADD35RoundRect,0.051000X0.525000X-0.500000X0.525000X0.500000X-0.525000X0.500000X-0.525000X-0.500000X0*%
%ADD36RoundRect,0.051000X1.100000X-0.525000X1.100000X0.525000X-1.100000X0.525000X-1.100000X-0.525000X0*%
%ADD37RoundRect,0.051000X-0.403250X-0.432000X0.403250X-0.432000X0.403250X0.432000X-0.403250X0.432000X0*%
%ADD38RoundRect,0.051000X-0.550000X-0.400000X0.550000X-0.400000X0.550000X0.400000X-0.550000X0.400000X0*%
%ADD39RoundRect,0.051000X-1.700000X1.000000X-1.700000X-1.000000X1.700000X-1.000000X1.700000X1.000000X0*%
%ADD40C,1.702000*%
%ADD41RoundRect,0.051000X0.522500X0.266000X-0.522500X0.266000X-0.522500X-0.266000X0.522500X-0.266000X0*%
%ADD42C,3.102000*%
%ADD43RoundRect,0.051000X0.850000X-0.575000X0.850000X0.575000X-0.850000X0.575000X-0.850000X-0.575000X0*%
%ADD44RoundRect,0.051000X-0.800000X-0.800000X0.800000X-0.800000X0.800000X0.800000X-0.800000X0.800000X0*%
%ADD45RoundRect,0.051000X-0.850000X0.400000X-0.850000X-0.400000X0.850000X-0.400000X0.850000X0.400000X0*%
%ADD46RoundRect,0.051000X0.395000X0.270000X-0.395000X0.270000X-0.395000X-0.270000X0.395000X-0.270000X0*%
%ADD47O,0.382000X1.002000*%
%ADD48O,1.002000X0.382000*%
%ADD49RoundRect,0.051000X-1.850000X-1.850000X1.850000X-1.850000X1.850000X1.850000X-1.850000X1.850000X0*%
%ADD50RoundRect,0.051000X-0.180000X0.300000X-0.180000X-0.300000X0.180000X-0.300000X0.180000X0.300000X0*%
%ADD51RoundRect,0.051000X0.270000X-0.395000X0.270000X0.395000X-0.270000X0.395000X-0.270000X-0.395000X0*%
%ADD52RoundRect,0.051000X-0.550000X0.275000X-0.550000X-0.275000X0.550000X-0.275000X0.550000X0.275000X0*%
%ADD53RoundRect,0.051000X-0.550000X0.150000X-0.550000X-0.150000X0.550000X-0.150000X0.550000X0.150000X0*%
%ADD54O,2.102000X1.202000*%
%ADD55O,1.902000X1.302000*%
%ADD56RoundRect,0.051000X-0.650000X-0.300000X0.650000X-0.300000X0.650000X0.300000X-0.650000X0.300000X0*%
%ADD57RoundRect,0.051000X-1.200000X-1.650000X1.200000X-1.650000X1.200000X1.650000X-1.200000X1.650000X0*%
%ADD58RoundRect,0.051000X0.850000X-0.400000X0.850000X0.400000X-0.850000X0.400000X-0.850000X-0.400000X0*%
%ADD59RoundRect,0.051000X-0.432000X0.403250X-0.432000X-0.403250X0.432000X-0.403250X0.432000X0.403250X0*%
%ADD60RoundRect,0.051000X0.180000X-0.300000X0.180000X0.300000X-0.180000X0.300000X-0.180000X-0.300000X0*%
G04 APERTURE END LIST*
D10*
X142241146Y-101312966D02*
X142326860Y-101346300D01*
X142326860Y-101346300D02*
X142355431Y-101379633D01*
X142355431Y-101379633D02*
X142384003Y-101446300D01*
X142384003Y-101446300D02*
X142384003Y-101546300D01*
X142384003Y-101546300D02*
X142355431Y-101612966D01*
X142355431Y-101612966D02*
X142326860Y-101646300D01*
X142326860Y-101646300D02*
X142269717Y-101679633D01*
X142269717Y-101679633D02*
X142041146Y-101679633D01*
X142041146Y-101679633D02*
X142041146Y-100979633D01*
X142041146Y-100979633D02*
X142241146Y-100979633D01*
X142241146Y-100979633D02*
X142298289Y-101012966D01*
X142298289Y-101012966D02*
X142326860Y-101046300D01*
X142326860Y-101046300D02*
X142355431Y-101112966D01*
X142355431Y-101112966D02*
X142355431Y-101179633D01*
X142355431Y-101179633D02*
X142326860Y-101246300D01*
X142326860Y-101246300D02*
X142298289Y-101279633D01*
X142298289Y-101279633D02*
X142241146Y-101312966D01*
X142241146Y-101312966D02*
X142041146Y-101312966D01*
X142755431Y-100979633D02*
X142869717Y-100979633D01*
X142869717Y-100979633D02*
X142926860Y-101012966D01*
X142926860Y-101012966D02*
X142984003Y-101079633D01*
X142984003Y-101079633D02*
X143012574Y-101212966D01*
X143012574Y-101212966D02*
X143012574Y-101446300D01*
X143012574Y-101446300D02*
X142984003Y-101579633D01*
X142984003Y-101579633D02*
X142926860Y-101646300D01*
X142926860Y-101646300D02*
X142869717Y-101679633D01*
X142869717Y-101679633D02*
X142755431Y-101679633D01*
X142755431Y-101679633D02*
X142698289Y-101646300D01*
X142698289Y-101646300D02*
X142641146Y-101579633D01*
X142641146Y-101579633D02*
X142612574Y-101446300D01*
X142612574Y-101446300D02*
X142612574Y-101212966D01*
X142612574Y-101212966D02*
X142641146Y-101079633D01*
X142641146Y-101079633D02*
X142698289Y-101012966D01*
X142698289Y-101012966D02*
X142755431Y-100979633D01*
X143384002Y-100979633D02*
X143498288Y-100979633D01*
X143498288Y-100979633D02*
X143555431Y-101012966D01*
X143555431Y-101012966D02*
X143612574Y-101079633D01*
X143612574Y-101079633D02*
X143641145Y-101212966D01*
X143641145Y-101212966D02*
X143641145Y-101446300D01*
X143641145Y-101446300D02*
X143612574Y-101579633D01*
X143612574Y-101579633D02*
X143555431Y-101646300D01*
X143555431Y-101646300D02*
X143498288Y-101679633D01*
X143498288Y-101679633D02*
X143384002Y-101679633D01*
X143384002Y-101679633D02*
X143326860Y-101646300D01*
X143326860Y-101646300D02*
X143269717Y-101579633D01*
X143269717Y-101579633D02*
X143241145Y-101446300D01*
X143241145Y-101446300D02*
X143241145Y-101212966D01*
X143241145Y-101212966D02*
X143269717Y-101079633D01*
X143269717Y-101079633D02*
X143326860Y-101012966D01*
X143326860Y-101012966D02*
X143384002Y-100979633D01*
X143812573Y-100979633D02*
X144155431Y-100979633D01*
X143984002Y-101679633D02*
X143984002Y-100979633D01*
X144812574Y-101312966D02*
X145012574Y-101312966D01*
X145098288Y-101679633D02*
X144812574Y-101679633D01*
X144812574Y-101679633D02*
X144812574Y-100979633D01*
X144812574Y-100979633D02*
X145098288Y-100979633D01*
X145355431Y-101679633D02*
X145355431Y-100979633D01*
X145355431Y-100979633D02*
X145698288Y-101679633D01*
X145698288Y-101679633D02*
X145698288Y-100979633D01*
D11*
X123660756Y-98445131D02*
X124241328Y-98445131D01*
D12*
X121032380Y-110579271D02*
X121032380Y-109309271D01*
X121032380Y-109914033D02*
X121758095Y-109914033D01*
X121758095Y-110579271D02*
X121758095Y-109309271D01*
X123028095Y-110579271D02*
X122302380Y-110579271D01*
X122665237Y-110579271D02*
X122665237Y-109309271D01*
X122665237Y-109309271D02*
X122544285Y-109490699D01*
X122544285Y-109490699D02*
X122423333Y-109611652D01*
X122423333Y-109611652D02*
X122302380Y-109672128D01*
X165032380Y-92579271D02*
X165032380Y-91309271D01*
X165032380Y-91914033D02*
X165758095Y-91914033D01*
X165758095Y-92579271D02*
X165758095Y-91309271D01*
X166302380Y-91430223D02*
X166362856Y-91369747D01*
X166362856Y-91369747D02*
X166483809Y-91309271D01*
X166483809Y-91309271D02*
X166786190Y-91309271D01*
X166786190Y-91309271D02*
X166907142Y-91369747D01*
X166907142Y-91369747D02*
X166967618Y-91430223D01*
X166967618Y-91430223D02*
X167028095Y-91551175D01*
X167028095Y-91551175D02*
X167028095Y-91672128D01*
X167028095Y-91672128D02*
X166967618Y-91853556D01*
X166967618Y-91853556D02*
X166241904Y-92579271D01*
X166241904Y-92579271D02*
X167028095Y-92579271D01*
%TO.C,X2*%
D13*
X142531000Y-109398000D02*
X146588000Y-109398000D01*
X142531000Y-111555000D02*
X142531000Y-109398000D01*
X146588000Y-109398000D02*
X146588000Y-111555000D01*
X146588000Y-111555000D02*
X142531000Y-111555000D01*
%TO.C,C4*%
X138616500Y-110256000D02*
X138616500Y-109564000D01*
X138768500Y-109411500D02*
X139559000Y-109411500D01*
X139559000Y-110408500D02*
X138768500Y-110408500D01*
X140011000Y-110408500D02*
X140801500Y-110408500D01*
X140801500Y-109411500D02*
X140011000Y-109411500D01*
X140953500Y-110256000D02*
X140953500Y-109564000D01*
X138616500Y-109564000D02*
G75*
G02*
X138768500Y-109411500I152858J-356D01*
G01*
X138768500Y-110408500D02*
G75*
G02*
X138616500Y-110256000I-353J151649D01*
G01*
X140801500Y-109411500D02*
G75*
G02*
X140953498Y-109564000I350J-151650D01*
G01*
X140953500Y-110256000D02*
G75*
G02*
X140801500Y-110408498I-152860J360D01*
G01*
%TO.C,R5*%
X127012500Y-103297000D02*
X127012500Y-104294000D01*
X127012500Y-104294000D02*
X127730500Y-104294000D01*
X127730500Y-103297000D02*
X127012500Y-103297000D01*
X128182500Y-103297000D02*
X128900500Y-103297000D01*
X128900500Y-103297000D02*
X128900500Y-104294000D01*
X128900500Y-104294000D02*
X128182500Y-104294000D01*
%TO.C,C7*%
X145165000Y-106337500D02*
X145165000Y-105547000D01*
X145165000Y-106789500D02*
X145165000Y-107580000D01*
X145317500Y-105395000D02*
X146009500Y-105395000D01*
X145317500Y-107732000D02*
X146009500Y-107732000D01*
X146162000Y-105547000D02*
X146162000Y-106337500D01*
X146162000Y-107580000D02*
X146162000Y-106789500D01*
X145165000Y-105547000D02*
G75*
G02*
X145317500Y-105395000I151649J353D01*
G01*
X145317500Y-107732000D02*
G75*
G02*
X145165002Y-107580000I360J152860D01*
G01*
X146009500Y-105395000D02*
G75*
G02*
X146162000Y-105547000I-356J-152858D01*
G01*
X146162000Y-107580000D02*
G75*
G02*
X146009500Y-107731998I-151650J-350D01*
G01*
%TO.C,C29*%
D14*
X144469500Y-104795000D02*
X144469500Y-103994500D01*
X145579000Y-103685000D02*
X144779500Y-103685000D01*
X145579000Y-105104500D02*
X144779500Y-105104500D01*
X146139500Y-103685500D02*
X146939500Y-103685500D01*
X146139500Y-105105000D02*
X146939500Y-105105000D01*
X147249500Y-103995500D02*
X147249500Y-104795500D01*
X144469500Y-103995000D02*
G75*
G02*
X144779500Y-103685000I310000J0D01*
G01*
X144779500Y-105104500D02*
G75*
G02*
X144469501Y-104795000I350J310350D01*
G01*
X146939500Y-103685500D02*
G75*
G02*
X147249500Y-103995500I0J-310000D01*
G01*
X147249500Y-104795000D02*
G75*
G02*
X146939500Y-105105000I-309148J-852D01*
G01*
%TO.C,K2*%
X153458000Y-90606500D02*
X153458000Y-91114500D01*
X153458000Y-92692500D02*
X153458000Y-94280500D01*
X153458000Y-95892500D02*
X153458000Y-96480500D01*
X153458000Y-98092500D02*
X153458000Y-98680500D01*
X153458000Y-100292500D02*
X153458000Y-100766500D01*
X153458000Y-100766500D02*
X159935000Y-100766500D01*
X153585000Y-90606500D02*
X153458000Y-90606500D01*
X158665000Y-95178500D02*
X159296500Y-95178500D01*
X159808000Y-96194500D02*
X158665000Y-96194500D01*
X159935000Y-90606500D02*
X153585000Y-90606500D01*
X159935000Y-91080500D02*
X159935000Y-90606500D01*
X159935000Y-94280500D02*
X159935000Y-92692500D01*
X159935000Y-96480500D02*
X159935000Y-95892500D01*
X159935000Y-98680500D02*
X159935000Y-98092500D01*
X159935000Y-100766500D02*
X159935000Y-100292500D01*
X158157000Y-95686500D02*
G75*
G02*
X158665000Y-95178500I508000J0D01*
G01*
X158665000Y-96194500D02*
G75*
G02*
X158157000Y-95686500I1J508001D01*
G01*
D15*
X153100000Y-90725500D02*
G75*
G02*
X152800000Y-90725500I-150000J0D01*
G01*
X152800000Y-90725500D02*
G75*
G02*
X153100000Y-90725500I150000J0D01*
G01*
X154624000Y-91114500D02*
G75*
G02*
X154324000Y-91114500I-150000J0D01*
G01*
X154324000Y-91114500D02*
G75*
G02*
X154624000Y-91114500I150000J0D01*
G01*
%TO.C,C22*%
D14*
X125363000Y-93721500D02*
X125363000Y-94521000D01*
X125363500Y-93161000D02*
X125363500Y-92361000D01*
X125673500Y-92051000D02*
X126473500Y-92051000D01*
X126473000Y-94831000D02*
X125672500Y-94831000D01*
X126782500Y-93721500D02*
X126782500Y-94521000D01*
X126783000Y-93161000D02*
X126783000Y-92361000D01*
X125363500Y-92361000D02*
G75*
G02*
X125673500Y-92051000I310000J0D01*
G01*
X125673000Y-94831000D02*
G75*
G02*
X125363000Y-94521000I0J310000D01*
G01*
X126473000Y-92051000D02*
G75*
G02*
X126783000Y-92361000I852J-309148D01*
G01*
X126782500Y-94521000D02*
G75*
G02*
X126473000Y-94830999I-310350J350D01*
G01*
%TO.C,R17*%
D13*
X141641500Y-94007000D02*
X142638500Y-94007000D01*
X141641500Y-94725000D02*
X141641500Y-94007000D01*
X141641500Y-95177000D02*
X141641500Y-95895000D01*
X141641500Y-95895000D02*
X142638500Y-95895000D01*
X142638500Y-94007000D02*
X142638500Y-94725000D01*
X142638500Y-95895000D02*
X142638500Y-95177000D01*
%TO.C,C26*%
D14*
X147820000Y-107925500D02*
X147820000Y-107125500D01*
X148930000Y-106816000D02*
X148130000Y-106816000D01*
X148930000Y-108235500D02*
X148130000Y-108235500D01*
X149490500Y-106816500D02*
X150290000Y-106816500D01*
X149490500Y-108236000D02*
X150290000Y-108236000D01*
X150600000Y-107126000D02*
X150600000Y-107926500D01*
X147820000Y-107126000D02*
G75*
G02*
X148130000Y-106816000I309148J852D01*
G01*
X148130000Y-108235500D02*
G75*
G02*
X147820000Y-107925500I0J310000D01*
G01*
X150290000Y-106816500D02*
G75*
G02*
X150599999Y-107126000I-350J-310350D01*
G01*
X150600000Y-107926000D02*
G75*
G02*
X150290000Y-108236000I-310000J0D01*
G01*
%TO.C,D4*%
D16*
X143478000Y-91674500D02*
X143478000Y-90624500D01*
X143480500Y-92054500D02*
X143480500Y-93204500D01*
X143778000Y-90324500D02*
X143478000Y-90624500D01*
X143878000Y-90324500D02*
X143778000Y-90324500D01*
X143900500Y-92024500D02*
X144230500Y-91694500D01*
X143900500Y-92034500D02*
X143900500Y-92024500D01*
X144230500Y-92034500D02*
X144230500Y-91694500D01*
X144570500Y-92034500D02*
X144230500Y-91694500D01*
X144578000Y-90324500D02*
X143878000Y-90324500D01*
X144578000Y-90324500D02*
X144678500Y-90324500D01*
X144580500Y-92034500D02*
X143900500Y-92034500D01*
X144580500Y-92034500D02*
X144570500Y-92034500D01*
X144678500Y-90324500D02*
X144978500Y-90624500D01*
X144978500Y-91674500D02*
X144978500Y-90624500D01*
X144980500Y-92054500D02*
X144980500Y-93204500D01*
X144980500Y-93204500D02*
X143500500Y-93204500D01*
%TO.C,C2*%
D13*
X134246000Y-110031500D02*
X134246000Y-109241000D01*
X134246000Y-110483500D02*
X134246000Y-111274000D01*
X134398500Y-109089000D02*
X135090500Y-109089000D01*
X134398500Y-111426000D02*
X135090500Y-111426000D01*
X135243000Y-109241000D02*
X135243000Y-110031500D01*
X135243000Y-111274000D02*
X135243000Y-110483500D01*
X134246000Y-109241000D02*
G75*
G02*
X134398500Y-109089000I151649J353D01*
G01*
X134398500Y-111426000D02*
G75*
G02*
X134246002Y-111274000I360J152860D01*
G01*
X135090500Y-109089000D02*
G75*
G02*
X135243000Y-109241000I-356J-152858D01*
G01*
X135243000Y-111274000D02*
G75*
G02*
X135090500Y-111425998I-151650J-350D01*
G01*
%TO.C,R14*%
X136960500Y-90367000D02*
X136960500Y-91085000D01*
X136960500Y-92255000D02*
X136960500Y-91537000D01*
X137957500Y-90367000D02*
X136960500Y-90367000D01*
X137957500Y-91085000D02*
X137957500Y-90367000D01*
X137957500Y-91537000D02*
X137957500Y-92255000D01*
X137957500Y-92255000D02*
X136960500Y-92255000D01*
%TO.C,C14*%
D14*
X147032500Y-96921000D02*
X147032500Y-97720500D01*
X147033000Y-96360500D02*
X147033000Y-95560500D01*
X147343000Y-95250500D02*
X148143000Y-95250500D01*
X148142500Y-98030500D02*
X147342000Y-98030500D01*
X148452000Y-96921000D02*
X148452000Y-97720500D01*
X148452500Y-96360500D02*
X148452500Y-95560500D01*
X147033000Y-95560500D02*
G75*
G02*
X147343000Y-95250500I310000J0D01*
G01*
X147342500Y-98030500D02*
G75*
G02*
X147032500Y-97720500I0J310000D01*
G01*
X148142500Y-95250500D02*
G75*
G02*
X148452500Y-95560500I852J-309148D01*
G01*
X148452000Y-97720500D02*
G75*
G02*
X148142500Y-98030499I-310350J350D01*
G01*
%TO.C,LDO1*%
D13*
X147535000Y-103949000D02*
X147535000Y-105651000D01*
X148584500Y-105651000D02*
X149537500Y-105651000D01*
X150587000Y-103949000D02*
X150587000Y-105651000D01*
D15*
X150862000Y-103657000D02*
G75*
G02*
X150562000Y-103657000I-150000J0D01*
G01*
X150562000Y-103657000D02*
G75*
G02*
X150862000Y-103657000I150000J0D01*
G01*
%TO.C,R7*%
D13*
X147243500Y-98399000D02*
X147243500Y-99117000D01*
X147243500Y-100287000D02*
X147243500Y-99569000D01*
X148240500Y-98399000D02*
X147243500Y-98399000D01*
X148240500Y-99117000D02*
X148240500Y-98399000D01*
X148240500Y-99569000D02*
X148240500Y-100287000D01*
X148240500Y-100287000D02*
X147243500Y-100287000D01*
%TO.C,R20*%
X139100000Y-98677000D02*
X139818000Y-98677000D01*
X139100000Y-99674000D02*
X139100000Y-98677000D01*
X139818000Y-99674000D02*
X139100000Y-99674000D01*
X140270000Y-99674000D02*
X140988000Y-99674000D01*
X140988000Y-98677000D02*
X140270000Y-98677000D01*
X140988000Y-99674000D02*
X140988000Y-98677000D01*
%TO.C,C28*%
D14*
X148855500Y-96579000D02*
X148855500Y-97379000D01*
X148856000Y-96018500D02*
X148856000Y-95219000D01*
X149165500Y-94909000D02*
X149966000Y-94909000D01*
X149965000Y-97689000D02*
X149165000Y-97689000D01*
X150275000Y-96579000D02*
X150275000Y-97379000D01*
X150275500Y-96018500D02*
X150275500Y-95219000D01*
X148856000Y-95219000D02*
G75*
G02*
X149165500Y-94909001I310350J-350D01*
G01*
X149165500Y-97689000D02*
G75*
G02*
X148855500Y-97379000I-852J309148D01*
G01*
X149965500Y-94909000D02*
G75*
G02*
X150275500Y-95219000I0J-310000D01*
G01*
X150275000Y-97379000D02*
G75*
G02*
X149965000Y-97689000I-310000J0D01*
G01*
%TO.C,C21*%
X125362000Y-96867500D02*
X125362000Y-97667500D01*
X125362500Y-96307000D02*
X125362500Y-95507500D01*
X125672000Y-95197500D02*
X126472500Y-95197500D01*
X126471500Y-97977500D02*
X125671500Y-97977500D01*
X126781500Y-96867500D02*
X126781500Y-97667500D01*
X126782000Y-96307000D02*
X126782000Y-95507500D01*
X125362500Y-95507500D02*
G75*
G02*
X125672000Y-95197501I310350J-350D01*
G01*
X125672000Y-97977500D02*
G75*
G02*
X125362000Y-97667500I-852J309148D01*
G01*
X126472000Y-95197500D02*
G75*
G02*
X126782000Y-95507500I0J-310000D01*
G01*
X126781500Y-97667500D02*
G75*
G02*
X126471500Y-97977500I-310000J0D01*
G01*
%TO.C,A1*%
X126688000Y-109334500D02*
X126938000Y-109334500D01*
X126688000Y-109984500D02*
X126688000Y-109334500D01*
X126938000Y-108334500D02*
X126944500Y-108334500D01*
X126938000Y-109334500D02*
X126938000Y-108334500D01*
X126938000Y-109984500D02*
X126688000Y-109984500D01*
X126938000Y-110934500D02*
X126938000Y-109984500D01*
X126944500Y-110934500D02*
X126938000Y-110934500D01*
X129607000Y-110904500D02*
X129672500Y-110904500D01*
X129672500Y-108364500D02*
X129607000Y-108364500D01*
X129672500Y-108903500D02*
X129672500Y-108364500D01*
X129672500Y-110904500D02*
X129672500Y-110365500D01*
%TO.C,R8*%
D13*
X146441000Y-105495500D02*
X147438000Y-105495500D01*
X146441000Y-106213500D02*
X146441000Y-105495500D01*
X146441000Y-106665500D02*
X146441000Y-107383500D01*
X146441000Y-107383500D02*
X147438000Y-107383500D01*
X147438000Y-105495500D02*
X147438000Y-106213500D01*
X147438000Y-107383500D02*
X147438000Y-106665500D01*
%TO.C,R16*%
X138437000Y-90369000D02*
X139396000Y-90369000D01*
X138437000Y-91690000D02*
X138437000Y-90369000D01*
X139396000Y-91690000D02*
X138437000Y-91690000D01*
X140248000Y-91690000D02*
X141207000Y-91690000D01*
X141207000Y-90369000D02*
X140248000Y-90369000D01*
X141207000Y-91690000D02*
X141207000Y-90369000D01*
%TO.C,X1*%
X130951500Y-105946500D02*
X130951500Y-107404500D01*
X130951500Y-107404500D02*
X132208500Y-107404500D01*
X131144500Y-104519000D02*
X134403500Y-104519000D01*
X131144500Y-107176000D02*
X131144500Y-104519000D01*
X131238500Y-107176000D02*
X131144500Y-107176000D01*
X134403500Y-104519000D02*
X134403500Y-107176000D01*
X134403500Y-107176000D02*
X131238500Y-107176000D01*
%TO.C,L3*%
D14*
X127151000Y-101565500D02*
X127151000Y-94165500D01*
X128620000Y-94165000D02*
X127151000Y-94165000D01*
X128620000Y-101565000D02*
X127151000Y-101565000D01*
X133091000Y-95071000D02*
X133091000Y-94309000D01*
X133853000Y-95071000D02*
X133091000Y-95071000D01*
X133951000Y-94165000D02*
X132482000Y-94165000D01*
X133951000Y-94165000D02*
X133951000Y-101565000D01*
X133951000Y-101565000D02*
X132482000Y-101565000D01*
X131694000Y-97865500D02*
G75*
G02*
X129408000Y-97865500I-1143000J0D01*
G01*
X129408000Y-97865500D02*
G75*
G02*
X131694000Y-97865500I1143000J0D01*
G01*
%TO.C,BAT1*%
X120475000Y-91810500D02*
X124975000Y-91810500D01*
X120475000Y-97810500D02*
X120475000Y-91810500D01*
X121116000Y-92270500D02*
X123021000Y-92270500D01*
X121116000Y-97223500D02*
X121116000Y-92270500D01*
X123021000Y-92270500D02*
X123021000Y-91889500D01*
X123021000Y-97223500D02*
X121116000Y-97223500D01*
X123021000Y-97731500D02*
X123021000Y-97223500D01*
X123656000Y-91810500D02*
X123656000Y-92318500D01*
X123656000Y-92318500D02*
X124418000Y-92318500D01*
X123656000Y-97223500D02*
X124418000Y-97223500D01*
X123656000Y-97731500D02*
X123656000Y-97223500D01*
X124418000Y-92318500D02*
X124418000Y-94477500D01*
X124418000Y-94477500D02*
X124926000Y-94477500D01*
X124418000Y-95064500D02*
X124926000Y-95064500D01*
X124418000Y-97223500D02*
X124418000Y-95064500D01*
X124975000Y-91810500D02*
X124975000Y-97810500D01*
X124975000Y-97810500D02*
X120475000Y-97810500D01*
%TO.C,S3*%
X145713500Y-90340000D02*
X151713500Y-90340000D01*
X145713500Y-91659000D02*
X146221500Y-91659000D01*
X145713500Y-94840000D02*
X145713500Y-90340000D01*
X146173500Y-92294000D02*
X145792500Y-92294000D01*
X146173500Y-94199000D02*
X146173500Y-92294000D01*
X146221500Y-90897000D02*
X148380500Y-90897000D01*
X146221500Y-91659000D02*
X146221500Y-90897000D01*
X148380500Y-90897000D02*
X148380500Y-90389000D01*
X148967500Y-90897000D02*
X148967500Y-90389000D01*
X151126500Y-90897000D02*
X148967500Y-90897000D01*
X151126500Y-91659000D02*
X151126500Y-90897000D01*
X151126500Y-92294000D02*
X151126500Y-94199000D01*
X151126500Y-94199000D02*
X146173500Y-94199000D01*
X151634500Y-91659000D02*
X151126500Y-91659000D01*
X151634500Y-92294000D02*
X151126500Y-92294000D01*
X151713500Y-90340000D02*
X151713500Y-94840000D01*
X151713500Y-94840000D02*
X145713500Y-94840000D01*
%TO.C,L1*%
D13*
X131707000Y-109363500D02*
X131859000Y-109211000D01*
X131707000Y-110055500D02*
X131707000Y-109363500D01*
X131859000Y-109211000D02*
X132649500Y-109211000D01*
X131859000Y-110208000D02*
X131707000Y-110055500D01*
X132649500Y-110208000D02*
X131859000Y-110208000D01*
X133101500Y-110208000D02*
X133892000Y-110208000D01*
X133892000Y-109211000D02*
X133101500Y-109211000D01*
X133892000Y-110208000D02*
X134044000Y-110055500D01*
X134044000Y-109363500D02*
X133892000Y-109211000D01*
X134044000Y-110055500D02*
X134044000Y-109363500D01*
%TO.C,Q1*%
X149507000Y-108593500D02*
X151309000Y-108593500D01*
X149507000Y-110575000D02*
X149507000Y-109664000D01*
X149507000Y-111645500D02*
X151309000Y-111645500D01*
X151309000Y-108593500D02*
X151309000Y-109625000D01*
X151309000Y-111645500D02*
X151309000Y-110614000D01*
%TO.C,C24*%
D14*
X136181000Y-100186500D02*
X136181000Y-100986000D01*
X136181500Y-99626000D02*
X136181500Y-98826000D01*
X136491500Y-98516000D02*
X137291500Y-98516000D01*
X137291000Y-101296000D02*
X136490500Y-101296000D01*
X137600500Y-100186500D02*
X137600500Y-100986000D01*
X137601000Y-99626000D02*
X137601000Y-98826000D01*
X136181500Y-98826000D02*
G75*
G02*
X136491500Y-98516000I310000J0D01*
G01*
X136491000Y-101296000D02*
G75*
G02*
X136181000Y-100986000I0J310000D01*
G01*
X137291000Y-98516000D02*
G75*
G02*
X137601000Y-98826000I852J-309148D01*
G01*
X137600500Y-100986000D02*
G75*
G02*
X137291000Y-101295999I-310350J350D01*
G01*
%TO.C,C1*%
D13*
X130504500Y-110031500D02*
X130504500Y-109241000D01*
X130504500Y-110483500D02*
X130504500Y-111274000D01*
X130657000Y-109089000D02*
X131349000Y-109089000D01*
X130657000Y-111426000D02*
X131349000Y-111426000D01*
X131501500Y-109241000D02*
X131501500Y-110031500D01*
X131501500Y-111274000D02*
X131501500Y-110483500D01*
X130504500Y-109241000D02*
G75*
G02*
X130657000Y-109089000I151649J353D01*
G01*
X130657000Y-111426000D02*
G75*
G02*
X130504502Y-111274000I360J152860D01*
G01*
X131349000Y-109089000D02*
G75*
G02*
X131501500Y-109241000I-356J-152858D01*
G01*
X131501500Y-111274000D02*
G75*
G02*
X131349000Y-111425998I-151650J-350D01*
G01*
%TO.C,K1*%
D14*
X153486500Y-101161500D02*
X153486500Y-101635500D01*
X153486500Y-103247500D02*
X153486500Y-103835500D01*
X153486500Y-105447500D02*
X153486500Y-106035500D01*
X153486500Y-107647500D02*
X153486500Y-109235500D01*
X153486500Y-110847500D02*
X153486500Y-111321500D01*
X153486500Y-111321500D02*
X159836500Y-111321500D01*
X153613500Y-105733500D02*
X154756500Y-105733500D01*
X154756500Y-106749500D02*
X154125000Y-106749500D01*
X159836500Y-111321500D02*
X159963500Y-111321500D01*
X159963500Y-101161500D02*
X153486500Y-101161500D01*
X159963500Y-101635500D02*
X159963500Y-101161500D01*
X159963500Y-103835500D02*
X159963500Y-103247500D01*
X159963500Y-106035500D02*
X159963500Y-105447500D01*
X159963500Y-109235500D02*
X159963500Y-107647500D01*
X159963500Y-111321500D02*
X159963500Y-110813500D01*
X154756500Y-105733500D02*
G75*
G02*
X155264500Y-106241500I-1J-508001D01*
G01*
X155264500Y-106241500D02*
G75*
G02*
X154756500Y-106749500I-508000J0D01*
G01*
D15*
X159097500Y-110813500D02*
G75*
G02*
X158797500Y-110813500I-150000J0D01*
G01*
X158797500Y-110813500D02*
G75*
G02*
X159097500Y-110813500I150000J0D01*
G01*
X160621500Y-111202500D02*
G75*
G02*
X160321500Y-111202500I-150000J0D01*
G01*
X160321500Y-111202500D02*
G75*
G02*
X160621500Y-111202500I150000J0D01*
G01*
%TO.C,R6*%
D13*
X139123500Y-99875000D02*
X139123500Y-100872000D01*
X139123500Y-100872000D02*
X139841500Y-100872000D01*
X139841500Y-99875000D02*
X139123500Y-99875000D01*
X140293500Y-99875000D02*
X141011500Y-99875000D01*
X141011500Y-99875000D02*
X141011500Y-100872000D01*
X141011500Y-100872000D02*
X140293500Y-100872000D01*
%TO.C,R13*%
X134612000Y-90376000D02*
X135330000Y-90376000D01*
X134612000Y-91373000D02*
X134612000Y-90376000D01*
X135330000Y-91373000D02*
X134612000Y-91373000D01*
X135782000Y-91373000D02*
X136500000Y-91373000D01*
X136500000Y-90376000D02*
X135782000Y-90376000D01*
X136500000Y-91373000D02*
X136500000Y-90376000D01*
%TO.C,U4*%
D14*
X162014500Y-95820000D02*
X162014500Y-94750000D01*
X162014500Y-95820000D02*
X164300500Y-95820000D01*
X162014500Y-106080000D02*
X162014500Y-107250000D01*
X162014500Y-106080000D02*
X164300500Y-106080000D01*
X164300500Y-95820000D02*
X164300500Y-96219000D01*
X164300500Y-95820000D02*
X164300500Y-97217000D01*
X164300500Y-98281000D02*
X164300500Y-98719000D01*
X164300500Y-100781000D02*
X164300500Y-101219000D01*
X164300500Y-103281000D02*
X164300500Y-103719000D01*
X164300500Y-104937000D02*
X164427500Y-104810000D01*
X164300500Y-105781000D02*
X164300500Y-106080000D01*
X164300500Y-106080000D02*
X164300500Y-104937000D01*
X173500500Y-94750000D02*
X162000500Y-94750000D01*
X173500500Y-94750000D02*
X173500500Y-107250000D01*
X173500500Y-107250000D02*
X161999000Y-107250000D01*
%TO.C,L2*%
D13*
X134863500Y-105056500D02*
X135015500Y-104904000D01*
X134863500Y-105748500D02*
X134863500Y-105056500D01*
X135015500Y-104904000D02*
X135806000Y-104904000D01*
X135015500Y-105901000D02*
X134863500Y-105748500D01*
X135806000Y-105901000D02*
X135015500Y-105901000D01*
X136258000Y-105901000D02*
X137048500Y-105901000D01*
X137048500Y-104904000D02*
X136258000Y-104904000D01*
X137048500Y-105901000D02*
X137200500Y-105748500D01*
X137200500Y-105056500D02*
X137048500Y-104904000D01*
X137200500Y-105748500D02*
X137200500Y-105056500D01*
%TO.C,S2*%
D14*
X144261500Y-97114500D02*
X144261500Y-100114500D01*
X144261500Y-97114500D02*
X144424500Y-97114500D01*
X144261500Y-100114500D02*
X144261500Y-97114500D01*
X144430500Y-100114500D02*
X144261500Y-100114500D01*
X146592500Y-97114500D02*
X146761500Y-97114500D01*
X146761500Y-97114500D02*
X146761500Y-100114500D01*
X146761500Y-97114500D02*
X146761500Y-100114500D01*
X146761500Y-100114500D02*
X146592500Y-100114500D01*
X146311500Y-98614500D02*
G75*
G02*
X144711500Y-98614500I-800000J0D01*
G01*
X144711500Y-98614500D02*
G75*
G02*
X146311500Y-98614500I800000J0D01*
G01*
%TO.C,C5*%
D13*
X134782500Y-106265500D02*
X134782500Y-106957500D01*
X134934500Y-107110000D02*
X135725000Y-107110000D01*
X135725000Y-106113000D02*
X134934500Y-106113000D01*
X136177000Y-106113000D02*
X136967500Y-106113000D01*
X136967500Y-107110000D02*
X136177000Y-107110000D01*
X137119500Y-106265500D02*
X137119500Y-106957500D01*
X134782500Y-106265500D02*
G75*
G02*
X134934500Y-106113002I152860J-360D01*
G01*
X134934500Y-107110000D02*
G75*
G02*
X134782502Y-106957500I-350J151650D01*
G01*
X136967500Y-106113000D02*
G75*
G02*
X137119500Y-106265500I353J-151649D01*
G01*
X137119500Y-106957500D02*
G75*
G02*
X136967500Y-107110000I-152858J356D01*
G01*
%TO.C,U1*%
D17*
X138557000Y-101719500D02*
X138962000Y-101719500D01*
X138557000Y-102124500D02*
X138557000Y-101719500D01*
X138557000Y-107119500D02*
X138557000Y-106714500D01*
X138962000Y-107119500D02*
X138557000Y-107119500D01*
X143552000Y-107119500D02*
X143957000Y-107119500D01*
X143957000Y-101719500D02*
X143552000Y-101719500D01*
X143957000Y-102124500D02*
X143957000Y-101719500D01*
X143957000Y-107119500D02*
X143957000Y-106714500D01*
D15*
X138731500Y-107470000D02*
G75*
G02*
X138729000Y-107470000I-1250J-149999D01*
G01*
%TO.C,D2*%
D18*
X161789500Y-91677000D02*
X161789500Y-91915000D01*
D13*
X161789500Y-91915000D02*
X161789500Y-93267000D01*
D18*
X161902500Y-91677000D02*
X161789500Y-91677000D01*
X162741500Y-91676500D02*
X162621000Y-91676500D01*
X162741500Y-91915000D02*
X162741500Y-91676500D01*
D13*
X162741500Y-91915000D02*
X162741500Y-93267000D01*
D19*
G36*
X161933500Y-92031500D02*
G01*
X161713500Y-92031500D01*
X161713500Y-91726500D01*
X161933500Y-91726500D01*
X161933500Y-92031500D01*
G37*
G36*
X162818000Y-91991000D02*
G01*
X162598000Y-91991000D01*
X162598000Y-91686000D01*
X162818000Y-91686000D01*
X162818000Y-91991000D01*
G37*
%TO.C,C9*%
D13*
X131145000Y-103461000D02*
X131145000Y-104153000D01*
X131297000Y-104305500D02*
X132087500Y-104305500D01*
X132087500Y-103308500D02*
X131297000Y-103308500D01*
X132539500Y-103308500D02*
X133330000Y-103308500D01*
X133330000Y-104305500D02*
X132539500Y-104305500D01*
X133482000Y-103461000D02*
X133482000Y-104153000D01*
X131145000Y-103461000D02*
G75*
G02*
X131297000Y-103308502I152860J-360D01*
G01*
X131297000Y-104305500D02*
G75*
G02*
X131145002Y-104153000I-350J151650D01*
G01*
X133330000Y-103308500D02*
G75*
G02*
X133482000Y-103461000I353J-151649D01*
G01*
X133482000Y-104153000D02*
G75*
G02*
X133330000Y-104305500I-152858J356D01*
G01*
%TO.C,R4*%
X127012500Y-104469000D02*
X127012500Y-105466000D01*
X127012500Y-105466000D02*
X127730500Y-105466000D01*
X127730500Y-104469000D02*
X127012500Y-104469000D01*
X128182500Y-104469000D02*
X128900500Y-104469000D01*
X128900500Y-104469000D02*
X128900500Y-105466000D01*
X128900500Y-105466000D02*
X128182500Y-105466000D01*
%TO.C,C6*%
X145136500Y-103213000D02*
X145136500Y-102521000D01*
X145288500Y-102368500D02*
X146079000Y-102368500D01*
X146079000Y-103365500D02*
X145288500Y-103365500D01*
X146531000Y-103365500D02*
X147321500Y-103365500D01*
X147321500Y-102368500D02*
X146531000Y-102368500D01*
X147473500Y-103213000D02*
X147473500Y-102521000D01*
X145136500Y-102521000D02*
G75*
G02*
X145288500Y-102368500I152858J-356D01*
G01*
X145288500Y-103365500D02*
G75*
G02*
X145136500Y-103213000I-353J151649D01*
G01*
X147321500Y-102368500D02*
G75*
G02*
X147473498Y-102521000I350J-151650D01*
G01*
X147473500Y-103213000D02*
G75*
G02*
X147321500Y-103365498I-152860J360D01*
G01*
%TO.C,C31*%
X146921500Y-109481000D02*
X146921500Y-110271500D01*
X146921500Y-111514000D02*
X146921500Y-110723500D01*
X147766000Y-109329000D02*
X147074000Y-109329000D01*
X147766000Y-111666000D02*
X147074000Y-111666000D01*
X147918500Y-110271500D02*
X147918500Y-109481000D01*
X147918500Y-110723500D02*
X147918500Y-111514000D01*
X146921500Y-109481000D02*
G75*
G02*
X147074000Y-109329002I151650J350D01*
G01*
X147074000Y-111666000D02*
G75*
G02*
X146921500Y-111514000I356J152858D01*
G01*
X147766000Y-109329000D02*
G75*
G02*
X147918498Y-109481000I-360J-152860D01*
G01*
X147918500Y-111514000D02*
G75*
G02*
X147766000Y-111666000I-151649J-353D01*
G01*
%TO.C,USB1*%
D14*
X118632000Y-98759000D02*
X120251000Y-98759000D01*
X118632000Y-107759000D02*
X118632000Y-98759000D01*
X118781000Y-107831000D02*
X120254000Y-107831000D01*
X122210000Y-107831000D02*
X124204000Y-107831000D01*
X122213000Y-98759000D02*
X124201000Y-98759000D01*
%TO.C,U3*%
X135652000Y-92459500D02*
X135652000Y-92573500D01*
X135652000Y-93635500D02*
X135652000Y-93843500D01*
X135652000Y-94905500D02*
X135652000Y-95113500D01*
X135652000Y-96175500D02*
X135652000Y-96383500D01*
X135652000Y-97445500D02*
X135652000Y-97559500D01*
X136902000Y-92459500D02*
X135652000Y-92459500D01*
X138502000Y-92459500D02*
X139752000Y-92459500D01*
X139752000Y-92459500D02*
X139752000Y-92573500D01*
X139752000Y-93635500D02*
X139752000Y-93843500D01*
X139752000Y-94905500D02*
X139752000Y-95113500D01*
X139752000Y-96175500D02*
X139752000Y-96383500D01*
X139752000Y-97445500D02*
X139752000Y-97559500D01*
X139752000Y-97559500D02*
X135652000Y-97559500D01*
X138502000Y-92509500D02*
G75*
G02*
X136902000Y-92509500I-800000J375500D01*
G01*
X135372000Y-91979500D02*
G75*
G02*
X135032000Y-91979500I-170000J0D01*
G01*
X135032000Y-91979500D02*
G75*
G02*
X135372000Y-91979500I170000J0D01*
G01*
%TO.C,Q2*%
D13*
X149426500Y-97973500D02*
X151228500Y-97973500D01*
X149426500Y-99955000D02*
X149426500Y-99044000D01*
X149426500Y-101025500D02*
X151228500Y-101025500D01*
X151228500Y-97973500D02*
X151228500Y-99005000D01*
X151228500Y-101025500D02*
X151228500Y-99994000D01*
%TO.C,C30*%
X141266000Y-109500000D02*
X141266000Y-110290500D01*
X141266000Y-111533000D02*
X141266000Y-110742500D01*
X142110500Y-109348000D02*
X141418500Y-109348000D01*
X142110500Y-111685000D02*
X141418500Y-111685000D01*
X142263000Y-110290500D02*
X142263000Y-109500000D01*
X142263000Y-110742500D02*
X142263000Y-111533000D01*
X141266000Y-109500000D02*
G75*
G02*
X141418500Y-109348002I151650J350D01*
G01*
X141418500Y-111685000D02*
G75*
G02*
X141266000Y-111533000I356J152858D01*
G01*
X142110500Y-109348000D02*
G75*
G02*
X142262998Y-109500000I-360J-152860D01*
G01*
X142263000Y-111533000D02*
G75*
G02*
X142110500Y-111685000I-151649J-353D01*
G01*
%TO.C,C25*%
D14*
X147820000Y-102439000D02*
X147820000Y-101639000D01*
X148930000Y-101329500D02*
X148130000Y-101329500D01*
X148930000Y-102749000D02*
X148130000Y-102749000D01*
X149490500Y-101330000D02*
X150290000Y-101330000D01*
X149490500Y-102749500D02*
X150290000Y-102749500D01*
X150600000Y-101639500D02*
X150600000Y-102440000D01*
X147820000Y-101639500D02*
G75*
G02*
X148130000Y-101329500I309148J852D01*
G01*
X148130000Y-102749000D02*
G75*
G02*
X147820000Y-102439000I0J310000D01*
G01*
X150290000Y-101330000D02*
G75*
G02*
X150599999Y-101639500I-350J-310350D01*
G01*
X150600000Y-102439500D02*
G75*
G02*
X150290000Y-102749500I-310000J0D01*
G01*
%TO.C,C20*%
X129069000Y-92566500D02*
X129069000Y-93366000D01*
X129069500Y-92006000D02*
X129069500Y-91206000D01*
X129379500Y-90896000D02*
X130179500Y-90896000D01*
X130179000Y-93676000D02*
X129378500Y-93676000D01*
X130488500Y-92566500D02*
X130488500Y-93366000D01*
X130489000Y-92006000D02*
X130489000Y-91206000D01*
X129069500Y-91206000D02*
G75*
G02*
X129379500Y-90896000I310000J0D01*
G01*
X129379000Y-93676000D02*
G75*
G02*
X129069000Y-93366000I0J310000D01*
G01*
X130179000Y-90896000D02*
G75*
G02*
X130489000Y-91206000I852J-309148D01*
G01*
X130488500Y-93366000D02*
G75*
G02*
X130179000Y-93675999I-310350J350D01*
G01*
%TO.C,C27*%
X163354500Y-110245500D02*
X163354500Y-111045000D01*
X163355000Y-109685000D02*
X163355000Y-108885000D01*
X163665000Y-108575000D02*
X164465000Y-108575000D01*
X164464500Y-111355000D02*
X163664000Y-111355000D01*
X164774000Y-110245500D02*
X164774000Y-111045000D01*
X164774500Y-109685000D02*
X164774500Y-108885000D01*
X163355000Y-108885000D02*
G75*
G02*
X163665000Y-108575000I310000J0D01*
G01*
X163664500Y-111355000D02*
G75*
G02*
X163354500Y-111045000I0J310000D01*
G01*
X164464500Y-108575000D02*
G75*
G02*
X164774500Y-108885000I852J-309148D01*
G01*
X164774000Y-111045000D02*
G75*
G02*
X164464500Y-111354999I-310350J350D01*
G01*
%TO.C,S1*%
X141461000Y-97119500D02*
X141630000Y-97119500D01*
X141461000Y-100119500D02*
X141461000Y-97119500D01*
X141461000Y-100119500D02*
X141461000Y-97119500D01*
X141630000Y-100119500D02*
X141461000Y-100119500D01*
X143792000Y-97119500D02*
X143961000Y-97119500D01*
X143961000Y-97119500D02*
X143961000Y-100119500D01*
X143961000Y-100119500D02*
X143798000Y-100119500D01*
X143961000Y-100119500D02*
X143961000Y-97119500D01*
X143511000Y-98619500D02*
G75*
G02*
X141911000Y-98619500I-800000J0D01*
G01*
X141911000Y-98619500D02*
G75*
G02*
X143511000Y-98619500I800000J0D01*
G01*
%TO.C,C15*%
X134510500Y-108433500D02*
X134510500Y-107633500D01*
X135620500Y-107324000D02*
X134820500Y-107324000D01*
X135620500Y-108743500D02*
X134820500Y-108743500D01*
X136181000Y-107324500D02*
X136980500Y-107324500D01*
X136181000Y-108744000D02*
X136980500Y-108744000D01*
X137290500Y-107634000D02*
X137290500Y-108434500D01*
X134510500Y-107634000D02*
G75*
G02*
X134820500Y-107324000I309148J852D01*
G01*
X134820500Y-108743500D02*
G75*
G02*
X134510500Y-108433500I0J310000D01*
G01*
X136980500Y-107324500D02*
G75*
G02*
X137290499Y-107634000I-350J-310350D01*
G01*
X137290500Y-108434000D02*
G75*
G02*
X136980500Y-108744000I-310000J0D01*
G01*
%TO.C,R9*%
D13*
X127012500Y-102054500D02*
X127730500Y-102054500D01*
X127012500Y-103051500D02*
X127012500Y-102054500D01*
X127730500Y-103051500D02*
X127012500Y-103051500D01*
X128182500Y-103051500D02*
X128900500Y-103051500D01*
X128900500Y-102054500D02*
X128182500Y-102054500D01*
X128900500Y-103051500D02*
X128900500Y-102054500D01*
%TO.C,R18*%
X142876500Y-94002000D02*
X142876500Y-94720000D01*
X142876500Y-95890000D02*
X142876500Y-95172000D01*
X143873500Y-94002000D02*
X142876500Y-94002000D01*
X143873500Y-94720000D02*
X143873500Y-94002000D01*
X143873500Y-95172000D02*
X143873500Y-95890000D01*
X143873500Y-95890000D02*
X142876500Y-95890000D01*
%TO.C,R10*%
X127012500Y-105643000D02*
X127730500Y-105643000D01*
X127012500Y-106640000D02*
X127012500Y-105643000D01*
X127730500Y-106640000D02*
X127012500Y-106640000D01*
X128182500Y-106640000D02*
X128900500Y-106640000D01*
X128900500Y-105643000D02*
X128182500Y-105643000D01*
X128900500Y-106640000D02*
X128900500Y-105643000D01*
%TO.C,R12*%
X130776000Y-90847500D02*
X132097000Y-90847500D01*
X130776000Y-91806500D02*
X130776000Y-90847500D01*
X130776000Y-92658500D02*
X130776000Y-93617500D01*
X130776000Y-93617500D02*
X132097000Y-93617500D01*
X132097000Y-90847500D02*
X132097000Y-91806500D01*
X132097000Y-93617500D02*
X132097000Y-92658500D01*
%TO.C,R11*%
X132320000Y-90875000D02*
X133317000Y-90875000D01*
X132320000Y-91593000D02*
X132320000Y-90875000D01*
X132320000Y-92045000D02*
X132320000Y-92763000D01*
X132320000Y-92763000D02*
X133317000Y-92763000D01*
X133317000Y-90875000D02*
X133317000Y-91593000D01*
X133317000Y-92763000D02*
X133317000Y-92045000D01*
%TO.C,D1*%
X161739000Y-110031000D02*
X161739000Y-108679000D01*
D18*
X161739000Y-110031000D02*
X161739000Y-110269500D01*
X161739000Y-110269500D02*
X161859500Y-110269500D01*
X162578000Y-110269000D02*
X162691000Y-110269000D01*
D13*
X162691000Y-110031000D02*
X162691000Y-108679000D01*
D18*
X162691000Y-110269000D02*
X162691000Y-110031000D01*
D19*
G36*
X161882500Y-110260000D02*
G01*
X161662500Y-110260000D01*
X161662500Y-109955000D01*
X161882500Y-109955000D01*
X161882500Y-110260000D01*
G37*
G36*
X162767000Y-110219500D02*
G01*
X162547000Y-110219500D01*
X162547000Y-109914500D01*
X162767000Y-109914500D01*
X162767000Y-110219500D01*
G37*
%TO.C,D3*%
D16*
X141768500Y-91674500D02*
X141768500Y-90624500D01*
X141771000Y-92054500D02*
X141771000Y-93204500D01*
X142068500Y-90324500D02*
X141768500Y-90624500D01*
X142168500Y-90324500D02*
X142068500Y-90324500D01*
X142191000Y-92024500D02*
X142521000Y-91694500D01*
X142191000Y-92034500D02*
X142191000Y-92024500D01*
X142521000Y-92034500D02*
X142521000Y-91694500D01*
X142861000Y-92034500D02*
X142521000Y-91694500D01*
X142868500Y-90324500D02*
X142168500Y-90324500D01*
X142868500Y-90324500D02*
X142969000Y-90324500D01*
X142871000Y-92034500D02*
X142191000Y-92034500D01*
X142871000Y-92034500D02*
X142861000Y-92034500D01*
X142969000Y-90324500D02*
X143269000Y-90624500D01*
X143269000Y-91674500D02*
X143269000Y-90624500D01*
X143271000Y-92054500D02*
X143271000Y-93204500D01*
X143271000Y-93204500D02*
X141791000Y-93204500D01*
%TO.C,C23*%
D14*
X134403000Y-100186500D02*
X134403000Y-100986000D01*
X134403500Y-99626000D02*
X134403500Y-98826000D01*
X134713500Y-98516000D02*
X135513500Y-98516000D01*
X135513000Y-101296000D02*
X134712500Y-101296000D01*
X135822500Y-100186500D02*
X135822500Y-100986000D01*
X135823000Y-99626000D02*
X135823000Y-98826000D01*
X134403500Y-98826000D02*
G75*
G02*
X134713500Y-98516000I310000J0D01*
G01*
X134713000Y-101296000D02*
G75*
G02*
X134403000Y-100986000I0J310000D01*
G01*
X135513000Y-98516000D02*
G75*
G02*
X135823000Y-98826000I852J-309148D01*
G01*
X135822500Y-100986000D02*
G75*
G02*
X135513000Y-101295999I-310350J350D01*
G01*
%TO.C,C3*%
D13*
X138595500Y-111460500D02*
X138595500Y-110768500D01*
X138747500Y-110616000D02*
X139538000Y-110616000D01*
X139538000Y-111613000D02*
X138747500Y-111613000D01*
X139990000Y-111613000D02*
X140780500Y-111613000D01*
X140780500Y-110616000D02*
X139990000Y-110616000D01*
X140932500Y-111460500D02*
X140932500Y-110768500D01*
X138595500Y-110768500D02*
G75*
G02*
X138747500Y-110616000I152858J-356D01*
G01*
X138747500Y-111613000D02*
G75*
G02*
X138595500Y-111460500I-353J151649D01*
G01*
X140780500Y-110616000D02*
G75*
G02*
X140932498Y-110768500I350J-151650D01*
G01*
X140932500Y-111460500D02*
G75*
G02*
X140780500Y-111612998I-152860J360D01*
G01*
%TO.C,C8*%
X131822500Y-107641000D02*
X131822500Y-108333000D01*
X131974500Y-108485500D02*
X132765000Y-108485500D01*
X132765000Y-107488500D02*
X131974500Y-107488500D01*
X133217000Y-107488500D02*
X134007500Y-107488500D01*
X134007500Y-108485500D02*
X133217000Y-108485500D01*
X134159500Y-107641000D02*
X134159500Y-108333000D01*
X131822500Y-107641000D02*
G75*
G02*
X131974500Y-107488502I152860J-360D01*
G01*
X131974500Y-108485500D02*
G75*
G02*
X131822502Y-108333000I-350J151650D01*
G01*
X134007500Y-107488500D02*
G75*
G02*
X134159500Y-107641000I353J-151649D01*
G01*
X134159500Y-108333000D02*
G75*
G02*
X134007500Y-108485500I-152858J356D01*
G01*
%TD*%
%LPC*%
D20*
%TO.C,X2*%
X145834500Y-110476500D03*
X143284500Y-110476500D03*
%TD*%
D21*
%TO.C,C4*%
X139240000Y-109910000D03*
X140330000Y-109910000D03*
%TD*%
D22*
%TO.C,R5*%
X128389500Y-103795500D03*
X127523500Y-103795500D03*
%TD*%
D23*
%TO.C,C7*%
X145663500Y-106018500D03*
X145663500Y-107108500D03*
%TD*%
D24*
%TO.C,C29*%
X146559500Y-104395000D03*
X145159500Y-104395000D03*
%TD*%
D25*
%TO.C,K2*%
X153142500Y-91886500D03*
X153142500Y-95086500D03*
X153142500Y-97286500D03*
X153142500Y-99486500D03*
X160377500Y-99486500D03*
X160377500Y-97286500D03*
X160377500Y-95086500D03*
X160377500Y-91886500D03*
%TD*%
D26*
%TO.C,C22*%
X126073000Y-92741000D03*
X126073000Y-94141000D03*
%TD*%
D27*
%TO.C,R17*%
X142140000Y-94518000D03*
X142140000Y-95384000D03*
%TD*%
D28*
%TO.C,C26*%
X148510000Y-107526000D03*
X149910000Y-107526000D03*
%TD*%
D29*
%TO.C,D4*%
X144220500Y-91014500D03*
X144227500Y-92613500D03*
%TD*%
D23*
%TO.C,C2*%
X134744500Y-109712500D03*
X134744500Y-110802500D03*
%TD*%
D30*
%TO.C,R14*%
X137459000Y-91744000D03*
X137459000Y-90878000D03*
%TD*%
D26*
%TO.C,C14*%
X147742500Y-95940500D03*
X147742500Y-97340500D03*
%TD*%
D31*
%TO.C,LDO1*%
X150011000Y-103646500D03*
X149061000Y-103646500D03*
X148111000Y-103646500D03*
D32*
X148111000Y-105953500D03*
X150011000Y-105953500D03*
%TD*%
D30*
%TO.C,R7*%
X147742000Y-99776000D03*
X147742000Y-98910000D03*
%TD*%
D33*
%TO.C,R20*%
X139611000Y-99175500D03*
X140477000Y-99175500D03*
%TD*%
D34*
%TO.C,C28*%
X149565500Y-96999000D03*
X149565500Y-95599000D03*
%TD*%
%TO.C,C21*%
X126072000Y-97287500D03*
X126072000Y-95887500D03*
%TD*%
D35*
%TO.C,A1*%
X129800500Y-109634500D03*
D36*
X128275500Y-111109500D03*
X128275500Y-108159500D03*
%TD*%
D27*
%TO.C,R8*%
X146939500Y-106006500D03*
X146939500Y-106872500D03*
%TD*%
D37*
%TO.C,R16*%
X139068500Y-91029500D03*
X140575500Y-91029500D03*
%TD*%
D38*
%TO.C,X1*%
X131967500Y-106422500D03*
X133567500Y-106422500D03*
X133567500Y-105272500D03*
X131967500Y-105272500D03*
%TD*%
D39*
%TO.C,L3*%
X130551000Y-95065000D03*
X130551000Y-100665000D03*
%TD*%
D40*
%TO.C,BAT1*%
X123275000Y-93810500D03*
X123275000Y-95810500D03*
%TD*%
%TO.C,S3*%
X147713500Y-92040000D03*
X149713500Y-92040000D03*
%TD*%
D21*
%TO.C,L1*%
X132330500Y-109709500D03*
X133420500Y-109709500D03*
%TD*%
D41*
%TO.C,Q1*%
X149260500Y-111069500D03*
X149260500Y-109169500D03*
X151555500Y-110119500D03*
%TD*%
D26*
%TO.C,C24*%
X136891000Y-99206000D03*
X136891000Y-100606000D03*
%TD*%
D23*
%TO.C,C1*%
X131003000Y-109712500D03*
X131003000Y-110802500D03*
%TD*%
D42*
%TO.C,H1*%
X122000000Y-110000000D03*
%TD*%
D43*
%TO.C,K1*%
X160279000Y-110041500D03*
X160279000Y-106841500D03*
X160279000Y-104641500D03*
X160279000Y-102441500D03*
X153044000Y-102441500D03*
X153044000Y-104641500D03*
X153044000Y-106841500D03*
X153044000Y-110041500D03*
%TD*%
D22*
%TO.C,R6*%
X140500500Y-100373500D03*
X139634500Y-100373500D03*
%TD*%
D33*
%TO.C,R13*%
X135123000Y-90874500D03*
X135989000Y-90874500D03*
%TD*%
D44*
%TO.C,U4*%
X164300500Y-104750000D03*
D40*
X164300500Y-102250000D03*
X164300500Y-99750000D03*
X164300500Y-97250000D03*
%TD*%
D21*
%TO.C,L2*%
X135487000Y-105402500D03*
X136577000Y-105402500D03*
%TD*%
D45*
%TO.C,S2*%
X145511500Y-96914500D03*
X145511500Y-100314500D03*
%TD*%
D46*
%TO.C,C5*%
X136496000Y-106611500D03*
X135406000Y-106611500D03*
%TD*%
D47*
%TO.C,U1*%
X139507000Y-106969500D03*
X140007000Y-106969500D03*
X140507000Y-106969500D03*
X141007000Y-106969500D03*
X141507000Y-106969500D03*
X142007000Y-106969500D03*
X142507000Y-106969500D03*
X143007000Y-106969500D03*
D48*
X143807000Y-106169500D03*
X143807000Y-105669500D03*
X143807000Y-105169500D03*
X143807000Y-104669500D03*
X143807000Y-104169500D03*
X143807000Y-103669500D03*
X143807000Y-103169500D03*
X143807000Y-102669500D03*
D47*
X143007000Y-101869500D03*
X142507000Y-101869500D03*
X142007000Y-101869500D03*
X141507000Y-101869500D03*
X141007000Y-101869500D03*
X140507000Y-101869500D03*
X140007000Y-101869500D03*
X139507000Y-101869500D03*
D48*
X138707000Y-102669500D03*
X138707000Y-103169500D03*
X138707000Y-103669500D03*
X138707000Y-104169500D03*
X138707000Y-104669500D03*
X138707000Y-105169500D03*
X138707000Y-105669500D03*
X138707000Y-106169500D03*
D49*
X141257000Y-104419500D03*
%TD*%
D50*
%TO.C,D2*%
X162265500Y-91941000D03*
X162265500Y-93241000D03*
%TD*%
D46*
%TO.C,C9*%
X132858500Y-103807000D03*
X131768500Y-103807000D03*
%TD*%
D22*
%TO.C,R4*%
X128389500Y-104967500D03*
X127523500Y-104967500D03*
%TD*%
D21*
%TO.C,C6*%
X145760000Y-102867000D03*
X146850000Y-102867000D03*
%TD*%
D51*
%TO.C,C31*%
X147420000Y-111042500D03*
X147420000Y-109952500D03*
%TD*%
D52*
%TO.C,USB1*%
X125982000Y-100059000D03*
X125982000Y-100859000D03*
D53*
X125982000Y-101509000D03*
X125982000Y-102009000D03*
X125982000Y-102509000D03*
X125982000Y-103009000D03*
X125982000Y-103509000D03*
X125982000Y-104009000D03*
X125982000Y-104509000D03*
X125982000Y-105009000D03*
D52*
X125982000Y-105659000D03*
X125982000Y-106459000D03*
D54*
X125432000Y-98934000D03*
D55*
X121232000Y-98934000D03*
D54*
X125432000Y-107584000D03*
D55*
X121232000Y-107584000D03*
%TD*%
D56*
%TO.C,U3*%
X135002000Y-93104500D03*
X135002000Y-94374500D03*
X135002000Y-95644500D03*
X135002000Y-96914500D03*
X140402000Y-96914500D03*
X140402000Y-95644500D03*
X140402000Y-94374500D03*
X140402000Y-93104500D03*
D57*
X137702000Y-95009500D03*
%TD*%
D41*
%TO.C,Q2*%
X149180000Y-100449500D03*
X149180000Y-98549500D03*
X151475000Y-99499500D03*
%TD*%
D51*
%TO.C,C30*%
X141764500Y-111061500D03*
X141764500Y-109971500D03*
%TD*%
D28*
%TO.C,C25*%
X148510000Y-102039500D03*
X149910000Y-102039500D03*
%TD*%
D26*
%TO.C,C20*%
X129779000Y-91586000D03*
X129779000Y-92986000D03*
%TD*%
%TO.C,C27*%
X164064500Y-109265000D03*
X164064500Y-110665000D03*
%TD*%
D58*
%TO.C,S1*%
X142711000Y-100319500D03*
X142711000Y-96919500D03*
%TD*%
D28*
%TO.C,C15*%
X135200500Y-108034000D03*
X136600500Y-108034000D03*
%TD*%
D33*
%TO.C,R9*%
X127523500Y-102553000D03*
X128389500Y-102553000D03*
%TD*%
D42*
%TO.C,H2*%
X166000000Y-92000000D03*
%TD*%
D30*
%TO.C,R18*%
X143375000Y-95379000D03*
X143375000Y-94513000D03*
%TD*%
D33*
%TO.C,R10*%
X127523500Y-106141500D03*
X128389500Y-106141500D03*
%TD*%
D59*
%TO.C,R12*%
X131436500Y-91479000D03*
X131436500Y-92986000D03*
%TD*%
D27*
%TO.C,R11*%
X132818500Y-91386000D03*
X132818500Y-92252000D03*
%TD*%
D60*
%TO.C,D1*%
X162215000Y-110005000D03*
X162215000Y-108705000D03*
%TD*%
D29*
%TO.C,D3*%
X142514500Y-91014500D03*
X142514500Y-92613500D03*
%TD*%
D26*
%TO.C,C23*%
X135113000Y-99206000D03*
X135113000Y-100606000D03*
%TD*%
D21*
%TO.C,C3*%
X139219000Y-111114500D03*
X140309000Y-111114500D03*
%TD*%
D46*
%TO.C,C8*%
X133536000Y-107987000D03*
X132446000Y-107987000D03*
%TD*%
%LPD*%
M02*
