%TF.GenerationSoftware,KiCad,Pcbnew,10.0.6*%
%TF.CreationDate,2026-09-03T13:23:20+02:00*%
%TF.ProjectId,openrz67,6f70656e-727a-4363-972e-6b696361645f,rev?*%
%TF.SameCoordinates,Original*%
%TF.FileFunction,Drillmap*%
%TF.FilePolarity,Positive*%
%FSLAX45Y45*%
G04 Gerber Fmt 4.5, Leading zero omitted, Abs format (unit mm)*
G04 Created by KiCad (PCBNEW 10.0.6) date 2026-09-03 13:23:20*
%MOMM*%
%LPD*%
G01*
G04 APERTURE LIST*
%ADD10C,0.254000*%
%ADD11C,0.200000*%
%ADD12C,0.100000*%
G04 APERTURE END LIST*
D10*
X12000000Y-9200000D02*
X12000000Y-11300000D01*
X12000000Y-9200000D02*
G75*
G02*
X12200000Y-9000000I200000J0D01*
G01*
X12200000Y-9000000D02*
X16600000Y-9000000D01*
X12200000Y-11500000D02*
G75*
G02*
X12000000Y-11300000I0J200000D01*
G01*
X12200000Y-11500000D02*
X16600000Y-11500000D01*
X16600000Y-9000000D02*
G75*
G02*
X16800000Y-9200000I0J-200000D01*
G01*
X16800000Y-9200000D02*
X16800000Y-11300000D01*
X16800000Y-11300000D02*
G75*
G02*
X16600000Y-11500000I-200000J0D01*
G01*
D11*
D12*
X12040000Y-9708850D02*
X12065000Y-9733850D01*
X12065000Y-9708850D02*
X12040000Y-9733850D01*
X12040050Y-9401500D02*
X12065050Y-9426500D01*
X12065050Y-9401500D02*
X12040050Y-9426500D01*
X12045150Y-9247050D02*
X12070150Y-9272050D01*
X12070150Y-9247050D02*
X12045150Y-9272050D01*
X12062500Y-10847500D02*
X12087500Y-10872500D01*
X12087500Y-10847500D02*
X12062500Y-10872500D01*
X12104350Y-10420050D02*
X12129350Y-10445050D01*
X12129350Y-10420050D02*
X12104350Y-10445050D01*
X12109400Y-10257500D02*
X12134400Y-10282500D01*
X12134400Y-10257500D02*
X12109400Y-10282500D01*
X12119600Y-10044150D02*
X12144600Y-10069150D01*
X12144600Y-10044150D02*
X12119600Y-10069150D01*
X12124650Y-10161000D02*
X12149650Y-10186000D01*
X12149650Y-10161000D02*
X12124650Y-10186000D01*
X12124650Y-10582600D02*
X12149650Y-10607600D01*
X12149650Y-10582600D02*
X12124650Y-10607600D01*
X12150050Y-9063700D02*
X12175050Y-9088700D01*
X12175050Y-9063700D02*
X12150050Y-9088700D01*
X12287200Y-10699450D02*
X12312200Y-10724450D01*
X12312200Y-10699450D02*
X12287200Y-10724450D01*
X12363400Y-9040000D02*
X12388400Y-9065000D01*
X12388400Y-9040000D02*
X12363400Y-9065000D01*
X12363400Y-11110950D02*
X12388400Y-11135950D01*
X12388400Y-11110950D02*
X12363400Y-11135950D01*
X12434550Y-10867100D02*
X12459550Y-10892100D01*
X12459550Y-10867100D02*
X12434550Y-10892100D01*
X12459950Y-10983950D02*
X12484950Y-11008950D01*
X12484950Y-10983950D02*
X12459950Y-11008950D01*
X12470100Y-11090600D02*
X12495100Y-11115600D01*
X12495100Y-11090600D02*
X12470100Y-11115600D01*
X12536450Y-10867100D02*
X12561450Y-10892100D01*
X12561450Y-10867100D02*
X12536450Y-10892100D01*
X12597100Y-10938200D02*
X12622100Y-10963200D01*
X12622100Y-10938200D02*
X12597100Y-10963200D01*
X12617400Y-11009350D02*
X12642400Y-11034350D01*
X12642400Y-11009350D02*
X12617400Y-11034350D01*
X12622850Y-10867100D02*
X12647850Y-10892100D01*
X12647850Y-10867100D02*
X12622850Y-10892100D01*
X12658050Y-10790900D02*
X12683050Y-10815900D01*
X12683050Y-10790900D02*
X12658050Y-10815900D01*
X12668200Y-11121100D02*
X12693200Y-11146100D01*
X12693200Y-11121100D02*
X12668200Y-11146100D01*
X12698700Y-10709600D02*
X12723700Y-10734600D01*
X12723700Y-10709600D02*
X12698700Y-10734600D01*
X12769800Y-9871400D02*
X12794800Y-9896400D01*
X12794800Y-9871400D02*
X12769800Y-9896400D01*
X12774900Y-10034000D02*
X12799900Y-10059000D01*
X12799900Y-10034000D02*
X12774900Y-10059000D01*
X12780000Y-9729200D02*
X12805000Y-9754200D01*
X12805000Y-9729200D02*
X12780000Y-9754200D01*
X12787500Y-11347500D02*
X12812500Y-11372500D01*
X12812500Y-11347500D02*
X12787500Y-11372500D01*
X12810700Y-10709600D02*
X12835700Y-10734600D01*
X12835700Y-10709600D02*
X12810700Y-10734600D01*
X12899850Y-10709600D02*
X12924850Y-10734600D01*
X12924850Y-10709600D02*
X12899850Y-10734600D01*
X12912050Y-9673300D02*
X12937050Y-9698300D01*
X12937050Y-9673300D02*
X12912050Y-9698300D01*
X12962850Y-9043400D02*
X12987850Y-9068400D01*
X12987850Y-9043400D02*
X12962850Y-9068400D01*
X12988250Y-11100800D02*
X13013250Y-11125800D01*
X13013250Y-11100800D02*
X12988250Y-11125800D01*
X12990350Y-10800950D02*
X13015350Y-10825950D01*
X13015350Y-10800950D02*
X12990350Y-10825950D01*
X13049200Y-10216850D02*
X13074200Y-10241850D01*
X13074200Y-10216850D02*
X13049200Y-10241850D01*
X13049200Y-10531800D02*
X13074200Y-10556800D01*
X13074200Y-10531800D02*
X13049200Y-10556800D01*
X13059400Y-10440400D02*
X13084400Y-10465400D01*
X13084400Y-10440400D02*
X13059400Y-10465400D01*
X13166050Y-10867100D02*
X13191050Y-10892100D01*
X13191050Y-10867100D02*
X13166050Y-10892100D01*
X13211800Y-11095700D02*
X13236800Y-11120700D01*
X13236800Y-11095700D02*
X13211800Y-11120700D01*
X13267650Y-10191450D02*
X13292650Y-10216450D01*
X13292650Y-10191450D02*
X13267650Y-10216450D01*
X13275550Y-10867100D02*
X13300550Y-10892100D01*
X13300550Y-10867100D02*
X13275550Y-10892100D01*
X13328600Y-10094950D02*
X13353600Y-10119950D01*
X13353600Y-10094950D02*
X13328600Y-10119950D01*
X13369250Y-10867100D02*
X13394250Y-10892100D01*
X13394250Y-10867100D02*
X13369250Y-10892100D01*
X13379400Y-11100800D02*
X13404400Y-11125800D01*
X13404400Y-11100800D02*
X13379400Y-11125800D01*
X13394650Y-10343850D02*
X13419650Y-10368850D01*
X13419650Y-10343850D02*
X13394650Y-10368850D01*
X13567400Y-10186400D02*
X13592400Y-10211400D01*
X13592400Y-10186400D02*
X13567400Y-10211400D01*
X13567400Y-10348950D02*
X13592400Y-10373950D01*
X13592400Y-10348950D02*
X13567400Y-10373950D01*
X13567400Y-10892500D02*
X13592400Y-10917500D01*
X13592400Y-10892500D02*
X13567400Y-10917500D01*
X13567400Y-11029650D02*
X13592400Y-11054650D01*
X13592400Y-11029650D02*
X13567400Y-11054650D01*
X13582600Y-9790150D02*
X13607600Y-9815150D01*
X13607600Y-9790150D02*
X13582600Y-9815150D01*
X13643600Y-10340700D02*
X13668600Y-10365700D01*
X13668600Y-10340700D02*
X13643600Y-10365700D01*
X13658800Y-11034750D02*
X13683800Y-11059750D01*
X13683800Y-11034750D02*
X13658800Y-11059750D01*
X13659850Y-9051050D02*
X13684850Y-9076050D01*
X13684850Y-9051050D02*
X13659850Y-9076050D01*
X13674050Y-9536150D02*
X13699050Y-9561150D01*
X13699050Y-9536150D02*
X13674050Y-9561150D01*
X13679150Y-9368500D02*
X13704150Y-9393500D01*
X13704150Y-9368500D02*
X13679150Y-9393500D01*
X13684200Y-9607250D02*
X13709200Y-9632250D01*
X13709200Y-9607250D02*
X13684200Y-9632250D01*
X13684350Y-9455900D02*
X13709350Y-9480900D01*
X13709350Y-9455900D02*
X13684350Y-9480900D01*
X13745200Y-9790150D02*
X13770200Y-9815150D01*
X13770200Y-9790150D02*
X13745200Y-9815150D01*
X13745200Y-10770600D02*
X13770200Y-10795600D01*
X13770200Y-10770600D02*
X13745200Y-10795600D01*
X13757700Y-9407400D02*
X13782700Y-9432400D01*
X13782700Y-9407400D02*
X13757700Y-9432400D01*
X13788350Y-10407350D02*
X13813350Y-10432350D01*
X13813350Y-10407350D02*
X13788350Y-10432350D01*
X13801050Y-9048450D02*
X13826050Y-9073450D01*
X13826050Y-9048450D02*
X13801050Y-9073450D01*
X13816000Y-9455900D02*
X13841000Y-9480900D01*
X13841000Y-9455900D02*
X13816000Y-9480900D01*
X13816300Y-9526000D02*
X13841300Y-9551000D01*
X13841300Y-9526000D02*
X13816300Y-9551000D01*
X13821400Y-9368500D02*
X13846400Y-9393500D01*
X13846400Y-9368500D02*
X13821400Y-9393500D01*
X13821400Y-11014400D02*
X13846400Y-11039400D01*
X13846400Y-11014400D02*
X13821400Y-11039400D01*
X13826450Y-9607250D02*
X13851450Y-9632250D01*
X13851450Y-9607250D02*
X13826450Y-9632250D01*
X13842750Y-10719450D02*
X13867750Y-10744450D01*
X13867750Y-10719450D02*
X13842750Y-10744450D01*
X13973800Y-10288000D02*
X13998800Y-10313000D01*
X13998800Y-10288000D02*
X13973800Y-10313000D01*
X13976750Y-10429450D02*
X14001750Y-10454450D01*
X14001750Y-10429450D02*
X13976750Y-10454450D01*
X13987500Y-11347500D02*
X14012500Y-11372500D01*
X14012500Y-11347500D02*
X13987500Y-11372500D01*
X13989000Y-9830800D02*
X14014000Y-9855800D01*
X14014000Y-9830800D02*
X13989000Y-9855800D01*
X14019500Y-10902650D02*
X14044500Y-10927650D01*
X14044500Y-10902650D02*
X14019500Y-10927650D01*
X14034750Y-10521650D02*
X14059750Y-10546650D01*
X14059750Y-10521650D02*
X14034750Y-10546650D01*
X14075400Y-9820600D02*
X14100400Y-9845600D01*
X14100400Y-9820600D02*
X14075400Y-9845600D01*
X14113200Y-10287850D02*
X14138200Y-10312850D01*
X14138200Y-10287850D02*
X14113200Y-10312850D01*
X14113200Y-10429450D02*
X14138200Y-10454450D01*
X14138200Y-10429450D02*
X14113200Y-10454450D01*
X14113200Y-10556600D02*
X14138200Y-10581600D01*
X14138200Y-10556600D02*
X14113200Y-10581600D01*
X14139750Y-9090450D02*
X14164750Y-9115450D01*
X14164750Y-9090450D02*
X14139750Y-9115450D01*
X14146500Y-9348200D02*
X14171500Y-9373200D01*
X14171500Y-9348200D02*
X14146500Y-9373200D01*
X14161750Y-9932400D02*
X14186750Y-9957400D01*
X14186750Y-9932400D02*
X14161750Y-9957400D01*
X14222700Y-9612350D02*
X14247700Y-9637350D01*
X14247700Y-9612350D02*
X14222700Y-9637350D01*
X14248100Y-10557200D02*
X14273100Y-10582200D01*
X14273100Y-10557200D02*
X14248100Y-10582200D01*
X14253200Y-10298150D02*
X14278200Y-10323150D01*
X14278200Y-10298150D02*
X14253200Y-10323150D01*
X14255100Y-10429450D02*
X14280100Y-10454450D01*
X14280100Y-10429450D02*
X14255100Y-10454450D01*
X14279950Y-10781500D02*
X14304950Y-10806500D01*
X14304950Y-10781500D02*
X14279950Y-10806500D01*
X14296250Y-9607950D02*
X14321250Y-9632950D01*
X14321250Y-9607950D02*
X14296250Y-9632950D01*
X14344600Y-9927300D02*
X14369600Y-9952300D01*
X14369600Y-9927300D02*
X14344600Y-9952300D01*
X14373500Y-10733050D02*
X14398500Y-10758050D01*
X14398500Y-10733050D02*
X14373500Y-10758050D01*
X14395400Y-10181700D02*
X14420400Y-10206700D01*
X14420400Y-10181700D02*
X14395400Y-10206700D01*
X14415750Y-9358350D02*
X14440750Y-9383350D01*
X14440750Y-9358350D02*
X14415750Y-9383350D01*
X14418500Y-10614500D02*
X14443500Y-10639500D01*
X14443500Y-10614500D02*
X14418500Y-10639500D01*
X14441150Y-9932400D02*
X14466150Y-9957400D01*
X14466150Y-9932400D02*
X14441150Y-9957400D01*
X14443450Y-11103050D02*
X14468450Y-11128050D01*
X14468450Y-11103050D02*
X14443450Y-11128050D01*
X14517350Y-9601200D02*
X14542350Y-9626200D01*
X14542350Y-9601200D02*
X14517350Y-9626200D01*
X14537650Y-10186400D02*
X14562650Y-10211400D01*
X14562650Y-10186400D02*
X14537650Y-10211400D01*
X14540200Y-9927300D02*
X14565200Y-9952300D01*
X14565200Y-9927300D02*
X14540200Y-9952300D01*
X14607500Y-10777500D02*
X14632500Y-10802500D01*
X14632500Y-10777500D02*
X14607500Y-10802500D01*
X14629100Y-9749500D02*
X14654100Y-9774500D01*
X14654100Y-9749500D02*
X14629100Y-9774500D01*
X14710400Y-10536900D02*
X14735400Y-10561900D01*
X14735400Y-10536900D02*
X14710400Y-10561900D01*
X14721750Y-9476900D02*
X14746750Y-9501900D01*
X14746750Y-9476900D02*
X14721750Y-9501900D01*
X14796750Y-10872200D02*
X14821750Y-10897200D01*
X14821750Y-10872200D02*
X14796750Y-10897200D01*
X14817050Y-11100800D02*
X14842050Y-11125800D01*
X14842050Y-11100800D02*
X14817050Y-11125800D01*
X14837400Y-9475200D02*
X14862400Y-9500200D01*
X14862400Y-9475200D02*
X14837400Y-9500200D01*
X14852600Y-9571700D02*
X14877600Y-9596700D01*
X14877600Y-9571700D02*
X14852600Y-9596700D01*
X14888200Y-9932400D02*
X14913200Y-9957400D01*
X14913200Y-9932400D02*
X14888200Y-9957400D01*
X15005000Y-9962850D02*
X15030000Y-9987850D01*
X15030000Y-9962850D02*
X15005000Y-9987850D01*
X15015200Y-9414200D02*
X15040200Y-9439200D01*
X15040200Y-9414200D02*
X15015200Y-9439200D01*
X15019250Y-11098500D02*
X15044250Y-11123500D01*
X15044250Y-11098500D02*
X15019250Y-11123500D01*
X15106600Y-10694400D02*
X15131600Y-10719400D01*
X15131600Y-10694400D02*
X15106600Y-10719400D01*
X15238700Y-10562300D02*
X15263700Y-10587300D01*
X15263700Y-10562300D02*
X15238700Y-10587300D01*
X15248850Y-9830800D02*
X15273850Y-9855800D01*
X15273850Y-9830800D02*
X15248850Y-9855800D01*
X15248850Y-10084800D02*
X15273850Y-10109800D01*
X15273850Y-10084800D02*
X15248850Y-10109800D01*
X15253950Y-9607250D02*
X15278950Y-9632250D01*
X15278950Y-9607250D02*
X15253950Y-9632250D01*
X15253950Y-10343850D02*
X15278950Y-10368850D01*
X15278950Y-10343850D02*
X15253950Y-10368850D01*
X15259000Y-9277050D02*
X15284000Y-9302050D01*
X15284000Y-9277050D02*
X15259000Y-9302050D01*
X15457150Y-9282150D02*
X15482150Y-9307150D01*
X15482150Y-9282150D02*
X15457150Y-9307150D01*
X15482550Y-10450550D02*
X15507550Y-10475550D01*
X15507550Y-10450550D02*
X15482550Y-10475550D01*
X15497800Y-9510750D02*
X15522800Y-9535750D01*
X15522800Y-9510750D02*
X15497800Y-9535750D01*
X15497800Y-9759650D02*
X15522800Y-9784650D01*
X15522800Y-9759650D02*
X15497800Y-9784650D01*
X15502850Y-10216850D02*
X15527850Y-10241850D01*
X15527850Y-10216850D02*
X15502850Y-10241850D01*
X15518100Y-9089100D02*
X15543100Y-9114100D01*
X15543100Y-9089100D02*
X15518100Y-9114100D01*
X15543500Y-9957800D02*
X15568500Y-9982800D01*
X15568500Y-9957800D02*
X15543500Y-9982800D01*
X15558750Y-10653750D02*
X15583750Y-10678750D01*
X15583750Y-10653750D02*
X15558750Y-10678750D01*
X15574000Y-9642800D02*
X15599000Y-9667800D01*
X15599000Y-9642800D02*
X15574000Y-9667800D01*
X15666150Y-10459050D02*
X15691150Y-10484050D01*
X15691150Y-10459050D02*
X15666150Y-10484050D01*
X15685750Y-9810450D02*
X15710750Y-9835450D01*
X15710750Y-9810450D02*
X15685750Y-9835450D01*
X15701000Y-9368500D02*
X15726000Y-9393500D01*
X15726000Y-9368500D02*
X15701000Y-9393500D01*
X15711150Y-9515800D02*
X15736150Y-9540800D01*
X15736150Y-9515800D02*
X15711150Y-9540800D01*
X15777200Y-9962850D02*
X15802200Y-9987850D01*
X15802200Y-9962850D02*
X15777200Y-9987850D01*
X15797500Y-10206700D02*
X15822500Y-10231700D01*
X15822500Y-10206700D02*
X15797500Y-10231700D01*
X15802600Y-10455600D02*
X15827600Y-10480600D01*
X15827600Y-10455600D02*
X15802600Y-10480600D01*
X15802600Y-10658800D02*
X15827600Y-10683800D01*
X15827600Y-10658800D02*
X15802600Y-10683800D01*
X15817800Y-9713950D02*
X15842800Y-9738950D01*
X15842800Y-9713950D02*
X15817800Y-9738950D01*
X15833050Y-9297400D02*
X15858050Y-9322400D01*
X15858050Y-9297400D02*
X15833050Y-9322400D01*
X15838150Y-10999200D02*
X15863150Y-11024200D01*
X15863150Y-10999200D02*
X15838150Y-11024200D01*
X16097200Y-9378650D02*
X16122200Y-9403650D01*
X16122200Y-9378650D02*
X16097200Y-9403650D01*
X16153100Y-11121100D02*
X16178100Y-11146100D01*
X16178100Y-11121100D02*
X16153100Y-11146100D01*
X16173400Y-10440400D02*
X16198400Y-10465400D01*
X16198400Y-10440400D02*
X16173400Y-10465400D01*
X16214050Y-9683450D02*
X16239050Y-9708450D01*
X16239050Y-9683450D02*
X16214050Y-9708450D01*
X16275000Y-10628350D02*
X16300000Y-10653350D01*
X16300000Y-10628350D02*
X16275000Y-10653350D01*
X16305500Y-9531050D02*
X16330500Y-9556050D01*
X16330500Y-9531050D02*
X16305500Y-9556050D01*
X16356300Y-9190700D02*
X16381300Y-9215700D01*
X16381300Y-9190700D02*
X16356300Y-9215700D01*
X16376600Y-9068800D02*
X16401600Y-9093800D01*
X16401600Y-9068800D02*
X16376600Y-9093800D01*
X16412200Y-9332950D02*
X16437200Y-9357950D01*
X16437200Y-9332950D02*
X16412200Y-9357950D01*
X16468300Y-9531450D02*
X16493300Y-9556450D01*
X16493300Y-9531450D02*
X16468300Y-9556450D01*
X16468300Y-10633900D02*
X16493300Y-10658900D01*
X16493300Y-10633900D02*
X16468300Y-10658900D01*
X16564600Y-10150800D02*
X16589600Y-10175800D01*
X16589600Y-10150800D02*
X16564600Y-10175800D01*
X16574750Y-11110950D02*
X16599750Y-11135950D01*
X16599750Y-11110950D02*
X16574750Y-11135950D01*
X16584900Y-9846000D02*
X16609900Y-9871000D01*
X16609900Y-9846000D02*
X16584900Y-9871000D01*
X16610300Y-10455600D02*
X16635300Y-10480600D01*
X16635300Y-10455600D02*
X16610300Y-10480600D01*
X16676350Y-9546300D02*
X16701350Y-9571300D01*
X16701350Y-9546300D02*
X16676350Y-9571300D01*
X16676350Y-9719000D02*
X16701350Y-9744000D01*
X16701350Y-9719000D02*
X16676350Y-9744000D01*
X16676350Y-10343850D02*
X16701350Y-10368850D01*
X16701350Y-10343850D02*
X16676350Y-10368850D01*
X16676350Y-10633400D02*
X16701350Y-10658400D01*
X16701350Y-10633400D02*
X16676350Y-10658400D01*
X16691600Y-10028900D02*
X16716600Y-10053900D01*
X16716600Y-10028900D02*
X16691600Y-10053900D01*
X16701750Y-11044900D02*
X16726750Y-11069900D01*
X16726750Y-11044900D02*
X16701750Y-11069900D01*
X16717000Y-10826450D02*
X16742000Y-10851450D01*
X16742000Y-10826450D02*
X16717000Y-10851450D01*
X12375600Y-9414100D02*
G75*
G02*
X12345600Y-9414100I-15000J0D01*
G01*
X12345600Y-9414100D02*
G75*
G02*
X12375600Y-9414100I15000J0D01*
G01*
X13924250Y-9741650D02*
X13924250Y-9772150D01*
X13909000Y-9756900D02*
X13939500Y-9756900D01*
X14047250Y-9746750D02*
X14047250Y-9777250D01*
X14032000Y-9762000D02*
X14062500Y-9762000D01*
X12144413Y-9914613D02*
X12144413Y-9872187D01*
X12101987Y-9872187D01*
X12101987Y-9914613D01*
X12144413Y-9914613D01*
X12153200Y-9863400D02*
X12093200Y-9863400D01*
X12093200Y-9923400D02*
G75*
G02*
X12093200Y-9863400I0J30000D01*
G01*
X12093200Y-9923400D02*
X12153200Y-9923400D01*
X12153200Y-9923400D02*
G75*
G03*
X12153200Y-9863400I0J30000D01*
G01*
X12144413Y-10779613D02*
X12144413Y-10737187D01*
X12101987Y-10737187D01*
X12101987Y-10779613D01*
X12144413Y-10779613D01*
X12153200Y-10728400D02*
X12093200Y-10728400D01*
X12093200Y-10788400D02*
G75*
G02*
X12093200Y-10728400I0J30000D01*
G01*
X12093200Y-10788400D02*
X12153200Y-10788400D01*
X12153200Y-10788400D02*
G75*
G03*
X12153200Y-10728400I0J30000D01*
G01*
X12564413Y-9914613D02*
X12564413Y-9872187D01*
X12521987Y-9872187D01*
X12521987Y-9914613D01*
X12564413Y-9914613D01*
X12588200Y-9863400D02*
X12498200Y-9863400D01*
X12498200Y-9923400D02*
G75*
G02*
X12498200Y-9863400I0J30000D01*
G01*
X12498200Y-9923400D02*
X12588200Y-9923400D01*
X12588200Y-9923400D02*
G75*
G03*
X12588200Y-9863400I0J30000D01*
G01*
X12564413Y-10779613D02*
X12564413Y-10737187D01*
X12521987Y-10737187D01*
X12521987Y-10779613D01*
X12564413Y-10779613D01*
X12588200Y-10728400D02*
X12498200Y-10728400D01*
X12498200Y-10788400D02*
G75*
G02*
X12498200Y-10728400I0J30000D01*
G01*
X12498200Y-10788400D02*
X12588200Y-10788400D01*
X12588200Y-10788400D02*
G75*
G03*
X12588200Y-10728400I0J30000D01*
G01*
X14771400Y-9249000D02*
X14816400Y-9204000D01*
X14771400Y-9159000D01*
X14726400Y-9204000D01*
X14771400Y-9249000D01*
X14971400Y-9249000D02*
X15016400Y-9204000D01*
X14971400Y-9159000D01*
X14926400Y-9204000D01*
X14971400Y-9249000D01*
X15240000Y-11300000D02*
X15340000Y-11400000D01*
X15340000Y-11300000D02*
X15240000Y-11400000D01*
X15340000Y-11350000D02*
G75*
G02*
X15240000Y-11350000I-50000J0D01*
G01*
X15240000Y-11350000D02*
G75*
G02*
X15340000Y-11350000I50000J0D01*
G01*
X15494000Y-11300000D02*
X15594000Y-11400000D01*
X15594000Y-11300000D02*
X15494000Y-11400000D01*
X15594000Y-11350000D02*
G75*
G02*
X15494000Y-11350000I-50000J0D01*
G01*
X15494000Y-11350000D02*
G75*
G02*
X15594000Y-11350000I50000J0D01*
G01*
X15748000Y-11300000D02*
X15848000Y-11400000D01*
X15848000Y-11300000D02*
X15748000Y-11400000D01*
X15848000Y-11350000D02*
G75*
G02*
X15748000Y-11350000I-50000J0D01*
G01*
X15748000Y-11350000D02*
G75*
G02*
X15848000Y-11350000I50000J0D01*
G01*
X16380050Y-9675000D02*
X16480050Y-9775000D01*
X16480050Y-9675000D02*
X16380050Y-9775000D01*
X16480050Y-9725000D02*
G75*
G02*
X16380050Y-9725000I-50000J0D01*
G01*
X16380050Y-9725000D02*
G75*
G02*
X16480050Y-9725000I50000J0D01*
G01*
X16380050Y-9925000D02*
X16480050Y-10025000D01*
X16480050Y-9925000D02*
X16380050Y-10025000D01*
X16480050Y-9975000D02*
G75*
G02*
X16380050Y-9975000I-50000J0D01*
G01*
X16380050Y-9975000D02*
G75*
G02*
X16480050Y-9975000I50000J0D01*
G01*
X16380050Y-10175000D02*
X16480050Y-10275000D01*
X16480050Y-10175000D02*
X16380050Y-10275000D01*
X16480050Y-10225000D02*
G75*
G02*
X16380050Y-10225000I-50000J0D01*
G01*
X16380050Y-10225000D02*
G75*
G02*
X16480050Y-10225000I50000J0D01*
G01*
X16380050Y-10425000D02*
X16480050Y-10525000D01*
X16480050Y-10425000D02*
X16380050Y-10525000D01*
X16480050Y-10475000D02*
G75*
G02*
X16380050Y-10475000I-50000J0D01*
G01*
X16380050Y-10475000D02*
G75*
G02*
X16480050Y-10475000I50000J0D01*
G01*
D11*
X12100000Y-10900000D02*
X12300000Y-11100000D01*
X12300000Y-10900000D02*
X12100000Y-11100000D01*
X12200000Y-10900000D02*
X12200000Y-11100000D01*
X12100000Y-11000000D02*
X12300000Y-11000000D01*
X16500000Y-9100000D02*
X16700000Y-9300000D01*
X16700000Y-9100000D02*
X16500000Y-9300000D01*
X16600000Y-9100000D02*
X16600000Y-9300000D01*
X16500000Y-9200000D02*
X16700000Y-9200000D01*
X12248077Y-11824184D02*
X12248077Y-11624184D01*
X12248077Y-11624184D02*
X12295696Y-11624184D01*
X12295696Y-11624184D02*
X12324267Y-11633708D01*
X12324267Y-11633708D02*
X12343315Y-11652755D01*
X12343315Y-11652755D02*
X12352839Y-11671803D01*
X12352839Y-11671803D02*
X12362362Y-11709898D01*
X12362362Y-11709898D02*
X12362362Y-11738469D01*
X12362362Y-11738469D02*
X12352839Y-11776565D01*
X12352839Y-11776565D02*
X12343315Y-11795612D01*
X12343315Y-11795612D02*
X12324267Y-11814660D01*
X12324267Y-11814660D02*
X12295696Y-11824184D01*
X12295696Y-11824184D02*
X12248077Y-11824184D01*
X12448077Y-11824184D02*
X12448077Y-11690850D01*
X12448077Y-11728946D02*
X12457601Y-11709898D01*
X12457601Y-11709898D02*
X12467124Y-11700374D01*
X12467124Y-11700374D02*
X12486172Y-11690850D01*
X12486172Y-11690850D02*
X12505220Y-11690850D01*
X12571886Y-11824184D02*
X12571886Y-11690850D01*
X12571886Y-11624184D02*
X12562362Y-11633708D01*
X12562362Y-11633708D02*
X12571886Y-11643231D01*
X12571886Y-11643231D02*
X12581410Y-11633708D01*
X12581410Y-11633708D02*
X12571886Y-11624184D01*
X12571886Y-11624184D02*
X12571886Y-11643231D01*
X12695696Y-11824184D02*
X12676648Y-11814660D01*
X12676648Y-11814660D02*
X12667124Y-11795612D01*
X12667124Y-11795612D02*
X12667124Y-11624184D01*
X12800458Y-11824184D02*
X12781410Y-11814660D01*
X12781410Y-11814660D02*
X12771886Y-11795612D01*
X12771886Y-11795612D02*
X12771886Y-11624184D01*
X13029029Y-11824184D02*
X13029029Y-11624184D01*
X13029029Y-11624184D02*
X13095696Y-11767041D01*
X13095696Y-11767041D02*
X13162362Y-11624184D01*
X13162362Y-11624184D02*
X13162362Y-11824184D01*
X13343315Y-11824184D02*
X13343315Y-11719422D01*
X13343315Y-11719422D02*
X13333791Y-11700374D01*
X13333791Y-11700374D02*
X13314743Y-11690850D01*
X13314743Y-11690850D02*
X13276648Y-11690850D01*
X13276648Y-11690850D02*
X13257601Y-11700374D01*
X13343315Y-11814660D02*
X13324267Y-11824184D01*
X13324267Y-11824184D02*
X13276648Y-11824184D01*
X13276648Y-11824184D02*
X13257601Y-11814660D01*
X13257601Y-11814660D02*
X13248077Y-11795612D01*
X13248077Y-11795612D02*
X13248077Y-11776565D01*
X13248077Y-11776565D02*
X13257601Y-11757517D01*
X13257601Y-11757517D02*
X13276648Y-11747993D01*
X13276648Y-11747993D02*
X13324267Y-11747993D01*
X13324267Y-11747993D02*
X13343315Y-11738469D01*
X13438553Y-11690850D02*
X13438553Y-11890850D01*
X13438553Y-11700374D02*
X13457601Y-11690850D01*
X13457601Y-11690850D02*
X13495696Y-11690850D01*
X13495696Y-11690850D02*
X13514743Y-11700374D01*
X13514743Y-11700374D02*
X13524267Y-11709898D01*
X13524267Y-11709898D02*
X13533791Y-11728946D01*
X13533791Y-11728946D02*
X13533791Y-11786088D01*
X13533791Y-11786088D02*
X13524267Y-11805136D01*
X13524267Y-11805136D02*
X13514743Y-11814660D01*
X13514743Y-11814660D02*
X13495696Y-11824184D01*
X13495696Y-11824184D02*
X13457601Y-11824184D01*
X13457601Y-11824184D02*
X13438553Y-11814660D01*
X13619505Y-11805136D02*
X13629029Y-11814660D01*
X13629029Y-11814660D02*
X13619505Y-11824184D01*
X13619505Y-11824184D02*
X13609982Y-11814660D01*
X13609982Y-11814660D02*
X13619505Y-11805136D01*
X13619505Y-11805136D02*
X13619505Y-11824184D01*
X13619505Y-11700374D02*
X13629029Y-11709898D01*
X13629029Y-11709898D02*
X13619505Y-11719422D01*
X13619505Y-11719422D02*
X13609982Y-11709898D01*
X13609982Y-11709898D02*
X13619505Y-11700374D01*
X13619505Y-11700374D02*
X13619505Y-11719422D01*
D12*
X11962300Y-12140200D02*
X11987300Y-12165200D01*
X11987300Y-12140200D02*
X11962300Y-12165200D01*
D11*
X12286172Y-12044184D02*
X12305220Y-12044184D01*
X12305220Y-12044184D02*
X12324267Y-12053708D01*
X12324267Y-12053708D02*
X12333791Y-12063231D01*
X12333791Y-12063231D02*
X12343315Y-12082279D01*
X12343315Y-12082279D02*
X12352839Y-12120374D01*
X12352839Y-12120374D02*
X12352839Y-12167993D01*
X12352839Y-12167993D02*
X12343315Y-12206088D01*
X12343315Y-12206088D02*
X12333791Y-12225136D01*
X12333791Y-12225136D02*
X12324267Y-12234660D01*
X12324267Y-12234660D02*
X12305220Y-12244184D01*
X12305220Y-12244184D02*
X12286172Y-12244184D01*
X12286172Y-12244184D02*
X12267124Y-12234660D01*
X12267124Y-12234660D02*
X12257601Y-12225136D01*
X12257601Y-12225136D02*
X12248077Y-12206088D01*
X12248077Y-12206088D02*
X12238553Y-12167993D01*
X12238553Y-12167993D02*
X12238553Y-12120374D01*
X12238553Y-12120374D02*
X12248077Y-12082279D01*
X12248077Y-12082279D02*
X12257601Y-12063231D01*
X12257601Y-12063231D02*
X12267124Y-12053708D01*
X12267124Y-12053708D02*
X12286172Y-12044184D01*
X12438553Y-12225136D02*
X12448077Y-12234660D01*
X12448077Y-12234660D02*
X12438553Y-12244184D01*
X12438553Y-12244184D02*
X12429029Y-12234660D01*
X12429029Y-12234660D02*
X12438553Y-12225136D01*
X12438553Y-12225136D02*
X12438553Y-12244184D01*
X12524267Y-12063231D02*
X12533791Y-12053708D01*
X12533791Y-12053708D02*
X12552839Y-12044184D01*
X12552839Y-12044184D02*
X12600458Y-12044184D01*
X12600458Y-12044184D02*
X12619505Y-12053708D01*
X12619505Y-12053708D02*
X12629029Y-12063231D01*
X12629029Y-12063231D02*
X12638553Y-12082279D01*
X12638553Y-12082279D02*
X12638553Y-12101327D01*
X12638553Y-12101327D02*
X12629029Y-12129898D01*
X12629029Y-12129898D02*
X12514743Y-12244184D01*
X12514743Y-12244184D02*
X12638553Y-12244184D01*
X12819505Y-12044184D02*
X12724267Y-12044184D01*
X12724267Y-12044184D02*
X12714743Y-12139422D01*
X12714743Y-12139422D02*
X12724267Y-12129898D01*
X12724267Y-12129898D02*
X12743315Y-12120374D01*
X12743315Y-12120374D02*
X12790934Y-12120374D01*
X12790934Y-12120374D02*
X12809982Y-12129898D01*
X12809982Y-12129898D02*
X12819505Y-12139422D01*
X12819505Y-12139422D02*
X12829029Y-12158469D01*
X12829029Y-12158469D02*
X12829029Y-12206088D01*
X12829029Y-12206088D02*
X12819505Y-12225136D01*
X12819505Y-12225136D02*
X12809982Y-12234660D01*
X12809982Y-12234660D02*
X12790934Y-12244184D01*
X12790934Y-12244184D02*
X12743315Y-12244184D01*
X12743315Y-12244184D02*
X12724267Y-12234660D01*
X12724267Y-12234660D02*
X12714743Y-12225136D01*
X12952839Y-12044184D02*
X12971886Y-12044184D01*
X12971886Y-12044184D02*
X12990934Y-12053708D01*
X12990934Y-12053708D02*
X13000458Y-12063231D01*
X13000458Y-12063231D02*
X13009982Y-12082279D01*
X13009982Y-12082279D02*
X13019505Y-12120374D01*
X13019505Y-12120374D02*
X13019505Y-12167993D01*
X13019505Y-12167993D02*
X13009982Y-12206088D01*
X13009982Y-12206088D02*
X13000458Y-12225136D01*
X13000458Y-12225136D02*
X12990934Y-12234660D01*
X12990934Y-12234660D02*
X12971886Y-12244184D01*
X12971886Y-12244184D02*
X12952839Y-12244184D01*
X12952839Y-12244184D02*
X12933791Y-12234660D01*
X12933791Y-12234660D02*
X12924267Y-12225136D01*
X12924267Y-12225136D02*
X12914743Y-12206088D01*
X12914743Y-12206088D02*
X12905220Y-12167993D01*
X12905220Y-12167993D02*
X12905220Y-12120374D01*
X12905220Y-12120374D02*
X12914743Y-12082279D01*
X12914743Y-12082279D02*
X12924267Y-12063231D01*
X12924267Y-12063231D02*
X12933791Y-12053708D01*
X12933791Y-12053708D02*
X12952839Y-12044184D01*
X13105220Y-12244184D02*
X13105220Y-12110850D01*
X13105220Y-12129898D02*
X13114743Y-12120374D01*
X13114743Y-12120374D02*
X13133791Y-12110850D01*
X13133791Y-12110850D02*
X13162363Y-12110850D01*
X13162363Y-12110850D02*
X13181410Y-12120374D01*
X13181410Y-12120374D02*
X13190934Y-12139422D01*
X13190934Y-12139422D02*
X13190934Y-12244184D01*
X13190934Y-12139422D02*
X13200458Y-12120374D01*
X13200458Y-12120374D02*
X13219505Y-12110850D01*
X13219505Y-12110850D02*
X13248077Y-12110850D01*
X13248077Y-12110850D02*
X13267124Y-12120374D01*
X13267124Y-12120374D02*
X13276648Y-12139422D01*
X13276648Y-12139422D02*
X13276648Y-12244184D01*
X13371886Y-12244184D02*
X13371886Y-12110850D01*
X13371886Y-12129898D02*
X13381410Y-12120374D01*
X13381410Y-12120374D02*
X13400458Y-12110850D01*
X13400458Y-12110850D02*
X13429029Y-12110850D01*
X13429029Y-12110850D02*
X13448077Y-12120374D01*
X13448077Y-12120374D02*
X13457601Y-12139422D01*
X13457601Y-12139422D02*
X13457601Y-12244184D01*
X13457601Y-12139422D02*
X13467124Y-12120374D01*
X13467124Y-12120374D02*
X13486172Y-12110850D01*
X13486172Y-12110850D02*
X13514743Y-12110850D01*
X13514743Y-12110850D02*
X13533791Y-12120374D01*
X13533791Y-12120374D02*
X13543315Y-12139422D01*
X13543315Y-12139422D02*
X13543315Y-12244184D01*
X13933791Y-12034660D02*
X13762363Y-12291803D01*
X14190934Y-12044184D02*
X14209982Y-12044184D01*
X14209982Y-12044184D02*
X14229029Y-12053708D01*
X14229029Y-12053708D02*
X14238553Y-12063231D01*
X14238553Y-12063231D02*
X14248077Y-12082279D01*
X14248077Y-12082279D02*
X14257601Y-12120374D01*
X14257601Y-12120374D02*
X14257601Y-12167993D01*
X14257601Y-12167993D02*
X14248077Y-12206088D01*
X14248077Y-12206088D02*
X14238553Y-12225136D01*
X14238553Y-12225136D02*
X14229029Y-12234660D01*
X14229029Y-12234660D02*
X14209982Y-12244184D01*
X14209982Y-12244184D02*
X14190934Y-12244184D01*
X14190934Y-12244184D02*
X14171886Y-12234660D01*
X14171886Y-12234660D02*
X14162363Y-12225136D01*
X14162363Y-12225136D02*
X14152839Y-12206088D01*
X14152839Y-12206088D02*
X14143315Y-12167993D01*
X14143315Y-12167993D02*
X14143315Y-12120374D01*
X14143315Y-12120374D02*
X14152839Y-12082279D01*
X14152839Y-12082279D02*
X14162363Y-12063231D01*
X14162363Y-12063231D02*
X14171886Y-12053708D01*
X14171886Y-12053708D02*
X14190934Y-12044184D01*
X14343315Y-12225136D02*
X14352839Y-12234660D01*
X14352839Y-12234660D02*
X14343315Y-12244184D01*
X14343315Y-12244184D02*
X14333791Y-12234660D01*
X14333791Y-12234660D02*
X14343315Y-12225136D01*
X14343315Y-12225136D02*
X14343315Y-12244184D01*
X14476648Y-12044184D02*
X14495696Y-12044184D01*
X14495696Y-12044184D02*
X14514744Y-12053708D01*
X14514744Y-12053708D02*
X14524267Y-12063231D01*
X14524267Y-12063231D02*
X14533791Y-12082279D01*
X14533791Y-12082279D02*
X14543315Y-12120374D01*
X14543315Y-12120374D02*
X14543315Y-12167993D01*
X14543315Y-12167993D02*
X14533791Y-12206088D01*
X14533791Y-12206088D02*
X14524267Y-12225136D01*
X14524267Y-12225136D02*
X14514744Y-12234660D01*
X14514744Y-12234660D02*
X14495696Y-12244184D01*
X14495696Y-12244184D02*
X14476648Y-12244184D01*
X14476648Y-12244184D02*
X14457601Y-12234660D01*
X14457601Y-12234660D02*
X14448077Y-12225136D01*
X14448077Y-12225136D02*
X14438553Y-12206088D01*
X14438553Y-12206088D02*
X14429029Y-12167993D01*
X14429029Y-12167993D02*
X14429029Y-12120374D01*
X14429029Y-12120374D02*
X14438553Y-12082279D01*
X14438553Y-12082279D02*
X14448077Y-12063231D01*
X14448077Y-12063231D02*
X14457601Y-12053708D01*
X14457601Y-12053708D02*
X14476648Y-12044184D01*
X14667125Y-12044184D02*
X14686172Y-12044184D01*
X14686172Y-12044184D02*
X14705220Y-12053708D01*
X14705220Y-12053708D02*
X14714744Y-12063231D01*
X14714744Y-12063231D02*
X14724267Y-12082279D01*
X14724267Y-12082279D02*
X14733791Y-12120374D01*
X14733791Y-12120374D02*
X14733791Y-12167993D01*
X14733791Y-12167993D02*
X14724267Y-12206088D01*
X14724267Y-12206088D02*
X14714744Y-12225136D01*
X14714744Y-12225136D02*
X14705220Y-12234660D01*
X14705220Y-12234660D02*
X14686172Y-12244184D01*
X14686172Y-12244184D02*
X14667125Y-12244184D01*
X14667125Y-12244184D02*
X14648077Y-12234660D01*
X14648077Y-12234660D02*
X14638553Y-12225136D01*
X14638553Y-12225136D02*
X14629029Y-12206088D01*
X14629029Y-12206088D02*
X14619506Y-12167993D01*
X14619506Y-12167993D02*
X14619506Y-12120374D01*
X14619506Y-12120374D02*
X14629029Y-12082279D01*
X14629029Y-12082279D02*
X14638553Y-12063231D01*
X14638553Y-12063231D02*
X14648077Y-12053708D01*
X14648077Y-12053708D02*
X14667125Y-12044184D01*
X14829029Y-12244184D02*
X14867125Y-12244184D01*
X14867125Y-12244184D02*
X14886172Y-12234660D01*
X14886172Y-12234660D02*
X14895696Y-12225136D01*
X14895696Y-12225136D02*
X14914744Y-12196565D01*
X14914744Y-12196565D02*
X14924267Y-12158469D01*
X14924267Y-12158469D02*
X14924267Y-12082279D01*
X14924267Y-12082279D02*
X14914744Y-12063231D01*
X14914744Y-12063231D02*
X14905220Y-12053708D01*
X14905220Y-12053708D02*
X14886172Y-12044184D01*
X14886172Y-12044184D02*
X14848077Y-12044184D01*
X14848077Y-12044184D02*
X14829029Y-12053708D01*
X14829029Y-12053708D02*
X14819506Y-12063231D01*
X14819506Y-12063231D02*
X14809982Y-12082279D01*
X14809982Y-12082279D02*
X14809982Y-12129898D01*
X14809982Y-12129898D02*
X14819506Y-12148946D01*
X14819506Y-12148946D02*
X14829029Y-12158469D01*
X14829029Y-12158469D02*
X14848077Y-12167993D01*
X14848077Y-12167993D02*
X14886172Y-12167993D01*
X14886172Y-12167993D02*
X14905220Y-12158469D01*
X14905220Y-12158469D02*
X14914744Y-12148946D01*
X14914744Y-12148946D02*
X14924267Y-12129898D01*
X15038553Y-12129898D02*
X15019506Y-12120374D01*
X15019506Y-12120374D02*
X15009982Y-12110850D01*
X15009982Y-12110850D02*
X15000458Y-12091803D01*
X15000458Y-12091803D02*
X15000458Y-12082279D01*
X15000458Y-12082279D02*
X15009982Y-12063231D01*
X15009982Y-12063231D02*
X15019506Y-12053708D01*
X15019506Y-12053708D02*
X15038553Y-12044184D01*
X15038553Y-12044184D02*
X15076648Y-12044184D01*
X15076648Y-12044184D02*
X15095696Y-12053708D01*
X15095696Y-12053708D02*
X15105220Y-12063231D01*
X15105220Y-12063231D02*
X15114744Y-12082279D01*
X15114744Y-12082279D02*
X15114744Y-12091803D01*
X15114744Y-12091803D02*
X15105220Y-12110850D01*
X15105220Y-12110850D02*
X15095696Y-12120374D01*
X15095696Y-12120374D02*
X15076648Y-12129898D01*
X15076648Y-12129898D02*
X15038553Y-12129898D01*
X15038553Y-12129898D02*
X15019506Y-12139422D01*
X15019506Y-12139422D02*
X15009982Y-12148946D01*
X15009982Y-12148946D02*
X15000458Y-12167993D01*
X15000458Y-12167993D02*
X15000458Y-12206088D01*
X15000458Y-12206088D02*
X15009982Y-12225136D01*
X15009982Y-12225136D02*
X15019506Y-12234660D01*
X15019506Y-12234660D02*
X15038553Y-12244184D01*
X15038553Y-12244184D02*
X15076648Y-12244184D01*
X15076648Y-12244184D02*
X15095696Y-12234660D01*
X15095696Y-12234660D02*
X15105220Y-12225136D01*
X15105220Y-12225136D02*
X15114744Y-12206088D01*
X15114744Y-12206088D02*
X15114744Y-12167993D01*
X15114744Y-12167993D02*
X15105220Y-12148946D01*
X15105220Y-12148946D02*
X15095696Y-12139422D01*
X15095696Y-12139422D02*
X15076648Y-12129898D01*
X15190934Y-12044184D02*
X15190934Y-12082279D01*
X15267125Y-12044184D02*
X15267125Y-12082279D01*
X15562363Y-12320374D02*
X15552839Y-12310850D01*
X15552839Y-12310850D02*
X15533791Y-12282279D01*
X15533791Y-12282279D02*
X15524268Y-12263231D01*
X15524268Y-12263231D02*
X15514744Y-12234660D01*
X15514744Y-12234660D02*
X15505220Y-12187041D01*
X15505220Y-12187041D02*
X15505220Y-12148946D01*
X15505220Y-12148946D02*
X15514744Y-12101327D01*
X15514744Y-12101327D02*
X15524268Y-12072755D01*
X15524268Y-12072755D02*
X15533791Y-12053708D01*
X15533791Y-12053708D02*
X15552839Y-12025136D01*
X15552839Y-12025136D02*
X15562363Y-12015612D01*
X15743315Y-12244184D02*
X15629029Y-12244184D01*
X15686172Y-12244184D02*
X15686172Y-12044184D01*
X15686172Y-12044184D02*
X15667125Y-12072755D01*
X15667125Y-12072755D02*
X15648077Y-12091803D01*
X15648077Y-12091803D02*
X15629029Y-12101327D01*
X15924268Y-12044184D02*
X15829029Y-12044184D01*
X15829029Y-12044184D02*
X15819506Y-12139422D01*
X15819506Y-12139422D02*
X15829029Y-12129898D01*
X15829029Y-12129898D02*
X15848077Y-12120374D01*
X15848077Y-12120374D02*
X15895696Y-12120374D01*
X15895696Y-12120374D02*
X15914744Y-12129898D01*
X15914744Y-12129898D02*
X15924268Y-12139422D01*
X15924268Y-12139422D02*
X15933791Y-12158469D01*
X15933791Y-12158469D02*
X15933791Y-12206088D01*
X15933791Y-12206088D02*
X15924268Y-12225136D01*
X15924268Y-12225136D02*
X15914744Y-12234660D01*
X15914744Y-12234660D02*
X15895696Y-12244184D01*
X15895696Y-12244184D02*
X15848077Y-12244184D01*
X15848077Y-12244184D02*
X15829029Y-12234660D01*
X15829029Y-12234660D02*
X15819506Y-12225136D01*
X16000458Y-12044184D02*
X16133791Y-12044184D01*
X16133791Y-12044184D02*
X16048077Y-12244184D01*
X16362363Y-12244184D02*
X16362363Y-12044184D01*
X16448077Y-12244184D02*
X16448077Y-12139422D01*
X16448077Y-12139422D02*
X16438553Y-12120374D01*
X16438553Y-12120374D02*
X16419506Y-12110850D01*
X16419506Y-12110850D02*
X16390934Y-12110850D01*
X16390934Y-12110850D02*
X16371887Y-12120374D01*
X16371887Y-12120374D02*
X16362363Y-12129898D01*
X16571887Y-12244184D02*
X16552839Y-12234660D01*
X16552839Y-12234660D02*
X16543315Y-12225136D01*
X16543315Y-12225136D02*
X16533791Y-12206088D01*
X16533791Y-12206088D02*
X16533791Y-12148946D01*
X16533791Y-12148946D02*
X16543315Y-12129898D01*
X16543315Y-12129898D02*
X16552839Y-12120374D01*
X16552839Y-12120374D02*
X16571887Y-12110850D01*
X16571887Y-12110850D02*
X16600458Y-12110850D01*
X16600458Y-12110850D02*
X16619506Y-12120374D01*
X16619506Y-12120374D02*
X16629030Y-12129898D01*
X16629030Y-12129898D02*
X16638553Y-12148946D01*
X16638553Y-12148946D02*
X16638553Y-12206088D01*
X16638553Y-12206088D02*
X16629030Y-12225136D01*
X16629030Y-12225136D02*
X16619506Y-12234660D01*
X16619506Y-12234660D02*
X16600458Y-12244184D01*
X16600458Y-12244184D02*
X16571887Y-12244184D01*
X16752839Y-12244184D02*
X16733791Y-12234660D01*
X16733791Y-12234660D02*
X16724268Y-12215612D01*
X16724268Y-12215612D02*
X16724268Y-12044184D01*
X16905220Y-12234660D02*
X16886173Y-12244184D01*
X16886173Y-12244184D02*
X16848077Y-12244184D01*
X16848077Y-12244184D02*
X16829030Y-12234660D01*
X16829030Y-12234660D02*
X16819506Y-12215612D01*
X16819506Y-12215612D02*
X16819506Y-12139422D01*
X16819506Y-12139422D02*
X16829030Y-12120374D01*
X16829030Y-12120374D02*
X16848077Y-12110850D01*
X16848077Y-12110850D02*
X16886173Y-12110850D01*
X16886173Y-12110850D02*
X16905220Y-12120374D01*
X16905220Y-12120374D02*
X16914744Y-12139422D01*
X16914744Y-12139422D02*
X16914744Y-12158469D01*
X16914744Y-12158469D02*
X16819506Y-12177517D01*
X16990934Y-12234660D02*
X17009982Y-12244184D01*
X17009982Y-12244184D02*
X17048077Y-12244184D01*
X17048077Y-12244184D02*
X17067125Y-12234660D01*
X17067125Y-12234660D02*
X17076649Y-12215612D01*
X17076649Y-12215612D02*
X17076649Y-12206088D01*
X17076649Y-12206088D02*
X17067125Y-12187041D01*
X17067125Y-12187041D02*
X17048077Y-12177517D01*
X17048077Y-12177517D02*
X17019506Y-12177517D01*
X17019506Y-12177517D02*
X17000458Y-12167993D01*
X17000458Y-12167993D02*
X16990934Y-12148946D01*
X16990934Y-12148946D02*
X16990934Y-12139422D01*
X16990934Y-12139422D02*
X17000458Y-12120374D01*
X17000458Y-12120374D02*
X17019506Y-12110850D01*
X17019506Y-12110850D02*
X17048077Y-12110850D01*
X17048077Y-12110850D02*
X17067125Y-12120374D01*
X17143315Y-12320374D02*
X17152839Y-12310850D01*
X17152839Y-12310850D02*
X17171887Y-12282279D01*
X17171887Y-12282279D02*
X17181411Y-12263231D01*
X17181411Y-12263231D02*
X17190934Y-12234660D01*
X17190934Y-12234660D02*
X17200458Y-12187041D01*
X17200458Y-12187041D02*
X17200458Y-12148946D01*
X17200458Y-12148946D02*
X17190934Y-12101327D01*
X17190934Y-12101327D02*
X17181411Y-12072755D01*
X17181411Y-12072755D02*
X17171887Y-12053708D01*
X17171887Y-12053708D02*
X17152839Y-12025136D01*
X17152839Y-12025136D02*
X17143315Y-12015612D01*
D12*
X11987300Y-12416700D02*
G75*
G02*
X11957300Y-12416700I-15000J0D01*
G01*
X11957300Y-12416700D02*
G75*
G02*
X11987300Y-12416700I15000J0D01*
G01*
D11*
X12286172Y-12308184D02*
X12305220Y-12308184D01*
X12305220Y-12308184D02*
X12324267Y-12317708D01*
X12324267Y-12317708D02*
X12333791Y-12327231D01*
X12333791Y-12327231D02*
X12343315Y-12346279D01*
X12343315Y-12346279D02*
X12352839Y-12384374D01*
X12352839Y-12384374D02*
X12352839Y-12431993D01*
X12352839Y-12431993D02*
X12343315Y-12470088D01*
X12343315Y-12470088D02*
X12333791Y-12489136D01*
X12333791Y-12489136D02*
X12324267Y-12498660D01*
X12324267Y-12498660D02*
X12305220Y-12508184D01*
X12305220Y-12508184D02*
X12286172Y-12508184D01*
X12286172Y-12508184D02*
X12267124Y-12498660D01*
X12267124Y-12498660D02*
X12257601Y-12489136D01*
X12257601Y-12489136D02*
X12248077Y-12470088D01*
X12248077Y-12470088D02*
X12238553Y-12431993D01*
X12238553Y-12431993D02*
X12238553Y-12384374D01*
X12238553Y-12384374D02*
X12248077Y-12346279D01*
X12248077Y-12346279D02*
X12257601Y-12327231D01*
X12257601Y-12327231D02*
X12267124Y-12317708D01*
X12267124Y-12317708D02*
X12286172Y-12308184D01*
X12438553Y-12489136D02*
X12448077Y-12498660D01*
X12448077Y-12498660D02*
X12438553Y-12508184D01*
X12438553Y-12508184D02*
X12429029Y-12498660D01*
X12429029Y-12498660D02*
X12438553Y-12489136D01*
X12438553Y-12489136D02*
X12438553Y-12508184D01*
X12514743Y-12308184D02*
X12638553Y-12308184D01*
X12638553Y-12308184D02*
X12571886Y-12384374D01*
X12571886Y-12384374D02*
X12600458Y-12384374D01*
X12600458Y-12384374D02*
X12619505Y-12393898D01*
X12619505Y-12393898D02*
X12629029Y-12403422D01*
X12629029Y-12403422D02*
X12638553Y-12422469D01*
X12638553Y-12422469D02*
X12638553Y-12470088D01*
X12638553Y-12470088D02*
X12629029Y-12489136D01*
X12629029Y-12489136D02*
X12619505Y-12498660D01*
X12619505Y-12498660D02*
X12600458Y-12508184D01*
X12600458Y-12508184D02*
X12543315Y-12508184D01*
X12543315Y-12508184D02*
X12524267Y-12498660D01*
X12524267Y-12498660D02*
X12514743Y-12489136D01*
X12762362Y-12308184D02*
X12781410Y-12308184D01*
X12781410Y-12308184D02*
X12800458Y-12317708D01*
X12800458Y-12317708D02*
X12809982Y-12327231D01*
X12809982Y-12327231D02*
X12819505Y-12346279D01*
X12819505Y-12346279D02*
X12829029Y-12384374D01*
X12829029Y-12384374D02*
X12829029Y-12431993D01*
X12829029Y-12431993D02*
X12819505Y-12470088D01*
X12819505Y-12470088D02*
X12809982Y-12489136D01*
X12809982Y-12489136D02*
X12800458Y-12498660D01*
X12800458Y-12498660D02*
X12781410Y-12508184D01*
X12781410Y-12508184D02*
X12762362Y-12508184D01*
X12762362Y-12508184D02*
X12743315Y-12498660D01*
X12743315Y-12498660D02*
X12733791Y-12489136D01*
X12733791Y-12489136D02*
X12724267Y-12470088D01*
X12724267Y-12470088D02*
X12714743Y-12431993D01*
X12714743Y-12431993D02*
X12714743Y-12384374D01*
X12714743Y-12384374D02*
X12724267Y-12346279D01*
X12724267Y-12346279D02*
X12733791Y-12327231D01*
X12733791Y-12327231D02*
X12743315Y-12317708D01*
X12743315Y-12317708D02*
X12762362Y-12308184D01*
X12952839Y-12308184D02*
X12971886Y-12308184D01*
X12971886Y-12308184D02*
X12990934Y-12317708D01*
X12990934Y-12317708D02*
X13000458Y-12327231D01*
X13000458Y-12327231D02*
X13009982Y-12346279D01*
X13009982Y-12346279D02*
X13019505Y-12384374D01*
X13019505Y-12384374D02*
X13019505Y-12431993D01*
X13019505Y-12431993D02*
X13009982Y-12470088D01*
X13009982Y-12470088D02*
X13000458Y-12489136D01*
X13000458Y-12489136D02*
X12990934Y-12498660D01*
X12990934Y-12498660D02*
X12971886Y-12508184D01*
X12971886Y-12508184D02*
X12952839Y-12508184D01*
X12952839Y-12508184D02*
X12933791Y-12498660D01*
X12933791Y-12498660D02*
X12924267Y-12489136D01*
X12924267Y-12489136D02*
X12914743Y-12470088D01*
X12914743Y-12470088D02*
X12905220Y-12431993D01*
X12905220Y-12431993D02*
X12905220Y-12384374D01*
X12905220Y-12384374D02*
X12914743Y-12346279D01*
X12914743Y-12346279D02*
X12924267Y-12327231D01*
X12924267Y-12327231D02*
X12933791Y-12317708D01*
X12933791Y-12317708D02*
X12952839Y-12308184D01*
X13105220Y-12508184D02*
X13105220Y-12374850D01*
X13105220Y-12393898D02*
X13114743Y-12384374D01*
X13114743Y-12384374D02*
X13133791Y-12374850D01*
X13133791Y-12374850D02*
X13162363Y-12374850D01*
X13162363Y-12374850D02*
X13181410Y-12384374D01*
X13181410Y-12384374D02*
X13190934Y-12403422D01*
X13190934Y-12403422D02*
X13190934Y-12508184D01*
X13190934Y-12403422D02*
X13200458Y-12384374D01*
X13200458Y-12384374D02*
X13219505Y-12374850D01*
X13219505Y-12374850D02*
X13248077Y-12374850D01*
X13248077Y-12374850D02*
X13267124Y-12384374D01*
X13267124Y-12384374D02*
X13276648Y-12403422D01*
X13276648Y-12403422D02*
X13276648Y-12508184D01*
X13371886Y-12508184D02*
X13371886Y-12374850D01*
X13371886Y-12393898D02*
X13381410Y-12384374D01*
X13381410Y-12384374D02*
X13400458Y-12374850D01*
X13400458Y-12374850D02*
X13429029Y-12374850D01*
X13429029Y-12374850D02*
X13448077Y-12384374D01*
X13448077Y-12384374D02*
X13457601Y-12403422D01*
X13457601Y-12403422D02*
X13457601Y-12508184D01*
X13457601Y-12403422D02*
X13467124Y-12384374D01*
X13467124Y-12384374D02*
X13486172Y-12374850D01*
X13486172Y-12374850D02*
X13514743Y-12374850D01*
X13514743Y-12374850D02*
X13533791Y-12384374D01*
X13533791Y-12384374D02*
X13543315Y-12403422D01*
X13543315Y-12403422D02*
X13543315Y-12508184D01*
X13933791Y-12298660D02*
X13762363Y-12555803D01*
X14190934Y-12308184D02*
X14209982Y-12308184D01*
X14209982Y-12308184D02*
X14229029Y-12317708D01*
X14229029Y-12317708D02*
X14238553Y-12327231D01*
X14238553Y-12327231D02*
X14248077Y-12346279D01*
X14248077Y-12346279D02*
X14257601Y-12384374D01*
X14257601Y-12384374D02*
X14257601Y-12431993D01*
X14257601Y-12431993D02*
X14248077Y-12470088D01*
X14248077Y-12470088D02*
X14238553Y-12489136D01*
X14238553Y-12489136D02*
X14229029Y-12498660D01*
X14229029Y-12498660D02*
X14209982Y-12508184D01*
X14209982Y-12508184D02*
X14190934Y-12508184D01*
X14190934Y-12508184D02*
X14171886Y-12498660D01*
X14171886Y-12498660D02*
X14162363Y-12489136D01*
X14162363Y-12489136D02*
X14152839Y-12470088D01*
X14152839Y-12470088D02*
X14143315Y-12431993D01*
X14143315Y-12431993D02*
X14143315Y-12384374D01*
X14143315Y-12384374D02*
X14152839Y-12346279D01*
X14152839Y-12346279D02*
X14162363Y-12327231D01*
X14162363Y-12327231D02*
X14171886Y-12317708D01*
X14171886Y-12317708D02*
X14190934Y-12308184D01*
X14343315Y-12489136D02*
X14352839Y-12498660D01*
X14352839Y-12498660D02*
X14343315Y-12508184D01*
X14343315Y-12508184D02*
X14333791Y-12498660D01*
X14333791Y-12498660D02*
X14343315Y-12489136D01*
X14343315Y-12489136D02*
X14343315Y-12508184D01*
X14476648Y-12308184D02*
X14495696Y-12308184D01*
X14495696Y-12308184D02*
X14514744Y-12317708D01*
X14514744Y-12317708D02*
X14524267Y-12327231D01*
X14524267Y-12327231D02*
X14533791Y-12346279D01*
X14533791Y-12346279D02*
X14543315Y-12384374D01*
X14543315Y-12384374D02*
X14543315Y-12431993D01*
X14543315Y-12431993D02*
X14533791Y-12470088D01*
X14533791Y-12470088D02*
X14524267Y-12489136D01*
X14524267Y-12489136D02*
X14514744Y-12498660D01*
X14514744Y-12498660D02*
X14495696Y-12508184D01*
X14495696Y-12508184D02*
X14476648Y-12508184D01*
X14476648Y-12508184D02*
X14457601Y-12498660D01*
X14457601Y-12498660D02*
X14448077Y-12489136D01*
X14448077Y-12489136D02*
X14438553Y-12470088D01*
X14438553Y-12470088D02*
X14429029Y-12431993D01*
X14429029Y-12431993D02*
X14429029Y-12384374D01*
X14429029Y-12384374D02*
X14438553Y-12346279D01*
X14438553Y-12346279D02*
X14448077Y-12327231D01*
X14448077Y-12327231D02*
X14457601Y-12317708D01*
X14457601Y-12317708D02*
X14476648Y-12308184D01*
X14733791Y-12508184D02*
X14619506Y-12508184D01*
X14676648Y-12508184D02*
X14676648Y-12308184D01*
X14676648Y-12308184D02*
X14657601Y-12336755D01*
X14657601Y-12336755D02*
X14638553Y-12355803D01*
X14638553Y-12355803D02*
X14619506Y-12365327D01*
X14924267Y-12508184D02*
X14809982Y-12508184D01*
X14867125Y-12508184D02*
X14867125Y-12308184D01*
X14867125Y-12308184D02*
X14848077Y-12336755D01*
X14848077Y-12336755D02*
X14829029Y-12355803D01*
X14829029Y-12355803D02*
X14809982Y-12365327D01*
X15038553Y-12393898D02*
X15019506Y-12384374D01*
X15019506Y-12384374D02*
X15009982Y-12374850D01*
X15009982Y-12374850D02*
X15000458Y-12355803D01*
X15000458Y-12355803D02*
X15000458Y-12346279D01*
X15000458Y-12346279D02*
X15009982Y-12327231D01*
X15009982Y-12327231D02*
X15019506Y-12317708D01*
X15019506Y-12317708D02*
X15038553Y-12308184D01*
X15038553Y-12308184D02*
X15076648Y-12308184D01*
X15076648Y-12308184D02*
X15095696Y-12317708D01*
X15095696Y-12317708D02*
X15105220Y-12327231D01*
X15105220Y-12327231D02*
X15114744Y-12346279D01*
X15114744Y-12346279D02*
X15114744Y-12355803D01*
X15114744Y-12355803D02*
X15105220Y-12374850D01*
X15105220Y-12374850D02*
X15095696Y-12384374D01*
X15095696Y-12384374D02*
X15076648Y-12393898D01*
X15076648Y-12393898D02*
X15038553Y-12393898D01*
X15038553Y-12393898D02*
X15019506Y-12403422D01*
X15019506Y-12403422D02*
X15009982Y-12412946D01*
X15009982Y-12412946D02*
X15000458Y-12431993D01*
X15000458Y-12431993D02*
X15000458Y-12470088D01*
X15000458Y-12470088D02*
X15009982Y-12489136D01*
X15009982Y-12489136D02*
X15019506Y-12498660D01*
X15019506Y-12498660D02*
X15038553Y-12508184D01*
X15038553Y-12508184D02*
X15076648Y-12508184D01*
X15076648Y-12508184D02*
X15095696Y-12498660D01*
X15095696Y-12498660D02*
X15105220Y-12489136D01*
X15105220Y-12489136D02*
X15114744Y-12470088D01*
X15114744Y-12470088D02*
X15114744Y-12431993D01*
X15114744Y-12431993D02*
X15105220Y-12412946D01*
X15105220Y-12412946D02*
X15095696Y-12403422D01*
X15095696Y-12403422D02*
X15076648Y-12393898D01*
X15190934Y-12308184D02*
X15190934Y-12346279D01*
X15267125Y-12308184D02*
X15267125Y-12346279D01*
X15562363Y-12584374D02*
X15552839Y-12574850D01*
X15552839Y-12574850D02*
X15533791Y-12546279D01*
X15533791Y-12546279D02*
X15524268Y-12527231D01*
X15524268Y-12527231D02*
X15514744Y-12498660D01*
X15514744Y-12498660D02*
X15505220Y-12451041D01*
X15505220Y-12451041D02*
X15505220Y-12412946D01*
X15505220Y-12412946D02*
X15514744Y-12365327D01*
X15514744Y-12365327D02*
X15524268Y-12336755D01*
X15524268Y-12336755D02*
X15533791Y-12317708D01*
X15533791Y-12317708D02*
X15552839Y-12289136D01*
X15552839Y-12289136D02*
X15562363Y-12279612D01*
X15743315Y-12508184D02*
X15629029Y-12508184D01*
X15686172Y-12508184D02*
X15686172Y-12308184D01*
X15686172Y-12308184D02*
X15667125Y-12336755D01*
X15667125Y-12336755D02*
X15648077Y-12355803D01*
X15648077Y-12355803D02*
X15629029Y-12365327D01*
X15981410Y-12508184D02*
X15981410Y-12308184D01*
X16067125Y-12508184D02*
X16067125Y-12403422D01*
X16067125Y-12403422D02*
X16057601Y-12384374D01*
X16057601Y-12384374D02*
X16038553Y-12374850D01*
X16038553Y-12374850D02*
X16009982Y-12374850D01*
X16009982Y-12374850D02*
X15990934Y-12384374D01*
X15990934Y-12384374D02*
X15981410Y-12393898D01*
X16190934Y-12508184D02*
X16171887Y-12498660D01*
X16171887Y-12498660D02*
X16162363Y-12489136D01*
X16162363Y-12489136D02*
X16152839Y-12470088D01*
X16152839Y-12470088D02*
X16152839Y-12412946D01*
X16152839Y-12412946D02*
X16162363Y-12393898D01*
X16162363Y-12393898D02*
X16171887Y-12384374D01*
X16171887Y-12384374D02*
X16190934Y-12374850D01*
X16190934Y-12374850D02*
X16219506Y-12374850D01*
X16219506Y-12374850D02*
X16238553Y-12384374D01*
X16238553Y-12384374D02*
X16248077Y-12393898D01*
X16248077Y-12393898D02*
X16257601Y-12412946D01*
X16257601Y-12412946D02*
X16257601Y-12470088D01*
X16257601Y-12470088D02*
X16248077Y-12489136D01*
X16248077Y-12489136D02*
X16238553Y-12498660D01*
X16238553Y-12498660D02*
X16219506Y-12508184D01*
X16219506Y-12508184D02*
X16190934Y-12508184D01*
X16371887Y-12508184D02*
X16352839Y-12498660D01*
X16352839Y-12498660D02*
X16343315Y-12479612D01*
X16343315Y-12479612D02*
X16343315Y-12308184D01*
X16524268Y-12498660D02*
X16505220Y-12508184D01*
X16505220Y-12508184D02*
X16467125Y-12508184D01*
X16467125Y-12508184D02*
X16448077Y-12498660D01*
X16448077Y-12498660D02*
X16438553Y-12479612D01*
X16438553Y-12479612D02*
X16438553Y-12403422D01*
X16438553Y-12403422D02*
X16448077Y-12384374D01*
X16448077Y-12384374D02*
X16467125Y-12374850D01*
X16467125Y-12374850D02*
X16505220Y-12374850D01*
X16505220Y-12374850D02*
X16524268Y-12384374D01*
X16524268Y-12384374D02*
X16533791Y-12403422D01*
X16533791Y-12403422D02*
X16533791Y-12422469D01*
X16533791Y-12422469D02*
X16438553Y-12441517D01*
X16600458Y-12584374D02*
X16609982Y-12574850D01*
X16609982Y-12574850D02*
X16629030Y-12546279D01*
X16629030Y-12546279D02*
X16638553Y-12527231D01*
X16638553Y-12527231D02*
X16648077Y-12498660D01*
X16648077Y-12498660D02*
X16657601Y-12451041D01*
X16657601Y-12451041D02*
X16657601Y-12412946D01*
X16657601Y-12412946D02*
X16648077Y-12365327D01*
X16648077Y-12365327D02*
X16638553Y-12336755D01*
X16638553Y-12336755D02*
X16629030Y-12317708D01*
X16629030Y-12317708D02*
X16609982Y-12289136D01*
X16609982Y-12289136D02*
X16600458Y-12279612D01*
D12*
X11972050Y-12665450D02*
X11972050Y-12695950D01*
X11956800Y-12680700D02*
X11987300Y-12680700D01*
D11*
X12286172Y-12572184D02*
X12305220Y-12572184D01*
X12305220Y-12572184D02*
X12324267Y-12581708D01*
X12324267Y-12581708D02*
X12333791Y-12591231D01*
X12333791Y-12591231D02*
X12343315Y-12610279D01*
X12343315Y-12610279D02*
X12352839Y-12648374D01*
X12352839Y-12648374D02*
X12352839Y-12695993D01*
X12352839Y-12695993D02*
X12343315Y-12734088D01*
X12343315Y-12734088D02*
X12333791Y-12753136D01*
X12333791Y-12753136D02*
X12324267Y-12762660D01*
X12324267Y-12762660D02*
X12305220Y-12772184D01*
X12305220Y-12772184D02*
X12286172Y-12772184D01*
X12286172Y-12772184D02*
X12267124Y-12762660D01*
X12267124Y-12762660D02*
X12257601Y-12753136D01*
X12257601Y-12753136D02*
X12248077Y-12734088D01*
X12248077Y-12734088D02*
X12238553Y-12695993D01*
X12238553Y-12695993D02*
X12238553Y-12648374D01*
X12238553Y-12648374D02*
X12248077Y-12610279D01*
X12248077Y-12610279D02*
X12257601Y-12591231D01*
X12257601Y-12591231D02*
X12267124Y-12581708D01*
X12267124Y-12581708D02*
X12286172Y-12572184D01*
X12438553Y-12753136D02*
X12448077Y-12762660D01*
X12448077Y-12762660D02*
X12438553Y-12772184D01*
X12438553Y-12772184D02*
X12429029Y-12762660D01*
X12429029Y-12762660D02*
X12438553Y-12753136D01*
X12438553Y-12753136D02*
X12438553Y-12772184D01*
X12514743Y-12572184D02*
X12638553Y-12572184D01*
X12638553Y-12572184D02*
X12571886Y-12648374D01*
X12571886Y-12648374D02*
X12600458Y-12648374D01*
X12600458Y-12648374D02*
X12619505Y-12657898D01*
X12619505Y-12657898D02*
X12629029Y-12667422D01*
X12629029Y-12667422D02*
X12638553Y-12686469D01*
X12638553Y-12686469D02*
X12638553Y-12734088D01*
X12638553Y-12734088D02*
X12629029Y-12753136D01*
X12629029Y-12753136D02*
X12619505Y-12762660D01*
X12619505Y-12762660D02*
X12600458Y-12772184D01*
X12600458Y-12772184D02*
X12543315Y-12772184D01*
X12543315Y-12772184D02*
X12524267Y-12762660D01*
X12524267Y-12762660D02*
X12514743Y-12753136D01*
X12762362Y-12572184D02*
X12781410Y-12572184D01*
X12781410Y-12572184D02*
X12800458Y-12581708D01*
X12800458Y-12581708D02*
X12809982Y-12591231D01*
X12809982Y-12591231D02*
X12819505Y-12610279D01*
X12819505Y-12610279D02*
X12829029Y-12648374D01*
X12829029Y-12648374D02*
X12829029Y-12695993D01*
X12829029Y-12695993D02*
X12819505Y-12734088D01*
X12819505Y-12734088D02*
X12809982Y-12753136D01*
X12809982Y-12753136D02*
X12800458Y-12762660D01*
X12800458Y-12762660D02*
X12781410Y-12772184D01*
X12781410Y-12772184D02*
X12762362Y-12772184D01*
X12762362Y-12772184D02*
X12743315Y-12762660D01*
X12743315Y-12762660D02*
X12733791Y-12753136D01*
X12733791Y-12753136D02*
X12724267Y-12734088D01*
X12724267Y-12734088D02*
X12714743Y-12695993D01*
X12714743Y-12695993D02*
X12714743Y-12648374D01*
X12714743Y-12648374D02*
X12724267Y-12610279D01*
X12724267Y-12610279D02*
X12733791Y-12591231D01*
X12733791Y-12591231D02*
X12743315Y-12581708D01*
X12743315Y-12581708D02*
X12762362Y-12572184D01*
X13009982Y-12572184D02*
X12914743Y-12572184D01*
X12914743Y-12572184D02*
X12905220Y-12667422D01*
X12905220Y-12667422D02*
X12914743Y-12657898D01*
X12914743Y-12657898D02*
X12933791Y-12648374D01*
X12933791Y-12648374D02*
X12981410Y-12648374D01*
X12981410Y-12648374D02*
X13000458Y-12657898D01*
X13000458Y-12657898D02*
X13009982Y-12667422D01*
X13009982Y-12667422D02*
X13019505Y-12686469D01*
X13019505Y-12686469D02*
X13019505Y-12734088D01*
X13019505Y-12734088D02*
X13009982Y-12753136D01*
X13009982Y-12753136D02*
X13000458Y-12762660D01*
X13000458Y-12762660D02*
X12981410Y-12772184D01*
X12981410Y-12772184D02*
X12933791Y-12772184D01*
X12933791Y-12772184D02*
X12914743Y-12762660D01*
X12914743Y-12762660D02*
X12905220Y-12753136D01*
X13105220Y-12772184D02*
X13105220Y-12638850D01*
X13105220Y-12657898D02*
X13114743Y-12648374D01*
X13114743Y-12648374D02*
X13133791Y-12638850D01*
X13133791Y-12638850D02*
X13162363Y-12638850D01*
X13162363Y-12638850D02*
X13181410Y-12648374D01*
X13181410Y-12648374D02*
X13190934Y-12667422D01*
X13190934Y-12667422D02*
X13190934Y-12772184D01*
X13190934Y-12667422D02*
X13200458Y-12648374D01*
X13200458Y-12648374D02*
X13219505Y-12638850D01*
X13219505Y-12638850D02*
X13248077Y-12638850D01*
X13248077Y-12638850D02*
X13267124Y-12648374D01*
X13267124Y-12648374D02*
X13276648Y-12667422D01*
X13276648Y-12667422D02*
X13276648Y-12772184D01*
X13371886Y-12772184D02*
X13371886Y-12638850D01*
X13371886Y-12657898D02*
X13381410Y-12648374D01*
X13381410Y-12648374D02*
X13400458Y-12638850D01*
X13400458Y-12638850D02*
X13429029Y-12638850D01*
X13429029Y-12638850D02*
X13448077Y-12648374D01*
X13448077Y-12648374D02*
X13457601Y-12667422D01*
X13457601Y-12667422D02*
X13457601Y-12772184D01*
X13457601Y-12667422D02*
X13467124Y-12648374D01*
X13467124Y-12648374D02*
X13486172Y-12638850D01*
X13486172Y-12638850D02*
X13514743Y-12638850D01*
X13514743Y-12638850D02*
X13533791Y-12648374D01*
X13533791Y-12648374D02*
X13543315Y-12667422D01*
X13543315Y-12667422D02*
X13543315Y-12772184D01*
X13933791Y-12562660D02*
X13762363Y-12819803D01*
X14190934Y-12572184D02*
X14209982Y-12572184D01*
X14209982Y-12572184D02*
X14229029Y-12581708D01*
X14229029Y-12581708D02*
X14238553Y-12591231D01*
X14238553Y-12591231D02*
X14248077Y-12610279D01*
X14248077Y-12610279D02*
X14257601Y-12648374D01*
X14257601Y-12648374D02*
X14257601Y-12695993D01*
X14257601Y-12695993D02*
X14248077Y-12734088D01*
X14248077Y-12734088D02*
X14238553Y-12753136D01*
X14238553Y-12753136D02*
X14229029Y-12762660D01*
X14229029Y-12762660D02*
X14209982Y-12772184D01*
X14209982Y-12772184D02*
X14190934Y-12772184D01*
X14190934Y-12772184D02*
X14171886Y-12762660D01*
X14171886Y-12762660D02*
X14162363Y-12753136D01*
X14162363Y-12753136D02*
X14152839Y-12734088D01*
X14152839Y-12734088D02*
X14143315Y-12695993D01*
X14143315Y-12695993D02*
X14143315Y-12648374D01*
X14143315Y-12648374D02*
X14152839Y-12610279D01*
X14152839Y-12610279D02*
X14162363Y-12591231D01*
X14162363Y-12591231D02*
X14171886Y-12581708D01*
X14171886Y-12581708D02*
X14190934Y-12572184D01*
X14343315Y-12753136D02*
X14352839Y-12762660D01*
X14352839Y-12762660D02*
X14343315Y-12772184D01*
X14343315Y-12772184D02*
X14333791Y-12762660D01*
X14333791Y-12762660D02*
X14343315Y-12753136D01*
X14343315Y-12753136D02*
X14343315Y-12772184D01*
X14476648Y-12572184D02*
X14495696Y-12572184D01*
X14495696Y-12572184D02*
X14514744Y-12581708D01*
X14514744Y-12581708D02*
X14524267Y-12591231D01*
X14524267Y-12591231D02*
X14533791Y-12610279D01*
X14533791Y-12610279D02*
X14543315Y-12648374D01*
X14543315Y-12648374D02*
X14543315Y-12695993D01*
X14543315Y-12695993D02*
X14533791Y-12734088D01*
X14533791Y-12734088D02*
X14524267Y-12753136D01*
X14524267Y-12753136D02*
X14514744Y-12762660D01*
X14514744Y-12762660D02*
X14495696Y-12772184D01*
X14495696Y-12772184D02*
X14476648Y-12772184D01*
X14476648Y-12772184D02*
X14457601Y-12762660D01*
X14457601Y-12762660D02*
X14448077Y-12753136D01*
X14448077Y-12753136D02*
X14438553Y-12734088D01*
X14438553Y-12734088D02*
X14429029Y-12695993D01*
X14429029Y-12695993D02*
X14429029Y-12648374D01*
X14429029Y-12648374D02*
X14438553Y-12610279D01*
X14438553Y-12610279D02*
X14448077Y-12591231D01*
X14448077Y-12591231D02*
X14457601Y-12581708D01*
X14457601Y-12581708D02*
X14476648Y-12572184D01*
X14733791Y-12772184D02*
X14619506Y-12772184D01*
X14676648Y-12772184D02*
X14676648Y-12572184D01*
X14676648Y-12572184D02*
X14657601Y-12600755D01*
X14657601Y-12600755D02*
X14638553Y-12619803D01*
X14638553Y-12619803D02*
X14619506Y-12629327D01*
X14809982Y-12591231D02*
X14819506Y-12581708D01*
X14819506Y-12581708D02*
X14838553Y-12572184D01*
X14838553Y-12572184D02*
X14886172Y-12572184D01*
X14886172Y-12572184D02*
X14905220Y-12581708D01*
X14905220Y-12581708D02*
X14914744Y-12591231D01*
X14914744Y-12591231D02*
X14924267Y-12610279D01*
X14924267Y-12610279D02*
X14924267Y-12629327D01*
X14924267Y-12629327D02*
X14914744Y-12657898D01*
X14914744Y-12657898D02*
X14800458Y-12772184D01*
X14800458Y-12772184D02*
X14924267Y-12772184D01*
X15048077Y-12572184D02*
X15067125Y-12572184D01*
X15067125Y-12572184D02*
X15086172Y-12581708D01*
X15086172Y-12581708D02*
X15095696Y-12591231D01*
X15095696Y-12591231D02*
X15105220Y-12610279D01*
X15105220Y-12610279D02*
X15114744Y-12648374D01*
X15114744Y-12648374D02*
X15114744Y-12695993D01*
X15114744Y-12695993D02*
X15105220Y-12734088D01*
X15105220Y-12734088D02*
X15095696Y-12753136D01*
X15095696Y-12753136D02*
X15086172Y-12762660D01*
X15086172Y-12762660D02*
X15067125Y-12772184D01*
X15067125Y-12772184D02*
X15048077Y-12772184D01*
X15048077Y-12772184D02*
X15029029Y-12762660D01*
X15029029Y-12762660D02*
X15019506Y-12753136D01*
X15019506Y-12753136D02*
X15009982Y-12734088D01*
X15009982Y-12734088D02*
X15000458Y-12695993D01*
X15000458Y-12695993D02*
X15000458Y-12648374D01*
X15000458Y-12648374D02*
X15009982Y-12610279D01*
X15009982Y-12610279D02*
X15019506Y-12591231D01*
X15019506Y-12591231D02*
X15029029Y-12581708D01*
X15029029Y-12581708D02*
X15048077Y-12572184D01*
X15190934Y-12572184D02*
X15190934Y-12610279D01*
X15267125Y-12572184D02*
X15267125Y-12610279D01*
X15562363Y-12848374D02*
X15552839Y-12838850D01*
X15552839Y-12838850D02*
X15533791Y-12810279D01*
X15533791Y-12810279D02*
X15524268Y-12791231D01*
X15524268Y-12791231D02*
X15514744Y-12762660D01*
X15514744Y-12762660D02*
X15505220Y-12715041D01*
X15505220Y-12715041D02*
X15505220Y-12676946D01*
X15505220Y-12676946D02*
X15514744Y-12629327D01*
X15514744Y-12629327D02*
X15524268Y-12600755D01*
X15524268Y-12600755D02*
X15533791Y-12581708D01*
X15533791Y-12581708D02*
X15552839Y-12553136D01*
X15552839Y-12553136D02*
X15562363Y-12543612D01*
X15629029Y-12591231D02*
X15638553Y-12581708D01*
X15638553Y-12581708D02*
X15657601Y-12572184D01*
X15657601Y-12572184D02*
X15705220Y-12572184D01*
X15705220Y-12572184D02*
X15724268Y-12581708D01*
X15724268Y-12581708D02*
X15733791Y-12591231D01*
X15733791Y-12591231D02*
X15743315Y-12610279D01*
X15743315Y-12610279D02*
X15743315Y-12629327D01*
X15743315Y-12629327D02*
X15733791Y-12657898D01*
X15733791Y-12657898D02*
X15619506Y-12772184D01*
X15619506Y-12772184D02*
X15743315Y-12772184D01*
X15981410Y-12772184D02*
X15981410Y-12572184D01*
X16067125Y-12772184D02*
X16067125Y-12667422D01*
X16067125Y-12667422D02*
X16057601Y-12648374D01*
X16057601Y-12648374D02*
X16038553Y-12638850D01*
X16038553Y-12638850D02*
X16009982Y-12638850D01*
X16009982Y-12638850D02*
X15990934Y-12648374D01*
X15990934Y-12648374D02*
X15981410Y-12657898D01*
X16190934Y-12772184D02*
X16171887Y-12762660D01*
X16171887Y-12762660D02*
X16162363Y-12753136D01*
X16162363Y-12753136D02*
X16152839Y-12734088D01*
X16152839Y-12734088D02*
X16152839Y-12676946D01*
X16152839Y-12676946D02*
X16162363Y-12657898D01*
X16162363Y-12657898D02*
X16171887Y-12648374D01*
X16171887Y-12648374D02*
X16190934Y-12638850D01*
X16190934Y-12638850D02*
X16219506Y-12638850D01*
X16219506Y-12638850D02*
X16238553Y-12648374D01*
X16238553Y-12648374D02*
X16248077Y-12657898D01*
X16248077Y-12657898D02*
X16257601Y-12676946D01*
X16257601Y-12676946D02*
X16257601Y-12734088D01*
X16257601Y-12734088D02*
X16248077Y-12753136D01*
X16248077Y-12753136D02*
X16238553Y-12762660D01*
X16238553Y-12762660D02*
X16219506Y-12772184D01*
X16219506Y-12772184D02*
X16190934Y-12772184D01*
X16371887Y-12772184D02*
X16352839Y-12762660D01*
X16352839Y-12762660D02*
X16343315Y-12743612D01*
X16343315Y-12743612D02*
X16343315Y-12572184D01*
X16524268Y-12762660D02*
X16505220Y-12772184D01*
X16505220Y-12772184D02*
X16467125Y-12772184D01*
X16467125Y-12772184D02*
X16448077Y-12762660D01*
X16448077Y-12762660D02*
X16438553Y-12743612D01*
X16438553Y-12743612D02*
X16438553Y-12667422D01*
X16438553Y-12667422D02*
X16448077Y-12648374D01*
X16448077Y-12648374D02*
X16467125Y-12638850D01*
X16467125Y-12638850D02*
X16505220Y-12638850D01*
X16505220Y-12638850D02*
X16524268Y-12648374D01*
X16524268Y-12648374D02*
X16533791Y-12667422D01*
X16533791Y-12667422D02*
X16533791Y-12686469D01*
X16533791Y-12686469D02*
X16438553Y-12705517D01*
X16609982Y-12762660D02*
X16629030Y-12772184D01*
X16629030Y-12772184D02*
X16667125Y-12772184D01*
X16667125Y-12772184D02*
X16686172Y-12762660D01*
X16686172Y-12762660D02*
X16695696Y-12743612D01*
X16695696Y-12743612D02*
X16695696Y-12734088D01*
X16695696Y-12734088D02*
X16686172Y-12715041D01*
X16686172Y-12715041D02*
X16667125Y-12705517D01*
X16667125Y-12705517D02*
X16638553Y-12705517D01*
X16638553Y-12705517D02*
X16619506Y-12695993D01*
X16619506Y-12695993D02*
X16609982Y-12676946D01*
X16609982Y-12676946D02*
X16609982Y-12667422D01*
X16609982Y-12667422D02*
X16619506Y-12648374D01*
X16619506Y-12648374D02*
X16638553Y-12638850D01*
X16638553Y-12638850D02*
X16667125Y-12638850D01*
X16667125Y-12638850D02*
X16686172Y-12648374D01*
X16762363Y-12848374D02*
X16771887Y-12838850D01*
X16771887Y-12838850D02*
X16790934Y-12810279D01*
X16790934Y-12810279D02*
X16800458Y-12791231D01*
X16800458Y-12791231D02*
X16809982Y-12762660D01*
X16809982Y-12762660D02*
X16819506Y-12715041D01*
X16819506Y-12715041D02*
X16819506Y-12676946D01*
X16819506Y-12676946D02*
X16809982Y-12629327D01*
X16809982Y-12629327D02*
X16800458Y-12600755D01*
X16800458Y-12600755D02*
X16790934Y-12581708D01*
X16790934Y-12581708D02*
X16771887Y-12553136D01*
X16771887Y-12553136D02*
X16762363Y-12543612D01*
D12*
X11978513Y-12965913D02*
X11978513Y-12923487D01*
X11936087Y-12923487D01*
X11936087Y-12965913D01*
X11978513Y-12965913D01*
D11*
X12286172Y-12836184D02*
X12305220Y-12836184D01*
X12305220Y-12836184D02*
X12324267Y-12845708D01*
X12324267Y-12845708D02*
X12333791Y-12855231D01*
X12333791Y-12855231D02*
X12343315Y-12874279D01*
X12343315Y-12874279D02*
X12352839Y-12912374D01*
X12352839Y-12912374D02*
X12352839Y-12959993D01*
X12352839Y-12959993D02*
X12343315Y-12998088D01*
X12343315Y-12998088D02*
X12333791Y-13017136D01*
X12333791Y-13017136D02*
X12324267Y-13026660D01*
X12324267Y-13026660D02*
X12305220Y-13036184D01*
X12305220Y-13036184D02*
X12286172Y-13036184D01*
X12286172Y-13036184D02*
X12267124Y-13026660D01*
X12267124Y-13026660D02*
X12257601Y-13017136D01*
X12257601Y-13017136D02*
X12248077Y-12998088D01*
X12248077Y-12998088D02*
X12238553Y-12959993D01*
X12238553Y-12959993D02*
X12238553Y-12912374D01*
X12238553Y-12912374D02*
X12248077Y-12874279D01*
X12248077Y-12874279D02*
X12257601Y-12855231D01*
X12257601Y-12855231D02*
X12267124Y-12845708D01*
X12267124Y-12845708D02*
X12286172Y-12836184D01*
X12438553Y-13017136D02*
X12448077Y-13026660D01*
X12448077Y-13026660D02*
X12438553Y-13036184D01*
X12438553Y-13036184D02*
X12429029Y-13026660D01*
X12429029Y-13026660D02*
X12438553Y-13017136D01*
X12438553Y-13017136D02*
X12438553Y-13036184D01*
X12619505Y-12836184D02*
X12581410Y-12836184D01*
X12581410Y-12836184D02*
X12562362Y-12845708D01*
X12562362Y-12845708D02*
X12552839Y-12855231D01*
X12552839Y-12855231D02*
X12533791Y-12883803D01*
X12533791Y-12883803D02*
X12524267Y-12921898D01*
X12524267Y-12921898D02*
X12524267Y-12998088D01*
X12524267Y-12998088D02*
X12533791Y-13017136D01*
X12533791Y-13017136D02*
X12543315Y-13026660D01*
X12543315Y-13026660D02*
X12562362Y-13036184D01*
X12562362Y-13036184D02*
X12600458Y-13036184D01*
X12600458Y-13036184D02*
X12619505Y-13026660D01*
X12619505Y-13026660D02*
X12629029Y-13017136D01*
X12629029Y-13017136D02*
X12638553Y-12998088D01*
X12638553Y-12998088D02*
X12638553Y-12950469D01*
X12638553Y-12950469D02*
X12629029Y-12931422D01*
X12629029Y-12931422D02*
X12619505Y-12921898D01*
X12619505Y-12921898D02*
X12600458Y-12912374D01*
X12600458Y-12912374D02*
X12562362Y-12912374D01*
X12562362Y-12912374D02*
X12543315Y-12921898D01*
X12543315Y-12921898D02*
X12533791Y-12931422D01*
X12533791Y-12931422D02*
X12524267Y-12950469D01*
X12762362Y-12836184D02*
X12781410Y-12836184D01*
X12781410Y-12836184D02*
X12800458Y-12845708D01*
X12800458Y-12845708D02*
X12809982Y-12855231D01*
X12809982Y-12855231D02*
X12819505Y-12874279D01*
X12819505Y-12874279D02*
X12829029Y-12912374D01*
X12829029Y-12912374D02*
X12829029Y-12959993D01*
X12829029Y-12959993D02*
X12819505Y-12998088D01*
X12819505Y-12998088D02*
X12809982Y-13017136D01*
X12809982Y-13017136D02*
X12800458Y-13026660D01*
X12800458Y-13026660D02*
X12781410Y-13036184D01*
X12781410Y-13036184D02*
X12762362Y-13036184D01*
X12762362Y-13036184D02*
X12743315Y-13026660D01*
X12743315Y-13026660D02*
X12733791Y-13017136D01*
X12733791Y-13017136D02*
X12724267Y-12998088D01*
X12724267Y-12998088D02*
X12714743Y-12959993D01*
X12714743Y-12959993D02*
X12714743Y-12912374D01*
X12714743Y-12912374D02*
X12724267Y-12874279D01*
X12724267Y-12874279D02*
X12733791Y-12855231D01*
X12733791Y-12855231D02*
X12743315Y-12845708D01*
X12743315Y-12845708D02*
X12762362Y-12836184D01*
X12952839Y-12836184D02*
X12971886Y-12836184D01*
X12971886Y-12836184D02*
X12990934Y-12845708D01*
X12990934Y-12845708D02*
X13000458Y-12855231D01*
X13000458Y-12855231D02*
X13009982Y-12874279D01*
X13009982Y-12874279D02*
X13019505Y-12912374D01*
X13019505Y-12912374D02*
X13019505Y-12959993D01*
X13019505Y-12959993D02*
X13009982Y-12998088D01*
X13009982Y-12998088D02*
X13000458Y-13017136D01*
X13000458Y-13017136D02*
X12990934Y-13026660D01*
X12990934Y-13026660D02*
X12971886Y-13036184D01*
X12971886Y-13036184D02*
X12952839Y-13036184D01*
X12952839Y-13036184D02*
X12933791Y-13026660D01*
X12933791Y-13026660D02*
X12924267Y-13017136D01*
X12924267Y-13017136D02*
X12914743Y-12998088D01*
X12914743Y-12998088D02*
X12905220Y-12959993D01*
X12905220Y-12959993D02*
X12905220Y-12912374D01*
X12905220Y-12912374D02*
X12914743Y-12874279D01*
X12914743Y-12874279D02*
X12924267Y-12855231D01*
X12924267Y-12855231D02*
X12933791Y-12845708D01*
X12933791Y-12845708D02*
X12952839Y-12836184D01*
X13105220Y-13036184D02*
X13105220Y-12902850D01*
X13105220Y-12921898D02*
X13114743Y-12912374D01*
X13114743Y-12912374D02*
X13133791Y-12902850D01*
X13133791Y-12902850D02*
X13162363Y-12902850D01*
X13162363Y-12902850D02*
X13181410Y-12912374D01*
X13181410Y-12912374D02*
X13190934Y-12931422D01*
X13190934Y-12931422D02*
X13190934Y-13036184D01*
X13190934Y-12931422D02*
X13200458Y-12912374D01*
X13200458Y-12912374D02*
X13219505Y-12902850D01*
X13219505Y-12902850D02*
X13248077Y-12902850D01*
X13248077Y-12902850D02*
X13267124Y-12912374D01*
X13267124Y-12912374D02*
X13276648Y-12931422D01*
X13276648Y-12931422D02*
X13276648Y-13036184D01*
X13371886Y-13036184D02*
X13371886Y-12902850D01*
X13371886Y-12921898D02*
X13381410Y-12912374D01*
X13381410Y-12912374D02*
X13400458Y-12902850D01*
X13400458Y-12902850D02*
X13429029Y-12902850D01*
X13429029Y-12902850D02*
X13448077Y-12912374D01*
X13448077Y-12912374D02*
X13457601Y-12931422D01*
X13457601Y-12931422D02*
X13457601Y-13036184D01*
X13457601Y-12931422D02*
X13467124Y-12912374D01*
X13467124Y-12912374D02*
X13486172Y-12902850D01*
X13486172Y-12902850D02*
X13514743Y-12902850D01*
X13514743Y-12902850D02*
X13533791Y-12912374D01*
X13533791Y-12912374D02*
X13543315Y-12931422D01*
X13543315Y-12931422D02*
X13543315Y-13036184D01*
X13933791Y-12826660D02*
X13762363Y-13083803D01*
X14190934Y-12836184D02*
X14209982Y-12836184D01*
X14209982Y-12836184D02*
X14229029Y-12845708D01*
X14229029Y-12845708D02*
X14238553Y-12855231D01*
X14238553Y-12855231D02*
X14248077Y-12874279D01*
X14248077Y-12874279D02*
X14257601Y-12912374D01*
X14257601Y-12912374D02*
X14257601Y-12959993D01*
X14257601Y-12959993D02*
X14248077Y-12998088D01*
X14248077Y-12998088D02*
X14238553Y-13017136D01*
X14238553Y-13017136D02*
X14229029Y-13026660D01*
X14229029Y-13026660D02*
X14209982Y-13036184D01*
X14209982Y-13036184D02*
X14190934Y-13036184D01*
X14190934Y-13036184D02*
X14171886Y-13026660D01*
X14171886Y-13026660D02*
X14162363Y-13017136D01*
X14162363Y-13017136D02*
X14152839Y-12998088D01*
X14152839Y-12998088D02*
X14143315Y-12959993D01*
X14143315Y-12959993D02*
X14143315Y-12912374D01*
X14143315Y-12912374D02*
X14152839Y-12874279D01*
X14152839Y-12874279D02*
X14162363Y-12855231D01*
X14162363Y-12855231D02*
X14171886Y-12845708D01*
X14171886Y-12845708D02*
X14190934Y-12836184D01*
X14343315Y-13017136D02*
X14352839Y-13026660D01*
X14352839Y-13026660D02*
X14343315Y-13036184D01*
X14343315Y-13036184D02*
X14333791Y-13026660D01*
X14333791Y-13026660D02*
X14343315Y-13017136D01*
X14343315Y-13017136D02*
X14343315Y-13036184D01*
X14476648Y-12836184D02*
X14495696Y-12836184D01*
X14495696Y-12836184D02*
X14514744Y-12845708D01*
X14514744Y-12845708D02*
X14524267Y-12855231D01*
X14524267Y-12855231D02*
X14533791Y-12874279D01*
X14533791Y-12874279D02*
X14543315Y-12912374D01*
X14543315Y-12912374D02*
X14543315Y-12959993D01*
X14543315Y-12959993D02*
X14533791Y-12998088D01*
X14533791Y-12998088D02*
X14524267Y-13017136D01*
X14524267Y-13017136D02*
X14514744Y-13026660D01*
X14514744Y-13026660D02*
X14495696Y-13036184D01*
X14495696Y-13036184D02*
X14476648Y-13036184D01*
X14476648Y-13036184D02*
X14457601Y-13026660D01*
X14457601Y-13026660D02*
X14448077Y-13017136D01*
X14448077Y-13017136D02*
X14438553Y-12998088D01*
X14438553Y-12998088D02*
X14429029Y-12959993D01*
X14429029Y-12959993D02*
X14429029Y-12912374D01*
X14429029Y-12912374D02*
X14438553Y-12874279D01*
X14438553Y-12874279D02*
X14448077Y-12855231D01*
X14448077Y-12855231D02*
X14457601Y-12845708D01*
X14457601Y-12845708D02*
X14476648Y-12836184D01*
X14619506Y-12855231D02*
X14629029Y-12845708D01*
X14629029Y-12845708D02*
X14648077Y-12836184D01*
X14648077Y-12836184D02*
X14695696Y-12836184D01*
X14695696Y-12836184D02*
X14714744Y-12845708D01*
X14714744Y-12845708D02*
X14724267Y-12855231D01*
X14724267Y-12855231D02*
X14733791Y-12874279D01*
X14733791Y-12874279D02*
X14733791Y-12893327D01*
X14733791Y-12893327D02*
X14724267Y-12921898D01*
X14724267Y-12921898D02*
X14609982Y-13036184D01*
X14609982Y-13036184D02*
X14733791Y-13036184D01*
X14800458Y-12836184D02*
X14924267Y-12836184D01*
X14924267Y-12836184D02*
X14857601Y-12912374D01*
X14857601Y-12912374D02*
X14886172Y-12912374D01*
X14886172Y-12912374D02*
X14905220Y-12921898D01*
X14905220Y-12921898D02*
X14914744Y-12931422D01*
X14914744Y-12931422D02*
X14924267Y-12950469D01*
X14924267Y-12950469D02*
X14924267Y-12998088D01*
X14924267Y-12998088D02*
X14914744Y-13017136D01*
X14914744Y-13017136D02*
X14905220Y-13026660D01*
X14905220Y-13026660D02*
X14886172Y-13036184D01*
X14886172Y-13036184D02*
X14829029Y-13036184D01*
X14829029Y-13036184D02*
X14809982Y-13026660D01*
X14809982Y-13026660D02*
X14800458Y-13017136D01*
X15095696Y-12836184D02*
X15057601Y-12836184D01*
X15057601Y-12836184D02*
X15038553Y-12845708D01*
X15038553Y-12845708D02*
X15029029Y-12855231D01*
X15029029Y-12855231D02*
X15009982Y-12883803D01*
X15009982Y-12883803D02*
X15000458Y-12921898D01*
X15000458Y-12921898D02*
X15000458Y-12998088D01*
X15000458Y-12998088D02*
X15009982Y-13017136D01*
X15009982Y-13017136D02*
X15019506Y-13026660D01*
X15019506Y-13026660D02*
X15038553Y-13036184D01*
X15038553Y-13036184D02*
X15076648Y-13036184D01*
X15076648Y-13036184D02*
X15095696Y-13026660D01*
X15095696Y-13026660D02*
X15105220Y-13017136D01*
X15105220Y-13017136D02*
X15114744Y-12998088D01*
X15114744Y-12998088D02*
X15114744Y-12950469D01*
X15114744Y-12950469D02*
X15105220Y-12931422D01*
X15105220Y-12931422D02*
X15095696Y-12921898D01*
X15095696Y-12921898D02*
X15076648Y-12912374D01*
X15076648Y-12912374D02*
X15038553Y-12912374D01*
X15038553Y-12912374D02*
X15019506Y-12921898D01*
X15019506Y-12921898D02*
X15009982Y-12931422D01*
X15009982Y-12931422D02*
X15000458Y-12950469D01*
X15190934Y-12836184D02*
X15190934Y-12874279D01*
X15267125Y-12836184D02*
X15267125Y-12874279D01*
X15562363Y-13112374D02*
X15552839Y-13102850D01*
X15552839Y-13102850D02*
X15533791Y-13074279D01*
X15533791Y-13074279D02*
X15524268Y-13055231D01*
X15524268Y-13055231D02*
X15514744Y-13026660D01*
X15514744Y-13026660D02*
X15505220Y-12979041D01*
X15505220Y-12979041D02*
X15505220Y-12940946D01*
X15505220Y-12940946D02*
X15514744Y-12893327D01*
X15514744Y-12893327D02*
X15524268Y-12864755D01*
X15524268Y-12864755D02*
X15533791Y-12845708D01*
X15533791Y-12845708D02*
X15552839Y-12817136D01*
X15552839Y-12817136D02*
X15562363Y-12807612D01*
X15676648Y-12836184D02*
X15695696Y-12836184D01*
X15695696Y-12836184D02*
X15714744Y-12845708D01*
X15714744Y-12845708D02*
X15724268Y-12855231D01*
X15724268Y-12855231D02*
X15733791Y-12874279D01*
X15733791Y-12874279D02*
X15743315Y-12912374D01*
X15743315Y-12912374D02*
X15743315Y-12959993D01*
X15743315Y-12959993D02*
X15733791Y-12998088D01*
X15733791Y-12998088D02*
X15724268Y-13017136D01*
X15724268Y-13017136D02*
X15714744Y-13026660D01*
X15714744Y-13026660D02*
X15695696Y-13036184D01*
X15695696Y-13036184D02*
X15676648Y-13036184D01*
X15676648Y-13036184D02*
X15657601Y-13026660D01*
X15657601Y-13026660D02*
X15648077Y-13017136D01*
X15648077Y-13017136D02*
X15638553Y-12998088D01*
X15638553Y-12998088D02*
X15629029Y-12959993D01*
X15629029Y-12959993D02*
X15629029Y-12912374D01*
X15629029Y-12912374D02*
X15638553Y-12874279D01*
X15638553Y-12874279D02*
X15648077Y-12855231D01*
X15648077Y-12855231D02*
X15657601Y-12845708D01*
X15657601Y-12845708D02*
X15676648Y-12836184D01*
X15981410Y-13036184D02*
X15981410Y-12836184D01*
X16067125Y-13036184D02*
X16067125Y-12931422D01*
X16067125Y-12931422D02*
X16057601Y-12912374D01*
X16057601Y-12912374D02*
X16038553Y-12902850D01*
X16038553Y-12902850D02*
X16009982Y-12902850D01*
X16009982Y-12902850D02*
X15990934Y-12912374D01*
X15990934Y-12912374D02*
X15981410Y-12921898D01*
X16190934Y-13036184D02*
X16171887Y-13026660D01*
X16171887Y-13026660D02*
X16162363Y-13017136D01*
X16162363Y-13017136D02*
X16152839Y-12998088D01*
X16152839Y-12998088D02*
X16152839Y-12940946D01*
X16152839Y-12940946D02*
X16162363Y-12921898D01*
X16162363Y-12921898D02*
X16171887Y-12912374D01*
X16171887Y-12912374D02*
X16190934Y-12902850D01*
X16190934Y-12902850D02*
X16219506Y-12902850D01*
X16219506Y-12902850D02*
X16238553Y-12912374D01*
X16238553Y-12912374D02*
X16248077Y-12921898D01*
X16248077Y-12921898D02*
X16257601Y-12940946D01*
X16257601Y-12940946D02*
X16257601Y-12998088D01*
X16257601Y-12998088D02*
X16248077Y-13017136D01*
X16248077Y-13017136D02*
X16238553Y-13026660D01*
X16238553Y-13026660D02*
X16219506Y-13036184D01*
X16219506Y-13036184D02*
X16190934Y-13036184D01*
X16371887Y-13036184D02*
X16352839Y-13026660D01*
X16352839Y-13026660D02*
X16343315Y-13007612D01*
X16343315Y-13007612D02*
X16343315Y-12836184D01*
X16524268Y-13026660D02*
X16505220Y-13036184D01*
X16505220Y-13036184D02*
X16467125Y-13036184D01*
X16467125Y-13036184D02*
X16448077Y-13026660D01*
X16448077Y-13026660D02*
X16438553Y-13007612D01*
X16438553Y-13007612D02*
X16438553Y-12931422D01*
X16438553Y-12931422D02*
X16448077Y-12912374D01*
X16448077Y-12912374D02*
X16467125Y-12902850D01*
X16467125Y-12902850D02*
X16505220Y-12902850D01*
X16505220Y-12902850D02*
X16524268Y-12912374D01*
X16524268Y-12912374D02*
X16533791Y-12931422D01*
X16533791Y-12931422D02*
X16533791Y-12950469D01*
X16533791Y-12950469D02*
X16438553Y-12969517D01*
X16609982Y-13026660D02*
X16629030Y-13036184D01*
X16629030Y-13036184D02*
X16667125Y-13036184D01*
X16667125Y-13036184D02*
X16686172Y-13026660D01*
X16686172Y-13026660D02*
X16695696Y-13007612D01*
X16695696Y-13007612D02*
X16695696Y-12998088D01*
X16695696Y-12998088D02*
X16686172Y-12979041D01*
X16686172Y-12979041D02*
X16667125Y-12969517D01*
X16667125Y-12969517D02*
X16638553Y-12969517D01*
X16638553Y-12969517D02*
X16619506Y-12959993D01*
X16619506Y-12959993D02*
X16609982Y-12940946D01*
X16609982Y-12940946D02*
X16609982Y-12931422D01*
X16609982Y-12931422D02*
X16619506Y-12912374D01*
X16619506Y-12912374D02*
X16638553Y-12902850D01*
X16638553Y-12902850D02*
X16667125Y-12902850D01*
X16667125Y-12902850D02*
X16686172Y-12912374D01*
X16933792Y-12959993D02*
X17086173Y-12959993D01*
X17009982Y-13036184D02*
X17009982Y-12883803D01*
X17419506Y-12902850D02*
X17419506Y-13036184D01*
X17371887Y-12826660D02*
X17324268Y-12969517D01*
X17324268Y-12969517D02*
X17448077Y-12969517D01*
X17667125Y-13026660D02*
X17686173Y-13036184D01*
X17686173Y-13036184D02*
X17724268Y-13036184D01*
X17724268Y-13036184D02*
X17743316Y-13026660D01*
X17743316Y-13026660D02*
X17752839Y-13007612D01*
X17752839Y-13007612D02*
X17752839Y-12998088D01*
X17752839Y-12998088D02*
X17743316Y-12979041D01*
X17743316Y-12979041D02*
X17724268Y-12969517D01*
X17724268Y-12969517D02*
X17695696Y-12969517D01*
X17695696Y-12969517D02*
X17676649Y-12959993D01*
X17676649Y-12959993D02*
X17667125Y-12940946D01*
X17667125Y-12940946D02*
X17667125Y-12931422D01*
X17667125Y-12931422D02*
X17676649Y-12912374D01*
X17676649Y-12912374D02*
X17695696Y-12902850D01*
X17695696Y-12902850D02*
X17724268Y-12902850D01*
X17724268Y-12902850D02*
X17743316Y-12912374D01*
X17867125Y-13036184D02*
X17848077Y-13026660D01*
X17848077Y-13026660D02*
X17838554Y-13007612D01*
X17838554Y-13007612D02*
X17838554Y-12836184D01*
X17971887Y-13036184D02*
X17952839Y-13026660D01*
X17952839Y-13026660D02*
X17943316Y-13017136D01*
X17943316Y-13017136D02*
X17933792Y-12998088D01*
X17933792Y-12998088D02*
X17933792Y-12940946D01*
X17933792Y-12940946D02*
X17943316Y-12921898D01*
X17943316Y-12921898D02*
X17952839Y-12912374D01*
X17952839Y-12912374D02*
X17971887Y-12902850D01*
X17971887Y-12902850D02*
X18000458Y-12902850D01*
X18000458Y-12902850D02*
X18019506Y-12912374D01*
X18019506Y-12912374D02*
X18029030Y-12921898D01*
X18029030Y-12921898D02*
X18038554Y-12940946D01*
X18038554Y-12940946D02*
X18038554Y-12998088D01*
X18038554Y-12998088D02*
X18029030Y-13017136D01*
X18029030Y-13017136D02*
X18019506Y-13026660D01*
X18019506Y-13026660D02*
X18000458Y-13036184D01*
X18000458Y-13036184D02*
X17971887Y-13036184D01*
X18095697Y-12902850D02*
X18171887Y-12902850D01*
X18124268Y-12836184D02*
X18124268Y-13007612D01*
X18124268Y-13007612D02*
X18133792Y-13026660D01*
X18133792Y-13026660D02*
X18152839Y-13036184D01*
X18152839Y-13036184D02*
X18171887Y-13036184D01*
X18229030Y-13026660D02*
X18248077Y-13036184D01*
X18248077Y-13036184D02*
X18286173Y-13036184D01*
X18286173Y-13036184D02*
X18305220Y-13026660D01*
X18305220Y-13026660D02*
X18314744Y-13007612D01*
X18314744Y-13007612D02*
X18314744Y-12998088D01*
X18314744Y-12998088D02*
X18305220Y-12979041D01*
X18305220Y-12979041D02*
X18286173Y-12969517D01*
X18286173Y-12969517D02*
X18257601Y-12969517D01*
X18257601Y-12969517D02*
X18238554Y-12959993D01*
X18238554Y-12959993D02*
X18229030Y-12940946D01*
X18229030Y-12940946D02*
X18229030Y-12931422D01*
X18229030Y-12931422D02*
X18238554Y-12912374D01*
X18238554Y-12912374D02*
X18257601Y-12902850D01*
X18257601Y-12902850D02*
X18286173Y-12902850D01*
X18286173Y-12902850D02*
X18305220Y-12912374D01*
X18381411Y-13112374D02*
X18390935Y-13102850D01*
X18390935Y-13102850D02*
X18409982Y-13074279D01*
X18409982Y-13074279D02*
X18419506Y-13055231D01*
X18419506Y-13055231D02*
X18429030Y-13026660D01*
X18429030Y-13026660D02*
X18438554Y-12979041D01*
X18438554Y-12979041D02*
X18438554Y-12940946D01*
X18438554Y-12940946D02*
X18429030Y-12893327D01*
X18429030Y-12893327D02*
X18419506Y-12864755D01*
X18419506Y-12864755D02*
X18409982Y-12845708D01*
X18409982Y-12845708D02*
X18390935Y-12817136D01*
X18390935Y-12817136D02*
X18381411Y-12807612D01*
D12*
X11942300Y-13253700D02*
X11987300Y-13208700D01*
X11942300Y-13163700D01*
X11897300Y-13208700D01*
X11942300Y-13253700D01*
D11*
X12286172Y-13100184D02*
X12305220Y-13100184D01*
X12305220Y-13100184D02*
X12324267Y-13109708D01*
X12324267Y-13109708D02*
X12333791Y-13119231D01*
X12333791Y-13119231D02*
X12343315Y-13138279D01*
X12343315Y-13138279D02*
X12352839Y-13176374D01*
X12352839Y-13176374D02*
X12352839Y-13223993D01*
X12352839Y-13223993D02*
X12343315Y-13262088D01*
X12343315Y-13262088D02*
X12333791Y-13281136D01*
X12333791Y-13281136D02*
X12324267Y-13290660D01*
X12324267Y-13290660D02*
X12305220Y-13300184D01*
X12305220Y-13300184D02*
X12286172Y-13300184D01*
X12286172Y-13300184D02*
X12267124Y-13290660D01*
X12267124Y-13290660D02*
X12257601Y-13281136D01*
X12257601Y-13281136D02*
X12248077Y-13262088D01*
X12248077Y-13262088D02*
X12238553Y-13223993D01*
X12238553Y-13223993D02*
X12238553Y-13176374D01*
X12238553Y-13176374D02*
X12248077Y-13138279D01*
X12248077Y-13138279D02*
X12257601Y-13119231D01*
X12257601Y-13119231D02*
X12267124Y-13109708D01*
X12267124Y-13109708D02*
X12286172Y-13100184D01*
X12438553Y-13281136D02*
X12448077Y-13290660D01*
X12448077Y-13290660D02*
X12438553Y-13300184D01*
X12438553Y-13300184D02*
X12429029Y-13290660D01*
X12429029Y-13290660D02*
X12438553Y-13281136D01*
X12438553Y-13281136D02*
X12438553Y-13300184D01*
X12543315Y-13300184D02*
X12581410Y-13300184D01*
X12581410Y-13300184D02*
X12600458Y-13290660D01*
X12600458Y-13290660D02*
X12609982Y-13281136D01*
X12609982Y-13281136D02*
X12629029Y-13252565D01*
X12629029Y-13252565D02*
X12638553Y-13214469D01*
X12638553Y-13214469D02*
X12638553Y-13138279D01*
X12638553Y-13138279D02*
X12629029Y-13119231D01*
X12629029Y-13119231D02*
X12619505Y-13109708D01*
X12619505Y-13109708D02*
X12600458Y-13100184D01*
X12600458Y-13100184D02*
X12562362Y-13100184D01*
X12562362Y-13100184D02*
X12543315Y-13109708D01*
X12543315Y-13109708D02*
X12533791Y-13119231D01*
X12533791Y-13119231D02*
X12524267Y-13138279D01*
X12524267Y-13138279D02*
X12524267Y-13185898D01*
X12524267Y-13185898D02*
X12533791Y-13204946D01*
X12533791Y-13204946D02*
X12543315Y-13214469D01*
X12543315Y-13214469D02*
X12562362Y-13223993D01*
X12562362Y-13223993D02*
X12600458Y-13223993D01*
X12600458Y-13223993D02*
X12619505Y-13214469D01*
X12619505Y-13214469D02*
X12629029Y-13204946D01*
X12629029Y-13204946D02*
X12638553Y-13185898D01*
X12762362Y-13100184D02*
X12781410Y-13100184D01*
X12781410Y-13100184D02*
X12800458Y-13109708D01*
X12800458Y-13109708D02*
X12809982Y-13119231D01*
X12809982Y-13119231D02*
X12819505Y-13138279D01*
X12819505Y-13138279D02*
X12829029Y-13176374D01*
X12829029Y-13176374D02*
X12829029Y-13223993D01*
X12829029Y-13223993D02*
X12819505Y-13262088D01*
X12819505Y-13262088D02*
X12809982Y-13281136D01*
X12809982Y-13281136D02*
X12800458Y-13290660D01*
X12800458Y-13290660D02*
X12781410Y-13300184D01*
X12781410Y-13300184D02*
X12762362Y-13300184D01*
X12762362Y-13300184D02*
X12743315Y-13290660D01*
X12743315Y-13290660D02*
X12733791Y-13281136D01*
X12733791Y-13281136D02*
X12724267Y-13262088D01*
X12724267Y-13262088D02*
X12714743Y-13223993D01*
X12714743Y-13223993D02*
X12714743Y-13176374D01*
X12714743Y-13176374D02*
X12724267Y-13138279D01*
X12724267Y-13138279D02*
X12733791Y-13119231D01*
X12733791Y-13119231D02*
X12743315Y-13109708D01*
X12743315Y-13109708D02*
X12762362Y-13100184D01*
X12952839Y-13100184D02*
X12971886Y-13100184D01*
X12971886Y-13100184D02*
X12990934Y-13109708D01*
X12990934Y-13109708D02*
X13000458Y-13119231D01*
X13000458Y-13119231D02*
X13009982Y-13138279D01*
X13009982Y-13138279D02*
X13019505Y-13176374D01*
X13019505Y-13176374D02*
X13019505Y-13223993D01*
X13019505Y-13223993D02*
X13009982Y-13262088D01*
X13009982Y-13262088D02*
X13000458Y-13281136D01*
X13000458Y-13281136D02*
X12990934Y-13290660D01*
X12990934Y-13290660D02*
X12971886Y-13300184D01*
X12971886Y-13300184D02*
X12952839Y-13300184D01*
X12952839Y-13300184D02*
X12933791Y-13290660D01*
X12933791Y-13290660D02*
X12924267Y-13281136D01*
X12924267Y-13281136D02*
X12914743Y-13262088D01*
X12914743Y-13262088D02*
X12905220Y-13223993D01*
X12905220Y-13223993D02*
X12905220Y-13176374D01*
X12905220Y-13176374D02*
X12914743Y-13138279D01*
X12914743Y-13138279D02*
X12924267Y-13119231D01*
X12924267Y-13119231D02*
X12933791Y-13109708D01*
X12933791Y-13109708D02*
X12952839Y-13100184D01*
X13105220Y-13300184D02*
X13105220Y-13166850D01*
X13105220Y-13185898D02*
X13114743Y-13176374D01*
X13114743Y-13176374D02*
X13133791Y-13166850D01*
X13133791Y-13166850D02*
X13162363Y-13166850D01*
X13162363Y-13166850D02*
X13181410Y-13176374D01*
X13181410Y-13176374D02*
X13190934Y-13195422D01*
X13190934Y-13195422D02*
X13190934Y-13300184D01*
X13190934Y-13195422D02*
X13200458Y-13176374D01*
X13200458Y-13176374D02*
X13219505Y-13166850D01*
X13219505Y-13166850D02*
X13248077Y-13166850D01*
X13248077Y-13166850D02*
X13267124Y-13176374D01*
X13267124Y-13176374D02*
X13276648Y-13195422D01*
X13276648Y-13195422D02*
X13276648Y-13300184D01*
X13371886Y-13300184D02*
X13371886Y-13166850D01*
X13371886Y-13185898D02*
X13381410Y-13176374D01*
X13381410Y-13176374D02*
X13400458Y-13166850D01*
X13400458Y-13166850D02*
X13429029Y-13166850D01*
X13429029Y-13166850D02*
X13448077Y-13176374D01*
X13448077Y-13176374D02*
X13457601Y-13195422D01*
X13457601Y-13195422D02*
X13457601Y-13300184D01*
X13457601Y-13195422D02*
X13467124Y-13176374D01*
X13467124Y-13176374D02*
X13486172Y-13166850D01*
X13486172Y-13166850D02*
X13514743Y-13166850D01*
X13514743Y-13166850D02*
X13533791Y-13176374D01*
X13533791Y-13176374D02*
X13543315Y-13195422D01*
X13543315Y-13195422D02*
X13543315Y-13300184D01*
X13933791Y-13090660D02*
X13762363Y-13347803D01*
X14190934Y-13100184D02*
X14209982Y-13100184D01*
X14209982Y-13100184D02*
X14229029Y-13109708D01*
X14229029Y-13109708D02*
X14238553Y-13119231D01*
X14238553Y-13119231D02*
X14248077Y-13138279D01*
X14248077Y-13138279D02*
X14257601Y-13176374D01*
X14257601Y-13176374D02*
X14257601Y-13223993D01*
X14257601Y-13223993D02*
X14248077Y-13262088D01*
X14248077Y-13262088D02*
X14238553Y-13281136D01*
X14238553Y-13281136D02*
X14229029Y-13290660D01*
X14229029Y-13290660D02*
X14209982Y-13300184D01*
X14209982Y-13300184D02*
X14190934Y-13300184D01*
X14190934Y-13300184D02*
X14171886Y-13290660D01*
X14171886Y-13290660D02*
X14162363Y-13281136D01*
X14162363Y-13281136D02*
X14152839Y-13262088D01*
X14152839Y-13262088D02*
X14143315Y-13223993D01*
X14143315Y-13223993D02*
X14143315Y-13176374D01*
X14143315Y-13176374D02*
X14152839Y-13138279D01*
X14152839Y-13138279D02*
X14162363Y-13119231D01*
X14162363Y-13119231D02*
X14171886Y-13109708D01*
X14171886Y-13109708D02*
X14190934Y-13100184D01*
X14343315Y-13281136D02*
X14352839Y-13290660D01*
X14352839Y-13290660D02*
X14343315Y-13300184D01*
X14343315Y-13300184D02*
X14333791Y-13290660D01*
X14333791Y-13290660D02*
X14343315Y-13281136D01*
X14343315Y-13281136D02*
X14343315Y-13300184D01*
X14476648Y-13100184D02*
X14495696Y-13100184D01*
X14495696Y-13100184D02*
X14514744Y-13109708D01*
X14514744Y-13109708D02*
X14524267Y-13119231D01*
X14524267Y-13119231D02*
X14533791Y-13138279D01*
X14533791Y-13138279D02*
X14543315Y-13176374D01*
X14543315Y-13176374D02*
X14543315Y-13223993D01*
X14543315Y-13223993D02*
X14533791Y-13262088D01*
X14533791Y-13262088D02*
X14524267Y-13281136D01*
X14524267Y-13281136D02*
X14514744Y-13290660D01*
X14514744Y-13290660D02*
X14495696Y-13300184D01*
X14495696Y-13300184D02*
X14476648Y-13300184D01*
X14476648Y-13300184D02*
X14457601Y-13290660D01*
X14457601Y-13290660D02*
X14448077Y-13281136D01*
X14448077Y-13281136D02*
X14438553Y-13262088D01*
X14438553Y-13262088D02*
X14429029Y-13223993D01*
X14429029Y-13223993D02*
X14429029Y-13176374D01*
X14429029Y-13176374D02*
X14438553Y-13138279D01*
X14438553Y-13138279D02*
X14448077Y-13119231D01*
X14448077Y-13119231D02*
X14457601Y-13109708D01*
X14457601Y-13109708D02*
X14476648Y-13100184D01*
X14609982Y-13100184D02*
X14733791Y-13100184D01*
X14733791Y-13100184D02*
X14667125Y-13176374D01*
X14667125Y-13176374D02*
X14695696Y-13176374D01*
X14695696Y-13176374D02*
X14714744Y-13185898D01*
X14714744Y-13185898D02*
X14724267Y-13195422D01*
X14724267Y-13195422D02*
X14733791Y-13214469D01*
X14733791Y-13214469D02*
X14733791Y-13262088D01*
X14733791Y-13262088D02*
X14724267Y-13281136D01*
X14724267Y-13281136D02*
X14714744Y-13290660D01*
X14714744Y-13290660D02*
X14695696Y-13300184D01*
X14695696Y-13300184D02*
X14638553Y-13300184D01*
X14638553Y-13300184D02*
X14619506Y-13290660D01*
X14619506Y-13290660D02*
X14609982Y-13281136D01*
X14914744Y-13100184D02*
X14819506Y-13100184D01*
X14819506Y-13100184D02*
X14809982Y-13195422D01*
X14809982Y-13195422D02*
X14819506Y-13185898D01*
X14819506Y-13185898D02*
X14838553Y-13176374D01*
X14838553Y-13176374D02*
X14886172Y-13176374D01*
X14886172Y-13176374D02*
X14905220Y-13185898D01*
X14905220Y-13185898D02*
X14914744Y-13195422D01*
X14914744Y-13195422D02*
X14924267Y-13214469D01*
X14924267Y-13214469D02*
X14924267Y-13262088D01*
X14924267Y-13262088D02*
X14914744Y-13281136D01*
X14914744Y-13281136D02*
X14905220Y-13290660D01*
X14905220Y-13290660D02*
X14886172Y-13300184D01*
X14886172Y-13300184D02*
X14838553Y-13300184D01*
X14838553Y-13300184D02*
X14819506Y-13290660D01*
X14819506Y-13290660D02*
X14809982Y-13281136D01*
X15095696Y-13166850D02*
X15095696Y-13300184D01*
X15048077Y-13090660D02*
X15000458Y-13233517D01*
X15000458Y-13233517D02*
X15124267Y-13233517D01*
X15190934Y-13100184D02*
X15190934Y-13138279D01*
X15267125Y-13100184D02*
X15267125Y-13138279D01*
X15562363Y-13376374D02*
X15552839Y-13366850D01*
X15552839Y-13366850D02*
X15533791Y-13338279D01*
X15533791Y-13338279D02*
X15524268Y-13319231D01*
X15524268Y-13319231D02*
X15514744Y-13290660D01*
X15514744Y-13290660D02*
X15505220Y-13243041D01*
X15505220Y-13243041D02*
X15505220Y-13204946D01*
X15505220Y-13204946D02*
X15514744Y-13157327D01*
X15514744Y-13157327D02*
X15524268Y-13128755D01*
X15524268Y-13128755D02*
X15533791Y-13109708D01*
X15533791Y-13109708D02*
X15552839Y-13081136D01*
X15552839Y-13081136D02*
X15562363Y-13071612D01*
X15629029Y-13119231D02*
X15638553Y-13109708D01*
X15638553Y-13109708D02*
X15657601Y-13100184D01*
X15657601Y-13100184D02*
X15705220Y-13100184D01*
X15705220Y-13100184D02*
X15724268Y-13109708D01*
X15724268Y-13109708D02*
X15733791Y-13119231D01*
X15733791Y-13119231D02*
X15743315Y-13138279D01*
X15743315Y-13138279D02*
X15743315Y-13157327D01*
X15743315Y-13157327D02*
X15733791Y-13185898D01*
X15733791Y-13185898D02*
X15619506Y-13300184D01*
X15619506Y-13300184D02*
X15743315Y-13300184D01*
X15981410Y-13300184D02*
X15981410Y-13100184D01*
X16067125Y-13300184D02*
X16067125Y-13195422D01*
X16067125Y-13195422D02*
X16057601Y-13176374D01*
X16057601Y-13176374D02*
X16038553Y-13166850D01*
X16038553Y-13166850D02*
X16009982Y-13166850D01*
X16009982Y-13166850D02*
X15990934Y-13176374D01*
X15990934Y-13176374D02*
X15981410Y-13185898D01*
X16190934Y-13300184D02*
X16171887Y-13290660D01*
X16171887Y-13290660D02*
X16162363Y-13281136D01*
X16162363Y-13281136D02*
X16152839Y-13262088D01*
X16152839Y-13262088D02*
X16152839Y-13204946D01*
X16152839Y-13204946D02*
X16162363Y-13185898D01*
X16162363Y-13185898D02*
X16171887Y-13176374D01*
X16171887Y-13176374D02*
X16190934Y-13166850D01*
X16190934Y-13166850D02*
X16219506Y-13166850D01*
X16219506Y-13166850D02*
X16238553Y-13176374D01*
X16238553Y-13176374D02*
X16248077Y-13185898D01*
X16248077Y-13185898D02*
X16257601Y-13204946D01*
X16257601Y-13204946D02*
X16257601Y-13262088D01*
X16257601Y-13262088D02*
X16248077Y-13281136D01*
X16248077Y-13281136D02*
X16238553Y-13290660D01*
X16238553Y-13290660D02*
X16219506Y-13300184D01*
X16219506Y-13300184D02*
X16190934Y-13300184D01*
X16371887Y-13300184D02*
X16352839Y-13290660D01*
X16352839Y-13290660D02*
X16343315Y-13271612D01*
X16343315Y-13271612D02*
X16343315Y-13100184D01*
X16524268Y-13290660D02*
X16505220Y-13300184D01*
X16505220Y-13300184D02*
X16467125Y-13300184D01*
X16467125Y-13300184D02*
X16448077Y-13290660D01*
X16448077Y-13290660D02*
X16438553Y-13271612D01*
X16438553Y-13271612D02*
X16438553Y-13195422D01*
X16438553Y-13195422D02*
X16448077Y-13176374D01*
X16448077Y-13176374D02*
X16467125Y-13166850D01*
X16467125Y-13166850D02*
X16505220Y-13166850D01*
X16505220Y-13166850D02*
X16524268Y-13176374D01*
X16524268Y-13176374D02*
X16533791Y-13195422D01*
X16533791Y-13195422D02*
X16533791Y-13214469D01*
X16533791Y-13214469D02*
X16438553Y-13233517D01*
X16609982Y-13290660D02*
X16629030Y-13300184D01*
X16629030Y-13300184D02*
X16667125Y-13300184D01*
X16667125Y-13300184D02*
X16686172Y-13290660D01*
X16686172Y-13290660D02*
X16695696Y-13271612D01*
X16695696Y-13271612D02*
X16695696Y-13262088D01*
X16695696Y-13262088D02*
X16686172Y-13243041D01*
X16686172Y-13243041D02*
X16667125Y-13233517D01*
X16667125Y-13233517D02*
X16638553Y-13233517D01*
X16638553Y-13233517D02*
X16619506Y-13223993D01*
X16619506Y-13223993D02*
X16609982Y-13204946D01*
X16609982Y-13204946D02*
X16609982Y-13195422D01*
X16609982Y-13195422D02*
X16619506Y-13176374D01*
X16619506Y-13176374D02*
X16638553Y-13166850D01*
X16638553Y-13166850D02*
X16667125Y-13166850D01*
X16667125Y-13166850D02*
X16686172Y-13176374D01*
X16762363Y-13376374D02*
X16771887Y-13366850D01*
X16771887Y-13366850D02*
X16790934Y-13338279D01*
X16790934Y-13338279D02*
X16800458Y-13319231D01*
X16800458Y-13319231D02*
X16809982Y-13290660D01*
X16809982Y-13290660D02*
X16819506Y-13243041D01*
X16819506Y-13243041D02*
X16819506Y-13204946D01*
X16819506Y-13204946D02*
X16809982Y-13157327D01*
X16809982Y-13157327D02*
X16800458Y-13128755D01*
X16800458Y-13128755D02*
X16790934Y-13109708D01*
X16790934Y-13109708D02*
X16771887Y-13081136D01*
X16771887Y-13081136D02*
X16762363Y-13071612D01*
D12*
X11887300Y-13422700D02*
X11987300Y-13522700D01*
X11987300Y-13422700D02*
X11887300Y-13522700D01*
X11987300Y-13472700D02*
G75*
G02*
X11887300Y-13472700I-50000J0D01*
G01*
X11887300Y-13472700D02*
G75*
G02*
X11987300Y-13472700I50000J0D01*
G01*
D11*
X12352839Y-13564184D02*
X12238553Y-13564184D01*
X12295696Y-13564184D02*
X12295696Y-13364184D01*
X12295696Y-13364184D02*
X12276648Y-13392755D01*
X12276648Y-13392755D02*
X12257601Y-13411803D01*
X12257601Y-13411803D02*
X12238553Y-13421327D01*
X12438553Y-13545136D02*
X12448077Y-13554660D01*
X12448077Y-13554660D02*
X12438553Y-13564184D01*
X12438553Y-13564184D02*
X12429029Y-13554660D01*
X12429029Y-13554660D02*
X12438553Y-13545136D01*
X12438553Y-13545136D02*
X12438553Y-13564184D01*
X12571886Y-13364184D02*
X12590934Y-13364184D01*
X12590934Y-13364184D02*
X12609982Y-13373708D01*
X12609982Y-13373708D02*
X12619505Y-13383231D01*
X12619505Y-13383231D02*
X12629029Y-13402279D01*
X12629029Y-13402279D02*
X12638553Y-13440374D01*
X12638553Y-13440374D02*
X12638553Y-13487993D01*
X12638553Y-13487993D02*
X12629029Y-13526088D01*
X12629029Y-13526088D02*
X12619505Y-13545136D01*
X12619505Y-13545136D02*
X12609982Y-13554660D01*
X12609982Y-13554660D02*
X12590934Y-13564184D01*
X12590934Y-13564184D02*
X12571886Y-13564184D01*
X12571886Y-13564184D02*
X12552839Y-13554660D01*
X12552839Y-13554660D02*
X12543315Y-13545136D01*
X12543315Y-13545136D02*
X12533791Y-13526088D01*
X12533791Y-13526088D02*
X12524267Y-13487993D01*
X12524267Y-13487993D02*
X12524267Y-13440374D01*
X12524267Y-13440374D02*
X12533791Y-13402279D01*
X12533791Y-13402279D02*
X12543315Y-13383231D01*
X12543315Y-13383231D02*
X12552839Y-13373708D01*
X12552839Y-13373708D02*
X12571886Y-13364184D01*
X12762362Y-13364184D02*
X12781410Y-13364184D01*
X12781410Y-13364184D02*
X12800458Y-13373708D01*
X12800458Y-13373708D02*
X12809982Y-13383231D01*
X12809982Y-13383231D02*
X12819505Y-13402279D01*
X12819505Y-13402279D02*
X12829029Y-13440374D01*
X12829029Y-13440374D02*
X12829029Y-13487993D01*
X12829029Y-13487993D02*
X12819505Y-13526088D01*
X12819505Y-13526088D02*
X12809982Y-13545136D01*
X12809982Y-13545136D02*
X12800458Y-13554660D01*
X12800458Y-13554660D02*
X12781410Y-13564184D01*
X12781410Y-13564184D02*
X12762362Y-13564184D01*
X12762362Y-13564184D02*
X12743315Y-13554660D01*
X12743315Y-13554660D02*
X12733791Y-13545136D01*
X12733791Y-13545136D02*
X12724267Y-13526088D01*
X12724267Y-13526088D02*
X12714743Y-13487993D01*
X12714743Y-13487993D02*
X12714743Y-13440374D01*
X12714743Y-13440374D02*
X12724267Y-13402279D01*
X12724267Y-13402279D02*
X12733791Y-13383231D01*
X12733791Y-13383231D02*
X12743315Y-13373708D01*
X12743315Y-13373708D02*
X12762362Y-13364184D01*
X12952839Y-13364184D02*
X12971886Y-13364184D01*
X12971886Y-13364184D02*
X12990934Y-13373708D01*
X12990934Y-13373708D02*
X13000458Y-13383231D01*
X13000458Y-13383231D02*
X13009982Y-13402279D01*
X13009982Y-13402279D02*
X13019505Y-13440374D01*
X13019505Y-13440374D02*
X13019505Y-13487993D01*
X13019505Y-13487993D02*
X13009982Y-13526088D01*
X13009982Y-13526088D02*
X13000458Y-13545136D01*
X13000458Y-13545136D02*
X12990934Y-13554660D01*
X12990934Y-13554660D02*
X12971886Y-13564184D01*
X12971886Y-13564184D02*
X12952839Y-13564184D01*
X12952839Y-13564184D02*
X12933791Y-13554660D01*
X12933791Y-13554660D02*
X12924267Y-13545136D01*
X12924267Y-13545136D02*
X12914743Y-13526088D01*
X12914743Y-13526088D02*
X12905220Y-13487993D01*
X12905220Y-13487993D02*
X12905220Y-13440374D01*
X12905220Y-13440374D02*
X12914743Y-13402279D01*
X12914743Y-13402279D02*
X12924267Y-13383231D01*
X12924267Y-13383231D02*
X12933791Y-13373708D01*
X12933791Y-13373708D02*
X12952839Y-13364184D01*
X13105220Y-13564184D02*
X13105220Y-13430850D01*
X13105220Y-13449898D02*
X13114743Y-13440374D01*
X13114743Y-13440374D02*
X13133791Y-13430850D01*
X13133791Y-13430850D02*
X13162363Y-13430850D01*
X13162363Y-13430850D02*
X13181410Y-13440374D01*
X13181410Y-13440374D02*
X13190934Y-13459422D01*
X13190934Y-13459422D02*
X13190934Y-13564184D01*
X13190934Y-13459422D02*
X13200458Y-13440374D01*
X13200458Y-13440374D02*
X13219505Y-13430850D01*
X13219505Y-13430850D02*
X13248077Y-13430850D01*
X13248077Y-13430850D02*
X13267124Y-13440374D01*
X13267124Y-13440374D02*
X13276648Y-13459422D01*
X13276648Y-13459422D02*
X13276648Y-13564184D01*
X13371886Y-13564184D02*
X13371886Y-13430850D01*
X13371886Y-13449898D02*
X13381410Y-13440374D01*
X13381410Y-13440374D02*
X13400458Y-13430850D01*
X13400458Y-13430850D02*
X13429029Y-13430850D01*
X13429029Y-13430850D02*
X13448077Y-13440374D01*
X13448077Y-13440374D02*
X13457601Y-13459422D01*
X13457601Y-13459422D02*
X13457601Y-13564184D01*
X13457601Y-13459422D02*
X13467124Y-13440374D01*
X13467124Y-13440374D02*
X13486172Y-13430850D01*
X13486172Y-13430850D02*
X13514743Y-13430850D01*
X13514743Y-13430850D02*
X13533791Y-13440374D01*
X13533791Y-13440374D02*
X13543315Y-13459422D01*
X13543315Y-13459422D02*
X13543315Y-13564184D01*
X13933791Y-13354660D02*
X13762363Y-13611803D01*
X14190934Y-13364184D02*
X14209982Y-13364184D01*
X14209982Y-13364184D02*
X14229029Y-13373708D01*
X14229029Y-13373708D02*
X14238553Y-13383231D01*
X14238553Y-13383231D02*
X14248077Y-13402279D01*
X14248077Y-13402279D02*
X14257601Y-13440374D01*
X14257601Y-13440374D02*
X14257601Y-13487993D01*
X14257601Y-13487993D02*
X14248077Y-13526088D01*
X14248077Y-13526088D02*
X14238553Y-13545136D01*
X14238553Y-13545136D02*
X14229029Y-13554660D01*
X14229029Y-13554660D02*
X14209982Y-13564184D01*
X14209982Y-13564184D02*
X14190934Y-13564184D01*
X14190934Y-13564184D02*
X14171886Y-13554660D01*
X14171886Y-13554660D02*
X14162363Y-13545136D01*
X14162363Y-13545136D02*
X14152839Y-13526088D01*
X14152839Y-13526088D02*
X14143315Y-13487993D01*
X14143315Y-13487993D02*
X14143315Y-13440374D01*
X14143315Y-13440374D02*
X14152839Y-13402279D01*
X14152839Y-13402279D02*
X14162363Y-13383231D01*
X14162363Y-13383231D02*
X14171886Y-13373708D01*
X14171886Y-13373708D02*
X14190934Y-13364184D01*
X14343315Y-13545136D02*
X14352839Y-13554660D01*
X14352839Y-13554660D02*
X14343315Y-13564184D01*
X14343315Y-13564184D02*
X14333791Y-13554660D01*
X14333791Y-13554660D02*
X14343315Y-13545136D01*
X14343315Y-13545136D02*
X14343315Y-13564184D01*
X14476648Y-13364184D02*
X14495696Y-13364184D01*
X14495696Y-13364184D02*
X14514744Y-13373708D01*
X14514744Y-13373708D02*
X14524267Y-13383231D01*
X14524267Y-13383231D02*
X14533791Y-13402279D01*
X14533791Y-13402279D02*
X14543315Y-13440374D01*
X14543315Y-13440374D02*
X14543315Y-13487993D01*
X14543315Y-13487993D02*
X14533791Y-13526088D01*
X14533791Y-13526088D02*
X14524267Y-13545136D01*
X14524267Y-13545136D02*
X14514744Y-13554660D01*
X14514744Y-13554660D02*
X14495696Y-13564184D01*
X14495696Y-13564184D02*
X14476648Y-13564184D01*
X14476648Y-13564184D02*
X14457601Y-13554660D01*
X14457601Y-13554660D02*
X14448077Y-13545136D01*
X14448077Y-13545136D02*
X14438553Y-13526088D01*
X14438553Y-13526088D02*
X14429029Y-13487993D01*
X14429029Y-13487993D02*
X14429029Y-13440374D01*
X14429029Y-13440374D02*
X14438553Y-13402279D01*
X14438553Y-13402279D02*
X14448077Y-13383231D01*
X14448077Y-13383231D02*
X14457601Y-13373708D01*
X14457601Y-13373708D02*
X14476648Y-13364184D01*
X14609982Y-13364184D02*
X14733791Y-13364184D01*
X14733791Y-13364184D02*
X14667125Y-13440374D01*
X14667125Y-13440374D02*
X14695696Y-13440374D01*
X14695696Y-13440374D02*
X14714744Y-13449898D01*
X14714744Y-13449898D02*
X14724267Y-13459422D01*
X14724267Y-13459422D02*
X14733791Y-13478469D01*
X14733791Y-13478469D02*
X14733791Y-13526088D01*
X14733791Y-13526088D02*
X14724267Y-13545136D01*
X14724267Y-13545136D02*
X14714744Y-13554660D01*
X14714744Y-13554660D02*
X14695696Y-13564184D01*
X14695696Y-13564184D02*
X14638553Y-13564184D01*
X14638553Y-13564184D02*
X14619506Y-13554660D01*
X14619506Y-13554660D02*
X14609982Y-13545136D01*
X14829029Y-13564184D02*
X14867125Y-13564184D01*
X14867125Y-13564184D02*
X14886172Y-13554660D01*
X14886172Y-13554660D02*
X14895696Y-13545136D01*
X14895696Y-13545136D02*
X14914744Y-13516565D01*
X14914744Y-13516565D02*
X14924267Y-13478469D01*
X14924267Y-13478469D02*
X14924267Y-13402279D01*
X14924267Y-13402279D02*
X14914744Y-13383231D01*
X14914744Y-13383231D02*
X14905220Y-13373708D01*
X14905220Y-13373708D02*
X14886172Y-13364184D01*
X14886172Y-13364184D02*
X14848077Y-13364184D01*
X14848077Y-13364184D02*
X14829029Y-13373708D01*
X14829029Y-13373708D02*
X14819506Y-13383231D01*
X14819506Y-13383231D02*
X14809982Y-13402279D01*
X14809982Y-13402279D02*
X14809982Y-13449898D01*
X14809982Y-13449898D02*
X14819506Y-13468946D01*
X14819506Y-13468946D02*
X14829029Y-13478469D01*
X14829029Y-13478469D02*
X14848077Y-13487993D01*
X14848077Y-13487993D02*
X14886172Y-13487993D01*
X14886172Y-13487993D02*
X14905220Y-13478469D01*
X14905220Y-13478469D02*
X14914744Y-13468946D01*
X14914744Y-13468946D02*
X14924267Y-13449898D01*
X15095696Y-13430850D02*
X15095696Y-13564184D01*
X15048077Y-13354660D02*
X15000458Y-13497517D01*
X15000458Y-13497517D02*
X15124267Y-13497517D01*
X15190934Y-13364184D02*
X15190934Y-13402279D01*
X15267125Y-13364184D02*
X15267125Y-13402279D01*
X15562363Y-13640374D02*
X15552839Y-13630850D01*
X15552839Y-13630850D02*
X15533791Y-13602279D01*
X15533791Y-13602279D02*
X15524268Y-13583231D01*
X15524268Y-13583231D02*
X15514744Y-13554660D01*
X15514744Y-13554660D02*
X15505220Y-13507041D01*
X15505220Y-13507041D02*
X15505220Y-13468946D01*
X15505220Y-13468946D02*
X15514744Y-13421327D01*
X15514744Y-13421327D02*
X15524268Y-13392755D01*
X15524268Y-13392755D02*
X15533791Y-13373708D01*
X15533791Y-13373708D02*
X15552839Y-13345136D01*
X15552839Y-13345136D02*
X15562363Y-13335612D01*
X15619506Y-13364184D02*
X15752839Y-13364184D01*
X15752839Y-13364184D02*
X15667125Y-13564184D01*
X15981410Y-13564184D02*
X15981410Y-13364184D01*
X16067125Y-13564184D02*
X16067125Y-13459422D01*
X16067125Y-13459422D02*
X16057601Y-13440374D01*
X16057601Y-13440374D02*
X16038553Y-13430850D01*
X16038553Y-13430850D02*
X16009982Y-13430850D01*
X16009982Y-13430850D02*
X15990934Y-13440374D01*
X15990934Y-13440374D02*
X15981410Y-13449898D01*
X16190934Y-13564184D02*
X16171887Y-13554660D01*
X16171887Y-13554660D02*
X16162363Y-13545136D01*
X16162363Y-13545136D02*
X16152839Y-13526088D01*
X16152839Y-13526088D02*
X16152839Y-13468946D01*
X16152839Y-13468946D02*
X16162363Y-13449898D01*
X16162363Y-13449898D02*
X16171887Y-13440374D01*
X16171887Y-13440374D02*
X16190934Y-13430850D01*
X16190934Y-13430850D02*
X16219506Y-13430850D01*
X16219506Y-13430850D02*
X16238553Y-13440374D01*
X16238553Y-13440374D02*
X16248077Y-13449898D01*
X16248077Y-13449898D02*
X16257601Y-13468946D01*
X16257601Y-13468946D02*
X16257601Y-13526088D01*
X16257601Y-13526088D02*
X16248077Y-13545136D01*
X16248077Y-13545136D02*
X16238553Y-13554660D01*
X16238553Y-13554660D02*
X16219506Y-13564184D01*
X16219506Y-13564184D02*
X16190934Y-13564184D01*
X16371887Y-13564184D02*
X16352839Y-13554660D01*
X16352839Y-13554660D02*
X16343315Y-13535612D01*
X16343315Y-13535612D02*
X16343315Y-13364184D01*
X16524268Y-13554660D02*
X16505220Y-13564184D01*
X16505220Y-13564184D02*
X16467125Y-13564184D01*
X16467125Y-13564184D02*
X16448077Y-13554660D01*
X16448077Y-13554660D02*
X16438553Y-13535612D01*
X16438553Y-13535612D02*
X16438553Y-13459422D01*
X16438553Y-13459422D02*
X16448077Y-13440374D01*
X16448077Y-13440374D02*
X16467125Y-13430850D01*
X16467125Y-13430850D02*
X16505220Y-13430850D01*
X16505220Y-13430850D02*
X16524268Y-13440374D01*
X16524268Y-13440374D02*
X16533791Y-13459422D01*
X16533791Y-13459422D02*
X16533791Y-13478469D01*
X16533791Y-13478469D02*
X16438553Y-13497517D01*
X16609982Y-13554660D02*
X16629030Y-13564184D01*
X16629030Y-13564184D02*
X16667125Y-13564184D01*
X16667125Y-13564184D02*
X16686172Y-13554660D01*
X16686172Y-13554660D02*
X16695696Y-13535612D01*
X16695696Y-13535612D02*
X16695696Y-13526088D01*
X16695696Y-13526088D02*
X16686172Y-13507041D01*
X16686172Y-13507041D02*
X16667125Y-13497517D01*
X16667125Y-13497517D02*
X16638553Y-13497517D01*
X16638553Y-13497517D02*
X16619506Y-13487993D01*
X16619506Y-13487993D02*
X16609982Y-13468946D01*
X16609982Y-13468946D02*
X16609982Y-13459422D01*
X16609982Y-13459422D02*
X16619506Y-13440374D01*
X16619506Y-13440374D02*
X16638553Y-13430850D01*
X16638553Y-13430850D02*
X16667125Y-13430850D01*
X16667125Y-13430850D02*
X16686172Y-13440374D01*
X16762363Y-13640374D02*
X16771887Y-13630850D01*
X16771887Y-13630850D02*
X16790934Y-13602279D01*
X16790934Y-13602279D02*
X16800458Y-13583231D01*
X16800458Y-13583231D02*
X16809982Y-13554660D01*
X16809982Y-13554660D02*
X16819506Y-13507041D01*
X16819506Y-13507041D02*
X16819506Y-13468946D01*
X16819506Y-13468946D02*
X16809982Y-13421327D01*
X16809982Y-13421327D02*
X16800458Y-13392755D01*
X16800458Y-13392755D02*
X16790934Y-13373708D01*
X16790934Y-13373708D02*
X16771887Y-13345136D01*
X16771887Y-13345136D02*
X16762363Y-13335612D01*
X11787300Y-13636700D02*
X11987300Y-13836700D01*
X11987300Y-13636700D02*
X11787300Y-13836700D01*
X11887300Y-13636700D02*
X11887300Y-13836700D01*
X11787300Y-13736700D02*
X11987300Y-13736700D01*
X12238553Y-13647231D02*
X12248077Y-13637708D01*
X12248077Y-13637708D02*
X12267124Y-13628184D01*
X12267124Y-13628184D02*
X12314743Y-13628184D01*
X12314743Y-13628184D02*
X12333791Y-13637708D01*
X12333791Y-13637708D02*
X12343315Y-13647231D01*
X12343315Y-13647231D02*
X12352839Y-13666279D01*
X12352839Y-13666279D02*
X12352839Y-13685327D01*
X12352839Y-13685327D02*
X12343315Y-13713898D01*
X12343315Y-13713898D02*
X12229029Y-13828184D01*
X12229029Y-13828184D02*
X12352839Y-13828184D01*
X12438553Y-13809136D02*
X12448077Y-13818660D01*
X12448077Y-13818660D02*
X12438553Y-13828184D01*
X12438553Y-13828184D02*
X12429029Y-13818660D01*
X12429029Y-13818660D02*
X12438553Y-13809136D01*
X12438553Y-13809136D02*
X12438553Y-13828184D01*
X12571886Y-13628184D02*
X12590934Y-13628184D01*
X12590934Y-13628184D02*
X12609982Y-13637708D01*
X12609982Y-13637708D02*
X12619505Y-13647231D01*
X12619505Y-13647231D02*
X12629029Y-13666279D01*
X12629029Y-13666279D02*
X12638553Y-13704374D01*
X12638553Y-13704374D02*
X12638553Y-13751993D01*
X12638553Y-13751993D02*
X12629029Y-13790088D01*
X12629029Y-13790088D02*
X12619505Y-13809136D01*
X12619505Y-13809136D02*
X12609982Y-13818660D01*
X12609982Y-13818660D02*
X12590934Y-13828184D01*
X12590934Y-13828184D02*
X12571886Y-13828184D01*
X12571886Y-13828184D02*
X12552839Y-13818660D01*
X12552839Y-13818660D02*
X12543315Y-13809136D01*
X12543315Y-13809136D02*
X12533791Y-13790088D01*
X12533791Y-13790088D02*
X12524267Y-13751993D01*
X12524267Y-13751993D02*
X12524267Y-13704374D01*
X12524267Y-13704374D02*
X12533791Y-13666279D01*
X12533791Y-13666279D02*
X12543315Y-13647231D01*
X12543315Y-13647231D02*
X12552839Y-13637708D01*
X12552839Y-13637708D02*
X12571886Y-13628184D01*
X12762362Y-13628184D02*
X12781410Y-13628184D01*
X12781410Y-13628184D02*
X12800458Y-13637708D01*
X12800458Y-13637708D02*
X12809982Y-13647231D01*
X12809982Y-13647231D02*
X12819505Y-13666279D01*
X12819505Y-13666279D02*
X12829029Y-13704374D01*
X12829029Y-13704374D02*
X12829029Y-13751993D01*
X12829029Y-13751993D02*
X12819505Y-13790088D01*
X12819505Y-13790088D02*
X12809982Y-13809136D01*
X12809982Y-13809136D02*
X12800458Y-13818660D01*
X12800458Y-13818660D02*
X12781410Y-13828184D01*
X12781410Y-13828184D02*
X12762362Y-13828184D01*
X12762362Y-13828184D02*
X12743315Y-13818660D01*
X12743315Y-13818660D02*
X12733791Y-13809136D01*
X12733791Y-13809136D02*
X12724267Y-13790088D01*
X12724267Y-13790088D02*
X12714743Y-13751993D01*
X12714743Y-13751993D02*
X12714743Y-13704374D01*
X12714743Y-13704374D02*
X12724267Y-13666279D01*
X12724267Y-13666279D02*
X12733791Y-13647231D01*
X12733791Y-13647231D02*
X12743315Y-13637708D01*
X12743315Y-13637708D02*
X12762362Y-13628184D01*
X12952839Y-13628184D02*
X12971886Y-13628184D01*
X12971886Y-13628184D02*
X12990934Y-13637708D01*
X12990934Y-13637708D02*
X13000458Y-13647231D01*
X13000458Y-13647231D02*
X13009982Y-13666279D01*
X13009982Y-13666279D02*
X13019505Y-13704374D01*
X13019505Y-13704374D02*
X13019505Y-13751993D01*
X13019505Y-13751993D02*
X13009982Y-13790088D01*
X13009982Y-13790088D02*
X13000458Y-13809136D01*
X13000458Y-13809136D02*
X12990934Y-13818660D01*
X12990934Y-13818660D02*
X12971886Y-13828184D01*
X12971886Y-13828184D02*
X12952839Y-13828184D01*
X12952839Y-13828184D02*
X12933791Y-13818660D01*
X12933791Y-13818660D02*
X12924267Y-13809136D01*
X12924267Y-13809136D02*
X12914743Y-13790088D01*
X12914743Y-13790088D02*
X12905220Y-13751993D01*
X12905220Y-13751993D02*
X12905220Y-13704374D01*
X12905220Y-13704374D02*
X12914743Y-13666279D01*
X12914743Y-13666279D02*
X12924267Y-13647231D01*
X12924267Y-13647231D02*
X12933791Y-13637708D01*
X12933791Y-13637708D02*
X12952839Y-13628184D01*
X13105220Y-13828184D02*
X13105220Y-13694850D01*
X13105220Y-13713898D02*
X13114743Y-13704374D01*
X13114743Y-13704374D02*
X13133791Y-13694850D01*
X13133791Y-13694850D02*
X13162363Y-13694850D01*
X13162363Y-13694850D02*
X13181410Y-13704374D01*
X13181410Y-13704374D02*
X13190934Y-13723422D01*
X13190934Y-13723422D02*
X13190934Y-13828184D01*
X13190934Y-13723422D02*
X13200458Y-13704374D01*
X13200458Y-13704374D02*
X13219505Y-13694850D01*
X13219505Y-13694850D02*
X13248077Y-13694850D01*
X13248077Y-13694850D02*
X13267124Y-13704374D01*
X13267124Y-13704374D02*
X13276648Y-13723422D01*
X13276648Y-13723422D02*
X13276648Y-13828184D01*
X13371886Y-13828184D02*
X13371886Y-13694850D01*
X13371886Y-13713898D02*
X13381410Y-13704374D01*
X13381410Y-13704374D02*
X13400458Y-13694850D01*
X13400458Y-13694850D02*
X13429029Y-13694850D01*
X13429029Y-13694850D02*
X13448077Y-13704374D01*
X13448077Y-13704374D02*
X13457601Y-13723422D01*
X13457601Y-13723422D02*
X13457601Y-13828184D01*
X13457601Y-13723422D02*
X13467124Y-13704374D01*
X13467124Y-13704374D02*
X13486172Y-13694850D01*
X13486172Y-13694850D02*
X13514743Y-13694850D01*
X13514743Y-13694850D02*
X13533791Y-13704374D01*
X13533791Y-13704374D02*
X13543315Y-13723422D01*
X13543315Y-13723422D02*
X13543315Y-13828184D01*
X13933791Y-13618660D02*
X13762363Y-13875803D01*
X14190934Y-13628184D02*
X14209982Y-13628184D01*
X14209982Y-13628184D02*
X14229029Y-13637708D01*
X14229029Y-13637708D02*
X14238553Y-13647231D01*
X14238553Y-13647231D02*
X14248077Y-13666279D01*
X14248077Y-13666279D02*
X14257601Y-13704374D01*
X14257601Y-13704374D02*
X14257601Y-13751993D01*
X14257601Y-13751993D02*
X14248077Y-13790088D01*
X14248077Y-13790088D02*
X14238553Y-13809136D01*
X14238553Y-13809136D02*
X14229029Y-13818660D01*
X14229029Y-13818660D02*
X14209982Y-13828184D01*
X14209982Y-13828184D02*
X14190934Y-13828184D01*
X14190934Y-13828184D02*
X14171886Y-13818660D01*
X14171886Y-13818660D02*
X14162363Y-13809136D01*
X14162363Y-13809136D02*
X14152839Y-13790088D01*
X14152839Y-13790088D02*
X14143315Y-13751993D01*
X14143315Y-13751993D02*
X14143315Y-13704374D01*
X14143315Y-13704374D02*
X14152839Y-13666279D01*
X14152839Y-13666279D02*
X14162363Y-13647231D01*
X14162363Y-13647231D02*
X14171886Y-13637708D01*
X14171886Y-13637708D02*
X14190934Y-13628184D01*
X14343315Y-13809136D02*
X14352839Y-13818660D01*
X14352839Y-13818660D02*
X14343315Y-13828184D01*
X14343315Y-13828184D02*
X14333791Y-13818660D01*
X14333791Y-13818660D02*
X14343315Y-13809136D01*
X14343315Y-13809136D02*
X14343315Y-13828184D01*
X14476648Y-13628184D02*
X14495696Y-13628184D01*
X14495696Y-13628184D02*
X14514744Y-13637708D01*
X14514744Y-13637708D02*
X14524267Y-13647231D01*
X14524267Y-13647231D02*
X14533791Y-13666279D01*
X14533791Y-13666279D02*
X14543315Y-13704374D01*
X14543315Y-13704374D02*
X14543315Y-13751993D01*
X14543315Y-13751993D02*
X14533791Y-13790088D01*
X14533791Y-13790088D02*
X14524267Y-13809136D01*
X14524267Y-13809136D02*
X14514744Y-13818660D01*
X14514744Y-13818660D02*
X14495696Y-13828184D01*
X14495696Y-13828184D02*
X14476648Y-13828184D01*
X14476648Y-13828184D02*
X14457601Y-13818660D01*
X14457601Y-13818660D02*
X14448077Y-13809136D01*
X14448077Y-13809136D02*
X14438553Y-13790088D01*
X14438553Y-13790088D02*
X14429029Y-13751993D01*
X14429029Y-13751993D02*
X14429029Y-13704374D01*
X14429029Y-13704374D02*
X14438553Y-13666279D01*
X14438553Y-13666279D02*
X14448077Y-13647231D01*
X14448077Y-13647231D02*
X14457601Y-13637708D01*
X14457601Y-13637708D02*
X14476648Y-13628184D01*
X14609982Y-13628184D02*
X14743315Y-13628184D01*
X14743315Y-13628184D02*
X14657601Y-13828184D01*
X14848077Y-13713898D02*
X14829029Y-13704374D01*
X14829029Y-13704374D02*
X14819506Y-13694850D01*
X14819506Y-13694850D02*
X14809982Y-13675803D01*
X14809982Y-13675803D02*
X14809982Y-13666279D01*
X14809982Y-13666279D02*
X14819506Y-13647231D01*
X14819506Y-13647231D02*
X14829029Y-13637708D01*
X14829029Y-13637708D02*
X14848077Y-13628184D01*
X14848077Y-13628184D02*
X14886172Y-13628184D01*
X14886172Y-13628184D02*
X14905220Y-13637708D01*
X14905220Y-13637708D02*
X14914744Y-13647231D01*
X14914744Y-13647231D02*
X14924267Y-13666279D01*
X14924267Y-13666279D02*
X14924267Y-13675803D01*
X14924267Y-13675803D02*
X14914744Y-13694850D01*
X14914744Y-13694850D02*
X14905220Y-13704374D01*
X14905220Y-13704374D02*
X14886172Y-13713898D01*
X14886172Y-13713898D02*
X14848077Y-13713898D01*
X14848077Y-13713898D02*
X14829029Y-13723422D01*
X14829029Y-13723422D02*
X14819506Y-13732946D01*
X14819506Y-13732946D02*
X14809982Y-13751993D01*
X14809982Y-13751993D02*
X14809982Y-13790088D01*
X14809982Y-13790088D02*
X14819506Y-13809136D01*
X14819506Y-13809136D02*
X14829029Y-13818660D01*
X14829029Y-13818660D02*
X14848077Y-13828184D01*
X14848077Y-13828184D02*
X14886172Y-13828184D01*
X14886172Y-13828184D02*
X14905220Y-13818660D01*
X14905220Y-13818660D02*
X14914744Y-13809136D01*
X14914744Y-13809136D02*
X14924267Y-13790088D01*
X14924267Y-13790088D02*
X14924267Y-13751993D01*
X14924267Y-13751993D02*
X14914744Y-13732946D01*
X14914744Y-13732946D02*
X14905220Y-13723422D01*
X14905220Y-13723422D02*
X14886172Y-13713898D01*
X14990934Y-13628184D02*
X15124267Y-13628184D01*
X15124267Y-13628184D02*
X15038553Y-13828184D01*
X15190934Y-13628184D02*
X15190934Y-13666279D01*
X15267125Y-13628184D02*
X15267125Y-13666279D01*
X15562363Y-13904374D02*
X15552839Y-13894850D01*
X15552839Y-13894850D02*
X15533791Y-13866279D01*
X15533791Y-13866279D02*
X15524268Y-13847231D01*
X15524268Y-13847231D02*
X15514744Y-13818660D01*
X15514744Y-13818660D02*
X15505220Y-13771041D01*
X15505220Y-13771041D02*
X15505220Y-13732946D01*
X15505220Y-13732946D02*
X15514744Y-13685327D01*
X15514744Y-13685327D02*
X15524268Y-13656755D01*
X15524268Y-13656755D02*
X15533791Y-13637708D01*
X15533791Y-13637708D02*
X15552839Y-13609136D01*
X15552839Y-13609136D02*
X15562363Y-13599612D01*
X15629029Y-13647231D02*
X15638553Y-13637708D01*
X15638553Y-13637708D02*
X15657601Y-13628184D01*
X15657601Y-13628184D02*
X15705220Y-13628184D01*
X15705220Y-13628184D02*
X15724268Y-13637708D01*
X15724268Y-13637708D02*
X15733791Y-13647231D01*
X15733791Y-13647231D02*
X15743315Y-13666279D01*
X15743315Y-13666279D02*
X15743315Y-13685327D01*
X15743315Y-13685327D02*
X15733791Y-13713898D01*
X15733791Y-13713898D02*
X15619506Y-13828184D01*
X15619506Y-13828184D02*
X15743315Y-13828184D01*
X15981410Y-13828184D02*
X15981410Y-13628184D01*
X16067125Y-13828184D02*
X16067125Y-13723422D01*
X16067125Y-13723422D02*
X16057601Y-13704374D01*
X16057601Y-13704374D02*
X16038553Y-13694850D01*
X16038553Y-13694850D02*
X16009982Y-13694850D01*
X16009982Y-13694850D02*
X15990934Y-13704374D01*
X15990934Y-13704374D02*
X15981410Y-13713898D01*
X16190934Y-13828184D02*
X16171887Y-13818660D01*
X16171887Y-13818660D02*
X16162363Y-13809136D01*
X16162363Y-13809136D02*
X16152839Y-13790088D01*
X16152839Y-13790088D02*
X16152839Y-13732946D01*
X16152839Y-13732946D02*
X16162363Y-13713898D01*
X16162363Y-13713898D02*
X16171887Y-13704374D01*
X16171887Y-13704374D02*
X16190934Y-13694850D01*
X16190934Y-13694850D02*
X16219506Y-13694850D01*
X16219506Y-13694850D02*
X16238553Y-13704374D01*
X16238553Y-13704374D02*
X16248077Y-13713898D01*
X16248077Y-13713898D02*
X16257601Y-13732946D01*
X16257601Y-13732946D02*
X16257601Y-13790088D01*
X16257601Y-13790088D02*
X16248077Y-13809136D01*
X16248077Y-13809136D02*
X16238553Y-13818660D01*
X16238553Y-13818660D02*
X16219506Y-13828184D01*
X16219506Y-13828184D02*
X16190934Y-13828184D01*
X16371887Y-13828184D02*
X16352839Y-13818660D01*
X16352839Y-13818660D02*
X16343315Y-13799612D01*
X16343315Y-13799612D02*
X16343315Y-13628184D01*
X16524268Y-13818660D02*
X16505220Y-13828184D01*
X16505220Y-13828184D02*
X16467125Y-13828184D01*
X16467125Y-13828184D02*
X16448077Y-13818660D01*
X16448077Y-13818660D02*
X16438553Y-13799612D01*
X16438553Y-13799612D02*
X16438553Y-13723422D01*
X16438553Y-13723422D02*
X16448077Y-13704374D01*
X16448077Y-13704374D02*
X16467125Y-13694850D01*
X16467125Y-13694850D02*
X16505220Y-13694850D01*
X16505220Y-13694850D02*
X16524268Y-13704374D01*
X16524268Y-13704374D02*
X16533791Y-13723422D01*
X16533791Y-13723422D02*
X16533791Y-13742469D01*
X16533791Y-13742469D02*
X16438553Y-13761517D01*
X16609982Y-13818660D02*
X16629030Y-13828184D01*
X16629030Y-13828184D02*
X16667125Y-13828184D01*
X16667125Y-13828184D02*
X16686172Y-13818660D01*
X16686172Y-13818660D02*
X16695696Y-13799612D01*
X16695696Y-13799612D02*
X16695696Y-13790088D01*
X16695696Y-13790088D02*
X16686172Y-13771041D01*
X16686172Y-13771041D02*
X16667125Y-13761517D01*
X16667125Y-13761517D02*
X16638553Y-13761517D01*
X16638553Y-13761517D02*
X16619506Y-13751993D01*
X16619506Y-13751993D02*
X16609982Y-13732946D01*
X16609982Y-13732946D02*
X16609982Y-13723422D01*
X16609982Y-13723422D02*
X16619506Y-13704374D01*
X16619506Y-13704374D02*
X16638553Y-13694850D01*
X16638553Y-13694850D02*
X16667125Y-13694850D01*
X16667125Y-13694850D02*
X16686172Y-13704374D01*
X16762363Y-13904374D02*
X16771887Y-13894850D01*
X16771887Y-13894850D02*
X16790934Y-13866279D01*
X16790934Y-13866279D02*
X16800458Y-13847231D01*
X16800458Y-13847231D02*
X16809982Y-13818660D01*
X16809982Y-13818660D02*
X16819506Y-13771041D01*
X16819506Y-13771041D02*
X16819506Y-13732946D01*
X16819506Y-13732946D02*
X16809982Y-13685327D01*
X16809982Y-13685327D02*
X16800458Y-13656755D01*
X16800458Y-13656755D02*
X16790934Y-13637708D01*
X16790934Y-13637708D02*
X16771887Y-13609136D01*
X16771887Y-13609136D02*
X16762363Y-13599612D01*
M02*
