%TF.GenerationSoftware,KiCad,Pcbnew,10.0.6*%
%TF.CreationDate,2026-09-03T13:12:13+02:00*%
%TF.ProjectId,openrz67,6f70656e-727a-4363-972e-6b696361645f,rev?*%
%TF.SameCoordinates,Original*%
%TF.FileFunction,Drillmap*%
%TF.FilePolarity,Positive*%
%FSLAX45Y45*%
G04 Gerber Fmt 4.5, Leading zero omitted, Abs format (unit mm)*
G04 Created by KiCad (PCBNEW 10.0.6) date 2026-09-03 13:12:13*
%MOMM*%
%LPD*%
G01*
G04 APERTURE LIST*
%ADD10C,0.254000*%
%ADD11C,0.200000*%
G04 APERTURE END LIST*
D10*
X12000000Y-9200000D02*
X12000000Y-11300000D01*
X12000000Y-9200000D02*
G75*
G02*
X12200000Y-9000000I200000J0D01*
G01*
X12200000Y-9000000D02*
X16600000Y-9000000D01*
X12200000Y-11500000D02*
G75*
G02*
X12000000Y-11300000I0J200000D01*
G01*
X12200000Y-11500000D02*
X16600000Y-11500000D01*
X16600000Y-9000000D02*
G75*
G02*
X16800000Y-9200000I0J-200000D01*
G01*
X16800000Y-9200000D02*
X16800000Y-11300000D01*
X16800000Y-11300000D02*
G75*
G02*
X16600000Y-11500000I-200000J0D01*
G01*
D11*
X12248077Y-11824184D02*
X12248077Y-11624184D01*
X12248077Y-11624184D02*
X12295696Y-11624184D01*
X12295696Y-11624184D02*
X12324267Y-11633708D01*
X12324267Y-11633708D02*
X12343315Y-11652755D01*
X12343315Y-11652755D02*
X12352839Y-11671803D01*
X12352839Y-11671803D02*
X12362362Y-11709898D01*
X12362362Y-11709898D02*
X12362362Y-11738469D01*
X12362362Y-11738469D02*
X12352839Y-11776565D01*
X12352839Y-11776565D02*
X12343315Y-11795612D01*
X12343315Y-11795612D02*
X12324267Y-11814660D01*
X12324267Y-11814660D02*
X12295696Y-11824184D01*
X12295696Y-11824184D02*
X12248077Y-11824184D01*
X12448077Y-11824184D02*
X12448077Y-11690850D01*
X12448077Y-11728946D02*
X12457601Y-11709898D01*
X12457601Y-11709898D02*
X12467124Y-11700374D01*
X12467124Y-11700374D02*
X12486172Y-11690850D01*
X12486172Y-11690850D02*
X12505220Y-11690850D01*
X12571886Y-11824184D02*
X12571886Y-11690850D01*
X12571886Y-11624184D02*
X12562362Y-11633708D01*
X12562362Y-11633708D02*
X12571886Y-11643231D01*
X12571886Y-11643231D02*
X12581410Y-11633708D01*
X12581410Y-11633708D02*
X12571886Y-11624184D01*
X12571886Y-11624184D02*
X12571886Y-11643231D01*
X12695696Y-11824184D02*
X12676648Y-11814660D01*
X12676648Y-11814660D02*
X12667124Y-11795612D01*
X12667124Y-11795612D02*
X12667124Y-11624184D01*
X12800458Y-11824184D02*
X12781410Y-11814660D01*
X12781410Y-11814660D02*
X12771886Y-11795612D01*
X12771886Y-11795612D02*
X12771886Y-11624184D01*
X13029029Y-11824184D02*
X13029029Y-11624184D01*
X13029029Y-11624184D02*
X13095696Y-11767041D01*
X13095696Y-11767041D02*
X13162362Y-11624184D01*
X13162362Y-11624184D02*
X13162362Y-11824184D01*
X13343315Y-11824184D02*
X13343315Y-11719422D01*
X13343315Y-11719422D02*
X13333791Y-11700374D01*
X13333791Y-11700374D02*
X13314743Y-11690850D01*
X13314743Y-11690850D02*
X13276648Y-11690850D01*
X13276648Y-11690850D02*
X13257601Y-11700374D01*
X13343315Y-11814660D02*
X13324267Y-11824184D01*
X13324267Y-11824184D02*
X13276648Y-11824184D01*
X13276648Y-11824184D02*
X13257601Y-11814660D01*
X13257601Y-11814660D02*
X13248077Y-11795612D01*
X13248077Y-11795612D02*
X13248077Y-11776565D01*
X13248077Y-11776565D02*
X13257601Y-11757517D01*
X13257601Y-11757517D02*
X13276648Y-11747993D01*
X13276648Y-11747993D02*
X13324267Y-11747993D01*
X13324267Y-11747993D02*
X13343315Y-11738469D01*
X13438553Y-11690850D02*
X13438553Y-11890850D01*
X13438553Y-11700374D02*
X13457601Y-11690850D01*
X13457601Y-11690850D02*
X13495696Y-11690850D01*
X13495696Y-11690850D02*
X13514743Y-11700374D01*
X13514743Y-11700374D02*
X13524267Y-11709898D01*
X13524267Y-11709898D02*
X13533791Y-11728946D01*
X13533791Y-11728946D02*
X13533791Y-11786088D01*
X13533791Y-11786088D02*
X13524267Y-11805136D01*
X13524267Y-11805136D02*
X13514743Y-11814660D01*
X13514743Y-11814660D02*
X13495696Y-11824184D01*
X13495696Y-11824184D02*
X13457601Y-11824184D01*
X13457601Y-11824184D02*
X13438553Y-11814660D01*
X13619505Y-11805136D02*
X13629029Y-11814660D01*
X13629029Y-11814660D02*
X13619505Y-11824184D01*
X13619505Y-11824184D02*
X13609982Y-11814660D01*
X13609982Y-11814660D02*
X13619505Y-11805136D01*
X13619505Y-11805136D02*
X13619505Y-11824184D01*
X13619505Y-11700374D02*
X13629029Y-11709898D01*
X13629029Y-11709898D02*
X13619505Y-11719422D01*
X13619505Y-11719422D02*
X13609982Y-11709898D01*
X13609982Y-11709898D02*
X13619505Y-11700374D01*
X13619505Y-11700374D02*
X13619505Y-11719422D01*
M02*
