%TF.GenerationSoftware,KiCad,Pcbnew,10.0.6*%
%TF.CreationDate,2026-09-03T10:41:36+02:00*%
%TF.ProjectId,openrz67,6f70656e-727a-4363-972e-6b696361645f,rev?*%
%TF.SameCoordinates,Original*%
%TF.FileFunction,Profile,NP*%
%FSLAX46Y46*%
G04 Gerber Fmt 4.6, Leading zero omitted, Abs format (unit mm)*
G04 Created by KiCad (PCBNEW 10.0.6) date 2026-09-03 10:41:36*
%MOMM*%
%LPD*%
G01*
G04 APERTURE LIST*
%TA.AperFunction,Profile*%
%ADD10C,0.254000*%
%TD*%
%TA.AperFunction,Profile*%
%ADD11C,0.000000*%
%TD*%
G04 APERTURE END LIST*
D10*
X120000000Y-92000000D02*
X120000000Y-110000000D01*
X120000000Y-92000000D02*
G75*
G02*
X122000000Y-90000000I2000000J0D01*
G01*
X122000000Y-90000000D02*
X166000000Y-90000000D01*
X122000000Y-112000000D02*
G75*
G02*
X120000000Y-110000000I0J2000000D01*
G01*
X122000000Y-112000000D02*
X166000000Y-112000000D01*
X166000000Y-90000000D02*
G75*
G02*
X168000000Y-92000000I0J-2000000D01*
G01*
X168000000Y-92000000D02*
X168000000Y-110000000D01*
X168000000Y-110000000D02*
G75*
G02*
X166000000Y-112000000I-2000000J0D01*
G01*
D11*
%TA.AperFunction,Profile*%
%TO.C,USB1*%
G36*
X125045939Y-100045642D02*
G01*
X125125067Y-100091326D01*
X125189674Y-100155933D01*
X125235358Y-100235061D01*
X125259006Y-100323316D01*
X125259006Y-100414684D01*
X125235358Y-100502939D01*
X125189674Y-100582067D01*
X125125067Y-100646674D01*
X125045939Y-100692358D01*
X124957684Y-100716006D01*
X124866316Y-100716006D01*
X124778061Y-100692358D01*
X124698933Y-100646674D01*
X124634326Y-100582067D01*
X124588642Y-100502939D01*
X124564994Y-100414684D01*
X124564994Y-100323316D01*
X124588642Y-100235061D01*
X124634326Y-100155933D01*
X124698933Y-100091326D01*
X124778061Y-100045642D01*
X124866316Y-100021994D01*
X124957684Y-100021994D01*
X125045939Y-100045642D01*
G37*
%TD.AperFunction*%
%TA.AperFunction,Profile*%
G36*
X125045939Y-105825642D02*
G01*
X125125067Y-105871326D01*
X125189674Y-105935933D01*
X125235358Y-106015061D01*
X125259006Y-106103316D01*
X125259006Y-106194684D01*
X125235358Y-106282939D01*
X125189674Y-106362067D01*
X125125067Y-106426674D01*
X125045939Y-106472358D01*
X124957684Y-106496006D01*
X124866316Y-106496006D01*
X124778061Y-106472358D01*
X124698933Y-106426674D01*
X124634326Y-106362067D01*
X124588642Y-106282939D01*
X124564994Y-106194684D01*
X124564994Y-106103316D01*
X124588642Y-106015061D01*
X124634326Y-105935933D01*
X124698933Y-105871326D01*
X124778061Y-105825642D01*
X124866316Y-105801994D01*
X124957684Y-105801994D01*
X125045939Y-105825642D01*
G37*
%TD.AperFunction*%
%TD*%
M02*
