%TF.GenerationSoftware,KiCad,Pcbnew,10.0.6*%
%TF.CreationDate,2026-09-03T10:41:36+02:00*%
%TF.ProjectId,openrz67,6f70656e-727a-4363-972e-6b696361645f,rev?*%
%TF.SameCoordinates,Original*%
%TF.FileFunction,Drillmap*%
%TF.FilePolarity,Positive*%
%FSLAX45Y45*%
G04 Gerber Fmt 4.5, Leading zero omitted, Abs format (unit mm)*
G04 Created by KiCad (PCBNEW 10.0.6) date 2026-09-03 10:41:36*
%MOMM*%
%LPD*%
G01*
G04 APERTURE LIST*
%ADD10C,0.254000*%
%ADD11C,0.000000*%
%ADD12C,0.200000*%
G04 APERTURE END LIST*
D10*
X12000000Y-9200000D02*
X12000000Y-11000000D01*
X12000000Y-9200000D02*
G75*
G02*
X12200000Y-9000000I200000J0D01*
G01*
X12200000Y-9000000D02*
X16600000Y-9000000D01*
X12200000Y-11200000D02*
G75*
G02*
X12000000Y-11000000I0J200000D01*
G01*
X12200000Y-11200000D02*
X16600000Y-11200000D01*
X16600000Y-9000000D02*
G75*
G02*
X16800000Y-9200000I0J-200000D01*
G01*
X16800000Y-9200000D02*
X16800000Y-11000000D01*
X16800000Y-11000000D02*
G75*
G02*
X16600000Y-11200000I-200000J0D01*
G01*
D11*
G36*
X12504594Y-10004564D02*
G01*
X12512507Y-10009133D01*
X12518967Y-10015593D01*
X12523536Y-10023506D01*
X12525901Y-10032332D01*
X12525901Y-10041468D01*
X12523536Y-10050294D01*
X12518967Y-10058207D01*
X12512507Y-10064667D01*
X12504594Y-10069236D01*
X12495768Y-10071601D01*
X12486632Y-10071601D01*
X12477806Y-10069236D01*
X12469893Y-10064667D01*
X12463433Y-10058207D01*
X12458864Y-10050294D01*
X12456499Y-10041468D01*
X12456499Y-10032332D01*
X12458864Y-10023506D01*
X12463433Y-10015593D01*
X12469893Y-10009133D01*
X12477806Y-10004564D01*
X12486632Y-10002199D01*
X12495768Y-10002199D01*
X12504594Y-10004564D01*
G37*
G36*
X12504594Y-10582564D02*
G01*
X12512507Y-10587133D01*
X12518967Y-10593593D01*
X12523536Y-10601506D01*
X12525901Y-10610332D01*
X12525901Y-10619468D01*
X12523536Y-10628294D01*
X12518967Y-10636207D01*
X12512507Y-10642667D01*
X12504594Y-10647236D01*
X12495768Y-10649601D01*
X12486632Y-10649601D01*
X12477806Y-10647236D01*
X12469893Y-10642667D01*
X12463433Y-10636207D01*
X12458864Y-10628294D01*
X12456499Y-10619468D01*
X12456499Y-10610332D01*
X12458864Y-10601506D01*
X12463433Y-10593593D01*
X12469893Y-10587133D01*
X12477806Y-10582564D01*
X12486632Y-10580199D01*
X12495768Y-10580199D01*
X12504594Y-10582564D01*
G37*
D12*
X12248077Y-11524184D02*
X12248077Y-11324184D01*
X12248077Y-11324184D02*
X12295696Y-11324184D01*
X12295696Y-11324184D02*
X12324267Y-11333708D01*
X12324267Y-11333708D02*
X12343315Y-11352755D01*
X12343315Y-11352755D02*
X12352839Y-11371803D01*
X12352839Y-11371803D02*
X12362362Y-11409898D01*
X12362362Y-11409898D02*
X12362362Y-11438469D01*
X12362362Y-11438469D02*
X12352839Y-11476565D01*
X12352839Y-11476565D02*
X12343315Y-11495612D01*
X12343315Y-11495612D02*
X12324267Y-11514660D01*
X12324267Y-11514660D02*
X12295696Y-11524184D01*
X12295696Y-11524184D02*
X12248077Y-11524184D01*
X12448077Y-11524184D02*
X12448077Y-11390850D01*
X12448077Y-11428946D02*
X12457601Y-11409898D01*
X12457601Y-11409898D02*
X12467124Y-11400374D01*
X12467124Y-11400374D02*
X12486172Y-11390850D01*
X12486172Y-11390850D02*
X12505220Y-11390850D01*
X12571886Y-11524184D02*
X12571886Y-11390850D01*
X12571886Y-11324184D02*
X12562362Y-11333708D01*
X12562362Y-11333708D02*
X12571886Y-11343231D01*
X12571886Y-11343231D02*
X12581410Y-11333708D01*
X12581410Y-11333708D02*
X12571886Y-11324184D01*
X12571886Y-11324184D02*
X12571886Y-11343231D01*
X12695696Y-11524184D02*
X12676648Y-11514660D01*
X12676648Y-11514660D02*
X12667124Y-11495612D01*
X12667124Y-11495612D02*
X12667124Y-11324184D01*
X12800458Y-11524184D02*
X12781410Y-11514660D01*
X12781410Y-11514660D02*
X12771886Y-11495612D01*
X12771886Y-11495612D02*
X12771886Y-11324184D01*
X13029029Y-11524184D02*
X13029029Y-11324184D01*
X13029029Y-11324184D02*
X13095696Y-11467041D01*
X13095696Y-11467041D02*
X13162362Y-11324184D01*
X13162362Y-11324184D02*
X13162362Y-11524184D01*
X13343315Y-11524184D02*
X13343315Y-11419422D01*
X13343315Y-11419422D02*
X13333791Y-11400374D01*
X13333791Y-11400374D02*
X13314743Y-11390850D01*
X13314743Y-11390850D02*
X13276648Y-11390850D01*
X13276648Y-11390850D02*
X13257601Y-11400374D01*
X13343315Y-11514660D02*
X13324267Y-11524184D01*
X13324267Y-11524184D02*
X13276648Y-11524184D01*
X13276648Y-11524184D02*
X13257601Y-11514660D01*
X13257601Y-11514660D02*
X13248077Y-11495612D01*
X13248077Y-11495612D02*
X13248077Y-11476565D01*
X13248077Y-11476565D02*
X13257601Y-11457517D01*
X13257601Y-11457517D02*
X13276648Y-11447993D01*
X13276648Y-11447993D02*
X13324267Y-11447993D01*
X13324267Y-11447993D02*
X13343315Y-11438469D01*
X13438553Y-11390850D02*
X13438553Y-11590850D01*
X13438553Y-11400374D02*
X13457601Y-11390850D01*
X13457601Y-11390850D02*
X13495696Y-11390850D01*
X13495696Y-11390850D02*
X13514743Y-11400374D01*
X13514743Y-11400374D02*
X13524267Y-11409898D01*
X13524267Y-11409898D02*
X13533791Y-11428946D01*
X13533791Y-11428946D02*
X13533791Y-11486088D01*
X13533791Y-11486088D02*
X13524267Y-11505136D01*
X13524267Y-11505136D02*
X13514743Y-11514660D01*
X13514743Y-11514660D02*
X13495696Y-11524184D01*
X13495696Y-11524184D02*
X13457601Y-11524184D01*
X13457601Y-11524184D02*
X13438553Y-11514660D01*
X13619505Y-11505136D02*
X13629029Y-11514660D01*
X13629029Y-11514660D02*
X13619505Y-11524184D01*
X13619505Y-11524184D02*
X13609982Y-11514660D01*
X13609982Y-11514660D02*
X13619505Y-11505136D01*
X13619505Y-11505136D02*
X13619505Y-11524184D01*
X13619505Y-11400374D02*
X13629029Y-11409898D01*
X13629029Y-11409898D02*
X13619505Y-11419422D01*
X13619505Y-11419422D02*
X13609982Y-11409898D01*
X13609982Y-11409898D02*
X13619505Y-11400374D01*
X13619505Y-11400374D02*
X13619505Y-11419422D01*
M02*
