#VRML V2.0 utf8
# 3D model generated by easyeda2kicad.py (https://github.com/uPesy/easyeda2kicad.py)

Shape{
    appearance Appearance {
        material  Material 	{
            diffuseColor 1.0 1.0 1.0
            specularColor 0.5019607843137255 0.5019607843137255 0.5019607843137255
            ambientIntensity 1.0
            transparency 0.0
            shininess 0.5
        }
    }
    geometry IndexedFaceSet {
        ccw TRUE
        solid FALSE
        coord DEF co Coordinate {
            point [
                2.4468 0.8654 0.521, 2.4468 0.8654 0.4734, 2.4468 0.981 0.4734, 2.4468 0.8654 0.7115, 2.4468 0.8654 0.6763, 2.4468 0.981 0.6763, 2.4468 1.0269 0.8326, 2.4468 1.0359 0.8337, 2.4468 0.9882 0.8337, 2.4468 1.0578 0.7123, 2.4468 1.0501 0.7115, 2.4468 1.0898 0.7115, 2.4468 1.8559 2.0079, 2.4468 1.8559 2.4016, 2.4468 1.3231 2.4016, 2.4468 1.1123 0.8188, 2.4468 1.1123 0.7804, 2.4468 1.1447 0.7804, 2.4468 1.1177 0.5211, 2.4468 1.1164 0.521, 2.4468 1.1447 0.521, 2.4468 1.0922 0.5216, 2.4468 1.0898 0.5225, 2.4468 1.0898 0.521, 2.4468 1.2627 0.6283, 2.4468 1.2627 0.5899, 2.4468 1.2852 0.5899, 2.4468 0.7613 0.739, 2.4468 0.7844 0.7194, 2.4468 0.8654 0.8337, 2.4468 0.6855 0.8205, 2.4468 0.7146 0.7866, 2.4468 0.7316 0.753, 2.4468 0.7358 0.7516, 2.4468 0.087 2.0562, 2.4468 0.163 2.0247, 2.4468 0.8654 2.4016, 2.4468 0.2282 1.9747, 2.4468 0.2783 1.9095, 2.4468 0.3097 1.8335, 2.4468 0.3205 1.752, 2.4468 0.4704 0.8337, 2.4468 0.4904 0.8458, 2.4468 0.3205 1.6929, 2.4468 0.5299 0.8603, 2.4468 0.5694 0.8649, 2.4468 0.6089 0.8602, 2.4468 0.6513 0.844, 2.4468 0.6664 0.8337, 2.4468 -0.3143 1.6929, 2.4468 -0.3143 0.8337, 2.4468 0.4669 0.8316, 2.4468 -0.3143 0.7115, 2.4468 0.2835 0.7115, 2.4468 0.291 0.7284, 2.4468 0.3115 0.7547, 2.4468 0.3761 0.7915, 2.4468 0.4097 0.7957, 2.4468 0.4469 0.8144, 2.4468 0.4195 0.7952, 2.4468 0.4294 0.794, 2.4468 0.3173 0.7602, 2.4468 0.3444 0.7793, 2.4468 0.3339 0.5415, 2.4468 0.3072 0.5643, 2.4468 -0.3143 0.521, 2.4468 0.3648 0.5265, 2.4468 0.2877 0.5921, 2.4468 0.2755 0.6239, 2.4468 -0.3143 0.6763, 2.4468 0.2714 0.6574, 2.4468 0.2716 0.6656, 2.4468 0.2735 0.6763, 2.4468 0.2774 0.6977, 2.4468 0.3756 0.5233, 2.4468 0.3766 0.521, 2.4468 0.3841 0.505, 2.4468 0.3968 0.4893, 2.4468 0.492 0.4734, 2.4468 0.4774 0.4678, 2.4468 0.8654 0.0, 2.4468 0.4567 0.4652, 2.4468 -0.3143 0.0, 2.4468 0.4534 0.4653, 2.4468 0.4332 0.4684, 2.4468 -0.3143 0.4734, 2.4468 0.4214 0.4734, 2.4468 0.4135 0.4767, 2.4468 0.5367 0.521, 2.4468 0.5366 0.5206, 2.4468 0.5265 0.5016, 2.4468 0.5134 0.4869, 2.4468 0.4964 0.4751, 2.4468 0.8123 0.669, 2.4468 0.8162 0.6411, 2.4468 0.6457 0.5714, 2.4468 0.6516 0.5737, 2.4468 0.6616 0.6223, 2.4468 0.7846 0.56, 2.4468 0.7613 0.5403, 2.4468 0.5207 0.6078, 2.4468 0.6351 0.6676, 2.4468 0.5058 0.6214, 2.4468 0.4877 0.6311, 2.4468 0.6405 0.5676, 2.4468 0.8015 0.5836, 2.4468 0.7628 0.6478, 2.4468 0.7588 0.6642, 2.4468 0.7523 0.6763, 2.4468 0.3273 0.6763, 2.4468 0.8123 0.6107, 2.4468 0.6582 0.5745, 2.4468 0.659 0.5745, 2.4468 0.6616 0.5739, 2.4468 0.3323 0.625, 2.4468 0.3425 0.6077, 2.4468 0.3858 0.5989, 2.4468 0.3578 0.592, 2.4468 0.3764 0.5805, 2.4468 0.4174 0.6271, 2.4468 0.4 0.615, 2.4468 0.3252 0.6591, 2.4468 0.3262 0.6459, 2.4468 0.4363 0.6344, 2.4468 0.4567 0.6369, 2.4468 0.4671 0.6362, 2.4468 0.6317 0.5481, 2.4468 0.6319 0.5514, 2.4468 0.5421 0.5592, 2.4468 0.6337 0.5579, 2.4468 0.6369 0.5638, 2.4468 0.7459 0.5951, 2.4468 0.7553 0.6084, 2.4468 0.7612 0.6236, 2.4468 0.7632 0.6403, 2.4468 0.6517 0.5224, 2.4468 0.646 0.5246, 2.4468 0.6405 0.5285, 2.4468 0.6385 0.5305, 2.4468 0.6348 0.5359, 2.4468 0.6325 0.5417, 2.4468 0.5416 0.5417, 2.4468 0.5421 0.5506, 2.4468 0.7353 0.5276, 2.4468 0.7069 0.5216, 2.4468 0.6565 0.5216, 2.4468 0.6633 0.5737, 2.4468 0.7018 0.5737, 2.4468 0.7171 0.5766, 2.4468 0.7322 0.5836, 2.4468 0.7448 0.5939, 2.4468 0.6898 0.7069, 2.4468 0.335 0.6988, 2.4468 0.3277 0.6797, 2.4468 0.6966 0.7069, 2.4468 0.7509 0.6789, 2.4468 0.741 0.6899, 2.4468 0.7278 0.6991, 2.4468 0.7129 0.7049, 2.4468 0.6714 0.7582, 2.4468 0.6521 0.7812, 2.4468 0.4558 0.7316, 2.4468 0.65 0.7832, 2.4468 0.626 0.7998, 2.4468 0.4689 0.7587, 2.4468 0.3439 0.7115, 2.4468 0.4497 0.735, 2.4468 0.6888 0.7115, 2.4468 0.6846 0.7307, 2.4468 0.4306 0.742, 2.4468 0.4106 0.7445, 2.4468 0.4017 0.744, 2.4468 0.488 0.7815, 2.4468 0.5992 0.8101, 2.4468 0.5109 0.7983, 2.4468 0.5702 0.8136, 2.4468 0.5388 0.8096, 2.4468 0.3806 0.739, 2.4468 0.3616 0.7289, 2.4468 0.3469 0.7158, 2.4468 0.79 0.7115, 2.4468 0.8018 0.6951, 2.4468 0.8094 0.6763, 2.4468 1.3118 0.5357, 2.4468 1.3118 0.522, 2.4468 1.3231 0.521, 2.4468 1.2852 0.521, 2.4468 1.3231 0.6763, 2.4468 1.309 0.6283, 2.4468 1.309 0.6421, 2.4468 1.2627 0.5357, 2.4468 1.2852 0.5357, 2.4468 1.2627 0.5761, 2.4468 1.2852 0.5761, 2.4468 1.3056 0.5761, 2.4468 1.3056 0.5899, 2.4468 1.2852 0.6283, 2.4468 1.2852 0.522, 2.4468 1.2472 0.522, 2.4468 1.2391 0.521, 2.4468 1.2472 0.6421, 2.4468 0.9997 0.563, 2.4468 1.0019 0.5871, 2.4468 0.9967 0.5587, 2.4468 0.9946 0.5535, 2.4468 1.0828 0.5405, 2.4468 1.0625 0.5772, 2.4468 1.0828 0.525, 2.4468 1.0625 0.522, 2.4468 1.0398 0.5265, 2.4468 1.0346 0.5231, 2.4468 1.0474 0.522, 2.4468 1.0289 0.521, 2.4468 0.9882 0.521, 2.4468 0.9961 0.533, 2.4468 0.9943 0.5381, 2.4468 1.0163 0.6079, 2.4468 0.9882 0.6763, 2.4468 1.0051 0.6036, 2.4468 1.0019 0.6018, 2.4468 0.9882 0.4734, 2.4468 1.012 0.521, 2.4468 1.0117 0.521, 2.4468 1.006 0.5232, 2.4468 1.0044 0.567, 2.4468 1.0109 0.5703, 2.4468 1.011 0.593, 2.4468 1.022 0.573, 2.4468 1.0351 0.597, 2.4468 1.03 0.5975, 2.4468 1.0204 0.5964, 2.4468 1.0009 0.5267, 2.4468 0.9992 0.5284, 2.4468 1.0474 0.5353, 2.4468 1.047 0.5353, 2.4468 1.0446 0.5316, 2.4468 1.0887 0.5369, 2.4468 1.0898 0.5365, 2.4468 1.0898 0.5684, 2.4468 0.9935 0.545, 2.4468 0.9936 0.547, 2.4468 1.0613 0.5885, 2.4468 1.0836 0.5788, 2.4468 1.0835 0.59, 2.4468 1.0853 0.5949, 2.4468 1.0559 0.6003, 2.4468 1.0315 0.6097, 2.4468 1.0406 0.6089, 2.4468 1.0469 0.607, 2.4468 1.0474 0.5765, 2.4468 1.0469 0.5832, 2.4468 1.0453 0.5885, 2.4468 1.0436 0.5916, 2.4468 1.059 0.5954, 2.4468 1.0829 0.5846, 2.4468 1.0897 0.5685, 2.4468 1.0872 0.5711, 2.4468 1.0852 0.5742, 2.4468 1.0413 0.5941, 2.4468 1.0386 0.5958, 2.4468 1.0973 0.521, 2.4468 1.0898 0.4734, 2.4468 1.1061 0.52, 2.4468 1.1367 0.6059, 2.4468 1.1367 0.5913, 2.4468 1.1401 0.5393, 2.4468 1.1382 0.5345, 2.4468 1.1354 0.5306, 2.4468 1.0881 0.5989, 2.4468 1.0898 0.6004, 2.4468 1.0898 0.6763, 2.4468 1.0926 0.6029, 2.4468 1.0973 0.6057, 2.4468 1.1056 0.6086, 2.4468 1.1163 0.6097, 2.4468 1.1447 0.6763, 2.4468 1.1267 0.6088, 2.4468 1.1357 0.5595, 2.4468 1.1386 0.5554, 2.4468 1.1402 0.5509, 2.4468 1.1408 0.5453, 2.4468 1.1311 0.5268, 2.4468 1.1261 0.5239, 2.4468 1.1149 0.5975, 2.4468 1.1104 0.5972, 2.4468 1.0984 0.586, 2.4468 1.1064 0.5961, 2.4468 1.103 0.5943, 2.4468 1.0986 0.584, 2.4468 1.0992 0.5816, 2.4468 1.1003 0.5796, 2.4468 1.1017 0.578, 2.4468 1.107 0.5747, 2.4468 1.1247 0.5964, 2.4468 1.1163 0.5706, 2.4468 1.1332 0.5933, 2.4468 1.1222 0.5683, 2.4468 1.1322 0.5627, 2.4468 1.1007 0.5923, 2.4468 1.0995 0.5904, 2.4468 1.0987 0.5884, 2.4468 1.0981 0.5334, 2.4468 1.1057 0.5597, 2.4468 1.0968 0.5638, 2.4468 1.1076 0.5323, 2.4468 1.1083 0.5323, 2.4468 1.1156 0.5556, 2.4468 1.116 0.5331, 2.4468 1.1253 0.5439, 2.4468 1.1252 0.5457, 2.4468 1.1199 0.5345, 2.4468 1.1212 0.5354, 2.4468 1.123 0.5369, 2.4468 1.1243 0.5389, 2.4468 1.125 0.541, 2.4468 1.1245 0.5481, 2.4468 1.1233 0.5501, 2.4468 1.1215 0.552, 2.4468 1.3672 0.7454, 2.4468 1.3231 0.7454, 2.4468 1.3794 0.7125, 2.4468 1.3231 0.7115, 2.4468 1.3966 0.7125, 2.4468 1.3508 0.8326, 2.4468 3.6276 0.7115, 2.4468 3.6276 0.8337, 2.4468 1.3172 0.7454, 2.4468 1.3056 0.7125, 2.4468 1.2852 0.7115, 2.4468 1.2885 0.7125, 2.4468 1.2852 0.8337, 2.4468 1.3231 0.8034, 2.4468 1.3231 0.8337, 2.4468 1.3342 0.8326, 2.4468 1.2391 0.8337, 2.4468 1.1727 0.8337, 2.4468 1.2183 0.8326, 2.4468 1.184 0.8326, 2.4468 1.184 0.7125, 2.4468 1.1727 0.7115, 2.4468 1.2171 0.7125, 2.4468 1.2391 0.7115, 2.4468 1.2374 0.715, 2.4468 1.2786 0.7524, 2.4468 1.2726 0.74, 2.4468 1.268 0.8126, 2.4468 1.2754 0.8021, 2.4468 1.2637 0.7294, 2.4468 1.2511 0.7203, 2.4468 1.2391 0.7156, 2.4468 1.2637 0.8167, 2.4468 1.2366 0.8306, 2.4468 1.2391 0.8297, 2.4468 1.2511 0.8253, 2.4468 1.2798 0.7906, 2.4468 1.2818 0.7741, 2.4468 1.2815 0.7665, 2.4468 1.1447 0.8337, 2.4468 1.1586 0.8326, 2.4468 1.1447 0.8326, 2.4468 1.1586 0.8188, 2.4468 1.1614 0.7262, 2.4468 1.1614 0.7125, 2.4468 1.1447 0.7115, 2.4468 1.1123 0.7262, 2.4468 1.1447 0.7262, 2.4468 1.1123 0.7666, 2.4468 1.1447 0.7666, 2.4468 1.1552 0.7666, 2.4468 1.1552 0.7804, 2.4468 1.1447 0.8188, 2.4468 1.0968 0.8326, 2.4468 1.0898 0.8337, 2.4468 1.0968 0.7125, 2.4468 0.0055 2.0669, 2.4468 -0.3143 2.4016, 2.4468 -0.3143 2.0669, 2.4468 -0.9 2.4016, 2.4468 -0.9 2.0669, 2.4468 3.6276 1.2008, 2.4468 1.06 0.8334, 2.4468 1.0727 0.8298, 2.4468 1.1447 0.7125, 2.4468 1.0727 0.8135, 2.4468 1.0707 0.7165, 2.4468 1.0444 0.8207, 2.4468 1.039 0.8204, 2.4468 1.031 0.7255, 2.4468 1.0417 0.7243, 2.4468 1.0473 0.7245, 2.4468 1.0714 0.8143, 2.4468 1.0609 0.7271, 2.4468 1.0727 0.7324, 2.4468 1.0727 0.7175, 2.4468 1.0141 0.7339, 2.4468 0.9992 0.7661, 2.4468 1.0109 0.737, 2.4468 1.0013 0.7542, 2.4468 1.0053 0.7446, 2.4468 1.0592 0.8189, 2.4468 1.0286 0.8182, 2.4468 1.0193 0.8137, 2.4468 1.0117 0.8073, 2.4468 1.0108 0.8064, 2.4468 1.005 0.7981, 2.4468 1.001 0.7877, 2.4468 0.9991 0.7712, 2.4468 1.0222 0.7285, 2.4468 1.0443 0.8347, 2.4468 0.9882 2.4016, 2.4468 1.0572 0.8337, 2.4468 1.0898 2.4016, 2.4468 0.9914 0.8056, 2.4468 1.0001 0.817, 2.4468 1.0031 0.8198, 2.4468 1.0144 0.8277, 2.4468 0.9882 0.7431, 2.4468 0.9851 0.7508, 2.4468 0.981 0.7115, 2.4468 0.9828 0.7703, 2.4468 0.983 0.7766, 2.4468 0.981 0.8337, 2.4468 0.9857 0.7923, 2.4468 0.9882 0.798, 2.4468 1.0064 0.7199, 2.4468 0.9982 0.7269, 2.4468 0.9882 0.7115, 2.4468 0.9972 0.728, 2.4468 0.99 0.7383, 2.4468 1.0395 0.7105, 2.4468 1.0302 0.7111, 2.4468 1.0283 0.7115, 2.4468 1.0175 0.7141, 2.4468 1.0519 0.6041, 2.4468 1.0285 0.5208, 2.4468 1.0207 0.52, 2.4468 1.2154 0.6078, 2.4468 1.231 0.6078, 2.4468 1.2391 0.6763, 2.4468 1.2852 0.6421, 2.4468 1.2852 0.6763, 2.4468 1.1967 0.521, 2.4468 1.1878 0.5433, 2.4468 1.1897 0.5362, 2.4468 1.1901 0.5362, 2.4468 1.1727 0.6763, 2.4468 1.1727 0.5869, 2.4468 1.1919 0.5432, 2.4468 1.1908 0.5392, 2.4468 1.1727 0.521, 2.4468 1.1727 0.5465, 2.4468 1.1486 0.6078, 2.4468 1.1654 0.6078, 2.4468 1.1823 0.5222, 2.4468 1.1818 0.521, 2.4468 1.1757 0.5066, 2.4468 1.1447 0.4734, 2.4468 1.1517 0.4828, 2.4468 1.1517 0.4962, 2.4468 1.1699 0.498, 2.4468 1.1727 0.5011, 2.4468 1.1727 0.5012, 2.4468 1.1548 0.4952, 2.4468 1.1602 0.4945, 2.4468 1.1727 0.4843, 2.4468 1.1675 0.4823, 2.4468 1.1727 0.4734, 2.4468 1.1614 0.4816, 2.4468 1.1581 0.4817, 2.4468 1.164 0.4949, 2.4468 1.1673 0.4962, 2.4468 1.192 0.509, 2.4468 1.1852 0.4958, 2.4468 1.2391 0.4734, 2.4468 1.1797 0.4892, 2.4468 1.1787 0.4882, 2.4468 1.1734 0.4846, 2.4468 -0.9 0.0, 2.4468 -0.9 0.4734, 2.4468 -0.9 0.521, 2.4468 -0.9 0.6763, 2.4468 -0.9 0.7115, 2.4468 -0.9 0.8337, 2.4468 -0.9 1.6929, 2.4468 0.9779 0.7262, 2.4468 0.9779 0.7125, 2.4468 0.9145 0.7125, 2.4468 0.93 0.8326, 2.4468 0.93 0.7262, 2.4468 0.9145 0.8326, 2.4468 0.981 0.521, 2.4468 0.9791 0.522, 2.4468 0.9145 0.522, 2.4468 0.9791 0.5357, 2.4468 0.9764 0.6283, 2.4468 0.93 0.5761, 2.4468 0.93 0.5357, 2.4468 0.973 0.5761, 2.4468 0.973 0.5899, 2.4468 0.93 0.5899, 2.4468 0.93 0.6283, 2.4468 0.9145 0.6421, 2.4468 0.9764 0.6421, 2.4468 0.981 2.4016, 2.4468 1.2852 2.4016, 2.4468 1.2391 2.4016, 2.4468 1.1727 2.4016, 2.4468 1.1447 2.4016, 2.4468 1.3675 0.522, 2.4468 1.3344 0.522, 2.4468 1.3344 0.6421, 2.4468 1.5298 0.522, 2.4468 1.547 0.522, 2.4468 3.6276 0.521, 2.4468 1.5012 0.6421, 2.4468 3.6276 0.6763, 2.4468 1.5176 0.5549, 2.4468 1.4676 0.5549, 2.4468 1.456 0.522, 2.4468 1.4389 0.522, 2.4468 1.4846 0.6421, 2.4468 1.423 0.5494, 2.4468 1.4141 0.5388, 2.4468 1.4015 0.5298, 2.4468 1.3878 0.5245, 2.4468 1.4141 0.6262, 2.4468 1.4184 0.622, 2.4468 1.4258 0.6115, 2.4468 1.4302 0.6001, 2.4468 1.3687 0.6421, 2.4468 1.3871 0.6401, 2.4468 1.4015 0.6348, 2.4468 1.4322 0.5836, 2.4468 1.4319 0.5759, 2.4468 1.429 0.5619, 2.4468 1.2852 0.4734, 2.4468 1.3231 0.4734, 2.4468 3.6276 0.4734, 2.4468 0.981 0.0, 2.4468 0.9882 0.0, 2.4468 1.0898 0.0, 2.4468 1.1447 0.0, 2.4468 1.1727 0.0, 2.4468 1.2391 0.0, 2.4468 1.2852 0.0, 2.4468 1.3231 0.0, 2.4468 3.6276 0.0, 1.8366 1.5409 2.4016, 1.8366 1.8559 2.4016, 0.1279 1.5409 2.4016, 0.1279 1.8559 2.4016, -0.1634 1.8559 2.4016, -0.8721 1.5409 2.4016, -1.6752 0.4957 2.4016, -1.6181 0.5395 2.4016, 1.2953 -0.9 2.4016, 1.2953 0.5764 2.4016, -0.1634 1.5409 2.4016, -1.8721 1.8559 2.4016, -2.4351 1.8559 2.4016, -1.8721 1.5409 2.4016, -2.4351 -0.9 2.4016, 1.5634 0.567 2.4016, 1.6299 0.5395 2.4016, 1.687 0.4957 2.4016, -1.2835 -0.9 2.4016, -1.2835 0.5764 2.4016, -1.4803 0.5764 2.4016, -1.5517 0.567 2.4016, -1.1634 1.5409 2.4016, -1.1634 1.8559 2.4016, -0.8721 1.8559 2.4016, 1.7677 -0.5063 2.4016, 1.7656 -0.5244 2.4016, -1.7376 -0.5568 2.4016, -1.7476 -0.5415 2.4016, -1.7376 -0.7708 2.4016, 1.1279 1.5409 2.4016, 1.4921 0.5764 2.4016, -1.7559 -0.9 2.4016, -1.7559 -0.8213 2.4016, -1.7538 -0.8032 2.4016, -1.7476 -0.786 2.4016, 1.1279 1.8559 2.4016, 0.8366 1.8559 2.4016, 0.8366 1.5409 2.4016, 1.7308 0.4386 2.4016, 1.7583 0.3721 2.4016, 1.7677 0.3008 2.4016, 1.7494 -0.7708 2.4016, 1.7594 -0.786 2.4016, -1.7538 -0.5244 2.4016, -1.7559 -0.5063 2.4016, -1.7559 0.3008 2.4016, -1.7465 0.3721 2.4016, -1.719 0.4386 2.4016, 1.7594 -0.5415 2.4016, 1.7494 -0.5568 2.4016, 1.7362 -0.5693 2.4016, 1.7362 -0.7583 2.4016, 1.7656 -0.8032 2.4016, 1.7677 -0.8213 2.4016, 1.7677 -0.9 2.4016, -1.7244 -0.5693 2.4016, -1.7244 -0.7583 2.4016, -1.6992 -0.7394 2.4016, -1.6714 -0.706 2.4016, -1.664 -0.6855 2.4016, -1.6614 -0.6638 2.4016, -1.6834 -0.7243 2.4016, -1.6714 -0.6215 2.4016, -1.6834 -0.6032 2.4016, -1.6992 -0.5882 2.4016, 1.711 -0.7394 2.4016, 1.711 -0.5882 2.4016, 1.6952 -0.6032 2.4016, 1.6757 -0.6855 2.4016, 1.6832 -0.706 2.4016, 1.6732 -0.6638 2.4016, 1.6952 -0.7243 2.4016, -1.664 -0.6421 2.4016, 1.6832 -0.6215 2.4016, 1.6757 -0.6421 2.4016, -1.1634 1.5541 0.0787, -1.1634 1.8559 0.0787, -0.8721 1.8559 0.0787, 0.8366 1.5541 0.0787, 0.8366 1.8559 0.0787, 1.1279 1.8559 0.0787, -0.1634 1.8559 0.0787, 0.1279 1.8559 0.0787, -0.1634 1.5541 0.0787, 0.1279 1.5541 0.0787, 1.8366 1.8559 0.0787, 2.1122 1.8559 0.0787, 1.8366 1.5541 0.0787, 2.1122 -0.9 0.0787, 1.1279 1.5541 0.0787, -0.8721 1.5541 0.0787, -2.1004 -0.9 0.0787, -1.8721 1.5541 0.0787, -2.1004 1.8559 0.0787, -1.8721 1.8559 0.0787, -2.4351 1.8559 2.0079, -2.1004 1.8559 2.0079, 1.2953 -0.9 2.0669, -1.2835 -0.9 2.0669, 1.7677 -0.9 2.0669, 2.1122 3.6276 1.2008, 2.1122 3.6276 0.0, 2.1122 1.8559 2.0079, -1.7559 -0.9 2.0669, -2.4351 -0.9 2.0669, 2.1122 -0.9 0.0, -2.1004 3.6276 0.0, -2.4351 3.6276 0.0, -2.1004 3.6276 1.2008, -2.4351 3.6276 1.2008, -2.4351 0.0055 2.0669, -2.4351 0.087 2.0562, -2.4351 0.2783 1.9095, -2.4351 0.2282 1.9747, -2.4351 0.163 2.0247, -2.4351 -0.9 0.0, -2.4351 -0.9 1.6929, -2.4351 0.3205 1.6929, -2.4351 0.3205 1.752, -2.4351 0.3097 1.8335, 2.2697 -0.9 1.6929, 2.2697 -0.9 0.2559, -2.2579 -0.9 1.6929, -2.2579 -0.9 0.2559, -2.1004 -0.9 0.0, 2.1122 0.087 2.0562, 2.1122 0.0055 2.0669, 2.1122 1.4622 2.0669, 2.1122 0.3097 1.8335, 2.1122 0.2783 1.9095, 2.1122 0.2282 1.9747, 2.1122 0.163 2.0247, 2.1122 -0.7425 0.4134, 2.1122 -0.7425 1.6929, 2.1122 1.4622 0.4134, 2.1122 0.3205 1.6929, 2.1122 0.3205 1.752, -2.1004 -0.7425 0.4134, -2.1004 1.4622 0.4134, -2.1004 1.4622 2.0669, -2.1004 0.0055 2.0669, -2.1004 0.087 2.0562, -2.1004 0.163 2.0247, -2.1004 0.2282 1.9747, -2.1004 0.2783 1.9095, -2.1004 -0.7425 1.6929, -2.1004 0.3205 1.6929, -2.1004 0.3205 1.752, -2.1004 0.3097 1.8335, -1.7376 -0.7708 2.0669, -1.7476 -0.786 2.0669, -1.7376 -0.5568 2.0669, -1.7559 -0.8213 2.0669, -1.7538 -0.8032 2.0669, -1.7244 -0.7583 2.0669, 1.7308 0.4386 2.0669, 1.687 0.4957 2.0669, 1.6299 0.5395 2.0669, 1.5634 0.567 2.0669, -1.5517 0.567 2.0669, -1.6181 0.5395 2.0669, -1.6752 0.4957 2.0669, 1.7677 -0.8213 2.0669, 1.7656 -0.8032 2.0669, 1.4921 0.5764 2.0669, 1.2953 0.5764 2.0669, 1.7494 -0.7708 2.0669, 1.7494 -0.5568 2.0669, 1.7594 -0.5415 2.0669, -1.719 0.4386 2.0669, -1.7465 0.3721 2.0669, -1.7559 0.3008 2.0669, -1.2835 0.5764 2.0669, -1.4803 0.5764 2.0669, -1.7559 -0.5063 2.0669, -1.7538 -0.5244 2.0669, -1.7476 -0.5415 2.0669, 1.7362 -0.5693 2.0669, 1.7362 -0.7583 2.0669, 1.711 -0.7394 2.0669, 1.7594 -0.786 2.0669, 1.7656 -0.5244 2.0669, 1.7677 -0.5063 2.0669, 1.7677 0.3008 2.0669, 1.7583 0.3721 2.0669, 1.6757 -0.6421 2.0669, 1.6832 -0.6215 2.0669, -1.6614 -0.6638 2.0669, -1.664 -0.6855 2.0669, -1.6714 -0.706 2.0669, 1.6832 -0.706 2.0669, 1.6757 -0.6855 2.0669, 1.6732 -0.6638 2.0669, 1.6952 -0.6032 2.0669, 1.711 -0.5882 2.0669, -1.6714 -0.6215 2.0669, -1.664 -0.6421 2.0669, -1.6992 -0.7394 2.0669, -1.6834 -0.7243 2.0669, -1.7244 -0.5693 2.0669, -1.6992 -0.5882 2.0669, -1.6834 -0.6032 2.0669, 1.6952 -0.7243 2.0669, -1.3917 1.4622 1.3504, -1.6437 1.4622 1.3504, -1.6437 1.4622 1.6024, -1.3917 1.4622 1.6024, 0.3563 1.4622 1.3504, 0.6083 1.4622 1.3504, 1.3563 1.4622 1.3504, 0.6083 1.4622 1.6024, -0.3917 1.4622 1.6024, -0.6437 1.4622 1.6024, -0.6437 1.4622 1.3504, 1.3563 1.4622 1.6024, 1.6083 1.4622 1.6024, 1.6083 1.4622 1.3504, -0.3917 1.4622 1.3504, 0.3563 1.4622 1.6024, 1.8366 1.7378 1.1811, 1.1279 1.7378 1.1811, 1.1279 1.7378 1.7717, 1.8366 1.7378 1.7717, 1.3563 1.7378 1.3504, 1.3563 1.7378 1.6024, 1.6083 1.7378 1.6024, 1.6083 1.7378 1.3504
            ]
        }
        coordIndex [
            0,1,2,-1,3,4,5,-1,6,7,8,-1,9,10,11,-1,12,13,14,-1,15,16,17,-1,18,19,20,-1,21,22,23,-1,24,25,26,-1,27,28,29,-1,29,28,3,-1,29,30,31,-1,31,32,29,-1,29,32,33,-1,29,33,27,-1,34,35,36,-1,36,35,37,-1,37,38,36,-1,36,38,39,-1,36,39,40,-1,41,42,43,-1,43,42,44,-1,43,44,45,-1,45,46,43,-1,43,46,47,-1,43,47,29,-1,29,47,48,-1,29,48,30,-1,43,49,41,-1,41,49,50,-1,41,50,51,-1,52,53,50,-1,50,53,54,-1,50,54,55,-1,50,56,51,-1,51,56,57,-1,51,57,58,-1,58,57,59,-1,58,59,60,-1,55,61,50,-1,50,61,62,-1,50,62,56,-1,63,64,65,-1,63,65,66,-1,64,67,65,-1,65,67,68,-1,65,68,69,-1,69,68,70,-1,70,71,69,-1,69,71,72,-1,69,72,52,-1,52,72,73,-1,52,73,53,-1,74,66,75,-1,75,66,65,-1,75,65,76,-1,76,65,77,-1,78,79,80,-1,80,79,81,-1,80,81,82,-1,81,83,82,-1,82,83,84,-1,82,84,85,-1,85,84,86,-1,85,86,65,-1,65,86,87,-1,65,87,77,-1,0,88,1,-1,1,88,89,-1,1,89,90,-1,90,91,1,-1,1,91,92,-1,1,92,78,-1,93,94,4,-1,95,96,97,-1,98,99,0,-1,100,101,102,-1,102,101,103,-1,95,97,104,-1,98,0,105,-1,106,107,101,-1,101,107,108,-1,101,108,109,-1,4,94,0,-1,0,94,110,-1,0,110,105,-1,96,111,97,-1,97,111,112,-1,97,112,113,-1,114,115,116,-1,116,115,117,-1,116,117,118,-1,119,109,120,-1,120,109,121,-1,120,121,116,-1,116,121,122,-1,116,122,114,-1,119,123,109,-1,109,123,124,-1,109,124,101,-1,101,124,125,-1,101,125,103,-1,126,127,128,-1,128,127,129,-1,128,129,97,-1,97,129,130,-1,97,130,104,-1,131,132,97,-1,97,132,133,-1,97,133,101,-1,101,133,134,-1,101,134,106,-1,135,136,88,-1,88,136,137,-1,88,137,138,-1,138,139,88,-1,88,139,140,-1,88,140,141,-1,141,140,126,-1,141,126,142,-1,142,126,128,-1,99,143,0,-1,0,143,144,-1,0,144,88,-1,88,144,145,-1,88,145,135,-1,113,146,97,-1,97,146,147,-1,97,147,148,-1,148,149,97,-1,97,149,150,-1,97,150,131,-1,151,152,153,-1,153,109,151,-1,151,109,108,-1,151,108,154,-1,154,108,155,-1,155,156,154,-1,154,156,157,-1,154,157,158,-1,159,160,161,-1,160,162,161,-1,161,162,163,-1,161,163,164,-1,165,161,166,-1,152,151,165,-1,165,151,167,-1,165,167,161,-1,161,167,168,-1,161,168,159,-1,166,169,165,-1,165,169,170,-1,165,170,171,-1,164,163,172,-1,172,163,173,-1,172,173,174,-1,174,173,175,-1,174,175,176,-1,177,178,171,-1,171,178,179,-1,171,179,165,-1,28,180,3,-1,3,180,181,-1,3,181,4,-1,4,181,182,-1,4,182,93,-1,183,184,185,-1,185,184,186,-1,183,187,188,-1,188,187,189,-1,190,191,192,-1,192,191,193,-1,193,191,194,-1,194,191,183,-1,194,183,195,-1,195,183,188,-1,195,188,26,-1,26,188,196,-1,26,196,24,-1,184,197,186,-1,186,197,198,-1,186,198,199,-1,199,198,200,-1,201,202,203,-1,203,202,204,-1,205,206,207,-1,207,206,208,-1,207,208,22,-1,209,210,211,-1,211,210,212,-1,211,212,208,-1,213,214,215,-1,216,217,218,-1,218,217,219,-1,220,221,213,-1,213,221,222,-1,213,222,223,-1,201,224,202,-1,202,224,225,-1,202,225,226,-1,226,225,227,-1,228,229,227,-1,227,229,230,-1,227,230,226,-1,223,231,213,-1,213,231,232,-1,213,232,214,-1,233,234,211,-1,211,234,235,-1,211,235,209,-1,236,237,238,-1,215,239,213,-1,213,239,240,-1,213,240,217,-1,217,240,204,-1,217,204,219,-1,219,204,202,-1,241,206,242,-1,243,244,245,-1,216,246,217,-1,217,246,247,-1,217,247,248,-1,249,250,227,-1,227,250,251,-1,227,251,252,-1,236,238,205,-1,245,253,243,-1,243,253,241,-1,243,241,254,-1,254,241,242,-1,238,255,205,-1,205,255,256,-1,205,256,206,-1,206,256,257,-1,206,257,242,-1,252,258,227,-1,227,258,259,-1,227,259,228,-1,21,23,260,-1,260,23,261,-1,260,261,262,-1,263,264,20,-1,265,266,20,-1,20,266,267,-1,268,269,270,-1,270,269,271,-1,270,271,272,-1,272,273,270,-1,270,273,274,-1,270,274,275,-1,275,274,276,-1,275,276,263,-1,277,278,264,-1,264,278,279,-1,264,279,20,-1,20,279,280,-1,20,280,265,-1,267,281,20,-1,20,281,282,-1,20,282,18,-1,283,284,285,-1,285,284,286,-1,285,286,287,-1,285,288,283,-1,283,288,289,-1,283,289,290,-1,290,291,283,-1,283,291,292,-1,283,292,293,-1,293,292,294,-1,293,294,295,-1,295,294,296,-1,295,296,264,-1,264,296,297,-1,264,297,277,-1,298,299,287,-1,287,299,300,-1,287,300,285,-1,301,302,237,-1,237,302,303,-1,237,303,238,-1,301,304,302,-1,302,304,305,-1,302,305,306,-1,306,305,307,-1,306,308,309,-1,307,310,306,-1,306,310,311,-1,306,311,312,-1,312,313,306,-1,306,313,314,-1,306,314,308,-1,309,315,306,-1,306,315,316,-1,306,316,317,-1,318,319,320,-1,320,319,321,-1,320,321,322,-1,323,324,325,-1,319,326,321,-1,321,326,327,-1,321,327,328,-1,328,327,329,-1,328,329,330,-1,330,329,331,-1,330,331,332,-1,332,331,333,-1,332,333,323,-1,334,335,336,-1,336,335,337,-1,337,335,338,-1,338,335,339,-1,338,339,340,-1,340,339,341,-1,340,341,342,-1,343,344,328,-1,345,346,330,-1,344,347,328,-1,328,347,348,-1,328,348,341,-1,341,348,349,-1,341,349,342,-1,345,330,350,-1,336,351,334,-1,334,351,352,-1,334,352,330,-1,330,352,353,-1,330,353,350,-1,346,354,330,-1,330,354,355,-1,330,355,328,-1,328,355,356,-1,328,356,343,-1,335,357,358,-1,358,357,359,-1,358,360,335,-1,335,360,361,-1,335,361,339,-1,339,361,362,-1,339,362,363,-1,364,365,366,-1,366,365,367,-1,367,365,368,-1,368,365,361,-1,368,361,369,-1,369,361,360,-1,369,360,17,-1,17,360,370,-1,17,370,15,-1,359,357,371,-1,371,357,372,-1,371,372,373,-1,34,36,374,-1,374,36,375,-1,374,375,376,-1,376,375,377,-1,376,377,378,-1,323,325,332,-1,332,325,379,-1,332,379,12,-1,380,381,372,-1,362,382,363,-1,363,382,373,-1,363,373,11,-1,11,373,372,-1,11,372,383,-1,383,372,381,-1,9,11,384,-1,385,386,387,-1,388,389,390,-1,390,389,391,-1,390,391,383,-1,383,391,392,-1,383,392,11,-1,11,392,393,-1,11,393,384,-1,394,395,396,-1,396,395,397,-1,396,397,398,-1,388,390,387,-1,387,390,399,-1,387,399,385,-1,386,400,387,-1,387,400,401,-1,387,401,402,-1,402,403,387,-1,387,403,404,-1,387,404,405,-1,405,406,387,-1,387,406,395,-1,387,395,407,-1,407,395,394,-1,7,408,409,-1,409,408,410,-1,409,410,411,-1,8,412,413,-1,413,414,8,-1,8,414,415,-1,8,415,6,-1,416,417,418,-1,419,420,421,-1,421,420,422,-1,421,422,8,-1,8,422,423,-1,8,423,412,-1,424,425,426,-1,426,425,427,-1,426,427,428,-1,429,430,217,-1,217,430,431,-1,217,431,426,-1,426,431,432,-1,426,432,424,-1,10,429,270,-1,270,429,217,-1,270,217,268,-1,268,217,248,-1,268,248,244,-1,244,248,433,-1,244,433,245,-1,22,208,23,-1,23,208,212,-1,23,212,261,-1,261,212,434,-1,261,434,220,-1,220,434,435,-1,220,435,221,-1,436,437,438,-1,189,187,439,-1,439,187,440,-1,439,440,200,-1,200,440,438,-1,200,438,199,-1,199,438,437,-1,199,437,441,-1,442,443,444,-1,438,445,436,-1,436,445,446,-1,436,446,447,-1,447,446,442,-1,447,442,448,-1,448,442,444,-1,449,450,20,-1,20,450,451,-1,263,20,275,-1,275,20,451,-1,275,451,445,-1,445,451,452,-1,445,452,446,-1,453,450,454,-1,454,450,449,-1,454,449,455,-1,456,457,458,-1,459,460,449,-1,449,460,461,-1,449,461,455,-1,262,261,19,-1,19,261,456,-1,19,456,20,-1,20,456,458,-1,20,458,449,-1,449,458,462,-1,449,462,463,-1,464,465,466,-1,466,465,467,-1,466,467,456,-1,456,467,468,-1,456,468,457,-1,463,469,449,-1,449,469,470,-1,449,470,459,-1,471,472,473,-1,471,473,441,-1,472,474,473,-1,473,474,475,-1,473,475,466,-1,466,475,476,-1,466,476,464,-1,477,82,478,-1,478,82,85,-1,478,85,479,-1,479,85,65,-1,479,65,480,-1,480,65,69,-1,480,69,481,-1,481,69,52,-1,481,52,482,-1,482,52,50,-1,482,50,483,-1,483,50,49,-1,484,485,418,-1,418,485,486,-1,487,421,29,-1,417,419,418,-1,418,419,421,-1,418,421,484,-1,484,421,487,-1,484,487,488,-1,5,418,3,-1,3,418,486,-1,3,486,29,-1,29,486,489,-1,29,489,487,-1,490,491,492,-1,491,490,493,-1,493,490,5,-1,493,5,494,-1,495,496,497,-1,497,496,493,-1,497,493,498,-1,498,493,494,-1,498,494,499,-1,499,494,500,-1,2,490,0,-1,0,490,492,-1,0,492,4,-1,4,492,501,-1,4,501,5,-1,5,501,502,-1,5,502,494,-1,7,409,8,-1,8,409,503,-1,8,503,421,-1,421,503,36,-1,421,36,29,-1,29,36,40,-1,29,40,43,-1,2,220,490,-1,490,220,213,-1,490,213,5,-1,5,213,217,-1,5,217,418,-1,418,217,426,-1,418,426,416,-1,416,426,428,-1,12,14,332,-1,332,14,504,-1,332,504,330,-1,330,504,505,-1,330,505,334,-1,334,505,506,-1,334,506,335,-1,335,506,507,-1,335,507,357,-1,357,507,411,-1,357,411,372,-1,372,411,410,-1,372,410,380,-1,10,270,11,-1,11,270,275,-1,11,275,363,-1,363,275,445,-1,363,445,339,-1,339,445,438,-1,339,438,341,-1,341,438,440,-1,341,440,328,-1,328,440,187,-1,328,187,321,-1,508,509,185,-1,183,185,187,-1,187,185,509,-1,187,509,510,-1,511,185,512,-1,512,185,513,-1,512,513,514,-1,514,513,515,-1,516,517,511,-1,511,517,518,-1,511,518,185,-1,185,518,519,-1,185,519,508,-1,323,322,324,-1,324,322,321,-1,324,321,515,-1,515,321,187,-1,515,187,514,-1,514,187,520,-1,519,521,522,-1,522,523,519,-1,519,523,524,-1,519,524,508,-1,525,526,520,-1,520,526,527,-1,520,527,528,-1,510,529,187,-1,187,529,530,-1,187,530,520,-1,520,530,531,-1,520,531,525,-1,528,532,520,-1,520,532,533,-1,520,533,519,-1,519,533,534,-1,519,534,521,-1,441,473,199,-1,199,473,535,-1,199,535,186,-1,186,535,536,-1,186,536,185,-1,185,536,537,-1,185,537,513,-1,78,80,1,-1,1,80,538,-1,1,538,2,-1,2,538,539,-1,2,539,220,-1,220,539,540,-1,220,540,261,-1,261,540,541,-1,261,541,456,-1,456,541,542,-1,456,542,466,-1,466,542,543,-1,466,543,473,-1,473,543,544,-1,473,544,535,-1,535,544,545,-1,535,545,536,-1,536,545,546,-1,536,546,537,-1,377,13,547,-1,547,13,548,-1,549,550,551,-1,552,553,554,-1,555,556,557,-1,558,559,560,-1,560,559,561,-1,562,563,547,-1,547,563,564,-1,565,555,566,-1,566,555,557,-1,566,557,567,-1,567,557,552,-1,567,552,568,-1,568,552,554,-1,560,553,569,-1,569,553,552,-1,569,552,570,-1,570,552,571,-1,572,573,377,-1,574,575,576,-1,577,556,547,-1,547,556,578,-1,547,578,562,-1,579,580,561,-1,561,580,581,-1,561,581,582,-1,583,584,577,-1,577,584,585,-1,577,585,556,-1,556,585,549,-1,556,549,557,-1,557,549,551,-1,564,586,547,-1,547,586,587,-1,547,587,377,-1,377,587,588,-1,377,588,572,-1,589,590,377,-1,576,575,582,-1,582,575,561,-1,561,575,591,-1,561,591,592,-1,592,593,561,-1,561,593,594,-1,561,594,560,-1,560,594,595,-1,560,595,553,-1,573,596,377,-1,377,596,597,-1,377,597,589,-1,589,597,598,-1,589,598,599,-1,590,600,377,-1,377,600,601,-1,377,601,602,-1,574,576,603,-1,603,576,604,-1,603,604,605,-1,606,607,608,-1,606,608,609,-1,610,611,605,-1,605,611,612,-1,605,612,603,-1,599,598,613,-1,613,598,614,-1,613,614,615,-1,616,617,618,-1,618,617,619,-1,618,619,613,-1,609,608,605,-1,605,608,620,-1,605,620,610,-1,615,621,613,-1,613,621,622,-1,613,622,618,-1,623,624,625,-1,626,627,628,-1,629,630,631,-1,631,630,632,-1,633,634,635,-1,635,634,636,-1,635,636,637,-1,625,638,623,-1,623,638,639,-1,623,639,640,-1,640,639,641,-1,640,641,642,-1,628,637,626,-1,626,637,636,-1,626,636,632,-1,632,636,639,-1,632,639,631,-1,631,639,638,-1,629,551,630,-1,630,551,550,-1,624,570,625,-1,625,570,571,-1,643,559,644,-1,644,559,558,-1,644,558,641,-1,641,558,642,-1,584,583,627,-1,627,583,628,-1,555,565,645,-1,645,565,646,-1,647,378,602,-1,602,378,377,-1,379,546,648,-1,648,546,649,-1,650,12,648,-1,648,12,379,-1,579,561,651,-1,651,561,652,-1,546,477,649,-1,649,477,653,-1,654,655,656,-1,656,655,657,-1,643,657,655,-1,652,561,658,-1,658,561,559,-1,658,559,659,-1,660,661,559,-1,559,661,662,-1,559,662,659,-1,663,664,655,-1,655,664,665,-1,655,665,643,-1,643,665,666,-1,643,666,559,-1,559,666,667,-1,559,667,660,-1,483,668,477,-1,477,668,669,-1,670,664,671,-1,671,664,663,-1,653,477,636,-1,636,477,669,-1,636,669,639,-1,639,669,671,-1,639,671,672,-1,672,671,663,-1,663,655,672,-1,672,655,654,-1,653,636,634,-1,650,648,634,-1,634,648,649,-1,634,649,653,-1,639,672,641,-1,641,672,654,-1,641,654,644,-1,644,654,656,-1,673,674,675,-1,676,677,675,-1,677,678,675,-1,675,678,679,-1,675,679,673,-1,680,681,682,-1,682,681,683,-1,682,683,675,-1,675,683,684,-1,675,684,676,-1,680,682,685,-1,685,682,686,-1,687,688,689,-1,689,690,687,-1,687,690,691,-1,687,691,692,-1,693,685,694,-1,694,685,686,-1,694,686,695,-1,695,686,687,-1,695,687,696,-1,696,687,692,-1,674,374,378,-1,697,698,699,-1,700,651,652,-1,658,688,698,-1,658,698,652,-1,652,698,701,-1,652,701,700,-1,697,699,702,-1,703,704,675,-1,675,704,705,-1,675,705,706,-1,707,708,687,-1,687,708,709,-1,687,709,688,-1,378,647,674,-1,674,647,710,-1,674,710,711,-1,706,712,675,-1,675,712,713,-1,675,713,687,-1,714,715,716,-1,709,717,688,-1,688,717,718,-1,688,718,719,-1,645,646,713,-1,713,646,720,-1,713,720,687,-1,687,720,721,-1,687,721,707,-1,719,722,688,-1,688,722,723,-1,688,723,698,-1,698,723,724,-1,698,724,699,-1,715,714,725,-1,725,714,726,-1,725,726,727,-1,711,728,674,-1,674,728,714,-1,674,714,729,-1,729,714,716,-1,729,730,674,-1,674,730,731,-1,674,731,675,-1,675,731,732,-1,675,732,703,-1,733,734,727,-1,735,736,737,-1,738,739,740,-1,734,741,727,-1,727,741,742,-1,727,742,725,-1,743,744,745,-1,745,744,735,-1,745,735,746,-1,746,735,737,-1,699,747,702,-1,702,747,748,-1,702,748,745,-1,745,748,749,-1,745,749,743,-1,733,727,740,-1,740,727,750,-1,740,750,738,-1,682,751,686,-1,686,751,752,-1,686,752,687,-1,687,752,753,-1,687,753,754,-1,755,682,756,-1,756,682,757,-1,756,757,758,-1,759,687,760,-1,760,687,754,-1,760,754,761,-1,687,762,675,-1,675,762,763,-1,675,763,682,-1,682,763,764,-1,682,764,757,-1,754,751,761,-1,761,751,682,-1,761,682,765,-1,765,682,755,-1,765,755,759,-1,759,755,766,-1,759,766,687,-1,687,766,758,-1,687,758,762,-1,762,758,757,-1,693,694,670,-1,670,694,665,-1,670,665,664,-1,665,694,666,-1,666,694,695,-1,666,695,667,-1,667,695,696,-1,667,696,660,-1,660,696,692,-1,660,692,661,-1,661,692,691,-1,661,691,662,-1,662,691,690,-1,662,690,659,-1,659,690,689,-1,659,689,658,-1,658,689,688,-1,40,684,43,-1,43,684,683,-1,683,681,43,-1,43,681,668,-1,43,668,483,-1,684,40,676,-1,676,40,39,-1,676,39,677,-1,677,39,38,-1,677,38,678,-1,678,38,37,-1,678,37,679,-1,679,37,35,-1,679,35,673,-1,673,35,34,-1,673,34,674,-1,674,34,374,-1,656,657,644,-1,644,657,643,-1,634,633,650,-1,650,633,548,-1,650,548,12,-1,12,548,13,-1,671,685,670,-1,670,685,693,-1,669,680,671,-1,671,680,685,-1,668,681,669,-1,669,681,680,-1,702,604,697,-1,697,604,576,-1,697,576,698,-1,698,576,582,-1,698,582,701,-1,701,582,581,-1,701,581,700,-1,700,581,580,-1,702,745,604,-1,604,745,605,-1,748,612,611,-1,748,611,749,-1,749,611,610,-1,749,610,743,-1,743,610,620,-1,743,620,744,-1,744,620,608,-1,744,608,735,-1,735,608,607,-1,735,607,736,-1,736,607,606,-1,736,606,737,-1,737,606,609,-1,737,609,746,-1,746,609,605,-1,746,605,745,-1,748,747,612,-1,612,747,603,-1,722,592,723,-1,723,592,591,-1,723,591,724,-1,724,591,575,-1,724,575,699,-1,699,575,574,-1,699,574,747,-1,747,574,603,-1,722,719,592,-1,592,719,593,-1,721,567,707,-1,707,567,568,-1,707,568,708,-1,708,568,554,-1,708,554,709,-1,709,554,553,-1,709,553,717,-1,717,553,595,-1,717,595,718,-1,718,595,594,-1,718,594,719,-1,719,594,593,-1,721,720,567,-1,567,720,566,-1,720,646,566,-1,566,646,565,-1,651,700,579,-1,579,700,580,-1,645,713,555,-1,555,713,556,-1,713,712,556,-1,556,712,578,-1,731,588,732,-1,732,588,587,-1,732,587,703,-1,703,587,586,-1,703,586,704,-1,704,586,564,-1,704,564,705,-1,705,564,563,-1,705,563,706,-1,706,563,562,-1,706,562,712,-1,712,562,578,-1,731,730,588,-1,588,730,572,-1,725,598,715,-1,715,598,597,-1,715,597,716,-1,716,597,596,-1,716,596,729,-1,729,596,573,-1,729,573,730,-1,730,573,572,-1,725,742,598,-1,598,742,614,-1,727,613,619,-1,727,619,750,-1,750,619,617,-1,750,617,738,-1,738,617,616,-1,738,616,739,-1,739,616,618,-1,739,618,740,-1,740,618,622,-1,740,622,733,-1,733,622,621,-1,733,621,734,-1,734,621,615,-1,734,615,741,-1,741,615,614,-1,741,614,742,-1,727,726,613,-1,613,726,599,-1,710,601,711,-1,711,601,600,-1,711,600,728,-1,728,600,590,-1,728,590,714,-1,714,590,589,-1,714,589,726,-1,726,589,599,-1,710,647,601,-1,601,647,602,-1,767,635,768,-1,768,635,637,-1,577,769,583,-1,583,769,768,-1,583,768,628,-1,628,768,637,-1,770,547,548,-1,770,548,767,-1,767,548,633,-1,767,633,635,-1,771,768,772,-1,772,768,769,-1,772,769,773,-1,773,769,770,-1,773,770,774,-1,774,770,767,-1,774,767,771,-1,771,767,768,-1,769,577,770,-1,770,577,547,-1,
        ]
    }
}
Shape{
    appearance Appearance {
        material  Material 	{
            diffuseColor 0.6470588235294118 0.6196078431372549 0.5882352941176471
            specularColor 0.45098039215686275 0.43529411764705883 0.4117647058823529
            ambientIntensity 0.6242
            transparency 0.0
            shininess 0.5
        }
    }
    geometry IndexedFaceSet {
        ccw TRUE
        solid FALSE
        coord DEF co Coordinate {
            point [
                1.6083 2.4071 1.3504, 1.3563 2.4071 1.3504, 1.6083 2.456 1.344, 1.3563 2.456 1.344, 1.6083 2.5016 1.3251, 1.3563 2.5016 1.3251, 1.6083 2.5407 1.295, 1.3563 2.5407 1.295, 1.6083 2.5707 1.2559, 1.3563 2.5707 1.2559, 1.6083 2.5896 1.2103, 1.3563 2.5896 1.2103, 1.6083 2.5961 1.1614, 1.3563 2.5961 1.1614, 1.6083 2.5961 -1.0607, 1.3563 2.5961 -1.0607, 1.4153 2.6551 -1.3386, 1.4153 2.789 -1.3386, 1.5492 2.6551 -1.3386, 1.5492 2.789 -1.3386, 1.3563 2.848 -1.0607, 1.3563 2.848 1.1614, 1.6083 2.848 -1.0607, 1.6083 2.848 1.1614, 1.3563 2.833 1.2755, 1.6083 2.833 1.2755, 1.3563 2.789 1.3819, 1.6083 2.789 1.3819, 1.3563 2.7189 1.4732, 1.6083 2.7189 1.4732, 1.3563 2.6276 1.5433, 1.6083 2.6276 1.5433, 1.3563 2.5212 1.5873, 1.6083 2.5212 1.5873, 1.3563 2.4071 1.6024, 1.6083 2.4071 1.6024, 1.3563 1.7378 1.3504, 1.3563 1.7378 1.6024, 1.6083 1.7378 1.3504, 1.6083 1.7378 1.6024, 1.6083 -0.4253 1.6024, 1.6083 1.4622 1.6024, 1.3563 -0.4253 1.6024, 1.3563 1.4622 1.6024, 1.3563 -0.4253 1.3504, 1.3563 1.4622 1.3504, 1.6083 -0.4253 1.3504, 1.6083 1.4622 1.3504, 1.4153 -0.7031 1.5433, 1.4153 -0.7031 1.4095, 1.5492 -0.7031 1.5433, 1.5492 -0.7031 1.4095
            ]
        }
        coordIndex [
            0,1,2,-1,2,1,3,-1,2,3,4,-1,4,3,5,-1,4,5,6,-1,6,5,7,-1,6,7,8,-1,8,7,9,-1,8,9,10,-1,10,9,11,-1,10,11,12,-1,12,11,13,-1,14,12,15,-1,15,12,13,-1,16,17,18,-1,18,17,19,-1,20,21,22,-1,22,21,23,-1,23,21,24,-1,23,24,25,-1,25,24,26,-1,25,26,27,-1,27,26,28,-1,27,28,29,-1,29,28,30,-1,29,30,31,-1,31,30,32,-1,31,32,33,-1,33,32,34,-1,33,34,35,-1,36,37,1,-1,1,37,34,-1,1,34,3,-1,3,34,32,-1,3,32,5,-1,5,32,30,-1,5,30,7,-1,7,30,28,-1,7,28,9,-1,9,28,26,-1,9,26,11,-1,11,26,24,-1,11,24,13,-1,13,24,21,-1,13,21,15,-1,15,21,20,-1,14,22,12,-1,12,22,23,-1,12,23,10,-1,10,23,25,-1,10,25,8,-1,8,25,27,-1,8,27,6,-1,6,27,29,-1,6,29,4,-1,4,29,31,-1,4,31,2,-1,2,31,33,-1,2,33,0,-1,0,33,35,-1,0,35,38,-1,38,35,39,-1,36,1,38,-1,38,1,0,-1,35,34,39,-1,39,34,37,-1,40,41,42,-1,42,41,43,-1,44,45,46,-1,46,45,47,-1,46,47,40,-1,40,47,41,-1,42,43,44,-1,44,43,45,-1,48,49,50,-1,50,49,51,-1,22,19,20,-1,20,19,17,-1,14,18,22,-1,22,18,19,-1,16,15,17,-1,17,15,20,-1,15,16,14,-1,14,16,18,-1,46,51,44,-1,44,51,49,-1,40,50,46,-1,46,50,51,-1,48,42,49,-1,49,42,44,-1,42,48,40,-1,40,48,50,-1,
        ]
    }
}
Shape{
    appearance Appearance {
        material  Material 	{
            diffuseColor 1.0 1.0 1.0
            specularColor 0.5019607843137255 0.5019607843137255 0.5019607843137255
            ambientIntensity 1.0
            transparency 0.0
            shininess 0.5
        }
    }
    geometry IndexedFaceSet {
        ccw TRUE
        solid FALSE
        coord DEF co Coordinate {
            point [
                -1.1634 1.7378 1.1811, -1.1634 1.5541 0.0787, -1.8721 1.7378 1.1811, -1.8721 1.5541 0.0787, -1.8721 1.5409 2.4016, -1.8721 1.7378 1.7717, -1.8721 1.8559 2.4016, -1.8721 1.8559 0.0787, -1.1634 1.7378 1.7717, -1.1634 1.5409 2.4016, -1.1634 1.8559 2.4016, -1.1634 1.8559 0.0787, -1.6437 1.7378 1.3504, -1.6437 1.7378 1.6024, -1.3917 1.7378 1.6024, -1.3917 1.7378 1.3504, -0.1634 1.7378 1.1811, -0.1634 1.5541 0.0787, -0.8721 1.7378 1.1811, -0.8721 1.5541 0.0787, -0.8721 1.5409 2.4016, -0.8721 1.7378 1.7717, -0.8721 1.8559 2.4016, -0.8721 1.8559 0.0787, -0.1634 1.7378 1.7717, -0.1634 1.5409 2.4016, -0.1634 1.8559 2.4016, -0.1634 1.8559 0.0787, -0.6437 1.7378 1.3504, -0.6437 1.7378 1.6024, -0.3917 1.7378 1.6024, -0.3917 1.7378 1.3504, 0.8366 1.7378 1.1811, 0.8366 1.5541 0.0787, 0.1279 1.7378 1.1811, 0.1279 1.5541 0.0787, 0.1279 1.5409 2.4016, 0.1279 1.7378 1.7717, 0.1279 1.8559 2.4016, 0.1279 1.8559 0.0787, 0.8366 1.7378 1.7717, 0.8366 1.5409 2.4016, 0.8366 1.8559 2.4016, 0.8366 1.8559 0.0787, 0.3563 1.7378 1.3504, 0.3563 1.7378 1.6024, 0.6083 1.7378 1.6024, 0.6083 1.7378 1.3504
            ]
        }
        coordIndex [
            0,1,2,-1,2,1,3,-1,4,5,6,-1,6,5,2,-1,6,2,7,-1,7,2,3,-1,8,9,10,-1,8,10,0,-1,0,10,11,-1,0,11,1,-1,12,2,13,-1,13,2,5,-1,13,5,14,-1,14,5,8,-1,14,8,15,-1,15,8,0,-1,15,0,12,-1,12,0,2,-1,5,4,8,-1,8,4,9,-1,16,17,18,-1,18,17,19,-1,20,21,22,-1,22,21,18,-1,22,18,23,-1,23,18,19,-1,24,25,26,-1,24,26,16,-1,16,26,27,-1,16,27,17,-1,28,18,29,-1,29,18,21,-1,29,21,30,-1,30,21,24,-1,30,24,31,-1,31,24,16,-1,31,16,28,-1,28,16,18,-1,21,20,24,-1,24,20,25,-1,32,33,34,-1,34,33,35,-1,36,37,38,-1,38,37,34,-1,38,34,39,-1,39,34,35,-1,40,41,42,-1,40,42,32,-1,32,42,43,-1,32,43,33,-1,44,34,45,-1,45,34,37,-1,45,37,46,-1,46,37,40,-1,46,40,47,-1,47,40,32,-1,47,32,44,-1,44,32,34,-1,37,36,40,-1,40,36,41,-1,
        ]
    }
}
Shape{
    appearance Appearance {
        material  Material 	{
            diffuseColor 0.6470588235294118 0.6196078431372549 0.5882352941176471
            specularColor 0.45098039215686275 0.43529411764705883 0.4117647058823529
            ambientIntensity 0.6242
            transparency 0.0
            shininess 0.5
        }
    }
    geometry IndexedFaceSet {
        ccw TRUE
        solid FALSE
        coord DEF co Coordinate {
            point [
                0.6083 2.4071 1.3504, 0.3563 2.4071 1.3504, 0.6083 2.456 1.344, 0.3563 2.456 1.344, 0.6083 2.5016 1.3251, 0.3563 2.5016 1.3251, 0.6083 2.5407 1.295, 0.3563 2.5407 1.295, 0.6083 2.5707 1.2559, 0.3563 2.5707 1.2559, 0.6083 2.5896 1.2103, 0.3563 2.5896 1.2103, 0.6083 2.5961 1.1614, 0.3563 2.5961 1.1614, 0.6083 2.5961 -1.0607, 0.3563 2.5961 -1.0607, 0.4153 2.6551 -1.3386, 0.4153 2.789 -1.3386, 0.5492 2.6551 -1.3386, 0.5492 2.789 -1.3386, 0.3563 2.848 -1.0607, 0.3563 2.848 1.1614, 0.6083 2.848 -1.0607, 0.6083 2.848 1.1614, 0.3563 2.833 1.2755, 0.6083 2.833 1.2755, 0.3563 2.789 1.3819, 0.6083 2.789 1.3819, 0.3563 2.7189 1.4732, 0.6083 2.7189 1.4732, 0.3563 2.6276 1.5433, 0.6083 2.6276 1.5433, 0.3563 2.5212 1.5873, 0.6083 2.5212 1.5873, 0.3563 2.4071 1.6024, 0.6083 2.4071 1.6024, 0.3563 1.7378 1.3504, 0.3563 1.7378 1.6024, 0.6083 1.7378 1.3504, 0.6083 1.7378 1.6024, 0.6083 -0.4253 1.6024, 0.6083 1.4622 1.6024, 0.3563 -0.4253 1.6024, 0.3563 1.4622 1.6024, 0.3563 -0.4253 1.3504, 0.3563 1.4622 1.3504, 0.6083 -0.4253 1.3504, 0.6083 1.4622 1.3504, 0.4153 -0.7031 1.5433, 0.4153 -0.7031 1.4095, 0.5492 -0.7031 1.5433, 0.5492 -0.7031 1.4095, -0.3917 2.4071 1.3504, -0.6437 2.4071 1.3504, -0.3917 2.456 1.344, -0.6437 2.456 1.344, -0.3917 2.5016 1.3251, -0.6437 2.5016 1.3251, -0.3917 2.5407 1.295, -0.6437 2.5407 1.295, -0.3917 2.5707 1.2559, -0.6437 2.5707 1.2559, -0.3917 2.5896 1.2103, -0.6437 2.5896 1.2103, -0.3917 2.5961 1.1614, -0.6437 2.5961 1.1614, -0.3917 2.5961 -1.0607, -0.6437 2.5961 -1.0607, -0.5847 2.6551 -1.3386, -0.5847 2.789 -1.3386, -0.4508 2.6551 -1.3386, -0.4508 2.789 -1.3386, -0.6437 2.848 -1.0607, -0.6437 2.848 1.1614, -0.3917 2.848 -1.0607, -0.3917 2.848 1.1614, -0.6437 2.833 1.2755, -0.3917 2.833 1.2755, -0.6437 2.789 1.3819, -0.3917 2.789 1.3819, -0.6437 2.7189 1.4732, -0.3917 2.7189 1.4732, -0.6437 2.6276 1.5433, -0.3917 2.6276 1.5433, -0.6437 2.5212 1.5873, -0.3917 2.5212 1.5873, -0.6437 2.4071 1.6024, -0.3917 2.4071 1.6024, -0.6437 1.7378 1.3504, -0.6437 1.7378 1.6024, -0.3917 1.7378 1.3504, -0.3917 1.7378 1.6024, -0.3917 -0.4253 1.6024, -0.3917 1.4622 1.6024, -0.6437 -0.4253 1.6024, -0.6437 1.4622 1.6024, -0.6437 -0.4253 1.3504, -0.6437 1.4622 1.3504, -0.3917 -0.4253 1.3504, -0.3917 1.4622 1.3504, -0.5847 -0.7031 1.5433, -0.5847 -0.7031 1.4095, -0.4508 -0.7031 1.5433, -0.4508 -0.7031 1.4095, -1.3917 2.4071 1.3504, -1.6437 2.4071 1.3504, -1.3917 2.456 1.344, -1.6437 2.456 1.344, -1.3917 2.5016 1.3251, -1.6437 2.5016 1.3251, -1.3917 2.5407 1.295, -1.6437 2.5407 1.295, -1.3917 2.5707 1.2559, -1.6437 2.5707 1.2559, -1.3917 2.5896 1.2103, -1.6437 2.5896 1.2103, -1.3917 2.5961 1.1614, -1.6437 2.5961 1.1614, -1.3917 2.5961 -1.0607, -1.6437 2.5961 -1.0607, -1.5847 2.6551 -1.3386, -1.5847 2.789 -1.3386, -1.4508 2.6551 -1.3386, -1.4508 2.789 -1.3386, -1.6437 2.848 -1.0607, -1.6437 2.848 1.1614, -1.3917 2.848 -1.0607, -1.3917 2.848 1.1614, -1.6437 2.833 1.2755, -1.3917 2.833 1.2755, -1.6437 2.789 1.3819, -1.3917 2.789 1.3819, -1.6437 2.7189 1.4732, -1.3917 2.7189 1.4732, -1.6437 2.6276 1.5433, -1.3917 2.6276 1.5433, -1.6437 2.5212 1.5873, -1.3917 2.5212 1.5873, -1.6437 2.4071 1.6024, -1.3917 2.4071 1.6024, -1.6437 1.7378 1.3504, -1.6437 1.7378 1.6024, -1.3917 1.7378 1.3504, -1.3917 1.7378 1.6024, -1.3917 -0.4253 1.6024, -1.3917 1.4622 1.6024, -1.6437 -0.4253 1.6024, -1.6437 1.4622 1.6024, -1.6437 -0.4253 1.3504, -1.6437 1.4622 1.3504, -1.3917 -0.4253 1.3504, -1.3917 1.4622 1.3504, -1.5847 -0.7031 1.5433, -1.5847 -0.7031 1.4095, -1.4508 -0.7031 1.5433, -1.4508 -0.7031 1.4095
            ]
        }
        coordIndex [
            0,1,2,-1,2,1,3,-1,2,3,4,-1,4,3,5,-1,4,5,6,-1,6,5,7,-1,6,7,8,-1,8,7,9,-1,8,9,10,-1,10,9,11,-1,10,11,12,-1,12,11,13,-1,14,12,15,-1,15,12,13,-1,16,17,18,-1,18,17,19,-1,20,21,22,-1,22,21,23,-1,23,21,24,-1,23,24,25,-1,25,24,26,-1,25,26,27,-1,27,26,28,-1,27,28,29,-1,29,28,30,-1,29,30,31,-1,31,30,32,-1,31,32,33,-1,33,32,34,-1,33,34,35,-1,36,37,1,-1,1,37,34,-1,1,34,3,-1,3,34,32,-1,3,32,5,-1,5,32,30,-1,5,30,7,-1,7,30,28,-1,7,28,9,-1,9,28,26,-1,9,26,11,-1,11,26,24,-1,11,24,13,-1,13,24,21,-1,13,21,15,-1,15,21,20,-1,14,22,12,-1,12,22,23,-1,12,23,10,-1,10,23,25,-1,10,25,8,-1,8,25,27,-1,8,27,6,-1,6,27,29,-1,6,29,4,-1,4,29,31,-1,4,31,2,-1,2,31,33,-1,2,33,0,-1,0,33,35,-1,0,35,38,-1,38,35,39,-1,36,1,38,-1,38,1,0,-1,35,34,39,-1,39,34,37,-1,40,41,42,-1,42,41,43,-1,44,45,46,-1,46,45,47,-1,46,47,40,-1,40,47,41,-1,42,43,44,-1,44,43,45,-1,48,49,50,-1,50,49,51,-1,52,53,54,-1,54,53,55,-1,54,55,56,-1,56,55,57,-1,56,57,58,-1,58,57,59,-1,58,59,60,-1,60,59,61,-1,60,61,62,-1,62,61,63,-1,62,63,64,-1,64,63,65,-1,66,64,67,-1,67,64,65,-1,68,69,70,-1,70,69,71,-1,72,73,74,-1,74,73,75,-1,75,73,76,-1,75,76,77,-1,77,76,78,-1,77,78,79,-1,79,78,80,-1,79,80,81,-1,81,80,82,-1,81,82,83,-1,83,82,84,-1,83,84,85,-1,85,84,86,-1,85,86,87,-1,88,89,53,-1,53,89,86,-1,53,86,55,-1,55,86,84,-1,55,84,57,-1,57,84,82,-1,57,82,59,-1,59,82,80,-1,59,80,61,-1,61,80,78,-1,61,78,63,-1,63,78,76,-1,63,76,65,-1,65,76,73,-1,65,73,67,-1,67,73,72,-1,66,74,64,-1,64,74,75,-1,64,75,62,-1,62,75,77,-1,62,77,60,-1,60,77,79,-1,60,79,58,-1,58,79,81,-1,58,81,56,-1,56,81,83,-1,56,83,54,-1,54,83,85,-1,54,85,52,-1,52,85,87,-1,52,87,90,-1,90,87,91,-1,88,53,90,-1,90,53,52,-1,87,86,91,-1,91,86,89,-1,92,93,94,-1,94,93,95,-1,96,97,98,-1,98,97,99,-1,98,99,92,-1,92,99,93,-1,94,95,96,-1,96,95,97,-1,100,101,102,-1,102,101,103,-1,104,105,106,-1,106,105,107,-1,106,107,108,-1,108,107,109,-1,108,109,110,-1,110,109,111,-1,110,111,112,-1,112,111,113,-1,112,113,114,-1,114,113,115,-1,114,115,116,-1,116,115,117,-1,118,116,119,-1,119,116,117,-1,120,121,122,-1,122,121,123,-1,124,125,126,-1,126,125,127,-1,127,125,128,-1,127,128,129,-1,129,128,130,-1,129,130,131,-1,131,130,132,-1,131,132,133,-1,133,132,134,-1,133,134,135,-1,135,134,136,-1,135,136,137,-1,137,136,138,-1,137,138,139,-1,140,141,105,-1,105,141,138,-1,105,138,107,-1,107,138,136,-1,107,136,109,-1,109,136,134,-1,109,134,111,-1,111,134,132,-1,111,132,113,-1,113,132,130,-1,113,130,115,-1,115,130,128,-1,115,128,117,-1,117,128,125,-1,117,125,119,-1,119,125,124,-1,118,126,116,-1,116,126,127,-1,116,127,114,-1,114,127,129,-1,114,129,112,-1,112,129,131,-1,112,131,110,-1,110,131,133,-1,110,133,108,-1,108,133,135,-1,108,135,106,-1,106,135,137,-1,106,137,104,-1,104,137,139,-1,104,139,142,-1,142,139,143,-1,140,105,142,-1,142,105,104,-1,139,138,143,-1,143,138,141,-1,144,145,146,-1,146,145,147,-1,148,149,150,-1,150,149,151,-1,150,151,144,-1,144,151,145,-1,146,147,148,-1,148,147,149,-1,152,153,154,-1,154,153,155,-1,22,19,20,-1,20,19,17,-1,14,18,22,-1,22,18,19,-1,16,15,17,-1,17,15,20,-1,15,16,14,-1,14,16,18,-1,46,51,44,-1,44,51,49,-1,40,50,46,-1,46,50,51,-1,48,42,49,-1,49,42,44,-1,42,48,40,-1,40,48,50,-1,74,71,72,-1,72,71,69,-1,66,70,74,-1,74,70,71,-1,68,67,69,-1,69,67,72,-1,67,68,66,-1,66,68,70,-1,98,103,96,-1,96,103,101,-1,92,102,98,-1,98,102,103,-1,100,94,101,-1,101,94,96,-1,94,100,92,-1,92,100,102,-1,126,123,124,-1,124,123,121,-1,118,122,126,-1,126,122,123,-1,120,119,121,-1,121,119,124,-1,119,120,118,-1,118,120,122,-1,150,155,148,-1,148,155,153,-1,144,154,150,-1,150,154,155,-1,152,146,153,-1,153,146,148,-1,146,152,144,-1,144,152,154,-1,
        ]
    }
}
Shape{
    appearance Appearance {
        material  Material 	{
            diffuseColor 0.0 0.0 0.0
            specularColor 0.0 0.0 0.0
            ambientIntensity 0.0
            transparency 0.0
            shininess 0.5
        }
    }
    geometry IndexedFaceSet {
        ccw TRUE
        solid FALSE
        coord DEF co Coordinate {
            point [
                2.4469 0.9779 0.7262, 2.4469 0.9779 0.7125, 2.4468 0.9779 0.7262, 2.4468 0.9779 0.7125, 2.4469 0.93 0.7262, 2.4468 0.93 0.7262, 2.4469 0.93 0.8326, 2.4468 0.93 0.8326, 2.4469 0.9145 0.8326, 2.4468 0.9145 0.8326, 2.4469 0.9145 0.7125, 2.4468 0.9145 0.7125, 2.4469 1.0578 0.7123, 2.4469 1.0395 0.7105, 2.4468 1.0501 0.7115, 2.4468 1.0395 0.7105, 2.4468 1.0578 0.7123, 2.4468 1.0707 0.7165, 2.4469 1.0707 0.7165, 2.4468 1.0727 0.7175, 2.4469 1.0727 0.7175, 2.4469 1.0727 0.7324, 2.4468 1.0727 0.7324, 2.4468 1.0609 0.7271, 2.4469 1.0609 0.7271, 2.4468 1.0473 0.7245, 2.4469 1.0473 0.7245, 2.4468 1.0417 0.7243, 2.4469 1.0417 0.7243, 2.4468 1.031 0.7255, 2.4469 1.031 0.7255, 2.4468 1.0222 0.7285, 2.4469 1.0222 0.7285, 2.4468 1.0141 0.7339, 2.4469 1.0141 0.7339, 2.4468 1.0109 0.737, 2.4469 1.0109 0.737, 2.4468 1.0053 0.7446, 2.4469 1.0053 0.7446, 2.4468 1.0013 0.7542, 2.4469 1.0013 0.7542, 2.4468 0.9992 0.7661, 2.4469 0.9992 0.7661, 2.4468 0.9991 0.7712, 2.4469 0.9991 0.7712, 2.4468 1.001 0.7877, 2.4469 1.001 0.7877, 2.4468 1.005 0.7981, 2.4469 1.005 0.7981, 2.4468 1.0108 0.8064, 2.4469 1.0108 0.8064, 2.4468 1.0117 0.8073, 2.4469 1.0117 0.8073, 2.4468 1.0193 0.8137, 2.4469 1.0193 0.8137, 2.4468 1.0286 0.8182, 2.4469 1.0286 0.8182, 2.4468 1.039 0.8204, 2.4469 1.039 0.8204, 2.4468 1.0444 0.8207, 2.4469 1.0444 0.8207, 2.4468 1.0592 0.8189, 2.4469 1.0592 0.8189, 2.4468 1.0714 0.8143, 2.4469 1.0714 0.8143, 2.4468 1.0727 0.8135, 2.4469 1.0727 0.8135, 2.4469 1.0727 0.8298, 2.4468 1.0727 0.8298, 2.4468 1.0443 0.8347, 2.4469 1.0443 0.8347, 2.4468 1.0572 0.8337, 2.4469 1.06 0.8334, 2.4468 1.06 0.8334, 2.4468 1.0359 0.8337, 2.4469 1.0269 0.8326, 2.4468 1.0269 0.8326, 2.4468 1.0144 0.8277, 2.4469 1.0144 0.8277, 2.4468 1.0031 0.8198, 2.4469 1.0031 0.8198, 2.4468 1.0001 0.817, 2.4469 1.0001 0.817, 2.4468 0.9914 0.8056, 2.4469 0.9914 0.8056, 2.4468 0.9882 0.798, 2.4469 0.9857 0.7923, 2.4468 0.9857 0.7923, 2.4468 0.983 0.7766, 2.4469 0.983 0.7766, 2.4468 0.9828 0.7703, 2.4469 0.9828 0.7703, 2.4468 0.9851 0.7508, 2.4469 0.9851 0.7508, 2.4468 0.9882 0.7431, 2.4469 0.99 0.7383, 2.4468 0.99 0.7383, 2.4468 0.9972 0.728, 2.4469 0.9972 0.728, 2.4468 0.9982 0.7269, 2.4469 0.9982 0.7269, 2.4469 1.0302 0.7111, 2.4468 1.0064 0.7199, 2.4469 1.0064 0.7199, 2.4468 1.0175 0.7141, 2.4469 1.0175 0.7141, 2.4468 1.0283 0.7115, 2.4468 1.0302 0.7111, 2.4469 1.1614 0.7262, 2.4469 1.1614 0.7125, 2.4468 1.1614 0.7262, 2.4468 1.1614 0.7125, 2.4468 1.1123 0.7262, 2.4469 1.1123 0.7262, 2.4468 1.1447 0.7262, 2.4469 1.1123 0.7666, 2.4468 1.1123 0.7666, 2.4468 1.1552 0.7666, 2.4469 1.1552 0.7666, 2.4468 1.1447 0.7666, 2.4469 1.1552 0.7804, 2.4468 1.1552 0.7804, 2.4468 1.1123 0.7804, 2.4469 1.1123 0.7804, 2.4468 1.1447 0.7804, 2.4469 1.1123 0.8188, 2.4468 1.1123 0.8188, 2.4468 1.1586 0.8188, 2.4469 1.1586 0.8188, 2.4468 1.1447 0.8188, 2.4469 1.1586 0.8326, 2.4468 1.1586 0.8326, 2.4468 1.0968 0.8326, 2.4469 1.0968 0.8326, 2.4468 1.1447 0.8326, 2.4469 1.0968 0.7125, 2.4468 1.0968 0.7125, 2.4468 1.1447 0.7125, 2.4469 1.2637 0.7294, 2.4469 1.2512 0.7374, 2.4469 1.2511 0.7203, 2.4469 1.2435 0.732, 2.4469 1.2374 0.715, 2.4469 1.2336 0.7282, 2.4469 1.2171 0.7125, 2.4469 1.217 0.7262, 2.4469 1.184 0.7125, 2.4469 1.1995 0.7262, 2.4469 1.184 0.8326, 2.4469 1.1995 0.8188, 2.4469 1.2183 0.8326, 2.4469 1.2177 0.8188, 2.4469 1.2185 0.8188, 2.4469 1.2366 0.8306, 2.4469 1.234 0.8169, 2.4469 1.2511 0.8253, 2.4469 1.2443 0.813, 2.4469 1.2637 0.8167, 2.4469 1.2524 0.8075, 2.4469 1.268 0.8126, 2.4469 1.2557 0.8042, 2.4469 1.2754 0.8021, 2.4469 1.2604 0.7974, 2.4469 1.2798 0.7906, 2.4469 1.2638 0.7887, 2.4469 1.2818 0.7741, 2.4469 1.2655 0.7737, 2.4469 1.2815 0.7665, 2.4469 1.2651 0.7657, 2.4469 1.2786 0.7524, 2.4469 1.2627 0.7548, 2.4469 1.2726 0.74, 2.4469 1.2585 0.7459, 2.4469 1.2527 0.7388, 2.4468 1.2171 0.7125, 2.4468 1.184 0.7125, 2.4468 1.2637 0.7294, 2.4468 1.2374 0.715, 2.4468 1.2391 0.7156, 2.4468 1.2511 0.7203, 2.4468 1.2726 0.74, 2.4468 1.2786 0.7524, 2.4468 1.2815 0.7665, 2.4468 1.2818 0.7741, 2.4468 1.2798 0.7906, 2.4468 1.2754 0.8021, 2.4468 1.268 0.8126, 2.4468 1.2637 0.8167, 2.4468 1.2183 0.8326, 2.4468 1.2511 0.8253, 2.4468 1.2391 0.8297, 2.4468 1.2366 0.8306, 2.4468 1.184 0.8326, 2.4468 1.2177 0.8188, 2.4468 1.1995 0.8188, 2.4468 1.1995 0.7262, 2.4468 1.217 0.7262, 2.4468 1.2527 0.7388, 2.4468 1.2512 0.7374, 2.4468 1.2435 0.732, 2.4468 1.2336 0.7282, 2.4468 1.2655 0.7737, 2.4468 1.2651 0.7657, 2.4468 1.2627 0.7548, 2.4468 1.2585 0.7459, 2.4468 1.2524 0.8075, 2.4468 1.2557 0.8042, 2.4468 1.2604 0.7974, 2.4468 1.2638 0.7887, 2.4468 1.2185 0.8188, 2.4468 1.234 0.8169, 2.4468 1.2443 0.813
            ]
        }
        coordIndex [
            0,1,2,-1,2,1,3,-1,4,0,5,-1,5,0,2,-1,6,4,7,-1,7,4,5,-1,8,6,9,-1,9,6,7,-1,10,8,11,-1,11,8,9,-1,1,10,3,-1,3,10,11,-1,6,8,4,-1,4,8,10,-1,4,10,0,-1,0,10,1,-1,12,13,14,-1,14,13,15,-1,14,16,12,-1,12,16,17,-1,12,17,18,-1,18,17,19,-1,18,19,20,-1,21,20,22,-1,22,20,19,-1,21,22,23,-1,21,23,24,-1,24,23,25,-1,24,25,26,-1,26,25,27,-1,26,27,28,-1,28,27,29,-1,28,29,30,-1,30,29,31,-1,30,31,32,-1,32,31,33,-1,32,33,34,-1,34,33,35,-1,34,35,36,-1,36,35,37,-1,36,37,38,-1,38,37,39,-1,38,39,40,-1,40,39,41,-1,40,41,42,-1,42,41,43,-1,42,43,44,-1,44,43,45,-1,44,45,46,-1,46,45,47,-1,46,47,48,-1,48,47,49,-1,48,49,50,-1,50,49,51,-1,50,51,52,-1,52,51,53,-1,52,53,54,-1,54,53,55,-1,54,55,56,-1,56,55,57,-1,56,57,58,-1,58,57,59,-1,58,59,60,-1,60,59,61,-1,60,61,62,-1,62,61,63,-1,62,63,64,-1,64,63,65,-1,64,65,66,-1,67,66,68,-1,68,66,65,-1,69,70,71,-1,71,70,72,-1,71,72,73,-1,73,72,67,-1,73,67,68,-1,70,69,74,-1,70,74,75,-1,74,76,75,-1,75,76,77,-1,75,77,78,-1,78,77,79,-1,78,79,80,-1,80,79,81,-1,80,81,82,-1,82,81,83,-1,82,83,84,-1,84,83,85,-1,84,85,86,-1,85,87,86,-1,86,87,88,-1,86,88,89,-1,89,88,90,-1,89,90,91,-1,91,90,92,-1,91,92,93,-1,93,92,94,-1,93,94,95,-1,94,96,95,-1,95,96,97,-1,95,97,98,-1,98,97,99,-1,98,99,100,-1,15,13,101,-1,100,99,102,-1,100,102,103,-1,103,102,104,-1,103,104,105,-1,105,104,106,-1,105,106,101,-1,101,106,107,-1,101,107,15,-1,82,52,80,-1,80,52,54,-1,80,54,78,-1,91,44,89,-1,89,44,46,-1,89,46,86,-1,86,46,84,-1,84,46,48,-1,84,48,82,-1,82,48,50,-1,82,50,52,-1,78,54,75,-1,75,54,56,-1,75,56,70,-1,20,21,18,-1,18,21,24,-1,18,24,12,-1,12,24,26,-1,12,26,13,-1,13,26,28,-1,13,28,101,-1,101,28,30,-1,101,30,105,-1,105,30,32,-1,105,32,103,-1,103,32,34,-1,103,34,100,-1,100,34,36,-1,100,36,98,-1,98,36,38,-1,98,38,95,-1,95,38,93,-1,93,38,40,-1,93,40,91,-1,91,40,42,-1,91,42,44,-1,56,58,70,-1,70,58,60,-1,70,60,72,-1,72,60,62,-1,72,62,67,-1,67,62,64,-1,67,64,66,-1,108,109,110,-1,110,109,111,-1,112,113,114,-1,114,113,108,-1,114,108,110,-1,115,113,116,-1,116,113,112,-1,117,118,119,-1,119,118,115,-1,119,115,116,-1,120,118,121,-1,121,118,117,-1,122,123,124,-1,124,123,120,-1,124,120,121,-1,125,123,126,-1,126,123,122,-1,127,128,129,-1,129,128,125,-1,129,125,126,-1,130,128,131,-1,131,128,127,-1,132,133,134,-1,134,133,130,-1,134,130,131,-1,135,133,136,-1,136,133,132,-1,111,109,137,-1,137,109,135,-1,137,135,136,-1,135,109,108,-1,108,113,135,-1,135,113,115,-1,135,115,133,-1,128,130,125,-1,125,130,133,-1,125,133,123,-1,123,133,115,-1,123,115,120,-1,120,115,118,-1,138,139,140,-1,140,139,141,-1,140,141,142,-1,142,141,143,-1,142,143,144,-1,144,143,145,-1,144,145,146,-1,146,145,147,-1,146,147,148,-1,148,147,149,-1,148,149,150,-1,149,151,150,-1,150,151,152,-1,150,152,153,-1,153,152,154,-1,153,154,155,-1,155,154,156,-1,155,156,157,-1,157,156,158,-1,157,158,159,-1,159,158,160,-1,159,160,161,-1,161,160,162,-1,161,162,163,-1,163,162,164,-1,163,164,165,-1,165,164,166,-1,165,166,167,-1,167,166,168,-1,167,168,169,-1,169,168,170,-1,169,170,171,-1,171,170,172,-1,171,172,138,-1,138,172,173,-1,138,173,139,-1,144,146,174,-1,174,146,175,-1,176,138,140,-1,144,174,177,-1,144,177,142,-1,142,177,178,-1,142,178,140,-1,140,178,179,-1,140,179,176,-1,138,176,180,-1,138,180,171,-1,171,180,181,-1,171,181,169,-1,169,181,182,-1,169,182,167,-1,167,182,183,-1,167,183,165,-1,165,183,184,-1,165,184,163,-1,163,184,185,-1,163,185,161,-1,161,185,186,-1,161,186,159,-1,159,186,187,-1,159,187,157,-1,188,150,153,-1,157,187,189,-1,157,189,155,-1,155,189,190,-1,155,190,153,-1,153,190,191,-1,153,191,188,-1,148,150,192,-1,192,150,188,-1,146,148,175,-1,175,148,192,-1,151,149,193,-1,193,149,194,-1,149,147,194,-1,194,147,195,-1,147,145,195,-1,195,145,196,-1,173,197,198,-1,173,198,139,-1,139,198,199,-1,139,199,141,-1,141,199,200,-1,141,200,143,-1,143,200,196,-1,143,196,145,-1,166,201,202,-1,166,202,168,-1,168,202,203,-1,168,203,170,-1,170,203,204,-1,170,204,172,-1,172,204,197,-1,172,197,173,-1,158,205,206,-1,158,206,160,-1,160,206,207,-1,160,207,162,-1,162,207,208,-1,162,208,164,-1,164,208,201,-1,164,201,166,-1,151,193,209,-1,151,209,152,-1,152,209,210,-1,152,210,154,-1,154,210,211,-1,154,211,156,-1,156,211,205,-1,156,205,158,-1,
        ]
    }
}
Shape{
    appearance Appearance {
        material  Material 	{
            diffuseColor 1.0 1.0 1.0
            specularColor 0.5019607843137255 0.5019607843137255 0.5019607843137255
            ambientIntensity 1.0
            transparency 0.0
            shininess 0.5
        }
    }
    geometry IndexedFaceSet {
        ccw TRUE
        solid FALSE
        coord DEF co Coordinate {
            point [
                2.4468 1.2435 0.732, 2.4468 1.2512 0.7374, 2.4468 1.2185 0.8188, 2.4468 1.1995 0.8188, 2.4468 1.1995 0.7262, 2.4468 1.2177 0.8188, 2.4468 1.217 0.7262, 2.4468 1.2336 0.7282, 2.4468 1.2527 0.7388, 2.4468 1.2585 0.7459, 2.4468 1.2627 0.7548, 2.4468 1.2655 0.7737, 2.4468 1.2524 0.8075, 2.4468 1.2443 0.813, 2.4468 1.2638 0.7887, 2.4468 1.2604 0.7974, 2.4468 1.2557 0.8042, 2.4468 1.2651 0.7657, 2.4468 1.234 0.8169
            ]
        }
        coordIndex [
            0,1,2,-1,3,4,5,-1,5,4,6,-1,5,6,2,-1,2,6,7,-1,2,7,0,-1,1,8,2,-1,2,8,9,-1,2,9,10,-1,11,12,13,-1,14,15,11,-1,11,15,16,-1,11,16,12,-1,10,17,2,-1,2,17,11,-1,2,11,18,-1,18,11,13,-1,
        ]
    }
}
Shape{
    appearance Appearance {
        material  Material 	{
            diffuseColor 0.0 0.0 0.0
            specularColor 0.0 0.0 0.0
            ambientIntensity 0.0
            transparency 0.0
            shininess 0.5
        }
    }
    geometry IndexedFaceSet {
        ccw TRUE
        solid FALSE
        coord DEF co Coordinate {
            point [
                2.4469 1.3221 0.759, 2.4469 1.3172 0.7454, 2.4469 1.3624 0.759, 2.4469 1.3672 0.7454, 2.4469 1.34 0.8089, 2.4469 1.3342 0.8326, 2.4469 1.2885 0.7125, 2.4469 1.3056 0.7125, 2.4469 1.3411 0.8125, 2.4469 1.342 0.8173, 2.4469 1.3508 0.8326, 2.4469 1.3424 0.8173, 2.4469 1.3433 0.8122, 2.4469 1.3442 0.8089, 2.4469 1.3966 0.7125, 2.4469 1.3794 0.7125, 2.4468 1.3508 0.8326, 2.4468 1.3966 0.7125, 2.4468 1.3342 0.8326, 2.4468 1.2885 0.7125, 2.4468 1.3231 0.8034, 2.4468 1.3056 0.7125, 2.4468 1.3172 0.7454, 2.4468 1.3672 0.7454, 2.4468 1.3231 0.7454, 2.4468 1.3794 0.7125, 2.4468 1.3221 0.759, 2.4468 1.3624 0.759, 2.4468 1.3442 0.8089, 2.4468 1.3424 0.8173, 2.4468 1.3433 0.8122, 2.4468 1.342 0.8173, 2.4468 1.34 0.8089, 2.4468 1.3411 0.8125
            ]
        }
        coordIndex [
            0,1,2,-1,2,1,3,-1,4,5,0,-1,0,5,6,-1,0,6,1,-1,1,6,7,-1,4,8,5,-1,5,8,9,-1,5,9,10,-1,10,9,11,-1,10,11,12,-1,12,13,10,-1,10,13,2,-1,10,2,14,-1,14,2,3,-1,14,3,15,-1,10,14,16,-1,16,14,17,-1,5,10,18,-1,18,10,16,-1,19,6,20,-1,20,6,5,-1,20,5,18,-1,7,6,21,-1,21,6,19,-1,1,7,22,-1,22,7,21,-1,23,3,24,-1,24,3,1,-1,24,1,22,-1,15,3,25,-1,25,3,23,-1,14,15,17,-1,17,15,25,-1,0,2,26,-1,26,2,27,-1,2,13,27,-1,27,13,28,-1,11,29,30,-1,11,30,12,-1,12,30,28,-1,12,28,13,-1,11,9,29,-1,29,9,31,-1,4,32,33,-1,4,33,8,-1,8,33,31,-1,8,31,9,-1,4,0,32,-1,32,0,26,-1,
        ]
    }
}
Shape{
    appearance Appearance {
        material  Material 	{
            diffuseColor 1.0 1.0 1.0
            specularColor 0.5019607843137255 0.5019607843137255 0.5019607843137255
            ambientIntensity 1.0
            transparency 0.0
            shininess 0.5
        }
    }
    geometry IndexedFaceSet {
        ccw TRUE
        solid FALSE
        coord DEF co Coordinate {
            point [
                2.4468 1.3424 0.8173, 2.4468 1.342 0.8173, 2.4468 1.3433 0.8122, 2.4468 1.3411 0.8125, 2.4468 1.3442 0.8089, 2.4468 1.34 0.8089, 2.4468 1.3624 0.759, 2.4468 1.3221 0.759
            ]
        }
        coordIndex [
            0,1,2,-1,2,1,3,-1,2,3,4,-1,4,3,5,-1,4,5,6,-1,6,5,7,-1,
        ]
    }
}
Shape{
    appearance Appearance {
        material  Material 	{
            diffuseColor 0.0 0.0 0.0
            specularColor 0.0 0.0 0.0
            ambientIntensity 0.0
            transparency 0.0
            shininess 0.5
        }
    }
    geometry IndexedFaceSet {
        ccw TRUE
        solid FALSE
        coord DEF co Coordinate {
            point [
                2.4469 0.9791 0.5357, 2.4469 0.9791 0.522, 2.4468 0.9791 0.5357, 2.4468 0.9791 0.522, 2.4469 0.93 0.5357, 2.4468 0.93 0.5357, 2.4469 0.93 0.5761, 2.4468 0.93 0.5761, 2.4469 0.973 0.5761, 2.4468 0.973 0.5761, 2.4469 0.973 0.5899, 2.4468 0.973 0.5899, 2.4469 0.93 0.5899, 2.4468 0.93 0.5899, 2.4469 0.93 0.6283, 2.4468 0.93 0.6283, 2.4469 0.9764 0.6283, 2.4468 0.9764 0.6283, 2.4469 0.9764 0.6421, 2.4468 0.9764 0.6421, 2.4469 0.9145 0.6421, 2.4468 0.9145 0.6421, 2.4469 0.9145 0.522, 2.4468 0.9145 0.522, 2.4469 1.047 0.5353, 2.4469 1.0474 0.5353, 2.4469 1.0464 0.5491, 2.4469 1.0474 0.5558, 2.4469 1.0625 0.5772, 2.4469 1.0474 0.5568, 2.4469 1.0474 0.565, 2.4469 1.0474 0.522, 2.4469 1.0625 0.522, 2.4469 1.0089 0.5486, 2.4469 1.0097 0.552, 2.4469 0.9967 0.5587, 2.4469 1.0442 0.5437, 2.4469 1.041 0.5393, 2.4469 1.0446 0.5316, 2.4469 1.0391 0.5375, 2.4469 1.0398 0.5265, 2.4469 1.0348 0.5346, 2.4469 1.0346 0.5231, 2.4469 1.0303 0.5329, 2.4469 1.0285 0.5208, 2.4469 1.0246 0.5323, 2.4469 1.0207 0.52, 2.4469 1.0196 0.5329, 2.4469 1.0117 0.521, 2.4469 1.0162 0.5341, 2.4469 1.006 0.5232, 2.4469 1.0132 0.5362, 2.4469 1.0009 0.5267, 2.4469 1.0119 0.5375, 2.4469 0.9997 0.563, 2.4469 1.011 0.5548, 2.4469 1.0044 0.567, 2.4469 1.0128 0.5571, 2.4469 1.0109 0.5703, 2.4469 1.0146 0.5585, 2.4469 1.0181 0.5602, 2.4469 1.022 0.573, 2.4469 1.0273 0.5623, 2.4469 1.0474 0.5765, 2.4469 0.9946 0.5535, 2.4469 0.9936 0.547, 2.4469 1.0088 0.5462, 2.4469 0.9935 0.545, 2.4469 1.0092 0.5427, 2.4469 0.9943 0.5381, 2.4469 1.0102 0.54, 2.4469 0.9961 0.533, 2.4469 0.9992 0.5284, 2.4469 1.0019 0.6018, 2.4469 1.0019 0.5871, 2.4469 1.0051 0.6036, 2.4469 1.011 0.593, 2.4469 1.0163 0.6079, 2.4469 1.0204 0.5964, 2.4469 1.0315 0.6097, 2.4469 1.03 0.5975, 2.4469 1.0406 0.6089, 2.4469 1.0351 0.597, 2.4469 1.0469 0.607, 2.4469 1.0386 0.5958, 2.4469 1.0519 0.6041, 2.4469 1.0413 0.5941, 2.4469 1.0559 0.6003, 2.4469 1.0436 0.5916, 2.4469 1.059 0.5954, 2.4469 1.0453 0.5885, 2.4469 1.0613 0.5885, 2.4469 1.0469 0.5832, 2.4468 1.0315 0.6097, 2.4468 1.0163 0.6079, 2.4468 1.0051 0.6036, 2.4468 1.0019 0.6018, 2.4468 1.0019 0.5871, 2.4468 1.011 0.593, 2.4468 1.0204 0.5964, 2.4468 1.03 0.5975, 2.4468 1.0351 0.597, 2.4468 1.0386 0.5958, 2.4468 1.0413 0.5941, 2.4468 1.0436 0.5916, 2.4468 1.0453 0.5885, 2.4468 1.0469 0.5832, 2.4468 1.0474 0.5765, 2.4468 1.022 0.573, 2.4468 1.0109 0.5703, 2.4468 1.0044 0.567, 2.4468 0.9997 0.563, 2.4468 0.9967 0.5587, 2.4468 0.9946 0.5535, 2.4468 0.9936 0.547, 2.4468 0.9935 0.545, 2.4468 0.9943 0.5381, 2.4468 0.9961 0.533, 2.4468 0.9992 0.5284, 2.4468 1.0009 0.5267, 2.4468 1.0207 0.52, 2.4468 1.012 0.521, 2.4468 1.0117 0.521, 2.4468 1.006 0.5232, 2.4468 1.0285 0.5208, 2.4468 1.0289 0.521, 2.4468 1.0346 0.5231, 2.4468 1.0398 0.5265, 2.4468 1.0446 0.5316, 2.4468 1.047 0.5353, 2.4468 1.0474 0.5353, 2.4468 1.0474 0.522, 2.4468 1.0625 0.522, 2.4468 1.0625 0.5772, 2.4468 1.0613 0.5885, 2.4468 1.059 0.5954, 2.4468 1.0559 0.6003, 2.4468 1.0519 0.6041, 2.4468 1.0469 0.607, 2.4468 1.0406 0.6089, 2.4468 1.0128 0.5571, 2.4468 1.0146 0.5585, 2.4468 1.0181 0.5602, 2.4468 1.0273 0.5623, 2.4468 1.0088 0.5462, 2.4468 1.0089 0.5486, 2.4468 1.0097 0.552, 2.4468 1.011 0.5548, 2.4468 1.0132 0.5362, 2.4468 1.0119 0.5375, 2.4468 1.0102 0.54, 2.4468 1.0092 0.5427, 2.4468 1.0246 0.5323, 2.4468 1.0196 0.5329, 2.4468 1.0162 0.5341, 2.4468 1.041 0.5393, 2.4468 1.0391 0.5375, 2.4468 1.0348 0.5346, 2.4468 1.0303 0.5329, 2.4468 1.0474 0.5568, 2.4468 1.0474 0.5558, 2.4468 1.0464 0.5491, 2.4468 1.0442 0.5437, 2.4468 1.0474 0.565
            ]
        }
        coordIndex [
            0,1,2,-1,2,1,3,-1,4,0,5,-1,5,0,2,-1,6,4,7,-1,7,4,5,-1,8,6,9,-1,9,6,7,-1,10,8,11,-1,11,8,9,-1,12,10,13,-1,13,10,11,-1,14,12,15,-1,15,12,13,-1,16,14,17,-1,17,14,15,-1,18,16,19,-1,19,16,17,-1,20,18,21,-1,21,18,19,-1,22,20,23,-1,23,20,21,-1,1,22,3,-1,3,22,23,-1,22,1,0,-1,0,4,22,-1,22,4,6,-1,22,6,20,-1,16,18,14,-1,14,18,20,-1,14,20,12,-1,12,20,6,-1,12,6,10,-1,10,6,8,-1,24,25,26,-1,27,28,29,-1,29,28,30,-1,31,32,25,-1,25,32,28,-1,25,28,26,-1,26,28,27,-1,33,34,35,-1,26,36,24,-1,24,36,37,-1,24,37,38,-1,38,37,39,-1,38,39,40,-1,40,39,41,-1,40,41,42,-1,42,41,43,-1,42,43,44,-1,44,43,45,-1,44,45,46,-1,46,45,47,-1,46,47,48,-1,48,47,49,-1,48,49,50,-1,50,49,51,-1,50,51,52,-1,52,51,53,-1,35,34,54,-1,54,34,55,-1,54,55,56,-1,56,55,57,-1,56,57,58,-1,57,59,58,-1,58,59,60,-1,58,60,61,-1,61,60,62,-1,61,62,63,-1,35,64,33,-1,33,64,65,-1,33,65,66,-1,66,65,67,-1,66,67,68,-1,68,67,69,-1,68,69,70,-1,70,69,71,-1,70,71,53,-1,53,71,72,-1,53,72,52,-1,73,74,75,-1,75,74,76,-1,75,76,77,-1,77,76,78,-1,77,78,79,-1,79,78,80,-1,79,80,81,-1,81,80,82,-1,81,82,83,-1,83,82,84,-1,83,84,85,-1,85,84,86,-1,85,86,87,-1,87,86,88,-1,87,88,89,-1,89,88,90,-1,89,90,91,-1,91,90,92,-1,91,92,28,-1,28,92,63,-1,28,63,30,-1,30,63,62,-1,79,93,94,-1,79,94,77,-1,77,94,95,-1,77,95,75,-1,75,95,96,-1,75,96,73,-1,74,73,97,-1,97,73,96,-1,74,97,98,-1,74,98,76,-1,76,98,99,-1,76,99,78,-1,78,99,100,-1,78,100,80,-1,80,100,101,-1,80,101,82,-1,82,101,102,-1,82,102,84,-1,84,102,103,-1,84,103,86,-1,86,103,104,-1,86,104,88,-1,88,104,105,-1,88,105,90,-1,90,105,106,-1,90,106,92,-1,92,106,107,-1,92,107,63,-1,61,63,108,-1,108,63,107,-1,61,108,109,-1,61,109,58,-1,58,109,110,-1,58,110,56,-1,56,110,111,-1,56,111,54,-1,54,111,112,-1,54,112,35,-1,35,112,113,-1,35,113,64,-1,64,113,114,-1,64,114,65,-1,65,114,115,-1,65,115,67,-1,67,115,116,-1,67,116,69,-1,69,116,117,-1,69,117,71,-1,71,117,118,-1,71,118,72,-1,72,118,119,-1,72,119,52,-1,120,46,121,-1,121,46,48,-1,121,48,122,-1,122,48,50,-1,122,50,123,-1,123,50,52,-1,123,52,119,-1,46,120,124,-1,46,124,44,-1,44,124,125,-1,44,125,42,-1,125,126,42,-1,42,126,127,-1,42,127,40,-1,40,127,128,-1,40,128,38,-1,38,128,129,-1,38,129,24,-1,25,24,130,-1,130,24,129,-1,31,25,131,-1,131,25,130,-1,32,31,132,-1,132,31,131,-1,28,32,133,-1,133,32,132,-1,28,133,134,-1,28,134,91,-1,91,134,135,-1,91,135,89,-1,89,135,136,-1,89,136,87,-1,87,136,137,-1,87,137,85,-1,85,137,138,-1,85,138,83,-1,83,138,139,-1,83,139,81,-1,81,139,93,-1,81,93,79,-1,57,140,141,-1,57,141,59,-1,59,141,142,-1,59,142,60,-1,60,142,143,-1,60,143,62,-1,66,144,145,-1,66,145,33,-1,33,145,146,-1,33,146,34,-1,34,146,147,-1,34,147,55,-1,55,147,140,-1,55,140,57,-1,51,148,149,-1,51,149,53,-1,53,149,150,-1,53,150,70,-1,70,150,151,-1,70,151,68,-1,68,151,144,-1,68,144,66,-1,45,152,153,-1,45,153,47,-1,47,153,154,-1,47,154,49,-1,49,154,148,-1,49,148,51,-1,37,155,156,-1,37,156,39,-1,39,156,157,-1,39,157,41,-1,41,157,158,-1,41,158,43,-1,43,158,152,-1,43,152,45,-1,29,159,160,-1,29,160,27,-1,27,160,161,-1,27,161,26,-1,26,161,162,-1,26,162,36,-1,36,162,155,-1,36,155,37,-1,29,30,159,-1,159,30,163,-1,30,62,163,-1,163,62,143,-1,
        ]
    }
}
Shape{
    appearance Appearance {
        material  Material 	{
            diffuseColor 1.0 1.0 1.0
            specularColor 0.5019607843137255 0.5019607843137255 0.5019607843137255
            ambientIntensity 1.0
            transparency 0.0
            shininess 0.5
        }
    }
    geometry IndexedFaceSet {
        ccw TRUE
        solid FALSE
        coord DEF co Coordinate {
            point [
                2.4468 1.0474 0.5558, 2.4468 1.0474 0.5568, 2.4468 1.0128 0.5571, 2.4468 1.0474 0.565, 2.4468 1.0273 0.5623, 2.4468 1.0181 0.5602, 2.4468 1.0146 0.5585, 2.4468 1.0464 0.5491, 2.4468 1.011 0.5548, 2.4468 1.0442 0.5437, 2.4468 1.0119 0.5375, 2.4468 1.0132 0.5362, 2.4468 1.0391 0.5375, 2.4468 1.0102 0.54, 2.4468 1.0348 0.5346, 2.4468 1.0303 0.5329, 2.4468 1.0246 0.5323, 2.4468 1.0097 0.552, 2.4468 1.0089 0.5486, 2.4468 1.041 0.5393, 2.4468 1.0088 0.5462, 2.4468 1.0092 0.5427, 2.4468 1.0162 0.5341, 2.4468 1.0196 0.5329
            ]
        }
        coordIndex [
            0,1,2,-1,1,3,4,-1,4,5,1,-1,1,5,6,-1,1,6,2,-1,0,2,7,-1,7,2,8,-1,7,8,9,-1,10,11,12,-1,10,12,13,-1,14,12,15,-1,15,12,16,-1,8,17,9,-1,9,17,18,-1,9,18,19,-1,19,18,20,-1,19,20,12,-1,12,20,21,-1,12,21,13,-1,11,22,12,-1,12,22,23,-1,12,23,16,-1,
        ]
    }
}
Shape{
    appearance Appearance {
        material  Material 	{
            diffuseColor 0.0 0.0 0.0
            specularColor 0.0 0.0 0.0
            ambientIntensity 0.0
            transparency 0.0
            shininess 0.5
        }
    }
    geometry IndexedFaceSet {
        ccw TRUE
        solid FALSE
        coord DEF co Coordinate {
            point [
                2.4468 1.0828 0.5405, 2.4469 1.0828 0.5405, 2.4469 1.0887 0.5369, 2.4469 1.1076 0.5323, 2.4468 1.1076 0.5323, 2.4468 1.0981 0.5334, 2.4469 1.0981 0.5334, 2.4468 1.0898 0.5365, 2.4468 1.0887 0.5369, 2.4469 1.0828 0.525, 2.4468 1.0828 0.525, 2.4469 1.0922 0.5216, 2.4468 1.0898 0.5225, 2.4468 1.1061 0.52, 2.4469 1.1061 0.52, 2.4468 1.0973 0.521, 2.4468 1.0922 0.5216, 2.4469 1.1177 0.5211, 2.4468 1.1164 0.521, 2.4468 1.1177 0.5211, 2.4468 1.1261 0.5239, 2.4469 1.1261 0.5239, 2.4468 1.1311 0.5268, 2.4469 1.1311 0.5268, 2.4468 1.1354 0.5306, 2.4469 1.1354 0.5306, 2.4468 1.1382 0.5345, 2.4469 1.1382 0.5345, 2.4468 1.1401 0.5393, 2.4469 1.1401 0.5393, 2.4468 1.1408 0.5453, 2.4469 1.1408 0.5453, 2.4468 1.1402 0.5509, 2.4469 1.1402 0.5509, 2.4468 1.1386 0.5554, 2.4469 1.1386 0.5554, 2.4468 1.1357 0.5595, 2.4469 1.1357 0.5595, 2.4468 1.1322 0.5627, 2.4469 1.1322 0.5627, 2.4468 1.1222 0.5683, 2.4469 1.1222 0.5683, 2.4468 1.1163 0.5706, 2.4469 1.1163 0.5706, 2.4468 1.107 0.5747, 2.4469 1.107 0.5747, 2.4468 1.1017 0.578, 2.4469 1.1017 0.578, 2.4468 1.1003 0.5796, 2.4469 1.1003 0.5796, 2.4468 1.0992 0.5816, 2.4469 1.0992 0.5816, 2.4468 1.0986 0.584, 2.4469 1.0986 0.584, 2.4468 1.0984 0.586, 2.4469 1.0984 0.586, 2.4468 1.0987 0.5884, 2.4469 1.0987 0.5884, 2.4468 1.0995 0.5904, 2.4469 1.0995 0.5904, 2.4468 1.1007 0.5923, 2.4469 1.1007 0.5923, 2.4468 1.103 0.5943, 2.4469 1.103 0.5943, 2.4468 1.1064 0.5961, 2.4469 1.1064 0.5961, 2.4468 1.1104 0.5972, 2.4469 1.1104 0.5972, 2.4468 1.1149 0.5975, 2.4469 1.1149 0.5975, 2.4468 1.1247 0.5964, 2.4469 1.1247 0.5964, 2.4468 1.1332 0.5933, 2.4469 1.1332 0.5933, 2.4468 1.1367 0.5913, 2.4469 1.1367 0.5913, 2.4469 1.1367 0.6059, 2.4468 1.1367 0.6059, 2.4468 1.1267 0.6088, 2.4469 1.1267 0.6088, 2.4468 1.1163 0.6097, 2.4469 1.1163 0.6097, 2.4468 1.1056 0.6086, 2.4469 1.1056 0.6086, 2.4468 1.0973 0.6057, 2.4469 1.0973 0.6057, 2.4468 1.0926 0.6029, 2.4469 1.0926 0.6029, 2.4469 1.0881 0.5989, 2.4468 1.0898 0.6004, 2.4468 1.0881 0.5989, 2.4468 1.0853 0.5949, 2.4469 1.0853 0.5949, 2.4468 1.0835 0.59, 2.4469 1.0835 0.59, 2.4468 1.0829 0.5846, 2.4469 1.0829 0.5846, 2.4468 1.0836 0.5788, 2.4469 1.0836 0.5788, 2.4468 1.0852 0.5742, 2.4469 1.0852 0.5742, 2.4468 1.0872 0.5711, 2.4469 1.0872 0.5711, 2.4468 1.1057 0.5597, 2.4469 1.1057 0.5597, 2.4469 1.0968 0.5638, 2.4468 1.0897 0.5685, 2.4469 1.0897 0.5685, 2.4468 1.0898 0.5684, 2.4468 1.0968 0.5638, 2.4468 1.1156 0.5556, 2.4469 1.1156 0.5556, 2.4468 1.1215 0.552, 2.4469 1.1215 0.552, 2.4468 1.1233 0.5501, 2.4469 1.1233 0.5501, 2.4468 1.1245 0.5481, 2.4469 1.1245 0.5481, 2.4468 1.1252 0.5457, 2.4469 1.1252 0.5457, 2.4468 1.1253 0.5439, 2.4469 1.1253 0.5439, 2.4468 1.125 0.541, 2.4469 1.125 0.541, 2.4468 1.1243 0.5389, 2.4469 1.1243 0.5389, 2.4468 1.123 0.5369, 2.4469 1.123 0.5369, 2.4468 1.1212 0.5354, 2.4469 1.1212 0.5354, 2.4468 1.1199 0.5345, 2.4469 1.1199 0.5345, 2.4468 1.116 0.5331, 2.4469 1.116 0.5331, 2.4468 1.1083 0.5323, 2.4469 1.1083 0.5323, 2.4469 1.2154 0.6078, 2.4469 1.231 0.6078, 2.4468 1.2154 0.6078, 2.4468 1.231 0.6078, 2.4469 1.1919 0.5432, 2.4468 1.1919 0.5432, 2.4468 1.1908 0.5392, 2.4469 1.1908 0.5392, 2.4468 1.1901 0.5362, 2.4469 1.1901 0.5362, 2.4469 1.1897 0.5362, 2.4468 1.1897 0.5362, 2.4469 1.1878 0.5433, 2.4468 1.1878 0.5433, 2.4468 1.1654 0.6078, 2.4469 1.1654 0.6078, 2.4468 1.1727 0.5869, 2.4469 1.1486 0.6078, 2.4468 1.1486 0.6078, 2.4468 1.1823 0.5222, 2.4469 1.1823 0.5222, 2.4468 1.1727 0.5465, 2.4468 1.1757 0.5066, 2.4469 1.1757 0.5066, 2.4468 1.1818 0.521, 2.4469 1.1727 0.5011, 2.4468 1.1727 0.5012, 2.4468 1.1727 0.5011, 2.4468 1.1699 0.498, 2.4469 1.1699 0.498, 2.4468 1.1673 0.4962, 2.4469 1.1673 0.4962, 2.4468 1.164 0.4949, 2.4469 1.164 0.4949, 2.4468 1.1602 0.4945, 2.4469 1.1602 0.4945, 2.4468 1.1548 0.4952, 2.4469 1.1548 0.4952, 2.4468 1.1517 0.4962, 2.4469 1.1517 0.4962, 2.4469 1.1517 0.4828, 2.4468 1.1517 0.4828, 2.4468 1.1581 0.4817, 2.4469 1.1581 0.4817, 2.4468 1.1614 0.4816, 2.4469 1.1614 0.4816, 2.4468 1.1675 0.4823, 2.4469 1.1675 0.4823, 2.4468 1.1727 0.4843, 2.4469 1.1734 0.4846, 2.4468 1.1734 0.4846, 2.4468 1.1787 0.4882, 2.4469 1.1787 0.4882, 2.4468 1.1797 0.4892, 2.4469 1.1797 0.4892, 2.4468 1.1852 0.4958, 2.4469 1.1852 0.4958, 2.4468 1.192 0.509, 2.4469 1.192 0.509, 2.4468 1.1967 0.521, 2.4469 1.3118 0.5357, 2.4469 1.3118 0.522, 2.4468 1.3118 0.5357, 2.4468 1.3118 0.522, 2.4468 1.2627 0.5357, 2.4469 1.2627 0.5357, 2.4468 1.2852 0.5357, 2.4469 1.2627 0.5761, 2.4468 1.2627 0.5761, 2.4468 1.3056 0.5761, 2.4469 1.3056 0.5761, 2.4468 1.2852 0.5761, 2.4469 1.3056 0.5899, 2.4468 1.3056 0.5899, 2.4468 1.2627 0.5899, 2.4469 1.2627 0.5899, 2.4468 1.2852 0.5899, 2.4469 1.2627 0.6283, 2.4468 1.2627 0.6283, 2.4468 1.309 0.6283, 2.4469 1.309 0.6283, 2.4468 1.2852 0.6283, 2.4469 1.309 0.6421, 2.4468 1.309 0.6421, 2.4468 1.2472 0.6421, 2.4469 1.2472 0.6421, 2.4468 1.2852 0.6421, 2.4469 1.2472 0.522, 2.4468 1.2472 0.522, 2.4468 1.2852 0.522, 2.4469 1.4141 0.5388, 2.4469 1.4017 0.5469, 2.4469 1.4015 0.5298, 2.4469 1.3939 0.5415, 2.4469 1.3878 0.5245, 2.4469 1.384 0.5377, 2.4469 1.3675 0.522, 2.4469 1.3674 0.5357, 2.4469 1.3344 0.522, 2.4469 1.35 0.5357, 2.4469 1.3344 0.6421, 2.4469 1.35 0.6283, 2.4469 1.3687 0.6421, 2.4469 1.3681 0.6283, 2.4469 1.3689 0.6283, 2.4469 1.3871 0.6401, 2.4469 1.3844 0.6264, 2.4469 1.4015 0.6348, 2.4469 1.3947 0.6225, 2.4469 1.4141 0.6262, 2.4469 1.4028 0.617, 2.4469 1.4184 0.622, 2.4469 1.4061 0.6136, 2.4469 1.4258 0.6115, 2.4469 1.4108 0.6069, 2.4469 1.4302 0.6001, 2.4469 1.4142 0.5981, 2.4469 1.4322 0.5836, 2.4469 1.4159 0.5832, 2.4469 1.4319 0.5759, 2.4469 1.4155 0.5752, 2.4469 1.429 0.5619, 2.4469 1.4131 0.5643, 2.4469 1.423 0.5494, 2.4469 1.4089 0.5554, 2.4469 1.4031 0.5482, 2.4468 1.3675 0.522, 2.4468 1.3344 0.522, 2.4468 1.3878 0.5245, 2.4468 1.4015 0.5298, 2.4468 1.4141 0.5388, 2.4468 1.423 0.5494, 2.4468 1.429 0.5619, 2.4468 1.4319 0.5759, 2.4468 1.4322 0.5836, 2.4468 1.4302 0.6001, 2.4468 1.4258 0.6115, 2.4468 1.4184 0.622, 2.4468 1.4141 0.6262, 2.4468 1.4015 0.6348, 2.4468 1.3871 0.6401, 2.4468 1.3687 0.6421, 2.4468 1.3344 0.6421, 2.4468 1.3681 0.6283, 2.4468 1.35 0.6283, 2.4468 1.35 0.5357, 2.4468 1.3674 0.5357, 2.4468 1.4031 0.5482, 2.4468 1.4017 0.5469, 2.4468 1.3939 0.5415, 2.4468 1.384 0.5377, 2.4468 1.4159 0.5832, 2.4468 1.4155 0.5752, 2.4468 1.4131 0.5643, 2.4468 1.4089 0.5554, 2.4468 1.4028 0.617, 2.4468 1.4061 0.6136, 2.4468 1.4108 0.6069, 2.4468 1.4142 0.5981, 2.4468 1.3689 0.6283, 2.4468 1.3844 0.6264, 2.4468 1.3947 0.6225
            ]
        }
        coordIndex [
            0,1,2,-1,3,4,5,-1,3,5,6,-1,6,5,7,-1,6,7,2,-1,2,7,8,-1,2,8,0,-1,9,1,10,-1,10,1,0,-1,11,9,12,-1,12,9,10,-1,13,14,15,-1,15,14,11,-1,15,11,16,-1,16,11,12,-1,17,14,18,-1,18,14,13,-1,18,19,17,-1,17,19,20,-1,17,20,21,-1,21,20,22,-1,21,22,23,-1,23,22,24,-1,23,24,25,-1,25,24,26,-1,25,26,27,-1,27,26,28,-1,27,28,29,-1,29,28,30,-1,29,30,31,-1,31,30,32,-1,31,32,33,-1,33,32,34,-1,33,34,35,-1,35,34,36,-1,35,36,37,-1,37,36,38,-1,37,38,39,-1,39,38,40,-1,39,40,41,-1,41,40,42,-1,41,42,43,-1,43,42,44,-1,43,44,45,-1,45,44,46,-1,45,46,47,-1,47,46,48,-1,47,48,49,-1,49,48,50,-1,49,50,51,-1,51,50,52,-1,51,52,53,-1,53,52,54,-1,53,54,55,-1,55,54,56,-1,55,56,57,-1,57,56,58,-1,57,58,59,-1,59,58,60,-1,59,60,61,-1,61,60,62,-1,61,62,63,-1,63,62,64,-1,63,64,65,-1,65,64,66,-1,65,66,67,-1,67,66,68,-1,67,68,69,-1,69,68,70,-1,69,70,71,-1,71,70,72,-1,71,72,73,-1,73,72,74,-1,73,74,75,-1,76,75,77,-1,77,75,74,-1,76,77,78,-1,76,78,79,-1,79,78,80,-1,79,80,81,-1,81,80,82,-1,81,82,83,-1,83,82,84,-1,83,84,85,-1,85,84,86,-1,85,86,87,-1,88,87,89,-1,89,87,86,-1,89,90,88,-1,88,90,91,-1,88,91,92,-1,92,91,93,-1,92,93,94,-1,94,93,95,-1,94,95,96,-1,96,95,97,-1,96,97,98,-1,98,97,99,-1,98,99,100,-1,100,99,101,-1,100,101,102,-1,103,104,105,-1,102,101,106,-1,102,106,107,-1,107,106,108,-1,107,108,105,-1,105,108,109,-1,105,109,103,-1,104,103,110,-1,104,110,111,-1,111,110,112,-1,111,112,113,-1,113,112,114,-1,113,114,115,-1,115,114,116,-1,115,116,117,-1,117,116,118,-1,117,118,119,-1,119,118,120,-1,119,120,121,-1,121,120,122,-1,121,122,123,-1,123,122,124,-1,123,124,125,-1,125,124,126,-1,125,126,127,-1,127,126,128,-1,127,128,129,-1,129,128,130,-1,129,130,131,-1,131,130,132,-1,131,132,133,-1,133,132,134,-1,133,134,135,-1,135,134,4,-1,135,4,3,-1,61,63,85,-1,85,63,83,-1,45,104,43,-1,43,104,111,-1,43,111,41,-1,14,3,11,-1,11,3,6,-1,11,6,9,-1,9,6,2,-1,9,2,1,-1,63,65,83,-1,83,65,67,-1,83,67,81,-1,81,67,69,-1,81,69,79,-1,79,69,71,-1,79,71,76,-1,76,71,73,-1,76,73,75,-1,41,111,39,-1,39,111,113,-1,39,113,37,-1,37,113,115,-1,37,115,35,-1,35,115,117,-1,35,117,33,-1,33,117,119,-1,33,119,31,-1,31,119,121,-1,31,121,29,-1,29,121,123,-1,29,123,27,-1,27,123,125,-1,27,125,25,-1,25,125,127,-1,25,127,23,-1,23,127,129,-1,23,129,21,-1,21,129,131,-1,21,131,17,-1,17,131,133,-1,17,133,14,-1,14,133,135,-1,14,135,3,-1,85,87,61,-1,61,87,88,-1,61,88,59,-1,59,88,92,-1,59,92,57,-1,57,92,94,-1,57,94,55,-1,55,94,96,-1,55,96,53,-1,53,96,98,-1,53,98,51,-1,51,98,100,-1,51,100,49,-1,49,100,102,-1,49,102,47,-1,47,102,107,-1,47,107,45,-1,45,107,105,-1,45,105,104,-1,136,137,138,-1,138,137,139,-1,140,136,141,-1,141,136,138,-1,140,141,142,-1,140,142,143,-1,143,142,144,-1,143,144,145,-1,146,145,147,-1,147,145,144,-1,148,146,149,-1,149,146,147,-1,150,151,152,-1,152,151,148,-1,152,148,149,-1,153,151,154,-1,154,151,150,-1,155,156,157,-1,157,156,153,-1,157,153,154,-1,158,159,160,-1,160,159,156,-1,160,156,155,-1,159,158,161,-1,161,158,162,-1,162,163,161,-1,161,163,164,-1,161,164,165,-1,165,164,166,-1,165,166,167,-1,167,166,168,-1,167,168,169,-1,169,168,170,-1,169,170,171,-1,171,170,172,-1,171,172,173,-1,173,172,174,-1,173,174,175,-1,176,175,177,-1,177,175,174,-1,176,177,178,-1,176,178,179,-1,179,178,180,-1,179,180,181,-1,181,180,182,-1,181,182,183,-1,183,182,184,-1,183,184,185,-1,184,186,185,-1,185,186,187,-1,185,187,188,-1,188,187,189,-1,188,189,190,-1,190,189,191,-1,190,191,192,-1,192,191,193,-1,192,193,194,-1,139,137,195,-1,195,137,194,-1,195,194,193,-1,143,145,194,-1,137,136,194,-1,194,136,140,-1,194,140,143,-1,151,153,148,-1,148,153,156,-1,148,156,146,-1,175,176,173,-1,173,176,179,-1,173,179,171,-1,171,179,181,-1,171,181,169,-1,169,181,183,-1,169,183,167,-1,167,183,185,-1,167,185,165,-1,145,146,194,-1,194,146,156,-1,194,156,192,-1,156,159,192,-1,192,159,161,-1,192,161,190,-1,190,161,165,-1,190,165,188,-1,188,165,185,-1,196,197,198,-1,198,197,199,-1,200,201,202,-1,202,201,196,-1,202,196,198,-1,203,201,204,-1,204,201,200,-1,205,206,207,-1,207,206,203,-1,207,203,204,-1,208,206,209,-1,209,206,205,-1,210,211,212,-1,212,211,208,-1,212,208,209,-1,213,211,214,-1,214,211,210,-1,215,216,217,-1,217,216,213,-1,217,213,214,-1,218,216,219,-1,219,216,215,-1,220,221,222,-1,222,221,218,-1,222,218,219,-1,223,221,224,-1,224,221,220,-1,199,197,225,-1,225,197,223,-1,225,223,224,-1,223,197,196,-1,196,201,223,-1,223,201,203,-1,223,203,221,-1,216,218,213,-1,213,218,221,-1,213,221,211,-1,211,221,203,-1,211,203,208,-1,208,203,206,-1,226,227,228,-1,228,227,229,-1,228,229,230,-1,230,229,231,-1,230,231,232,-1,232,231,233,-1,232,233,234,-1,234,233,235,-1,234,235,236,-1,236,235,237,-1,236,237,238,-1,237,239,238,-1,238,239,240,-1,238,240,241,-1,241,240,242,-1,241,242,243,-1,243,242,244,-1,243,244,245,-1,245,244,246,-1,245,246,247,-1,247,246,248,-1,247,248,249,-1,249,248,250,-1,249,250,251,-1,251,250,252,-1,251,252,253,-1,253,252,254,-1,253,254,255,-1,255,254,256,-1,255,256,257,-1,257,256,258,-1,257,258,259,-1,259,258,260,-1,259,260,226,-1,226,260,261,-1,226,261,227,-1,232,234,262,-1,262,234,263,-1,232,262,264,-1,232,264,230,-1,230,264,265,-1,230,265,228,-1,228,265,266,-1,228,266,226,-1,226,266,267,-1,226,267,259,-1,259,267,268,-1,259,268,257,-1,257,268,269,-1,257,269,255,-1,255,269,270,-1,255,270,253,-1,253,270,271,-1,253,271,251,-1,251,271,272,-1,251,272,249,-1,249,272,273,-1,249,273,247,-1,247,273,274,-1,247,274,245,-1,245,274,275,-1,245,275,243,-1,243,275,276,-1,243,276,241,-1,241,276,277,-1,241,277,238,-1,236,238,278,-1,278,238,277,-1,234,236,263,-1,263,236,278,-1,239,237,279,-1,279,237,280,-1,237,235,280,-1,280,235,281,-1,235,233,281,-1,281,233,282,-1,261,283,284,-1,261,284,227,-1,227,284,285,-1,227,285,229,-1,229,285,286,-1,229,286,231,-1,231,286,282,-1,231,282,233,-1,254,287,288,-1,254,288,256,-1,256,288,289,-1,256,289,258,-1,258,289,290,-1,258,290,260,-1,260,290,283,-1,260,283,261,-1,246,291,292,-1,246,292,248,-1,248,292,293,-1,248,293,250,-1,250,293,294,-1,250,294,252,-1,252,294,287,-1,252,287,254,-1,239,279,295,-1,239,295,240,-1,240,295,296,-1,240,296,242,-1,242,296,297,-1,242,297,244,-1,244,297,291,-1,244,291,246,-1,
        ]
    }
}
Shape{
    appearance Appearance {
        material  Material 	{
            diffuseColor 1.0 1.0 1.0
            specularColor 0.5019607843137255 0.5019607843137255 0.5019607843137255
            ambientIntensity 1.0
            transparency 0.0
            shininess 0.5
        }
    }
    geometry IndexedFaceSet {
        ccw TRUE
        solid FALSE
        coord DEF co Coordinate {
            point [
                2.4468 1.3939 0.5415, 2.4468 1.4017 0.5469, 2.4468 1.3689 0.6283, 2.4468 1.35 0.6283, 2.4468 1.35 0.5357, 2.4468 1.3681 0.6283, 2.4468 1.3674 0.5357, 2.4468 1.384 0.5377, 2.4468 1.4031 0.5482, 2.4468 1.4089 0.5554, 2.4468 1.4131 0.5643, 2.4468 1.4159 0.5832, 2.4468 1.4028 0.617, 2.4468 1.3947 0.6225, 2.4468 1.4142 0.5981, 2.4468 1.4108 0.6069, 2.4468 1.4061 0.6136, 2.4468 1.4155 0.5752, 2.4468 1.3844 0.6264
            ]
        }
        coordIndex [
            0,1,2,-1,3,4,5,-1,5,4,6,-1,5,6,2,-1,2,6,7,-1,2,7,0,-1,1,8,2,-1,2,8,9,-1,2,9,10,-1,11,12,13,-1,14,15,11,-1,11,15,16,-1,11,16,12,-1,10,17,2,-1,2,17,11,-1,2,11,18,-1,18,11,13,-1,
        ]
    }
}
Shape{
    appearance Appearance {
        material  Material 	{
            diffuseColor 0.0 0.0 0.0
            specularColor 0.0 0.0 0.0
            ambientIntensity 0.0
            transparency 0.0
            shininess 0.5
        }
    }
    geometry IndexedFaceSet {
        ccw TRUE
        solid FALSE
        coord DEF co Coordinate {
            point [
                2.4469 1.4725 0.5684, 2.4469 1.4676 0.5549, 2.4469 1.5128 0.5684, 2.4469 1.5176 0.5549, 2.4469 1.4904 0.6183, 2.4469 1.4846 0.6421, 2.4469 1.4389 0.522, 2.4469 1.456 0.522, 2.4469 1.4915 0.6219, 2.4469 1.4924 0.6268, 2.4469 1.5012 0.6421, 2.4469 1.4928 0.6268, 2.4469 1.4937 0.6217, 2.4469 1.4946 0.6183, 2.4469 1.547 0.522, 2.4469 1.5298 0.522, 2.4468 1.5012 0.6421, 2.4468 1.547 0.522, 2.4468 1.4846 0.6421, 2.4468 1.4389 0.522, 2.4468 1.456 0.522, 2.4468 1.4676 0.5549, 2.4468 1.5176 0.5549, 2.4468 1.5298 0.522, 2.4468 1.4725 0.5684, 2.4468 1.5128 0.5684, 2.4468 1.4946 0.6183, 2.4468 1.4928 0.6268, 2.4468 1.4937 0.6217, 2.4468 1.4924 0.6268, 2.4468 1.4904 0.6183, 2.4468 1.4915 0.6219
            ]
        }
        coordIndex [
            0,1,2,-1,2,1,3,-1,4,5,0,-1,0,5,6,-1,0,6,1,-1,1,6,7,-1,4,8,5,-1,5,8,9,-1,5,9,10,-1,10,9,11,-1,10,11,12,-1,12,13,10,-1,10,13,2,-1,10,2,14,-1,14,2,3,-1,14,3,15,-1,10,14,16,-1,16,14,17,-1,5,10,18,-1,18,10,16,-1,6,5,19,-1,19,5,18,-1,7,6,20,-1,20,6,19,-1,1,7,21,-1,21,7,20,-1,3,1,22,-1,22,1,21,-1,15,3,23,-1,23,3,22,-1,14,15,17,-1,17,15,23,-1,0,2,24,-1,24,2,25,-1,2,13,25,-1,25,13,26,-1,11,27,28,-1,11,28,12,-1,12,28,26,-1,12,26,13,-1,11,9,27,-1,27,9,29,-1,4,30,31,-1,4,31,8,-1,8,31,29,-1,8,29,9,-1,4,0,30,-1,30,0,24,-1,
        ]
    }
}
Shape{
    appearance Appearance {
        material  Material 	{
            diffuseColor 1.0 1.0 1.0
            specularColor 0.5019607843137255 0.5019607843137255 0.5019607843137255
            ambientIntensity 1.0
            transparency 0.0
            shininess 0.5
        }
    }
    geometry IndexedFaceSet {
        ccw TRUE
        solid FALSE
        coord DEF co Coordinate {
            point [
                2.4468 1.4928 0.6268, 2.4468 1.4924 0.6268, 2.4468 1.4937 0.6217, 2.4468 1.4915 0.6219, 2.4468 1.4946 0.6183, 2.4468 1.4904 0.6183, 2.4468 1.5128 0.5684, 2.4468 1.4725 0.5684
            ]
        }
        coordIndex [
            0,1,2,-1,2,1,3,-1,2,3,4,-1,4,3,5,-1,4,5,6,-1,6,5,7,-1,
        ]
    }
}
Shape{
    appearance Appearance {
        material  Material 	{
            diffuseColor 0.0 0.0 0.0
            specularColor 0.0 0.0 0.0
            ambientIntensity 0.0
            transparency 0.0
            shininess 0.5
        }
    }
    geometry IndexedFaceSet {
        ccw TRUE
        solid FALSE
        coord DEF co Coordinate {
            point [
                2.4469 0.3616 0.7289, 2.4469 0.3806 0.739, 2.4469 0.3761 0.7915, 2.4469 0.5265 0.5016, 2.4469 0.5366 0.5206, 2.4469 0.5416 0.5417, 2.4469 0.4294 0.794, 2.4469 0.4558 0.7316, 2.4469 0.4689 0.7587, 2.4469 0.4243 0.5391, 2.4469 0.4226 0.5471, 2.4469 0.3764 0.5805, 2.4469 0.3756 0.5233, 2.4469 0.3648 0.5265, 2.4469 0.3578 0.592, 2.4469 0.4097 0.7957, 2.4469 0.6616 0.6223, 2.4469 0.6351 0.6676, 2.4469 0.5421 0.5592, 2.4469 0.5207 0.6078, 2.4469 0.5421 0.5506, 2.4469 0.4964 0.4751, 2.4469 0.5134 0.4869, 2.4469 0.4865 0.5627, 2.4469 0.4887 0.5549, 2.4469 0.489 0.5466, 2.4469 0.4871 0.5383, 2.4469 0.4833 0.5309, 2.4469 0.4277 0.5319, 2.4469 0.3968 0.4893, 2.4469 0.3841 0.505, 2.4469 0.6898 0.7069, 2.4469 0.6966 0.7069, 2.4469 0.7316 0.753, 2.4469 0.7129 0.7049, 2.4469 0.7358 0.7516, 2.4469 0.7278 0.6991, 2.4469 0.7613 0.739, 2.4469 0.7844 0.7194, 2.4469 0.4469 0.8144, 2.4469 0.488 0.7815, 2.4469 0.4669 0.8316, 2.4469 0.5109 0.7983, 2.4469 0.4904 0.8458, 2.4469 0.4017 0.744, 2.4469 0.4106 0.7445, 2.4469 0.4195 0.7952, 2.4469 0.4306 0.742, 2.4469 0.4497 0.735, 2.4469 0.4781 0.525, 2.4469 0.4716 0.5204, 2.4469 0.4774 0.4678, 2.4469 0.4642 0.5175, 2.4469 0.4567 0.4652, 2.4469 0.4558 0.5165, 2.4469 0.4534 0.4653, 2.4469 0.4544 0.5165, 2.4469 0.4332 0.4684, 2.4469 0.4467 0.5177, 2.4469 0.4135 0.4767, 2.4469 0.439 0.5211, 2.4469 0.4324 0.5261, 2.4469 0.7846 0.56, 2.4469 0.7448 0.5939, 2.4469 0.7613 0.5403, 2.4469 0.7322 0.5836, 2.4469 0.7353 0.5276, 2.4469 0.7171 0.5766, 2.4469 0.7069 0.5216, 2.4469 0.7018 0.5737, 2.4469 0.6565 0.5216, 2.4469 0.6633 0.5737, 2.4469 0.6517 0.5224, 2.4469 0.741 0.6899, 2.4469 0.7509 0.6789, 2.4469 0.8018 0.6951, 2.4469 0.7588 0.6642, 2.4469 0.8123 0.669, 2.4469 0.7628 0.6478, 2.4469 0.8162 0.6411, 2.4469 0.7632 0.6403, 2.4469 0.8123 0.6107, 2.4469 0.7612 0.6236, 2.4469 0.8015 0.5836, 2.4469 0.7553 0.6084, 2.4469 0.7459 0.5951, 2.4469 0.6855 0.8205, 2.4469 0.6521 0.7812, 2.4469 0.7146 0.7866, 2.4469 0.6714 0.7582, 2.4469 0.6846 0.7307, 2.4469 0.3277 0.6797, 2.4469 0.2716 0.6656, 2.4469 0.3252 0.6591, 2.4469 0.2714 0.6574, 2.4469 0.3262 0.6459, 2.4469 0.2755 0.6239, 2.4469 0.3323 0.625, 2.4469 0.2877 0.5921, 2.4469 0.3425 0.6077, 2.4469 0.3072 0.5643, 2.4469 0.3339 0.5415, 2.4469 0.423 0.5554, 2.4469 0.4255 0.5635, 2.4469 0.3858 0.5989, 2.4469 0.4298 0.5706, 2.4469 0.4 0.615, 2.4469 0.4334 0.5744, 2.4469 0.4174 0.6271, 2.4469 0.4401 0.5791, 2.4469 0.4363 0.6344, 2.4469 0.4475 0.582, 2.4469 0.4567 0.6369, 2.4469 0.4558 0.5831, 2.4469 0.4671 0.6362, 2.4469 0.4618 0.5825, 2.4469 0.4877 0.6311, 2.4469 0.4699 0.5799, 2.4469 0.5058 0.6214, 2.4469 0.4769 0.5755, 2.4469 0.4826 0.5696, 2.4469 0.5299 0.8603, 2.4469 0.5388 0.8096, 2.4469 0.5694 0.8649, 2.4469 0.5702 0.8136, 2.4469 0.6089 0.8602, 2.4469 0.5992 0.8101, 2.4469 0.6513 0.844, 2.4469 0.626 0.7998, 2.4469 0.65 0.7832, 2.4469 0.3444 0.7793, 2.4469 0.3173 0.7602, 2.4469 0.3469 0.7158, 2.4469 0.3115 0.7547, 2.4469 0.335 0.6988, 2.4469 0.291 0.7284, 2.4469 0.2774 0.6977, 2.4469 0.659 0.5745, 2.4469 0.6385 0.5305, 2.4469 0.6405 0.5285, 2.4469 0.6616 0.5739, 2.4469 0.646 0.5246, 2.4469 0.6317 0.5481, 2.4469 0.6325 0.5417, 2.4469 0.6348 0.5359, 2.4469 0.6516 0.5737, 2.4469 0.6457 0.5714, 2.4469 0.6319 0.5514, 2.4469 0.6405 0.5676, 2.4469 0.6369 0.5638, 2.4469 0.6337 0.5579, 2.4469 0.6582 0.5745, 2.4468 0.8162 0.6411, 2.4468 0.8123 0.669, 2.4468 0.8094 0.6763, 2.4468 0.8018 0.6951, 2.4468 0.79 0.7115, 2.4468 0.7844 0.7194, 2.4468 0.7613 0.739, 2.4468 0.7358 0.7516, 2.4468 0.7316 0.753, 2.4468 0.7146 0.7866, 2.4468 0.6855 0.8205, 2.4468 0.6664 0.8337, 2.4468 0.6513 0.844, 2.4468 0.6089 0.8602, 2.4468 0.5694 0.8649, 2.4468 0.4669 0.8316, 2.4468 0.4704 0.8337, 2.4468 0.4904 0.8458, 2.4468 0.5299 0.8603, 2.4468 0.4469 0.8144, 2.4468 0.4294 0.794, 2.4468 0.4195 0.7952, 2.4468 0.4097 0.7957, 2.4468 0.3761 0.7915, 2.4468 0.3444 0.7793, 2.4468 0.3173 0.7602, 2.4468 0.3115 0.7547, 2.4468 0.2714 0.6574, 2.4468 0.291 0.7284, 2.4468 0.2835 0.7115, 2.4468 0.2774 0.6977, 2.4468 0.2735 0.6763, 2.4468 0.2716 0.6656, 2.4468 0.2755 0.6239, 2.4468 0.2877 0.5921, 2.4468 0.3072 0.5643, 2.4468 0.3339 0.5415, 2.4468 0.3648 0.5265, 2.4468 0.3756 0.5233, 2.4468 0.3766 0.521, 2.4468 0.3841 0.505, 2.4468 0.3968 0.4893, 2.4468 0.4135 0.4767, 2.4468 0.4214 0.4734, 2.4468 0.4332 0.4684, 2.4468 0.4534 0.4653, 2.4468 0.4567 0.4652, 2.4468 0.5421 0.5506, 2.4468 0.4774 0.4678, 2.4468 0.492 0.4734, 2.4468 0.4964 0.4751, 2.4468 0.5134 0.4869, 2.4468 0.5265 0.5016, 2.4468 0.5366 0.5206, 2.4468 0.5367 0.521, 2.4468 0.5416 0.5417, 2.4468 0.5421 0.5592, 2.4468 0.6616 0.6223, 2.4468 0.6351 0.6676, 2.4468 0.5207 0.6078, 2.4468 0.5058 0.6214, 2.4468 0.4877 0.6311, 2.4468 0.4671 0.6362, 2.4468 0.4567 0.6369, 2.4468 0.4363 0.6344, 2.4468 0.4174 0.6271, 2.4468 0.4 0.615, 2.4468 0.3858 0.5989, 2.4468 0.3764 0.5805, 2.4468 0.3578 0.592, 2.4468 0.3425 0.6077, 2.4468 0.3323 0.625, 2.4468 0.3262 0.6459, 2.4468 0.3252 0.6591, 2.4468 0.3273 0.6763, 2.4468 0.3277 0.6797, 2.4468 0.335 0.6988, 2.4468 0.3439 0.7115, 2.4468 0.3469 0.7158, 2.4468 0.3616 0.7289, 2.4468 0.3806 0.739, 2.4468 0.4017 0.744, 2.4468 0.4106 0.7445, 2.4468 0.4306 0.742, 2.4468 0.4497 0.735, 2.4468 0.4558 0.7316, 2.4468 0.4689 0.7587, 2.4468 0.488 0.7815, 2.4468 0.5109 0.7983, 2.4468 0.5388 0.8096, 2.4468 0.5702 0.8136, 2.4468 0.6898 0.7069, 2.4468 0.6888 0.7115, 2.4468 0.6846 0.7307, 2.4468 0.6714 0.7582, 2.4468 0.6521 0.7812, 2.4468 0.65 0.7832, 2.4468 0.626 0.7998, 2.4468 0.5992 0.8101, 2.4468 0.6966 0.7069, 2.4468 0.7129 0.7049, 2.4468 0.7278 0.6991, 2.4468 0.741 0.6899, 2.4468 0.7509 0.6789, 2.4468 0.7523 0.6763, 2.4468 0.7588 0.6642, 2.4468 0.7628 0.6478, 2.4468 0.7632 0.6403, 2.4468 0.7612 0.6236, 2.4468 0.7553 0.6084, 2.4468 0.7459 0.5951, 2.4468 0.7448 0.5939, 2.4468 0.7322 0.5836, 2.4468 0.7171 0.5766, 2.4468 0.7018 0.5737, 2.4468 0.6633 0.5737, 2.4468 0.6616 0.5739, 2.4468 0.659 0.5745, 2.4468 0.6582 0.5745, 2.4468 0.6516 0.5737, 2.4468 0.6457 0.5714, 2.4468 0.6405 0.5676, 2.4468 0.6369 0.5638, 2.4468 0.6337 0.5579, 2.4468 0.6319 0.5514, 2.4468 0.6317 0.5481, 2.4468 0.6325 0.5417, 2.4468 0.6348 0.5359, 2.4468 0.6385 0.5305, 2.4468 0.6405 0.5285, 2.4468 0.646 0.5246, 2.4468 0.6517 0.5224, 2.4468 0.6565 0.5216, 2.4468 0.7069 0.5216, 2.4468 0.7353 0.5276, 2.4468 0.7613 0.5403, 2.4468 0.7846 0.56, 2.4468 0.8015 0.5836, 2.4468 0.8123 0.6107, 2.4468 0.4558 0.5831, 2.4468 0.4618 0.5825, 2.4468 0.4699 0.5799, 2.4468 0.4769 0.5755, 2.4468 0.4826 0.5696, 2.4468 0.4865 0.5627, 2.4468 0.4887 0.5549, 2.4468 0.489 0.5466, 2.4468 0.4871 0.5383, 2.4468 0.4833 0.5309, 2.4468 0.4781 0.525, 2.4468 0.4716 0.5204, 2.4468 0.4642 0.5175, 2.4468 0.4558 0.5165, 2.4468 0.4544 0.5165, 2.4468 0.4467 0.5177, 2.4468 0.439 0.5211, 2.4468 0.4324 0.5261, 2.4468 0.4277 0.5319, 2.4468 0.4243 0.5391, 2.4468 0.4226 0.5471, 2.4468 0.423 0.5554, 2.4468 0.4255 0.5635, 2.4468 0.4298 0.5706, 2.4468 0.4334 0.5744, 2.4468 0.4401 0.5791, 2.4468 0.4475 0.582
            ]
        }
        coordIndex [
            0,1,2,-1,3,4,5,-1,6,7,8,-1,9,10,11,-1,12,11,13,-1,13,11,14,-1,2,1,15,-1,16,17,18,-1,18,17,19,-1,18,19,20,-1,20,19,21,-1,20,21,5,-1,5,21,22,-1,5,22,3,-1,23,24,19,-1,19,24,25,-1,19,25,21,-1,21,25,26,-1,21,26,27,-1,28,9,29,-1,29,9,11,-1,29,11,30,-1,30,11,12,-1,31,32,33,-1,33,32,34,-1,33,34,35,-1,35,34,36,-1,35,36,37,-1,37,36,38,-1,6,8,39,-1,39,8,40,-1,39,40,41,-1,41,40,42,-1,41,42,43,-1,1,44,15,-1,15,44,45,-1,15,45,46,-1,46,45,47,-1,46,47,6,-1,6,47,48,-1,6,48,7,-1,27,49,21,-1,21,49,50,-1,21,50,51,-1,51,50,52,-1,51,52,53,-1,53,52,54,-1,53,54,55,-1,55,54,56,-1,55,56,57,-1,57,56,58,-1,57,58,59,-1,59,58,60,-1,59,60,29,-1,29,60,61,-1,29,61,28,-1,62,63,64,-1,64,63,65,-1,64,65,66,-1,66,65,67,-1,66,67,68,-1,68,67,69,-1,68,69,70,-1,70,69,71,-1,70,71,72,-1,36,73,38,-1,38,73,74,-1,38,74,75,-1,75,74,76,-1,75,76,77,-1,77,76,78,-1,77,78,79,-1,79,78,80,-1,79,80,81,-1,81,80,82,-1,81,82,83,-1,83,82,84,-1,83,84,62,-1,62,84,85,-1,62,85,63,-1,86,87,88,-1,88,87,89,-1,88,89,33,-1,33,89,90,-1,33,90,31,-1,91,92,93,-1,93,92,94,-1,93,94,95,-1,95,94,96,-1,95,96,97,-1,97,96,98,-1,97,98,99,-1,99,98,100,-1,99,100,14,-1,14,100,101,-1,14,101,13,-1,10,102,11,-1,11,102,103,-1,11,103,104,-1,104,103,105,-1,104,105,106,-1,106,105,107,-1,106,107,108,-1,108,107,109,-1,108,109,110,-1,110,109,111,-1,110,111,112,-1,112,111,113,-1,112,113,114,-1,114,113,115,-1,114,115,116,-1,116,115,117,-1,116,117,118,-1,118,117,119,-1,118,119,19,-1,19,119,120,-1,19,120,23,-1,43,42,121,-1,121,42,122,-1,121,122,123,-1,123,122,124,-1,123,124,125,-1,125,124,126,-1,125,126,127,-1,127,126,128,-1,127,128,86,-1,86,128,129,-1,86,129,87,-1,2,130,0,-1,0,130,131,-1,0,131,132,-1,132,131,133,-1,132,133,134,-1,134,133,135,-1,134,135,91,-1,91,135,136,-1,91,136,92,-1,137,138,139,-1,71,140,72,-1,72,140,137,-1,72,137,141,-1,141,137,139,-1,142,143,137,-1,137,143,144,-1,137,144,138,-1,145,146,147,-1,146,148,147,-1,147,148,149,-1,147,149,150,-1,142,137,147,-1,147,137,151,-1,147,151,145,-1,79,152,153,-1,79,153,77,-1,77,153,154,-1,77,154,75,-1,154,155,75,-1,75,155,156,-1,75,156,38,-1,156,157,38,-1,38,157,158,-1,38,158,37,-1,37,158,159,-1,37,159,35,-1,35,159,160,-1,35,160,33,-1,33,160,161,-1,33,161,88,-1,88,161,162,-1,88,162,86,-1,86,162,163,-1,86,163,127,-1,163,164,127,-1,127,164,165,-1,127,165,125,-1,125,165,166,-1,125,166,123,-1,167,41,168,-1,168,41,43,-1,168,43,169,-1,169,43,121,-1,169,121,170,-1,170,121,123,-1,170,123,166,-1,41,167,171,-1,41,171,39,-1,39,171,172,-1,39,172,6,-1,6,172,173,-1,6,173,46,-1,46,173,174,-1,46,174,15,-1,15,174,175,-1,15,175,2,-1,2,175,176,-1,2,176,130,-1,130,176,177,-1,130,177,131,-1,131,177,178,-1,131,178,133,-1,179,94,92,-1,133,178,180,-1,133,180,135,-1,135,180,181,-1,135,181,136,-1,181,182,136,-1,136,182,183,-1,136,183,92,-1,92,183,184,-1,92,184,179,-1,94,179,185,-1,94,185,96,-1,96,185,186,-1,96,186,98,-1,98,186,187,-1,98,187,100,-1,100,187,188,-1,100,188,101,-1,101,188,189,-1,101,189,13,-1,13,189,190,-1,13,190,12,-1,12,190,191,-1,12,191,30,-1,191,192,30,-1,30,192,193,-1,30,193,29,-1,29,193,194,-1,29,194,59,-1,59,194,195,-1,59,195,57,-1,195,196,57,-1,57,196,197,-1,57,197,55,-1,55,197,198,-1,55,198,53,-1,199,20,5,-1,53,198,200,-1,53,200,51,-1,51,200,201,-1,51,201,21,-1,201,202,21,-1,21,202,203,-1,21,203,22,-1,22,203,204,-1,22,204,3,-1,3,204,205,-1,3,205,4,-1,4,205,206,-1,4,206,5,-1,5,206,207,-1,5,207,199,-1,18,20,208,-1,208,20,199,-1,16,18,209,-1,209,18,208,-1,17,16,210,-1,210,16,209,-1,19,17,211,-1,211,17,210,-1,19,211,212,-1,19,212,118,-1,118,212,213,-1,118,213,116,-1,116,213,214,-1,116,214,114,-1,114,214,215,-1,114,215,112,-1,112,215,216,-1,112,216,110,-1,110,216,217,-1,110,217,108,-1,108,217,218,-1,108,218,106,-1,106,218,219,-1,106,219,104,-1,104,219,220,-1,104,220,11,-1,11,220,221,-1,11,221,14,-1,14,221,222,-1,14,222,99,-1,99,222,223,-1,99,223,97,-1,97,223,224,-1,97,224,95,-1,95,224,225,-1,95,225,93,-1,91,93,226,-1,226,93,225,-1,226,227,91,-1,91,227,228,-1,91,228,134,-1,134,228,229,-1,134,229,132,-1,229,230,132,-1,132,230,231,-1,132,231,0,-1,0,231,232,-1,0,232,1,-1,1,232,233,-1,1,233,44,-1,44,233,234,-1,44,234,45,-1,45,234,235,-1,45,235,47,-1,47,235,236,-1,47,236,48,-1,48,236,237,-1,48,237,7,-1,7,237,238,-1,7,238,8,-1,8,238,239,-1,8,239,40,-1,40,239,240,-1,40,240,42,-1,42,240,241,-1,42,241,122,-1,122,241,242,-1,122,242,124,-1,243,31,244,-1,244,31,90,-1,244,90,245,-1,245,90,89,-1,245,89,246,-1,246,89,87,-1,246,87,247,-1,247,87,129,-1,247,129,248,-1,248,129,128,-1,248,128,249,-1,249,128,126,-1,249,126,250,-1,250,126,124,-1,250,124,242,-1,32,31,251,-1,251,31,243,-1,32,251,252,-1,32,252,34,-1,34,252,253,-1,34,253,36,-1,36,253,254,-1,36,254,73,-1,73,254,255,-1,73,255,74,-1,74,255,256,-1,74,256,76,-1,256,257,76,-1,76,257,258,-1,76,258,78,-1,78,258,259,-1,78,259,80,-1,80,259,260,-1,80,260,82,-1,82,260,261,-1,82,261,84,-1,84,261,262,-1,84,262,85,-1,85,262,263,-1,85,263,63,-1,63,263,264,-1,63,264,65,-1,65,264,265,-1,65,265,67,-1,67,265,266,-1,67,266,69,-1,71,69,267,-1,267,69,266,-1,71,267,268,-1,71,268,140,-1,140,268,269,-1,140,269,137,-1,137,269,270,-1,137,270,151,-1,151,270,271,-1,151,271,145,-1,145,271,272,-1,145,272,146,-1,146,272,273,-1,146,273,148,-1,148,273,274,-1,148,274,149,-1,149,274,275,-1,149,275,150,-1,150,275,276,-1,150,276,147,-1,147,276,277,-1,147,277,142,-1,142,277,278,-1,142,278,143,-1,143,278,279,-1,143,279,144,-1,144,279,280,-1,144,280,138,-1,138,280,281,-1,138,281,139,-1,139,281,282,-1,139,282,141,-1,141,282,283,-1,141,283,72,-1,72,283,284,-1,72,284,70,-1,68,70,285,-1,285,70,284,-1,68,285,286,-1,68,286,66,-1,66,286,287,-1,66,287,64,-1,64,287,288,-1,64,288,62,-1,62,288,289,-1,62,289,83,-1,83,289,290,-1,83,290,81,-1,81,290,152,-1,81,152,79,-1,113,291,292,-1,113,292,115,-1,115,292,293,-1,115,293,117,-1,117,293,294,-1,117,294,119,-1,119,294,295,-1,119,295,120,-1,120,295,296,-1,120,296,23,-1,23,296,297,-1,23,297,24,-1,24,297,298,-1,24,298,25,-1,25,298,299,-1,25,299,26,-1,26,299,300,-1,26,300,27,-1,27,300,301,-1,27,301,49,-1,49,301,302,-1,49,302,50,-1,50,302,303,-1,50,303,52,-1,52,303,304,-1,52,304,54,-1,54,304,305,-1,54,305,56,-1,56,305,306,-1,56,306,58,-1,58,306,307,-1,58,307,60,-1,60,307,308,-1,60,308,61,-1,61,308,309,-1,61,309,28,-1,28,309,310,-1,28,310,9,-1,9,310,311,-1,9,311,10,-1,10,311,312,-1,10,312,102,-1,102,312,313,-1,102,313,103,-1,103,313,314,-1,103,314,105,-1,105,314,315,-1,105,315,107,-1,107,315,316,-1,107,316,109,-1,109,316,317,-1,109,317,111,-1,111,317,291,-1,111,291,113,-1,
        ]
    }
}
Shape{
    appearance Appearance {
        material  Material 	{
            diffuseColor 1.0 1.0 1.0
            specularColor 0.5019607843137255 0.5019607843137255 0.5019607843137255
            ambientIntensity 1.0
            transparency 0.0
            shininess 0.5
        }
    }
    geometry IndexedFaceSet {
        ccw TRUE
        solid FALSE
        coord DEF co Coordinate {
            point [
                2.4468 0.4544 0.5165, 2.4468 0.4334 0.5744, 2.4468 0.4298 0.5706, 2.4468 0.4642 0.5175, 2.4468 0.4716 0.5204, 2.4468 0.4618 0.5825, 2.4468 0.4558 0.5831, 2.4468 0.4475 0.582, 2.4468 0.4401 0.5791, 2.4468 0.4243 0.5391, 2.4468 0.4277 0.5319, 2.4468 0.4324 0.5261, 2.4468 0.4558 0.5165, 2.4468 0.4865 0.5627, 2.4468 0.4826 0.5696, 2.4468 0.4833 0.5309, 2.4468 0.4769 0.5755, 2.4468 0.4255 0.5635, 2.4468 0.423 0.5554, 2.4468 0.4226 0.5471, 2.4468 0.439 0.5211, 2.4468 0.4467 0.5177, 2.4468 0.4781 0.525, 2.4468 0.4699 0.5799, 2.4468 0.4871 0.5383, 2.4468 0.489 0.5466, 2.4468 0.4887 0.5549
            ]
        }
        coordIndex [
            0,1,2,-1,3,4,5,-1,6,7,0,-1,0,7,8,-1,0,8,1,-1,9,10,2,-1,2,10,11,-1,6,0,5,-1,5,0,12,-1,5,12,3,-1,13,14,15,-1,15,14,16,-1,17,18,2,-1,2,18,19,-1,2,19,9,-1,11,20,2,-1,2,20,21,-1,2,21,0,-1,4,22,5,-1,5,22,15,-1,5,15,23,-1,23,15,16,-1,24,25,15,-1,15,25,26,-1,15,26,13,-1,
        ]
    }
}